<svg width="311" height="311" viewBox="0 0 311 311" fill="none" xmlns="http://www.w3.org/2000/svg">
<g opacity="0.5">
<path d="M30.2251 2.50806C30.2251 3.06035 30.6728 3.50806 31.2251 3.50806C31.7774 3.50806 32.2251 3.06035 32.2251 2.50806H30.2251ZM32.2251 7.52419C32.2251 6.97191 31.7774 6.52419 31.2251 6.52419C30.6728 6.52419 30.2251 6.97191 30.2251 7.52419H32.2251ZM30.2251 12.5403C30.2251 13.0926 30.6728 13.5403 31.2251 13.5403C31.7774 13.5403 32.2251 13.0926 32.2251 12.5403H30.2251ZM32.2251 17.5565C32.2251 17.0042 31.7774 16.5565 31.2251 16.5565C30.6728 16.5565 30.2251 17.0042 30.2251 17.5565H32.2251ZM30.2251 22.5726C30.2251 23.1249 30.6728 23.5726 31.2251 23.5726C31.7774 23.5726 32.2251 23.1249 32.2251 22.5726H30.2251ZM32.2251 27.5887C32.2251 27.0364 31.7774 26.5887 31.2251 26.5887C30.6728 26.5887 30.2251 27.0364 30.2251 27.5887H32.2251ZM30.2251 32.6048C30.2251 33.1571 30.6728 33.6048 31.2251 33.6048C31.7774 33.6048 32.2251 33.1571 32.2251 32.6048H30.2251ZM32.2251 37.621C32.2251 37.0687 31.7774 36.621 31.2251 36.621C30.6728 36.621 30.2251 37.0687 30.2251 37.621H32.2251ZM30.2251 42.6371C30.2251 43.1894 30.6728 43.6371 31.2251 43.6371C31.7774 43.6371 32.2251 43.1894 32.2251 42.6371H30.2251ZM32.2251 47.6532C32.2251 47.1009 31.7774 46.6532 31.2251 46.6532C30.6728 46.6532 30.2251 47.1009 30.2251 47.6532H32.2251ZM30.2251 52.6694C30.2251 53.2216 30.6728 53.6694 31.2251 53.6694C31.7774 53.6694 32.2251 53.2216 32.2251 52.6694H30.2251ZM32.2251 57.6855C32.2251 57.1332 31.7774 56.6855 31.2251 56.6855C30.6728 56.6855 30.2251 57.1332 30.2251 57.6855H32.2251ZM30.2251 62.7016C30.2251 63.2539 30.6728 63.7016 31.2251 63.7016C31.7774 63.7016 32.2251 63.2539 32.2251 62.7016H30.2251ZM32.2251 67.7177C32.2251 67.1655 31.7774 66.7177 31.2251 66.7177C30.6728 66.7177 30.2251 67.1655 30.2251 67.7177H32.2251ZM30.2251 72.7339C30.2251 73.2862 30.6728 73.7339 31.2251 73.7339C31.7774 73.7339 32.2251 73.2862 32.2251 72.7339H30.2251ZM32.2251 77.75C32.2251 77.1977 31.7774 76.75 31.2251 76.75C30.6728 76.75 30.2251 77.1977 30.2251 77.75H32.2251ZM30.2251 82.7661C30.2251 83.3184 30.6728 83.7661 31.2251 83.7661C31.7774 83.7661 32.2251 83.3184 32.2251 82.7661H30.2251ZM32.2251 87.7823C32.2251 87.23 31.7774 86.7823 31.2251 86.7823C30.6728 86.7823 30.2251 87.23 30.2251 87.7823H32.2251ZM30.2251 92.7984C30.2251 93.3507 30.6728 93.7984 31.2251 93.7984C31.7774 93.7984 32.2251 93.3507 32.2251 92.7984H30.2251ZM32.2251 97.8145C32.2251 97.2622 31.7774 96.8145 31.2251 96.8145C30.6728 96.8145 30.2251 97.2622 30.2251 97.8145H32.2251ZM30.2251 102.831C30.2251 103.383 30.6728 103.831 31.2251 103.831C31.7774 103.831 32.2251 103.383 32.2251 102.831H30.2251ZM32.2251 107.847C32.2251 107.294 31.7774 106.847 31.2251 106.847C30.6728 106.847 30.2251 107.294 30.2251 107.847H32.2251ZM30.2251 112.863C30.2251 113.415 30.6728 113.863 31.2251 113.863C31.7774 113.863 32.2251 113.415 32.2251 112.863H30.2251ZM32.2251 117.879C32.2251 117.327 31.7774 116.879 31.2251 116.879C30.6728 116.879 30.2251 117.327 30.2251 117.879H32.2251ZM30.2251 122.895C30.2251 123.447 30.6728 123.895 31.2251 123.895C31.7774 123.895 32.2251 123.447 32.2251 122.895H30.2251ZM32.2251 127.911C32.2251 127.359 31.7774 126.911 31.2251 126.911C30.6728 126.911 30.2251 127.359 30.2251 127.911H32.2251ZM30.2251 132.927C30.2251 133.48 30.6728 133.927 31.2251 133.927C31.7774 133.927 32.2251 133.48 32.2251 132.927H30.2251ZM32.2251 137.944C32.2251 137.391 31.7774 136.944 31.2251 136.944C30.6728 136.944 30.2251 137.391 30.2251 137.944H32.2251ZM30.2251 142.96C30.2251 143.512 30.6728 143.96 31.2251 143.96C31.7774 143.96 32.2251 143.512 32.2251 142.96H30.2251ZM32.2251 147.976C32.2251 147.424 31.7774 146.976 31.2251 146.976C30.6728 146.976 30.2251 147.424 30.2251 147.976H32.2251ZM30.2251 152.992C30.2251 153.544 30.6728 153.992 31.2251 153.992C31.7774 153.992 32.2251 153.544 32.2251 152.992H30.2251ZM32.2251 158.008C32.2251 157.456 31.7774 157.008 31.2251 157.008C30.6728 157.008 30.2251 157.456 30.2251 158.008H32.2251ZM30.2251 163.024C30.2251 163.576 30.6728 164.024 31.2251 164.024C31.7774 164.024 32.2251 163.576 32.2251 163.024H30.2251ZM32.2251 168.04C32.2251 167.488 31.7774 167.04 31.2251 167.04C30.6728 167.04 30.2251 167.488 30.2251 168.04H32.2251ZM30.2251 173.056C30.2251 173.609 30.6728 174.056 31.2251 174.056C31.7774 174.056 32.2251 173.609 32.2251 173.056H30.2251ZM32.2251 178.073C32.2251 177.52 31.7774 177.073 31.2251 177.073C30.6728 177.073 30.2251 177.52 30.2251 178.073H32.2251ZM30.2251 183.089C30.2251 183.641 30.6728 184.089 31.2251 184.089C31.7774 184.089 32.2251 183.641 32.2251 183.089H30.2251ZM32.2251 188.105C32.2251 187.553 31.7774 187.105 31.2251 187.105C30.6728 187.105 30.2251 187.553 30.2251 188.105H32.2251ZM30.2251 193.121C30.2251 193.673 30.6728 194.121 31.2251 194.121C31.7774 194.121 32.2251 193.673 32.2251 193.121H30.2251ZM32.2251 198.137C32.2251 197.585 31.7774 197.137 31.2251 197.137C30.6728 197.137 30.2251 197.585 30.2251 198.137H32.2251ZM30.2251 203.153C30.2251 203.706 30.6728 204.153 31.2251 204.153C31.7774 204.153 32.2251 203.706 32.2251 203.153H30.2251ZM32.2251 208.169C32.2251 207.617 31.7774 207.169 31.2251 207.169C30.6728 207.169 30.2251 207.617 30.2251 208.169H32.2251ZM30.2251 213.185C30.2251 213.738 30.6728 214.185 31.2251 214.185C31.7774 214.185 32.2251 213.738 32.2251 213.185H30.2251ZM32.2251 218.202C32.2251 217.649 31.7774 217.202 31.2251 217.202C30.6728 217.202 30.2251 217.649 30.2251 218.202H32.2251ZM30.2251 223.218C30.2251 223.77 30.6728 224.218 31.2251 224.218C31.7774 224.218 32.2251 223.77 32.2251 223.218H30.2251ZM32.2251 228.234C32.2251 227.682 31.7774 227.234 31.2251 227.234C30.6728 227.234 30.2251 227.682 30.2251 228.234H32.2251ZM30.2251 233.25C30.2251 233.802 30.6728 234.25 31.2251 234.25C31.7774 234.25 32.2251 233.802 32.2251 233.25H30.2251ZM32.2251 238.266C32.2251 237.714 31.7774 237.266 31.2251 237.266C30.6728 237.266 30.2251 237.714 30.2251 238.266H32.2251ZM30.2251 243.282C30.2251 243.835 30.6728 244.282 31.2251 244.282C31.7774 244.282 32.2251 243.835 32.2251 243.282H30.2251ZM32.2251 248.298C32.2251 247.746 31.7774 247.298 31.2251 247.298C30.6728 247.298 30.2251 247.746 30.2251 248.298H32.2251ZM30.2251 253.314C30.2251 253.867 30.6728 254.314 31.2251 254.314C31.7774 254.314 32.2251 253.867 32.2251 253.314H30.2251ZM32.2251 258.331C32.2251 257.778 31.7774 257.331 31.2251 257.331C30.6728 257.331 30.2251 257.778 30.2251 258.331H32.2251ZM30.2251 263.347C30.2251 263.899 30.6728 264.347 31.2251 264.347C31.7774 264.347 32.2251 263.899 32.2251 263.347H30.2251ZM32.2251 268.363C32.2251 267.811 31.7774 267.363 31.2251 267.363C30.6728 267.363 30.2251 267.811 30.2251 268.363H32.2251ZM30.2251 273.379C30.2251 273.931 30.6728 274.379 31.2251 274.379C31.7774 274.379 32.2251 273.931 32.2251 273.379H30.2251ZM32.2251 278.395C32.2251 277.843 31.7774 277.395 31.2251 277.395C30.6728 277.395 30.2251 277.843 30.2251 278.395H32.2251ZM30.2251 283.411C30.2251 283.964 30.6728 284.411 31.2251 284.411C31.7774 284.411 32.2251 283.964 32.2251 283.411H30.2251ZM32.2251 288.427C32.2251 287.875 31.7774 287.427 31.2251 287.427C30.6728 287.427 30.2251 287.875 30.2251 288.427H32.2251ZM30.2251 293.444C30.2251 293.996 30.6728 294.444 31.2251 294.444C31.7774 294.444 32.2251 293.996 32.2251 293.444H30.2251ZM32.2251 298.46C32.2251 297.908 31.7774 297.46 31.2251 297.46C30.6728 297.46 30.2251 297.908 30.2251 298.46H32.2251ZM30.2251 303.476C30.2251 304.028 30.6728 304.476 31.2251 304.476C31.7774 304.476 32.2251 304.028 32.2251 303.476H30.2251ZM32.2251 308.492C32.2251 307.94 31.7774 307.492 31.2251 307.492C30.6728 307.492 30.2251 307.94 30.2251 308.492H32.2251ZM278.775 2.50806C278.775 3.06035 279.223 3.50806 279.775 3.50806C280.328 3.50806 280.775 3.06035 280.775 2.50806H278.775ZM280.775 7.52419C280.775 6.97191 280.328 6.52419 279.775 6.52419C279.223 6.52419 278.775 6.97191 278.775 7.52419H280.775ZM278.775 12.5403C278.775 13.0926 279.223 13.5403 279.775 13.5403C280.328 13.5403 280.775 13.0926 280.775 12.5403H278.775ZM280.775 17.5565C280.775 17.0042 280.328 16.5565 279.775 16.5565C279.223 16.5565 278.775 17.0042 278.775 17.5565H280.775ZM278.775 22.5726C278.775 23.1249 279.223 23.5726 279.775 23.5726C280.328 23.5726 280.775 23.1249 280.775 22.5726H278.775ZM280.775 27.5887C280.775 27.0364 280.328 26.5887 279.775 26.5887C279.223 26.5887 278.775 27.0364 278.775 27.5887H280.775ZM278.775 32.6048C278.775 33.1571 279.223 33.6048 279.775 33.6048C280.328 33.6048 280.775 33.1571 280.775 32.6048H278.775ZM280.775 37.621C280.775 37.0687 280.328 36.621 279.775 36.621C279.223 36.621 278.775 37.0687 278.775 37.621H280.775ZM278.775 42.6371C278.775 43.1894 279.223 43.6371 279.775 43.6371C280.328 43.6371 280.775 43.1894 280.775 42.6371H278.775ZM280.775 47.6532C280.775 47.1009 280.328 46.6532 279.775 46.6532C279.223 46.6532 278.775 47.1009 278.775 47.6532H280.775ZM278.775 52.6694C278.775 53.2216 279.223 53.6694 279.775 53.6694C280.328 53.6694 280.775 53.2216 280.775 52.6694H278.775ZM280.775 57.6855C280.775 57.1332 280.328 56.6855 279.775 56.6855C279.223 56.6855 278.775 57.1332 278.775 57.6855H280.775ZM278.775 62.7016C278.775 63.2539 279.223 63.7016 279.775 63.7016C280.328 63.7016 280.775 63.2539 280.775 62.7016H278.775ZM280.775 67.7177C280.775 67.1655 280.328 66.7177 279.775 66.7177C279.223 66.7177 278.775 67.1655 278.775 67.7177H280.775ZM278.775 72.7339C278.775 73.2862 279.223 73.7339 279.775 73.7339C280.328 73.7339 280.775 73.2862 280.775 72.7339H278.775ZM280.775 77.75C280.775 77.1977 280.328 76.75 279.775 76.75C279.223 76.75 278.775 77.1977 278.775 77.75H280.775ZM278.775 82.7661C278.775 83.3184 279.223 83.7661 279.775 83.7661C280.328 83.7661 280.775 83.3184 280.775 82.7661H278.775ZM280.775 87.7823C280.775 87.23 280.328 86.7823 279.775 86.7823C279.223 86.7823 278.775 87.23 278.775 87.7823H280.775ZM278.775 92.7984C278.775 93.3507 279.223 93.7984 279.775 93.7984C280.328 93.7984 280.775 93.3507 280.775 92.7984H278.775ZM280.775 97.8145C280.775 97.2622 280.328 96.8145 279.775 96.8145C279.223 96.8145 278.775 97.2622 278.775 97.8145H280.775ZM278.775 102.831C278.775 103.383 279.223 103.831 279.775 103.831C280.328 103.831 280.775 103.383 280.775 102.831H278.775ZM280.775 107.847C280.775 107.294 280.328 106.847 279.775 106.847C279.223 106.847 278.775 107.294 278.775 107.847H280.775ZM278.775 112.863C278.775 113.415 279.223 113.863 279.775 113.863C280.328 113.863 280.775 113.415 280.775 112.863H278.775ZM280.775 117.879C280.775 117.327 280.328 116.879 279.775 116.879C279.223 116.879 278.775 117.327 278.775 117.879H280.775ZM278.775 122.895C278.775 123.447 279.223 123.895 279.775 123.895C280.328 123.895 280.775 123.447 280.775 122.895H278.775ZM280.775 127.911C280.775 127.359 280.328 126.911 279.775 126.911C279.223 126.911 278.775 127.359 278.775 127.911H280.775ZM278.775 132.927C278.775 133.48 279.223 133.927 279.775 133.927C280.328 133.927 280.775 133.48 280.775 132.927H278.775ZM280.775 137.944C280.775 137.391 280.328 136.944 279.775 136.944C279.223 136.944 278.775 137.391 278.775 137.944H280.775ZM278.775 142.96C278.775 143.512 279.223 143.96 279.775 143.96C280.328 143.96 280.775 143.512 280.775 142.96H278.775ZM280.775 147.976C280.775 147.424 280.328 146.976 279.775 146.976C279.223 146.976 278.775 147.424 278.775 147.976H280.775ZM278.775 152.992C278.775 153.544 279.223 153.992 279.775 153.992C280.328 153.992 280.775 153.544 280.775 152.992H278.775ZM280.775 158.008C280.775 157.456 280.328 157.008 279.775 157.008C279.223 157.008 278.775 157.456 278.775 158.008H280.775ZM278.775 163.024C278.775 163.576 279.223 164.024 279.775 164.024C280.328 164.024 280.775 163.576 280.775 163.024H278.775ZM280.775 168.04C280.775 167.488 280.328 167.04 279.775 167.04C279.223 167.04 278.775 167.488 278.775 168.04H280.775ZM278.775 173.056C278.775 173.609 279.223 174.056 279.775 174.056C280.328 174.056 280.775 173.609 280.775 173.056H278.775ZM280.775 178.073C280.775 177.52 280.328 177.073 279.775 177.073C279.223 177.073 278.775 177.52 278.775 178.073H280.775ZM278.775 183.089C278.775 183.641 279.223 184.089 279.775 184.089C280.328 184.089 280.775 183.641 280.775 183.089H278.775ZM280.775 188.105C280.775 187.553 280.328 187.105 279.775 187.105C279.223 187.105 278.775 187.553 278.775 188.105H280.775ZM278.775 193.121C278.775 193.673 279.223 194.121 279.775 194.121C280.328 194.121 280.775 193.673 280.775 193.121H278.775ZM280.775 198.137C280.775 197.585 280.328 197.137 279.775 197.137C279.223 197.137 278.775 197.585 278.775 198.137H280.775ZM278.775 203.153C278.775 203.706 279.223 204.153 279.775 204.153C280.328 204.153 280.775 203.706 280.775 203.153H278.775ZM280.775 208.169C280.775 207.617 280.328 207.169 279.775 207.169C279.223 207.169 278.775 207.617 278.775 208.169H280.775ZM278.775 213.185C278.775 213.738 279.223 214.185 279.775 214.185C280.328 214.185 280.775 213.738 280.775 213.185H278.775ZM280.775 218.202C280.775 217.649 280.328 217.202 279.775 217.202C279.223 217.202 278.775 217.649 278.775 218.202H280.775ZM278.775 223.218C278.775 223.77 279.223 224.218 279.775 224.218C280.328 224.218 280.775 223.77 280.775 223.218H278.775ZM280.775 228.234C280.775 227.682 280.328 227.234 279.775 227.234C279.223 227.234 278.775 227.682 278.775 228.234H280.775ZM278.775 233.25C278.775 233.802 279.223 234.25 279.775 234.25C280.328 234.25 280.775 233.802 280.775 233.25H278.775ZM280.775 238.266C280.775 237.714 280.328 237.266 279.775 237.266C279.223 237.266 278.775 237.714 278.775 238.266H280.775ZM278.775 243.282C278.775 243.835 279.223 244.282 279.775 244.282C280.328 244.282 280.775 243.835 280.775 243.282H278.775ZM280.775 248.298C280.775 247.746 280.328 247.298 279.775 247.298C279.223 247.298 278.775 247.746 278.775 248.298H280.775ZM278.775 253.314C278.775 253.867 279.223 254.314 279.775 254.314C280.328 254.314 280.775 253.867 280.775 253.314H278.775ZM280.775 258.331C280.775 257.778 280.328 257.331 279.775 257.331C279.223 257.331 278.775 257.778 278.775 258.331H280.775ZM278.775 263.347C278.775 263.899 279.223 264.347 279.775 264.347C280.328 264.347 280.775 263.899 280.775 263.347H278.775ZM280.775 268.363C280.775 267.811 280.328 267.363 279.775 267.363C279.223 267.363 278.775 267.811 278.775 268.363H280.775ZM278.775 273.379C278.775 273.931 279.223 274.379 279.775 274.379C280.328 274.379 280.775 273.931 280.775 273.379H278.775ZM280.775 278.395C280.775 277.843 280.328 277.395 279.775 277.395C279.223 277.395 278.775 277.843 278.775 278.395H280.775ZM278.775 283.411C278.775 283.964 279.223 284.411 279.775 284.411C280.328 284.411 280.775 283.964 280.775 283.411H278.775ZM280.775 288.427C280.775 287.875 280.328 287.427 279.775 287.427C279.223 287.427 278.775 287.875 278.775 288.427H280.775ZM278.775 293.444C278.775 293.996 279.223 294.444 279.775 294.444C280.328 294.444 280.775 293.996 280.775 293.444H278.775ZM280.775 298.46C280.775 297.908 280.328 297.46 279.775 297.46C279.223 297.46 278.775 297.908 278.775 298.46H280.775ZM278.775 303.476C278.775 304.028 279.223 304.476 279.775 304.476C280.328 304.476 280.775 304.028 280.775 303.476H278.775ZM280.775 308.492C280.775 307.94 280.328 307.492 279.775 307.492C279.223 307.492 278.775 307.94 278.775 308.492H280.775ZM30.2251 0V2.50806H32.2251V0H30.2251ZM30.2251 7.52419V12.5403H32.2251V7.52419H30.2251ZM30.2251 17.5565V22.5726H32.2251V17.5565H30.2251ZM30.2251 27.5887V32.6048H32.2251V27.5887H30.2251ZM30.2251 37.621V42.6371H32.2251V37.621H30.2251ZM30.2251 47.6532V52.6694H32.2251V47.6532H30.2251ZM30.2251 57.6855V62.7016H32.2251V57.6855H30.2251ZM30.2251 67.7177V72.7339H32.2251V67.7177H30.2251ZM30.2251 77.75V82.7661H32.2251V77.75H30.2251ZM30.2251 87.7823V92.7984H32.2251V87.7823H30.2251ZM30.2251 97.8145V102.831H32.2251V97.8145H30.2251ZM30.2251 107.847V112.863H32.2251V107.847H30.2251ZM30.2251 117.879V122.895H32.2251V117.879H30.2251ZM30.2251 127.911V132.927H32.2251V127.911H30.2251ZM30.2251 137.944V142.96H32.2251V137.944H30.2251ZM30.2251 147.976V152.992H32.2251V147.976H30.2251ZM30.2251 158.008V163.024H32.2251V158.008H30.2251ZM30.2251 168.04V173.056H32.2251V168.04H30.2251ZM30.2251 178.073V183.089H32.2251V178.073H30.2251ZM30.2251 188.105V193.121H32.2251V188.105H30.2251ZM30.2251 198.137V203.153H32.2251V198.137H30.2251ZM30.2251 208.169V213.185H32.2251V208.169H30.2251ZM30.2251 218.202V223.218H32.2251V218.202H30.2251ZM30.2251 228.234V233.25H32.2251V228.234H30.2251ZM30.2251 238.266V243.282H32.2251V238.266H30.2251ZM30.2251 248.298V253.314H32.2251V248.298H30.2251ZM30.2251 258.331V263.347H32.2251V258.331H30.2251ZM30.2251 268.363V273.379H32.2251V268.363H30.2251ZM30.2251 278.395V283.411H32.2251V278.395H30.2251ZM30.2251 288.427V293.444H32.2251V288.427H30.2251ZM30.2251 298.46V303.476H32.2251V298.46H30.2251ZM30.2251 308.492V311H32.2251V308.492H30.2251ZM278.775 0V2.50806H280.775V0H278.775ZM278.775 7.52419V12.5403H280.775V7.52419H278.775ZM278.775 17.5565V22.5726H280.775V17.5565H278.775ZM278.775 27.5887V32.6048H280.775V27.5887H278.775ZM278.775 37.621V42.6371H280.775V37.621H278.775ZM278.775 47.6532V52.6694H280.775V47.6532H278.775ZM278.775 57.6855V62.7016H280.775V57.6855H278.775ZM278.775 67.7177V72.7339H280.775V67.7177H278.775ZM278.775 77.75V82.7661H280.775V77.75H278.775ZM278.775 87.7823V92.7984H280.775V87.7823H278.775ZM278.775 97.8145V102.831H280.775V97.8145H278.775ZM278.775 107.847V112.863H280.775V107.847H278.775ZM278.775 117.879V122.895H280.775V117.879H278.775ZM278.775 127.911V132.927H280.775V127.911H278.775ZM278.775 137.944V142.96H280.775V137.944H278.775ZM278.775 147.976V152.992H280.775V147.976H278.775ZM278.775 158.008V163.024H280.775V158.008H278.775ZM278.775 168.04V173.056H280.775V168.04H278.775ZM278.775 178.073V183.089H280.775V178.073H278.775ZM278.775 188.105V193.121H280.775V188.105H278.775ZM278.775 198.137V203.153H280.775V198.137H278.775ZM278.775 208.169V213.185H280.775V208.169H278.775ZM278.775 218.202V223.218H280.775V218.202H278.775ZM278.775 228.234V233.25H280.775V228.234H278.775ZM278.775 238.266V243.282H280.775V238.266H278.775ZM278.775 248.298V253.314H280.775V248.298H278.775ZM278.775 258.331V263.347H280.775V258.331H278.775ZM278.775 268.363V273.379H280.775V268.363H278.775ZM278.775 278.395V283.411H280.775V278.395H278.775ZM278.775 288.427V293.444H280.775V288.427H278.775ZM278.775 298.46V303.476H280.775V298.46H278.775ZM278.775 308.492V311H280.775V308.492H278.775Z" fill="url(#paint0_linear_410_6790)"/>
<path d="M308.492 30.2249C307.94 30.2249 307.492 30.6726 307.492 31.2249C307.492 31.7772 307.94 32.2249 308.492 32.2249L308.492 30.2249ZM303.476 32.2249C304.028 32.2249 304.476 31.7772 304.476 31.2249C304.476 30.6726 304.028 30.2249 303.476 30.2249L303.476 32.2249ZM298.46 30.2249C297.907 30.2249 297.46 30.6726 297.46 31.2249C297.46 31.7772 297.907 32.2249 298.46 32.2249L298.46 30.2249ZM293.444 32.2249C293.996 32.2249 294.444 31.7772 294.444 31.2249C294.444 30.6726 293.996 30.2249 293.444 30.2249L293.444 32.2249ZM288.427 30.2249C287.875 30.2249 287.427 30.6726 287.427 31.2249C287.427 31.7772 287.875 32.2249 288.427 32.2249L288.427 30.2249ZM283.411 32.2249C283.964 32.2249 284.411 31.7772 284.411 31.2249C284.411 30.6726 283.964 30.2249 283.411 30.2249L283.411 32.2249ZM278.395 30.2249C277.843 30.2249 277.395 30.6726 277.395 31.2249C277.395 31.7772 277.843 32.2249 278.395 32.2249L278.395 30.2249ZM273.379 32.2249C273.931 32.2249 274.379 31.7772 274.379 31.2249C274.379 30.6726 273.931 30.2249 273.379 30.2249L273.379 32.2249ZM268.363 30.2249C267.811 30.2249 267.363 30.6726 267.363 31.2249C267.363 31.7772 267.811 32.2249 268.363 32.2249L268.363 30.2249ZM263.347 32.2249C263.899 32.2249 264.347 31.7772 264.347 31.2249C264.347 30.6726 263.899 30.2249 263.347 30.2249L263.347 32.2249ZM258.331 30.2249C257.778 30.2249 257.331 30.6726 257.331 31.2249C257.331 31.7772 257.778 32.2249 258.331 32.2249L258.331 30.2249ZM253.315 32.2249C253.867 32.2249 254.315 31.7772 254.315 31.2249C254.315 30.6726 253.867 30.2249 253.315 30.2249L253.315 32.2249ZM248.298 30.2249C247.746 30.2249 247.298 30.6726 247.298 31.2249C247.298 31.7772 247.746 32.2249 248.298 32.2249L248.298 30.2249ZM243.282 32.2249C243.835 32.2249 244.282 31.7772 244.282 31.2249C244.282 30.6726 243.835 30.2249 243.282 30.2249L243.282 32.2249ZM238.266 30.2249C237.714 30.2249 237.266 30.6726 237.266 31.2249C237.266 31.7772 237.714 32.2249 238.266 32.2249L238.266 30.2249ZM233.25 32.2249C233.802 32.2249 234.25 31.7772 234.25 31.2249C234.25 30.6726 233.802 30.2249 233.25 30.2249L233.25 32.2249ZM228.234 30.2249C227.682 30.2249 227.234 30.6726 227.234 31.2249C227.234 31.7772 227.682 32.2249 228.234 32.2249L228.234 30.2249ZM223.218 32.2249C223.77 32.2249 224.218 31.7772 224.218 31.2249C224.218 30.6726 223.77 30.2249 223.218 30.2249L223.218 32.2249ZM218.202 30.2249C217.649 30.2249 217.202 30.6726 217.202 31.2249C217.202 31.7772 217.649 32.2249 218.202 32.2249L218.202 30.2249ZM213.185 32.2249C213.738 32.2249 214.185 31.7772 214.185 31.2249C214.185 30.6726 213.738 30.2249 213.185 30.2249L213.185 32.2249ZM208.169 30.2249C207.617 30.2249 207.169 30.6726 207.169 31.2249C207.169 31.7772 207.617 32.2249 208.169 32.2249L208.169 30.2249ZM203.153 32.2249C203.706 32.2249 204.153 31.7772 204.153 31.2249C204.153 30.6726 203.706 30.2249 203.153 30.2249L203.153 32.2249ZM198.137 30.2249C197.585 30.2249 197.137 30.6726 197.137 31.2249C197.137 31.7772 197.585 32.2249 198.137 32.2249L198.137 30.2249ZM193.121 32.2249C193.673 32.2249 194.121 31.7772 194.121 31.2249C194.121 30.6726 193.673 30.2249 193.121 30.2249L193.121 32.2249ZM188.105 30.2249C187.553 30.2249 187.105 30.6726 187.105 31.2249C187.105 31.7772 187.553 32.2249 188.105 32.2249L188.105 30.2249ZM183.089 32.2249C183.641 32.2249 184.089 31.7772 184.089 31.2249C184.089 30.6726 183.641 30.2249 183.089 30.2249L183.089 32.2249ZM178.073 30.2249C177.52 30.2249 177.073 30.6726 177.073 31.2249C177.073 31.7772 177.52 32.2249 178.073 32.2249L178.073 30.2249ZM173.056 32.2249C173.609 32.2249 174.056 31.7772 174.056 31.2249C174.056 30.6726 173.609 30.2249 173.056 30.2249L173.056 32.2249ZM168.04 30.2249C167.488 30.2249 167.04 30.6726 167.04 31.2249C167.04 31.7772 167.488 32.2249 168.04 32.2249L168.04 30.2249ZM163.024 32.2249C163.577 32.2249 164.024 31.7772 164.024 31.2249C164.024 30.6726 163.577 30.2249 163.024 30.2249L163.024 32.2249ZM158.008 30.2249C157.456 30.2249 157.008 30.6726 157.008 31.2249C157.008 31.7772 157.456 32.2249 158.008 32.2249L158.008 30.2249ZM152.992 32.2249C153.544 32.2249 153.992 31.7772 153.992 31.2249C153.992 30.6726 153.544 30.2249 152.992 30.2249L152.992 32.2249ZM147.976 30.2249C147.424 30.2249 146.976 30.6726 146.976 31.2249C146.976 31.7772 147.424 32.2249 147.976 32.2249L147.976 30.2249ZM142.96 32.2249C143.512 32.2249 143.96 31.7772 143.96 31.2249C143.96 30.6726 143.512 30.2249 142.96 30.2249L142.96 32.2249ZM137.944 30.2249C137.391 30.2249 136.944 30.6726 136.944 31.2249C136.944 31.7772 137.391 32.2249 137.944 32.2249L137.944 30.2249ZM132.927 32.2249C133.48 32.2249 133.927 31.7772 133.927 31.2249C133.927 30.6726 133.48 30.2249 132.927 30.2249L132.927 32.2249ZM127.911 30.2249C127.359 30.2249 126.911 30.6726 126.911 31.2249C126.911 31.7772 127.359 32.2249 127.911 32.2249L127.911 30.2249ZM122.895 32.2249C123.447 32.2249 123.895 31.7772 123.895 31.2249C123.895 30.6726 123.447 30.2249 122.895 30.2249L122.895 32.2249ZM117.879 30.2249C117.327 30.2249 116.879 30.6726 116.879 31.2249C116.879 31.7772 117.327 32.2249 117.879 32.2249L117.879 30.2249ZM112.863 32.2249C113.415 32.2249 113.863 31.7772 113.863 31.2249C113.863 30.6726 113.415 30.2249 112.863 30.2249L112.863 32.2249ZM107.847 30.2249C107.295 30.2249 106.847 30.6726 106.847 31.2249C106.847 31.7772 107.295 32.2249 107.847 32.2249L107.847 30.2249ZM102.831 32.2249C103.383 32.2249 103.831 31.7772 103.831 31.2249C103.831 30.6726 103.383 30.2249 102.831 30.2249L102.831 32.2249ZM97.8145 30.2249C97.2623 30.2249 96.8145 30.6726 96.8145 31.2249C96.8145 31.7772 97.2623 32.2249 97.8145 32.2249L97.8145 30.2249ZM92.7984 32.2249C93.3507 32.2249 93.7984 31.7772 93.7984 31.2249C93.7984 30.6726 93.3507 30.2249 92.7984 30.2249L92.7984 32.2249ZM87.7823 30.2249C87.23 30.2249 86.7823 30.6726 86.7823 31.2249C86.7823 31.7772 87.23 32.2249 87.7823 32.2249L87.7823 30.2249ZM82.7662 32.2249C83.3185 32.2249 83.7662 31.7772 83.7662 31.2249C83.7662 30.6726 83.3185 30.2249 82.7662 30.2249L82.7662 32.2249ZM77.75 30.2249C77.1977 30.2249 76.75 30.6726 76.75 31.2249C76.75 31.7772 77.1977 32.2249 77.75 32.2249L77.75 30.2249ZM72.7339 32.2249C73.2862 32.2249 73.7339 31.7772 73.7339 31.2249C73.7339 30.6726 73.2862 30.2249 72.7339 30.2249L72.7339 32.2249ZM67.7178 30.2249C67.1655 30.2249 66.7178 30.6726 66.7178 31.2249C66.7178 31.7772 67.1655 32.2249 67.7178 32.2249L67.7178 30.2249ZM62.7017 32.2249C63.2539 32.2249 63.7017 31.7772 63.7017 31.2249C63.7017 30.6726 63.2539 30.2249 62.7017 30.2249L62.7017 32.2249ZM57.6855 30.2249C57.1332 30.2249 56.6855 30.6726 56.6855 31.2249C56.6855 31.7772 57.1332 32.2249 57.6855 32.2249L57.6855 30.2249ZM52.6694 32.2249C53.2216 32.2249 53.6694 31.7772 53.6694 31.2249C53.6694 30.6726 53.2216 30.2249 52.6694 30.2249L52.6694 32.2249ZM47.6533 30.2249C47.101 30.2249 46.6533 30.6726 46.6533 31.2249C46.6533 31.7772 47.101 32.2249 47.6533 32.2249L47.6533 30.2249ZM42.6371 32.2249C43.1894 32.2249 43.6371 31.7772 43.6371 31.2249C43.6371 30.6726 43.1894 30.2249 42.6371 30.2249L42.6371 32.2249ZM37.621 30.2249C37.0688 30.2249 36.621 30.6726 36.621 31.2249C36.621 31.7772 37.0688 32.2249 37.621 32.2249L37.621 30.2249ZM32.6049 32.2249C33.1572 32.2249 33.6049 31.7772 33.6049 31.2249C33.6049 30.6726 33.1572 30.2249 32.6049 30.2249L32.6049 32.2249ZM27.5888 30.2249C27.0365 30.2249 26.5888 30.6726 26.5888 31.2249C26.5888 31.7772 27.0365 32.2249 27.5888 32.2249L27.5888 30.2249ZM22.5727 32.2249C23.125 32.2249 23.5727 31.7772 23.5727 31.2249C23.5727 30.6726 23.125 30.2249 22.5727 30.2249L22.5727 32.2249ZM17.5566 30.2249C17.0043 30.2249 16.5566 30.6726 16.5566 31.2249C16.5566 31.7772 17.0043 32.2249 17.5566 32.2249L17.5566 30.2249ZM12.5405 32.2249C13.0928 32.2249 13.5405 31.7772 13.5405 31.2249C13.5405 30.6726 13.0928 30.2249 12.5405 30.2249L12.5405 32.2249ZM7.52435 30.2249C6.97208 30.2249 6.52435 30.6726 6.52435 31.2249C6.52435 31.7772 6.97208 32.2249 7.52435 32.2249L7.52435 30.2249ZM2.50824 32.2249C3.06055 32.2249 3.50824 31.7772 3.50824 31.2249C3.50824 30.6726 3.06055 30.2249 2.50824 30.2249L2.50824 32.2249ZM308.492 278.775C307.94 278.775 307.492 279.223 307.492 279.775C307.492 280.327 307.94 280.775 308.492 280.775L308.492 278.775ZM303.476 280.775C304.028 280.775 304.476 280.327 304.476 279.775C304.476 279.223 304.028 278.775 303.476 278.775L303.476 280.775ZM298.46 278.775C297.907 278.775 297.46 279.223 297.46 279.775C297.46 280.327 297.907 280.775 298.46 280.775L298.46 278.775ZM293.444 280.775C293.996 280.775 294.444 280.327 294.444 279.775C294.444 279.223 293.996 278.775 293.444 278.775L293.444 280.775ZM288.427 278.775C287.875 278.775 287.427 279.223 287.427 279.775C287.427 280.327 287.875 280.775 288.427 280.775L288.427 278.775ZM283.411 280.775C283.964 280.775 284.411 280.327 284.411 279.775C284.411 279.223 283.964 278.775 283.411 278.775L283.411 280.775ZM278.395 278.775C277.843 278.775 277.395 279.223 277.395 279.775C277.395 280.327 277.843 280.775 278.395 280.775L278.395 278.775ZM273.379 280.775C273.931 280.775 274.379 280.327 274.379 279.775C274.379 279.223 273.931 278.775 273.379 278.775L273.379 280.775ZM268.363 278.775C267.811 278.775 267.363 279.223 267.363 279.775C267.363 280.327 267.811 280.775 268.363 280.775L268.363 278.775ZM263.347 280.775C263.899 280.775 264.347 280.327 264.347 279.775C264.347 279.223 263.899 278.775 263.347 278.775L263.347 280.775ZM258.331 278.775C257.778 278.775 257.331 279.223 257.331 279.775C257.331 280.327 257.778 280.775 258.331 280.775L258.331 278.775ZM253.315 280.775C253.867 280.775 254.315 280.327 254.315 279.775C254.315 279.223 253.867 278.775 253.315 278.775L253.315 280.775ZM248.298 278.775C247.746 278.775 247.298 279.223 247.298 279.775C247.298 280.327 247.746 280.775 248.298 280.775L248.298 278.775ZM243.282 280.775C243.835 280.775 244.282 280.327 244.282 279.775C244.282 279.223 243.835 278.775 243.282 278.775L243.282 280.775ZM238.266 278.775C237.714 278.775 237.266 279.223 237.266 279.775C237.266 280.327 237.714 280.775 238.266 280.775L238.266 278.775ZM233.25 280.775C233.802 280.775 234.25 280.327 234.25 279.775C234.25 279.223 233.802 278.775 233.25 278.775L233.25 280.775ZM228.234 278.775C227.682 278.775 227.234 279.223 227.234 279.775C227.234 280.327 227.682 280.775 228.234 280.775L228.234 278.775ZM223.218 280.775C223.77 280.775 224.218 280.327 224.218 279.775C224.218 279.223 223.77 278.775 223.218 278.775L223.218 280.775ZM218.202 278.775C217.649 278.775 217.202 279.223 217.202 279.775C217.202 280.327 217.649 280.775 218.202 280.775L218.202 278.775ZM213.185 280.775C213.738 280.775 214.185 280.327 214.185 279.775C214.185 279.223 213.738 278.775 213.185 278.775L213.185 280.775ZM208.169 278.775C207.617 278.775 207.169 279.223 207.169 279.775C207.169 280.327 207.617 280.775 208.169 280.775L208.169 278.775ZM203.153 280.775C203.706 280.775 204.153 280.327 204.153 279.775C204.153 279.223 203.706 278.775 203.153 278.775L203.153 280.775ZM198.137 278.775C197.585 278.775 197.137 279.223 197.137 279.775C197.137 280.327 197.585 280.775 198.137 280.775L198.137 278.775ZM193.121 280.775C193.673 280.775 194.121 280.327 194.121 279.775C194.121 279.223 193.673 278.775 193.121 278.775L193.121 280.775ZM188.105 278.775C187.553 278.775 187.105 279.223 187.105 279.775C187.105 280.327 187.553 280.775 188.105 280.775L188.105 278.775ZM183.089 280.775C183.641 280.775 184.089 280.327 184.089 279.775C184.089 279.223 183.641 278.775 183.089 278.775L183.089 280.775ZM178.073 278.775C177.52 278.775 177.073 279.223 177.073 279.775C177.073 280.327 177.52 280.775 178.073 280.775L178.073 278.775ZM173.056 280.775C173.609 280.775 174.056 280.327 174.056 279.775C174.056 279.223 173.609 278.775 173.056 278.775L173.056 280.775ZM168.04 278.775C167.488 278.775 167.04 279.223 167.04 279.775C167.04 280.327 167.488 280.775 168.04 280.775L168.04 278.775ZM163.024 280.775C163.576 280.775 164.024 280.327 164.024 279.775C164.024 279.223 163.576 278.775 163.024 278.775L163.024 280.775ZM158.008 278.775C157.456 278.775 157.008 279.223 157.008 279.775C157.008 280.327 157.456 280.775 158.008 280.775L158.008 278.775ZM152.992 280.775C153.544 280.775 153.992 280.327 153.992 279.775C153.992 279.223 153.544 278.775 152.992 278.775L152.992 280.775ZM147.976 278.775C147.424 278.775 146.976 279.223 146.976 279.775C146.976 280.327 147.424 280.775 147.976 280.775L147.976 278.775ZM142.96 280.775C143.512 280.775 143.96 280.327 143.96 279.775C143.96 279.223 143.512 278.775 142.96 278.775L142.96 280.775ZM137.944 278.775C137.391 278.775 136.944 279.223 136.944 279.775C136.944 280.327 137.391 280.775 137.944 280.775L137.944 278.775ZM132.927 280.775C133.48 280.775 133.927 280.327 133.927 279.775C133.927 279.223 133.48 278.775 132.927 278.775L132.927 280.775ZM127.911 278.775C127.359 278.775 126.911 279.223 126.911 279.775C126.911 280.327 127.359 280.775 127.911 280.775L127.911 278.775ZM122.895 280.775C123.447 280.775 123.895 280.327 123.895 279.775C123.895 279.223 123.447 278.775 122.895 278.775L122.895 280.775ZM117.879 278.775C117.327 278.775 116.879 279.223 116.879 279.775C116.879 280.327 117.327 280.775 117.879 280.775L117.879 278.775ZM112.863 280.775C113.415 280.775 113.863 280.327 113.863 279.775C113.863 279.223 113.415 278.775 112.863 278.775L112.863 280.775ZM107.847 278.775C107.295 278.775 106.847 279.223 106.847 279.775C106.847 280.327 107.295 280.775 107.847 280.775L107.847 278.775ZM102.831 280.775C103.383 280.775 103.831 280.327 103.831 279.775C103.831 279.223 103.383 278.775 102.831 278.775L102.831 280.775ZM97.8145 278.775C97.2622 278.775 96.8145 279.223 96.8145 279.775C96.8145 280.327 97.2622 280.775 97.8145 280.775L97.8145 278.775ZM92.7984 280.775C93.3507 280.775 93.7984 280.327 93.7984 279.775C93.7984 279.223 93.3507 278.775 92.7984 278.775L92.7984 280.775ZM87.7823 278.775C87.23 278.775 86.7823 279.223 86.7823 279.775C86.7823 280.327 87.23 280.775 87.7823 280.775L87.7823 278.775ZM82.7662 280.775C83.3184 280.775 83.7662 280.327 83.7662 279.775C83.7662 279.223 83.3184 278.775 82.7662 278.775L82.7662 280.775ZM77.75 278.775C77.1977 278.775 76.75 279.223 76.75 279.775C76.75 280.327 77.1977 280.775 77.75 280.775L77.75 278.775ZM72.7339 280.775C73.2862 280.775 73.7339 280.327 73.7339 279.775C73.7339 279.223 73.2862 278.775 72.7339 278.775L72.7339 280.775ZM67.7178 278.775C67.1655 278.775 66.7178 279.223 66.7178 279.775C66.7178 280.327 67.1655 280.775 67.7178 280.775L67.7178 278.775ZM62.7016 280.775C63.2539 280.775 63.7016 280.327 63.7016 279.775C63.7016 279.223 63.2539 278.775 62.7016 278.775L62.7016 280.775ZM57.6855 278.775C57.1332 278.775 56.6855 279.223 56.6855 279.775C56.6855 280.327 57.1332 280.775 57.6855 280.775L57.6855 278.775ZM52.6694 280.775C53.2216 280.775 53.6694 280.327 53.6694 279.775C53.6694 279.223 53.2216 278.775 52.6694 278.775L52.6694 280.775ZM47.6532 278.775C47.101 278.775 46.6532 279.223 46.6532 279.775C46.6532 280.327 47.101 280.775 47.6532 280.775L47.6532 278.775ZM42.6371 280.775C43.1894 280.775 43.6371 280.327 43.6371 279.775C43.6371 279.223 43.1894 278.775 42.6371 278.775L42.6371 280.775ZM37.621 278.775C37.0687 278.775 36.621 279.223 36.621 279.775C36.621 280.327 37.0687 280.775 37.621 280.775L37.621 278.775ZM32.6049 280.775C33.1572 280.775 33.6049 280.327 33.6049 279.775C33.6049 279.223 33.1572 278.775 32.6049 278.775L32.6049 280.775ZM27.5888 278.775C27.0365 278.775 26.5888 279.223 26.5888 279.775C26.5888 280.327 27.0365 280.775 27.5888 280.775L27.5888 278.775ZM22.5727 280.775C23.125 280.775 23.5727 280.327 23.5727 279.775C23.5727 279.223 23.125 278.775 22.5727 278.775L22.5727 280.775ZM17.5566 278.775C17.0043 278.775 16.5566 279.223 16.5566 279.775C16.5566 280.327 17.0043 280.775 17.5566 280.775L17.5566 278.775ZM12.5405 280.775C13.0928 280.775 13.5405 280.327 13.5405 279.775C13.5405 279.223 13.0928 278.775 12.5405 278.775L12.5405 280.775ZM7.52434 278.775C6.97207 278.775 6.52434 279.223 6.52434 279.775C6.52434 280.327 6.97207 280.775 7.52434 280.775L7.52434 278.775ZM2.50823 280.775C3.06054 280.775 3.50823 280.327 3.50823 279.775C3.50823 279.223 3.06054 278.775 2.50823 278.775L2.50823 280.775ZM311 30.2249L308.492 30.2249L308.492 32.2249L311 32.2249L311 30.2249ZM303.476 30.2249L298.46 30.2249L298.46 32.2249L303.476 32.2249L303.476 30.2249ZM293.444 30.2249L288.427 30.2249L288.427 32.2249L293.444 32.2249L293.444 30.2249ZM283.411 30.2249L278.395 30.2249L278.395 32.2249L283.411 32.2249L283.411 30.2249ZM273.379 30.2249L268.363 30.2249L268.363 32.2249L273.379 32.2249L273.379 30.2249ZM263.347 30.2249L258.331 30.2249L258.331 32.2249L263.347 32.2249L263.347 30.2249ZM253.315 30.2249L248.298 30.2249L248.298 32.2249L253.315 32.2249L253.315 30.2249ZM243.282 30.2249L238.266 30.2249L238.266 32.2249L243.282 32.2249L243.282 30.2249ZM233.25 30.2249L228.234 30.2249L228.234 32.2249L233.25 32.2249L233.25 30.2249ZM223.218 30.2249L218.202 30.2249L218.202 32.2249L223.218 32.2249L223.218 30.2249ZM213.185 30.2249L208.169 30.2249L208.169 32.2249L213.185 32.2249L213.185 30.2249ZM203.153 30.2249L198.137 30.2249L198.137 32.2249L203.153 32.2249L203.153 30.2249ZM193.121 30.2249L188.105 30.2249L188.105 32.2249L193.121 32.2249L193.121 30.2249ZM183.089 30.2249L178.073 30.2249L178.073 32.2249L183.089 32.2249L183.089 30.2249ZM173.056 30.2249L168.04 30.2249L168.04 32.2249L173.056 32.2249L173.056 30.2249ZM163.024 30.2249L158.008 30.2249L158.008 32.2249L163.024 32.2249L163.024 30.2249ZM152.992 30.2249L147.976 30.2249L147.976 32.2249L152.992 32.2249L152.992 30.2249ZM142.96 30.2249L137.944 30.2249L137.944 32.2249L142.96 32.2249L142.96 30.2249ZM132.927 30.2249L127.911 30.2249L127.911 32.2249L132.927 32.2249L132.927 30.2249ZM122.895 30.2249L117.879 30.2249L117.879 32.2249L122.895 32.2249L122.895 30.2249ZM112.863 30.2249L107.847 30.2249L107.847 32.2249L112.863 32.2249L112.863 30.2249ZM102.831 30.2249L97.8145 30.2249L97.8145 32.2249L102.831 32.2249L102.831 30.2249ZM92.7984 30.2249L87.7823 30.2249L87.7823 32.2249L92.7984 32.2249L92.7984 30.2249ZM82.7662 30.2249L77.75 30.2249L77.75 32.2249L82.7662 32.2249L82.7662 30.2249ZM72.7339 30.2249L67.7178 30.2249L67.7178 32.2249L72.7339 32.2249L72.7339 30.2249ZM62.7017 30.2249L57.6855 30.2249L57.6855 32.2249L62.7017 32.2249L62.7017 30.2249ZM52.6694 30.2249L47.6533 30.2249L47.6533 32.2249L52.6694 32.2249L52.6694 30.2249ZM42.6371 30.2249L37.621 30.2249L37.621 32.2249L42.6371 32.2249L42.6371 30.2249ZM32.6049 30.2249L27.5888 30.2249L27.5888 32.2249L32.6049 32.2249L32.6049 30.2249ZM22.5727 30.2249L17.5566 30.2249L17.5566 32.2249L22.5727 32.2249L22.5727 30.2249ZM12.5405 30.2249L7.52435 30.2249L7.52435 32.2249L12.5405 32.2249L12.5405 30.2249ZM2.50824 30.2249L3.05613e-05 30.2249L3.04739e-05 32.2249L2.50824 32.2249L2.50824 30.2249ZM311 278.775L308.492 278.775L308.492 280.775L311 280.775L311 278.775ZM303.476 278.775L298.46 278.775L298.46 280.775L303.476 280.775L303.476 278.775ZM293.444 278.775L288.427 278.775L288.427 280.775L293.444 280.775L293.444 278.775ZM283.411 278.775L278.395 278.775L278.395 280.775L283.411 280.775L283.411 278.775ZM273.379 278.775L268.363 278.775L268.363 280.775L273.379 280.775L273.379 278.775ZM263.347 278.775L258.331 278.775L258.331 280.775L263.347 280.775L263.347 278.775ZM253.315 278.775L248.298 278.775L248.298 280.775L253.315 280.775L253.315 278.775ZM243.282 278.775L238.266 278.775L238.266 280.775L243.282 280.775L243.282 278.775ZM233.25 278.775L228.234 278.775L228.234 280.775L233.25 280.775L233.25 278.775ZM223.218 278.775L218.202 278.775L218.202 280.775L223.218 280.775L223.218 278.775ZM213.185 278.775L208.169 278.775L208.169 280.775L213.185 280.775L213.185 278.775ZM203.153 278.775L198.137 278.775L198.137 280.775L203.153 280.775L203.153 278.775ZM193.121 278.775L188.105 278.775L188.105 280.775L193.121 280.775L193.121 278.775ZM183.089 278.775L178.073 278.775L178.073 280.775L183.089 280.775L183.089 278.775ZM173.056 278.775L168.04 278.775L168.04 280.775L173.056 280.775L173.056 278.775ZM163.024 278.775L158.008 278.775L158.008 280.775L163.024 280.775L163.024 278.775ZM152.992 278.775L147.976 278.775L147.976 280.775L152.992 280.775L152.992 278.775ZM142.96 278.775L137.944 278.775L137.944 280.775L142.96 280.775L142.96 278.775ZM132.927 278.775L127.911 278.775L127.911 280.775L132.927 280.775L132.927 278.775ZM122.895 278.775L117.879 278.775L117.879 280.775L122.895 280.775L122.895 278.775ZM112.863 278.775L107.847 278.775L107.847 280.775L112.863 280.775L112.863 278.775ZM102.831 278.775L97.8145 278.775L97.8145 280.775L102.831 280.775L102.831 278.775ZM92.7984 278.775L87.7823 278.775L87.7823 280.775L92.7984 280.775L92.7984 278.775ZM82.7662 278.775L77.75 278.775L77.75 280.775L82.7662 280.775L82.7662 278.775ZM72.7339 278.775L67.7178 278.775L67.7178 280.775L72.7339 280.775L72.7339 278.775ZM62.7016 278.775L57.6855 278.775L57.6855 280.775L62.7016 280.775L62.7016 278.775ZM52.6694 278.775L47.6532 278.775L47.6532 280.775L52.6694 280.775L52.6694 278.775ZM42.6371 278.775L37.621 278.775L37.621 280.775L42.6371 280.775L42.6371 278.775ZM32.6049 278.775L27.5888 278.775L27.5888 280.775L32.6049 280.775L32.6049 278.775ZM22.5727 278.775L17.5566 278.775L17.5566 280.775L22.5727 280.775L22.5727 278.775ZM12.5405 278.775L7.52434 278.775L7.52434 280.775L12.5405 280.775L12.5405 278.775ZM2.50823 278.775L1.96968e-05 278.775L1.96094e-05 280.775L2.50823 280.775L2.50823 278.775Z" fill="url(#paint1_linear_410_6790)"/>
</g>
<mask id="mask0_410_6790" style="mask-type:alpha" maskUnits="userSpaceOnUse" x="39" y="39" width="233" height="233">
<rect x="39.9678" y="39.9679" width="231.064" height="231.064" fill="#C4C4C4"/>
</mask>
<g mask="url(#mask0_410_6790)">
<path d="M319.527 234.814C319.527 234.814 254.666 234.061 251.27 235.26C247.873 236.459 253.069 235.659 256.066 234.861C259.063 234.062 251.27 232.463 249.473 231.065C247.677 229.666 248.673 227.668 247.873 224.071C247.073 220.474 234.688 229.865 230.89 232.463C227.093 235.061 229.891 204.691 229.485 202.492C229.078 200.294 228.686 204.091 228.086 205.69C227.487 207.289 249.066 206.689 250.464 206.289C251.863 205.89 251.263 183.712 251.064 183.113C250.865 182.515 231.483 183.512 228.686 184.711C225.889 185.909 225.889 202.893 226.888 202.893C227.887 202.893 225.744 176.319 225.744 171.823C225.744 167.328 234.587 161.485 240.581 160.431C246.576 159.377 241.181 158.932 235.786 159.981C230.391 161.031 232.19 154.736 234.732 154.586C237.274 154.436 247.768 155.486 248.517 153.238C249.267 150.991 244.321 145.296 239.382 146.046C234.443 146.795 237.284 150.541 238.034 151.141C238.783 151.74 238.184 147.994 237.284 146.644C236.385 145.295 227.094 151.589 222.449 151.74C217.804 151.891 224.097 147.244 224.097 147.244C224.097 147.244 229.793 139.453 230.539 137.354C231.285 135.255 230.389 127.014 230.539 125.516C230.689 124.018 232.186 126.719 233.838 127.168C235.491 127.616 235.037 122.822 235.936 119.376C236.836 115.929 235.786 108.887 236.46 106.258C237.133 103.628 240.056 94.495 239.608 91.2729C239.159 88.0509 237.284 83.8555 232.714 82.2076C228.144 80.5596 221.55 82.6608 219.152 84.3872C216.755 86.1136 216.006 91.7297 216.831 94.4271C217.655 97.1244 219.152 102.219 218.777 104.167C218.403 106.115 216.381 99.6719 217.055 97.4992C217.728 95.3266 219.152 98.6974 219.453 99.5969C219.754 100.496 218.929 96.6747 218.854 95.7002C218.779 94.7257 219.453 94.8019 220.052 93.5287C220.65 92.2556 220.127 90.5315 221.701 89.9319C223.275 89.3322 225.521 92.2544 230.616 92.1045C235.711 91.9546 235.561 89.5571 236.761 89.707C237.96 89.8569 238.483 94.0523 238.708 96.2999C238.933 98.5475 238.184 101.471 239.158 102.668C240.133 103.865 241.032 98.8473 239.757 97.7241C238.481 96.6009 237.734 105.142 237.734 105.142C237.734 105.142 236.086 113.982 230.841 115.48C225.596 116.978 220.801 109.038 220.951 106.789C221.101 104.541 222.149 110.985 221.401 112.784C220.653 114.583 213.159 119.672 213.009 120.726C212.859 121.78 217.954 122.224 217.954 122.224C217.954 122.224 215.706 125.071 215.107 125.972C214.507 126.873 227.99 141.705 227.99 141.705C227.99 141.705 223.945 131.216 221.549 125.522C219.152 119.829 219.601 115.632 220.051 113.834C220.5 112.037 220.95 115.632 222.898 119.229C224.846 122.826 227.093 123.423 227.693 123.873C228.293 124.323 229.491 122.975 232.488 120.877C235.485 118.779 237.283 114.134 237.433 113.533C237.583 112.933 236.535 122.075 234.436 128.818C232.337 135.561 226.495 149.349 226.645 149.798C226.795 150.248 238.932 130.316 239.382 129.862C239.832 129.407 237.584 126.715 236.984 125.966C236.385 125.218 244.028 125.067 244.028 124.618C244.028 124.169 238.184 114.728 238.184 113.677C238.184 112.627 242.979 120.119 242.679 126.116C242.379 132.113 240.281 136.604 239.985 138.553C239.689 140.502 241.631 140.051 240.736 142.16C239.841 144.268 235.934 142.603 236.236 140.051C236.538 137.499 238.633 137.954 238.633 137.954C238.633 137.954 241.631 127.014 241.327 120.571C241.024 114.128 239.08 115.475 239.08 115.027C239.08 114.578 251.667 119.972 253.615 121.469C255.562 122.965 254.064 131.958 254.064 133.157C254.064 134.357 252.865 138.852 249.569 144.846C246.273 150.841 254.363 149.041 258.26 153.237C262.157 157.434 252.865 164.325 254.663 166.121C256.461 167.916 260.359 162.224 259.758 152.934C259.157 143.644 256.462 123.564 254.964 122.964C253.466 122.365 248.07 126.561 246.272 130.46C244.474 134.359 245.673 142.748 245.673 149.94C245.673 157.133 246.272 156.834 247.47 157.732C248.669 158.631 246.272 155.335 242.975 153.536C239.678 151.737 222.896 153.536 222.896 153.536C222.896 153.536 223.495 160.73 224.395 162.527C225.294 164.325 251.667 169.72 251.367 168.522C251.067 167.324 252.466 177.212 252.466 182.907C252.466 188.601 256.362 231.458 257.86 232.057C259.358 232.655 230.088 236.859 230.088 236.859H218.7C216.303 236.859 212.407 234.165 210.608 234.165C208.809 234.165 212.106 231.169 212.706 228.172C213.305 225.174 207.611 227.872 203.416 228.471C199.22 229.071 201.317 211.388 201.018 208.092C200.719 204.796 199.52 209.291 199.52 210.489C199.52 211.688 212.706 211.989 215.097 209.591C217.489 207.194 210.752 186.964 210.752 186.964C210.752 186.964 203.256 187.712 200.562 188.018C197.869 188.324 202.81 195.211 202.81 195.96C202.81 196.71 196.967 186.219 195.617 183.523C194.268 180.827 202.36 185.171 198.765 179.626C195.169 174.082 193.52 172.13 193.22 169.437C192.92 166.743 193.52 146.659 193.52 145.309C193.52 143.959 204.908 131.822 204.908 131.822C204.908 131.822 202.66 128.676 202.66 128.074C202.66 127.472 205.657 126.576 206.107 125.977C206.557 125.377 201.012 117.435 200.562 116.087C200.113 114.739 207.755 120.282 206.706 118.184C205.656 116.087 207.007 108.594 207.155 103.949C207.304 99.3041 204.308 91.8105 201.012 89.7128C197.716 87.6152 194.868 89.1143 193.968 89.1143C193.069 89.1143 190.822 88.0602 187.975 90.4624C185.128 92.8646 181.981 99.5981 183.18 107.245C184.379 114.892 181.681 115.637 181.081 117.435C180.482 119.233 186.177 116.381 187.523 113.988C188.869 111.595 187.673 108.444 187.523 105.897C187.373 103.35 188.423 99.3041 191.12 96.6056C193.817 93.907 194.716 91.8105 194.716 91.8105C194.716 91.8105 198.464 96.1558 200.86 98.4046C203.256 100.653 203.725 104.692 203.119 107.842C202.514 110.993 198.174 117.432 194.877 117.133C191.58 116.833 187.835 111.438 188.734 111.289C189.634 111.141 188.584 116.684 188.284 117.582C187.985 118.481 175.847 125.674 174.347 125.674C172.846 125.674 182.438 118.782 183.037 118.782C183.637 118.782 182.438 132.719 183.487 135.413C184.536 138.107 183.487 117.881 184.685 117.281C185.883 116.682 186.784 124.625 188.282 130.618C189.78 136.611 190.976 144.254 192.777 144.855C194.579 145.455 183.337 131.816 182.737 130.468C182.138 129.12 185.285 127.921 185.431 127.471C185.578 127.021 182.584 127.021 182.584 126.573C182.584 126.124 184.682 117.881 185.881 117.281C187.08 116.682 187.23 120.878 189.178 125.523C191.126 130.168 192.175 135.863 193.673 136.163C195.171 136.463 201.465 118.631 201.914 118.181C202.363 117.731 206.259 120.578 210.156 122.976C214.053 125.373 213.153 125.373 212.405 128.97C211.656 132.567 210.156 128.67 210.006 126.123C209.856 123.576 212.104 123.276 216 128.67C219.897 134.065 222.442 162.086 221.244 163.585C220.046 165.084 215.551 165.533 210.756 163.435C205.961 161.337 201.314 149.2 200.866 148.3C200.417 147.401 204.013 147.551 205.661 146.353C207.309 145.154 205.661 142.906 204.911 141.706C204.162 140.507 202.065 134.515 201.163 132.866C200.261 131.217 201.613 126.573 199.664 125.523C197.715 124.474 198.316 130.318 198.316 131.217C198.316 132.115 195.469 129.269 193.821 129.269C192.173 129.269 191.127 133.466 191.273 136.312C191.42 139.158 197.118 141.257 197.568 142.156C198.017 143.056 197.716 146.202 199.814 146.503C201.912 146.804 206.108 143.505 206.256 142.606C206.403 141.706 213.15 153.095 214.798 153.245C216.446 153.395 212.25 137.061 212.25 134.964C212.25 132.866 212.7 146.651 212.7 146.651C212.7 146.651 211.502 164.337 212.401 177.52C213.301 190.704 221.392 233.264 220.192 234.464C218.993 235.663 201.311 237.46 199.214 236.261C194.684 233.673 196.251 197.592 195.917 198.5C198.015 192.805 194.418 229.069 193.52 231.763C192.621 234.456 186.127 234.059 186.127 234.059C186.127 234.059 177.336 234.859 172.94 232.462C168.544 230.064 175.634 215.678 175.838 213.681C176.041 211.684 172.84 213.281 170.443 212.682C168.045 212.084 173.639 206.688 174.239 204.29C174.839 201.893 172.042 204.09 168.644 204.69C165.246 205.289 171.641 192.702 171.442 189.905C171.243 187.108 175.238 185.708 177.836 183.71C180.434 181.712 168.244 184.51 164.049 184.51C159.854 184.51 175.538 180.314 177.135 179.315C178.733 178.316 183.13 233.261 182.53 234.46C181.93 235.659 167.146 236.657 163.15 235.059C159.153 233.46 159.05 214.081 158.455 214.679C157.86 215.278 175.438 216.875 177.036 216.477C178.633 216.079 178.434 194.099 177.836 193.1C177.237 192.101 159.854 193.1 157.057 195.098C154.26 197.096 156.757 233.059 156.354 235.657C155.951 238.255 146.764 238.255 134.576 237.055C122.388 235.856 137.973 237.055 141.77 236.056C145.567 235.057 142.269 209.185 142.269 205.987C142.269 202.79 143.268 214.779 142.069 215.776C140.869 216.774 123.488 217.575 121.889 215.377C120.291 213.179 122.688 193.2 124.287 191.002C125.886 188.805 144.666 192.201 144.666 192.201C144.666 192.201 146.964 232.257 148.562 235.653C150.159 239.05 146.376 169.332 146.976 166.13C147.576 162.928 159.563 171.125 161.761 170.126C163.958 169.127 163.56 161.734 164.358 155.74C165.157 149.746 167.556 144.152 170.152 145.351C172.749 146.551 169.354 150.944 167.155 150.944C164.957 150.944 166.557 141.953 166.356 137.957C166.156 133.961 163.759 124.172 164.958 124.172C166.157 124.172 175.148 137.957 174.349 134.161C173.55 130.365 172.151 148.953 173.749 154.141C175.348 159.33 181.742 163.133 183.939 163.733C186.136 164.332 177.146 158.931 172.949 157.738C168.753 156.546 168.154 157.738 167.755 158.936C167.356 160.135 165.357 165.131 164.358 165.131C163.359 165.131 161.761 163.733 160.362 161.734C158.964 159.736 153.37 161.734 151.173 159.137C148.975 156.539 151.372 147.149 152.969 145.951C154.567 144.753 160.761 146.75 160.761 147.548C160.761 148.347 160.362 148.348 159.762 147.548C159.163 146.749 160.761 138.358 162.161 138.957C163.561 139.557 163.56 148.947 164.559 151.145C165.558 153.344 170.752 156.533 170.952 157.139C171.153 157.744 170.952 158.936 170.353 161.534C169.753 164.132 165.157 166.73 163.359 168.128C161.561 169.527 179.949 176.719 183.345 175.521C186.742 174.323 190.138 171.125 189.338 165.53C188.538 159.935 183.139 135.366 181.54 131.765C179.942 128.163 173.549 126.77 168.554 124.972C163.558 123.174 155.367 115.082 155.068 113.982C154.769 112.882 154.468 109.883 154.669 107.588C154.869 105.294 157.665 94.0019 157.665 93.2992C157.665 92.5964 158.664 86.506 157.865 83.8122C157.066 81.1183 154.868 78.1188 149.473 76.0199C144.078 73.9211 139.583 75.5221 136.786 76.7227C133.989 77.9232 135.088 79.919 135.188 80.6194C135.287 81.3198 133.29 79.1202 131.791 80.7189C130.292 82.3177 130.093 89.3099 131.292 95.008C132.491 100.706 133.489 102.504 132.59 104.698C131.69 106.891 129.794 99.0043 130.493 96.506C131.192 94.0078 132.69 98.004 132.99 99.1038C133.29 100.204 132.59 96.41 132.49 94.208C132.391 92.0061 134.188 90.8115 135.587 88.1176C136.985 85.4238 137.386 84.2221 136.786 82.7241C136.187 81.2261 140.183 85.9204 147.176 87.1197C154.17 88.3191 153.869 86.8187 154.569 85.8197C155.27 84.8206 154.268 86.4193 154.569 89.6168C154.87 92.8143 156.965 96.2097 156.965 96.2097C156.965 96.2097 157.965 95.1111 158.465 96.2097C158.965 97.3083 158.264 103.003 157.365 104.901C156.465 106.8 156.366 100.105 157.066 99.3076C157.767 98.51 157.066 102.903 156.266 106.3C155.466 109.696 150.772 116.39 146.177 117.588C141.582 118.786 136.786 111.993 136.187 111.395C135.587 110.796 132.59 116.789 132.99 120.585C133.391 124.381 138.385 139.566 138.385 140.965C138.385 142.363 133.989 138.567 132.79 137.368C131.591 136.169 133.79 131.774 133.79 131.774C133.79 131.774 130.394 131.774 128.595 131.574C126.796 131.374 132.99 115.59 132.99 115.59L136.387 116.989C136.387 116.989 141.782 122.184 143.979 122.983C146.176 123.782 152.57 116.789 154.169 116.39C155.767 115.991 153.769 125.38 153.57 128.177C153.371 130.974 149.574 123.382 149.574 123.382C149.574 123.382 148.774 127.178 148.175 128.977C147.577 130.776 146.577 146.559 146.577 146.559C146.577 146.559 158.964 140.165 160.562 138.967C162.161 137.769 157.765 134.371 157.365 132.573C156.964 130.775 163.959 130.375 164.958 129.976C165.957 129.578 156.965 116.978 156.173 114.987C155.38 112.996 155.773 120.781 154.575 126.576C153.377 132.372 147.176 142.16 145.983 144.551C144.789 146.943 134.594 117.978 134.794 116.58C134.994 115.181 125.804 124.372 121.009 125.371C116.214 126.37 125.204 123.174 127.002 123.174C128.8 123.174 126.203 129.167 125.404 134.562C124.605 139.957 126.597 155.746 128.396 155.746C130.195 155.746 136.987 150.152 138.585 147.155C140.184 144.158 138.585 138.364 140.583 137.565C142.582 136.766 144.18 148.553 141.783 148.953C139.385 149.352 147.377 148.354 148.576 148.754C149.775 149.153 150.375 155.347 149.576 158.543C148.777 161.739 143.182 162.938 140.785 163.139C138.387 163.339 115.61 173.529 118.207 175.527C120.804 177.525 137.587 165.936 138.387 165.536C139.187 165.137 135.587 167.927 132.59 164.53C129.593 161.134 132.59 152.743 132.59 152.743C132.59 152.743 122.201 158.138 117.206 156.538C112.21 154.938 120.403 155.34 121.801 155.34C123.2 155.34 119.404 153.141 118.205 150.745C117.005 148.348 119.604 151.744 122.801 152.942C125.997 154.14 120.004 127.968 118.81 126.17C117.617 124.372 112.81 130.965 110.611 137.559C108.413 144.153 106.101 167.81 107.703 172.293C109.306 176.777 124.686 178.384 128.534 177.095C132.381 175.807 125.649 175.493 124.689 175.493C123.728 175.493 122.765 181.261 122.125 186.068C121.484 190.875 114.112 227.141 114.112 231.948C114.112 236.754 124.047 236.444 126.611 235.156C129.174 233.867 98.4096 236.117 98.4096 236.117C97.8884 237.108 110.122 240.43 112.582 231.27C113.593 224.861 114.605 181.35 114.605 181.35C114.605 181.35 109.883 194.167 108.196 195.179C106.51 196.191 95.0423 196.528 95.0423 196.528C95.0423 196.528 109.883 196.191 110.558 199.902C111.232 203.612 110.22 220.477 109.208 220.813C108.196 221.149 93.3557 222.837 93.3557 220.138C93.3557 217.44 92.0064 196.528 91.6691 199.564C91.3318 202.6 87.2852 241.051 88.2971 235.316C89.3091 229.582 85.6033 197.878 85.6033 198.891C85.6033 199.904 85.266 235.655 83.5794 236.329C81.8928 237.004 59.295 233.968 59.295 233.968C59.295 233.968 66.0401 194.849 68.064 185.737C70.0879 176.624 70.4241 166.848 70.4241 163.476C70.4241 160.104 73.7972 152.349 73.4599 155.382C73.1226 158.414 59.6311 168.872 54.2341 167.86C48.837 166.848 43.7784 160.103 44.1158 155.718C44.4531 151.333 58.2877 131.433 58.2877 131.433C58.2877 131.433 62.168 137.659 65.164 138.558C68.1601 139.458 69.2634 134.162 69.8595 132.964C70.4557 131.766 76.2474 130.564 77.2465 129.068C78.2456 127.571 76.9467 121.774 76.347 121.275C75.7473 120.776 70.054 121.874 70.2566 121.575C70.4592 121.276 72.8532 115.38 71.4547 114.482C70.0563 113.584 67.8614 119.277 67.0568 120.676C66.2521 122.074 64.1603 125.87 63.1601 128.172C62.1598 130.473 59.8642 131.469 60.2636 132.468C60.663 133.467 63.5606 136.363 65.2589 137.062C66.9572 137.762 66.8576 139.061 66.1573 140.959C65.4569 142.858 60.0668 158.645 58.365 159.74C56.6632 160.835 50.6735 164.235 54.4695 163.536C58.2655 162.837 60.9628 156.643 61.1631 158.54C61.3634 160.438 64.5597 162.837 65.0586 160.739C65.5576 158.641 62.5616 148.25 63.96 145.556C65.3585 142.862 71.3529 133.169 72.3519 134.367C73.351 135.566 74.1498 143.758 73.8499 141.561C73.5501 139.364 71.7522 133.563 75.9429 132.464C80.1336 131.365 82.1364 130.865 82.1364 130.865C82.1364 130.865 90.6326 153.638 92.2313 152.643C93.83 151.649 104.02 128.668 104.32 128.668C104.619 128.668 110.313 139.057 109.713 139.561C109.113 140.064 101.124 141.955 102.121 142.653C103.118 143.351 106.817 146.45 106.817 146.45C106.817 146.45 90.9347 160.735 90.8328 159.836C90.7309 158.936 78.9448 145.751 79.3395 144.752C79.7342 143.752 83.7352 141.254 83.6356 140.755C83.536 140.256 75.3444 139.157 76.1397 137.659C76.935 136.161 84.0315 128.668 81.634 128.569C79.2364 128.469 76.5391 138.658 76.4395 141.854C76.34 145.05 79.3395 155.043 79.3395 155.043C79.3395 155.043 76.2428 156.642 77.0427 159.439C77.8427 162.236 83.4353 159.24 83.1331 157.441C82.831 155.642 81.7347 156.541 80.8363 154.747C79.938 152.953 77.8392 146.756 77.8392 142.259C77.8392 137.763 82.1341 127.774 83.0336 128.974C83.9331 130.173 86.9303 135.867 92.3238 135.767C97.7174 135.667 102.114 128.075 103.014 128.576C103.913 129.076 104.412 132.072 104.612 136.072C104.813 140.071 101.216 153.154 99.7167 154.653C98.2175 156.152 96.2276 157.737 95.1278 161.034C94.028 164.331 94.5293 172.423 95.5283 172.922C96.5274 173.421 97.3262 172.524 96.8272 171.724C96.3283 170.924 95.328 169.825 95.4276 166.329C95.5272 162.833 97.4257 157.039 100.123 156.842C102.82 156.645 103.22 158.44 103.22 162.23C103.22 166.02 103.619 169.822 102.721 170.922C101.823 172.021 99.719 173.023 100.522 173.323C101.326 173.623 104.119 173.422 104.519 171.025C104.918 168.627 105.518 161.135 104.719 158.837C103.92 156.539 102.121 157.139 101.921 154.34C101.721 151.542 104.819 142.053 105.418 137.358C106.018 132.662 102.82 129.466 101.223 126.465C99.6253 123.464 99.3243 119.073 99.3243 119.472C99.3243 119.87 94.9287 123.867 91.2322 122.669C87.5358 121.471 84.6393 116.081 84.1416 113.384C83.7403 111.277 83.6062 109.129 83.7422 106.99C83.8417 105.391 87.1388 98.1984 87.1388 96.5001C87.1388 94.8019 86.5391 93.4034 86.5391 95.0021C86.5391 96.6009 89.0373 99.8967 91.7347 100.596C94.4321 101.295 96.3295 102.195 97.1282 104.192C97.927 106.189 99.8221 105.792 100.425 107.29C101.028 108.788 100.026 110.287 99.9263 112.883C99.8268 115.48 100.725 116.081 101.424 117.579C102.124 119.077 101.325 122.674 103.323 124.372C105.321 126.07 104.221 126.869 105.62 128.367C107.018 129.865 114.212 130.067 114.212 129.467C114.212 128.867 112.613 127.269 111.614 124.672C110.615 122.075 111.614 121.075 111.314 118.179C111.014 115.282 107.818 114.182 108.018 111.584C108.219 108.987 109.217 109.387 108.617 106.89C108.017 104.393 106.117 104.292 106.117 101.401C106.117 98.5088 107.117 98.8028 105.718 96.3046C104.32 93.8063 102.321 93.4081 100.822 92.0096C99.3231 90.6112 97.3262 88.5135 95.9277 88.4128C94.5293 88.312 93.6298 89.2127 91.4325 89.3123C89.2353 89.4118 87.4363 89.0136 86.5368 89.7117C85.6372 90.4097 85.9382 91.9101 84.7389 92.7089C83.5396 93.5076 81.5414 93.6072 81.2428 95.1064C80.9441 96.6056 81.4419 98.7021 81.1432 100.201C80.8445 101.7 77.9457 103.997 77.5463 106.395C77.147 108.792 78.0511 112.784 78.0511 114.383C78.0511 115.981 77.2524 117.076 77.6518 119.178C78.0512 121.279 78.7515 121.871 78.7515 123.074C78.7515 124.277 77.0533 128.468 78.9507 128.168C80.8481 127.868 80.8492 128.968 82.8474 125.971C84.8455 122.974 86.0437 118.977 85.444 120.276C84.8443 121.575 83.6461 123.872 84.4449 126.367C85.2437 128.861 87.0427 130.762 89.0409 137.955C91.039 145.147 91.2381 144.349 91.4384 147.745C91.6387 151.142 90.0329 165.327 90.0329 174.519C90.0329 183.71 88.6344 196.095 88.6344 196.095C88.6344 196.095 72.6518 194.298 70.4533 196.296C68.2549 198.295 64.8595 217.874 66.6574 220.073C67.6916 221.336 72.1622 222.335 75.4674 222.691C77.9129 222.954 79.7248 222.865 79.0444 222.271C77.4468 220.865 78.2456 232.06 74.849 232.26C71.4524 232.461 66.258 230.662 58.4657 232.26C50.6735 233.859 0 234.017 0 234.017" stroke="#111113" stroke-width="0.8" stroke-linecap="round" stroke-linejoin="round"/>
</g>
<defs>
<linearGradient id="paint0_linear_410_6790" x1="155.5" y1="0" x2="155.5" y2="311" gradientUnits="userSpaceOnUse">
<stop stop-color="#C4C4C4" stop-opacity="0"/>
<stop offset="0.0884102" stop-color="#C4C4C4"/>
<stop offset="0.914586" stop-color="#C4C4C4"/>
<stop offset="1" stop-color="#C4C4C4" stop-opacity="0"/>
</linearGradient>
<linearGradient id="paint1_linear_410_6790" x1="311" y1="155.5" x2="2.50853e-05" y2="155.5" gradientUnits="userSpaceOnUse">
<stop stop-color="#C4C4C4" stop-opacity="0"/>
<stop offset="0.0967224" stop-color="#C4C4C4"/>
<stop offset="0.901883" stop-color="#C4C4C4"/>
<stop offset="1" stop-color="#C4C4C4" stop-opacity="0"/>
</linearGradient>
</defs>
</svg>
