<svg width="311" height="311" viewBox="0 0 311 311" fill="none" xmlns="http://www.w3.org/2000/svg">
<g opacity="0.5">
<path d="M30.2251 2.50806C30.2251 3.06035 30.6728 3.50806 31.2251 3.50806C31.7774 3.50806 32.2251 3.06035 32.2251 2.50806H30.2251ZM32.2251 7.52419C32.2251 6.97191 31.7774 6.52419 31.2251 6.52419C30.6728 6.52419 30.2251 6.97191 30.2251 7.52419H32.2251ZM30.2251 12.5403C30.2251 13.0926 30.6728 13.5403 31.2251 13.5403C31.7774 13.5403 32.2251 13.0926 32.2251 12.5403H30.2251ZM32.2251 17.5565C32.2251 17.0042 31.7774 16.5565 31.2251 16.5565C30.6728 16.5565 30.2251 17.0042 30.2251 17.5565H32.2251ZM30.2251 22.5726C30.2251 23.1249 30.6728 23.5726 31.2251 23.5726C31.7774 23.5726 32.2251 23.1249 32.2251 22.5726H30.2251ZM32.2251 27.5887C32.2251 27.0364 31.7774 26.5887 31.2251 26.5887C30.6728 26.5887 30.2251 27.0364 30.2251 27.5887H32.2251ZM30.2251 32.6048C30.2251 33.1571 30.6728 33.6048 31.2251 33.6048C31.7774 33.6048 32.2251 33.1571 32.2251 32.6048H30.2251ZM32.2251 37.621C32.2251 37.0687 31.7774 36.621 31.2251 36.621C30.6728 36.621 30.2251 37.0687 30.2251 37.621H32.2251ZM30.2251 42.6371C30.2251 43.1894 30.6728 43.6371 31.2251 43.6371C31.7774 43.6371 32.2251 43.1894 32.2251 42.6371H30.2251ZM32.2251 47.6532C32.2251 47.1009 31.7774 46.6532 31.2251 46.6532C30.6728 46.6532 30.2251 47.1009 30.2251 47.6532H32.2251ZM30.2251 52.6694C30.2251 53.2216 30.6728 53.6694 31.2251 53.6694C31.7774 53.6694 32.2251 53.2216 32.2251 52.6694H30.2251ZM32.2251 57.6855C32.2251 57.1332 31.7774 56.6855 31.2251 56.6855C30.6728 56.6855 30.2251 57.1332 30.2251 57.6855H32.2251ZM30.2251 62.7016C30.2251 63.2539 30.6728 63.7016 31.2251 63.7016C31.7774 63.7016 32.2251 63.2539 32.2251 62.7016H30.2251ZM32.2251 67.7177C32.2251 67.1655 31.7774 66.7177 31.2251 66.7177C30.6728 66.7177 30.2251 67.1655 30.2251 67.7177H32.2251ZM30.2251 72.7339C30.2251 73.2862 30.6728 73.7339 31.2251 73.7339C31.7774 73.7339 32.2251 73.2862 32.2251 72.7339H30.2251ZM32.2251 77.75C32.2251 77.1977 31.7774 76.75 31.2251 76.75C30.6728 76.75 30.2251 77.1977 30.2251 77.75H32.2251ZM30.2251 82.7661C30.2251 83.3184 30.6728 83.7661 31.2251 83.7661C31.7774 83.7661 32.2251 83.3184 32.2251 82.7661H30.2251ZM32.2251 87.7823C32.2251 87.23 31.7774 86.7823 31.2251 86.7823C30.6728 86.7823 30.2251 87.23 30.2251 87.7823H32.2251ZM30.2251 92.7984C30.2251 93.3507 30.6728 93.7984 31.2251 93.7984C31.7774 93.7984 32.2251 93.3507 32.2251 92.7984H30.2251ZM32.2251 97.8145C32.2251 97.2622 31.7774 96.8145 31.2251 96.8145C30.6728 96.8145 30.2251 97.2622 30.2251 97.8145H32.2251ZM30.2251 102.831C30.2251 103.383 30.6728 103.831 31.2251 103.831C31.7774 103.831 32.2251 103.383 32.2251 102.831H30.2251ZM32.2251 107.847C32.2251 107.294 31.7774 106.847 31.2251 106.847C30.6728 106.847 30.2251 107.294 30.2251 107.847H32.2251ZM30.2251 112.863C30.2251 113.415 30.6728 113.863 31.2251 113.863C31.7774 113.863 32.2251 113.415 32.2251 112.863H30.2251ZM32.2251 117.879C32.2251 117.327 31.7774 116.879 31.2251 116.879C30.6728 116.879 30.2251 117.327 30.2251 117.879H32.2251ZM30.2251 122.895C30.2251 123.447 30.6728 123.895 31.2251 123.895C31.7774 123.895 32.2251 123.447 32.2251 122.895H30.2251ZM32.2251 127.911C32.2251 127.359 31.7774 126.911 31.2251 126.911C30.6728 126.911 30.2251 127.359 30.2251 127.911H32.2251ZM30.2251 132.927C30.2251 133.48 30.6728 133.927 31.2251 133.927C31.7774 133.927 32.2251 133.48 32.2251 132.927H30.2251ZM32.2251 137.944C32.2251 137.391 31.7774 136.944 31.2251 136.944C30.6728 136.944 30.2251 137.391 30.2251 137.944H32.2251ZM30.2251 142.96C30.2251 143.512 30.6728 143.96 31.2251 143.96C31.7774 143.96 32.2251 143.512 32.2251 142.96H30.2251ZM32.2251 147.976C32.2251 147.424 31.7774 146.976 31.2251 146.976C30.6728 146.976 30.2251 147.424 30.2251 147.976H32.2251ZM30.2251 152.992C30.2251 153.544 30.6728 153.992 31.2251 153.992C31.7774 153.992 32.2251 153.544 32.2251 152.992H30.2251ZM32.2251 158.008C32.2251 157.456 31.7774 157.008 31.2251 157.008C30.6728 157.008 30.2251 157.456 30.2251 158.008H32.2251ZM30.2251 163.024C30.2251 163.576 30.6728 164.024 31.2251 164.024C31.7774 164.024 32.2251 163.576 32.2251 163.024H30.2251ZM32.2251 168.04C32.2251 167.488 31.7774 167.04 31.2251 167.04C30.6728 167.04 30.2251 167.488 30.2251 168.04H32.2251ZM30.2251 173.056C30.2251 173.609 30.6728 174.056 31.2251 174.056C31.7774 174.056 32.2251 173.609 32.2251 173.056H30.2251ZM32.2251 178.073C32.2251 177.52 31.7774 177.073 31.2251 177.073C30.6728 177.073 30.2251 177.52 30.2251 178.073H32.2251ZM30.2251 183.089C30.2251 183.641 30.6728 184.089 31.2251 184.089C31.7774 184.089 32.2251 183.641 32.2251 183.089H30.2251ZM32.2251 188.105C32.2251 187.553 31.7774 187.105 31.2251 187.105C30.6728 187.105 30.2251 187.553 30.2251 188.105H32.2251ZM30.2251 193.121C30.2251 193.673 30.6728 194.121 31.2251 194.121C31.7774 194.121 32.2251 193.673 32.2251 193.121H30.2251ZM32.2251 198.137C32.2251 197.585 31.7774 197.137 31.2251 197.137C30.6728 197.137 30.2251 197.585 30.2251 198.137H32.2251ZM30.2251 203.153C30.2251 203.706 30.6728 204.153 31.2251 204.153C31.7774 204.153 32.2251 203.706 32.2251 203.153H30.2251ZM32.2251 208.169C32.2251 207.617 31.7774 207.169 31.2251 207.169C30.6728 207.169 30.2251 207.617 30.2251 208.169H32.2251ZM30.2251 213.185C30.2251 213.738 30.6728 214.185 31.2251 214.185C31.7774 214.185 32.2251 213.738 32.2251 213.185H30.2251ZM32.2251 218.202C32.2251 217.649 31.7774 217.202 31.2251 217.202C30.6728 217.202 30.2251 217.649 30.2251 218.202H32.2251ZM30.2251 223.218C30.2251 223.77 30.6728 224.218 31.2251 224.218C31.7774 224.218 32.2251 223.77 32.2251 223.218H30.2251ZM32.2251 228.234C32.2251 227.682 31.7774 227.234 31.2251 227.234C30.6728 227.234 30.2251 227.682 30.2251 228.234H32.2251ZM30.2251 233.25C30.2251 233.802 30.6728 234.25 31.2251 234.25C31.7774 234.25 32.2251 233.802 32.2251 233.25H30.2251ZM32.2251 238.266C32.2251 237.714 31.7774 237.266 31.2251 237.266C30.6728 237.266 30.2251 237.714 30.2251 238.266H32.2251ZM30.2251 243.282C30.2251 243.835 30.6728 244.282 31.2251 244.282C31.7774 244.282 32.2251 243.835 32.2251 243.282H30.2251ZM32.2251 248.298C32.2251 247.746 31.7774 247.298 31.2251 247.298C30.6728 247.298 30.2251 247.746 30.2251 248.298H32.2251ZM30.2251 253.314C30.2251 253.867 30.6728 254.314 31.2251 254.314C31.7774 254.314 32.2251 253.867 32.2251 253.314H30.2251ZM32.2251 258.331C32.2251 257.778 31.7774 257.331 31.2251 257.331C30.6728 257.331 30.2251 257.778 30.2251 258.331H32.2251ZM30.2251 263.347C30.2251 263.899 30.6728 264.347 31.2251 264.347C31.7774 264.347 32.2251 263.899 32.2251 263.347H30.2251ZM32.2251 268.363C32.2251 267.811 31.7774 267.363 31.2251 267.363C30.6728 267.363 30.2251 267.811 30.2251 268.363H32.2251ZM30.2251 273.379C30.2251 273.931 30.6728 274.379 31.2251 274.379C31.7774 274.379 32.2251 273.931 32.2251 273.379H30.2251ZM32.2251 278.395C32.2251 277.843 31.7774 277.395 31.2251 277.395C30.6728 277.395 30.2251 277.843 30.2251 278.395H32.2251ZM30.2251 283.411C30.2251 283.964 30.6728 284.411 31.2251 284.411C31.7774 284.411 32.2251 283.964 32.2251 283.411H30.2251ZM32.2251 288.427C32.2251 287.875 31.7774 287.427 31.2251 287.427C30.6728 287.427 30.2251 287.875 30.2251 288.427H32.2251ZM30.2251 293.444C30.2251 293.996 30.6728 294.444 31.2251 294.444C31.7774 294.444 32.2251 293.996 32.2251 293.444H30.2251ZM32.2251 298.46C32.2251 297.908 31.7774 297.46 31.2251 297.46C30.6728 297.46 30.2251 297.908 30.2251 298.46H32.2251ZM30.2251 303.476C30.2251 304.028 30.6728 304.476 31.2251 304.476C31.7774 304.476 32.2251 304.028 32.2251 303.476H30.2251ZM32.2251 308.492C32.2251 307.94 31.7774 307.492 31.2251 307.492C30.6728 307.492 30.2251 307.94 30.2251 308.492H32.2251ZM278.775 2.50806C278.775 3.06035 279.223 3.50806 279.775 3.50806C280.328 3.50806 280.775 3.06035 280.775 2.50806H278.775ZM280.775 7.52419C280.775 6.97191 280.328 6.52419 279.775 6.52419C279.223 6.52419 278.775 6.97191 278.775 7.52419H280.775ZM278.775 12.5403C278.775 13.0926 279.223 13.5403 279.775 13.5403C280.328 13.5403 280.775 13.0926 280.775 12.5403H278.775ZM280.775 17.5565C280.775 17.0042 280.328 16.5565 279.775 16.5565C279.223 16.5565 278.775 17.0042 278.775 17.5565H280.775ZM278.775 22.5726C278.775 23.1249 279.223 23.5726 279.775 23.5726C280.328 23.5726 280.775 23.1249 280.775 22.5726H278.775ZM280.775 27.5887C280.775 27.0364 280.328 26.5887 279.775 26.5887C279.223 26.5887 278.775 27.0364 278.775 27.5887H280.775ZM278.775 32.6048C278.775 33.1571 279.223 33.6048 279.775 33.6048C280.328 33.6048 280.775 33.1571 280.775 32.6048H278.775ZM280.775 37.621C280.775 37.0687 280.328 36.621 279.775 36.621C279.223 36.621 278.775 37.0687 278.775 37.621H280.775ZM278.775 42.6371C278.775 43.1894 279.223 43.6371 279.775 43.6371C280.328 43.6371 280.775 43.1894 280.775 42.6371H278.775ZM280.775 47.6532C280.775 47.1009 280.328 46.6532 279.775 46.6532C279.223 46.6532 278.775 47.1009 278.775 47.6532H280.775ZM278.775 52.6694C278.775 53.2216 279.223 53.6694 279.775 53.6694C280.328 53.6694 280.775 53.2216 280.775 52.6694H278.775ZM280.775 57.6855C280.775 57.1332 280.328 56.6855 279.775 56.6855C279.223 56.6855 278.775 57.1332 278.775 57.6855H280.775ZM278.775 62.7016C278.775 63.2539 279.223 63.7016 279.775 63.7016C280.328 63.7016 280.775 63.2539 280.775 62.7016H278.775ZM280.775 67.7177C280.775 67.1655 280.328 66.7177 279.775 66.7177C279.223 66.7177 278.775 67.1655 278.775 67.7177H280.775ZM278.775 72.7339C278.775 73.2862 279.223 73.7339 279.775 73.7339C280.328 73.7339 280.775 73.2862 280.775 72.7339H278.775ZM280.775 77.75C280.775 77.1977 280.328 76.75 279.775 76.75C279.223 76.75 278.775 77.1977 278.775 77.75H280.775ZM278.775 82.7661C278.775 83.3184 279.223 83.7661 279.775 83.7661C280.328 83.7661 280.775 83.3184 280.775 82.7661H278.775ZM280.775 87.7823C280.775 87.23 280.328 86.7823 279.775 86.7823C279.223 86.7823 278.775 87.23 278.775 87.7823H280.775ZM278.775 92.7984C278.775 93.3507 279.223 93.7984 279.775 93.7984C280.328 93.7984 280.775 93.3507 280.775 92.7984H278.775ZM280.775 97.8145C280.775 97.2622 280.328 96.8145 279.775 96.8145C279.223 96.8145 278.775 97.2622 278.775 97.8145H280.775ZM278.775 102.831C278.775 103.383 279.223 103.831 279.775 103.831C280.328 103.831 280.775 103.383 280.775 102.831H278.775ZM280.775 107.847C280.775 107.294 280.328 106.847 279.775 106.847C279.223 106.847 278.775 107.294 278.775 107.847H280.775ZM278.775 112.863C278.775 113.415 279.223 113.863 279.775 113.863C280.328 113.863 280.775 113.415 280.775 112.863H278.775ZM280.775 117.879C280.775 117.327 280.328 116.879 279.775 116.879C279.223 116.879 278.775 117.327 278.775 117.879H280.775ZM278.775 122.895C278.775 123.447 279.223 123.895 279.775 123.895C280.328 123.895 280.775 123.447 280.775 122.895H278.775ZM280.775 127.911C280.775 127.359 280.328 126.911 279.775 126.911C279.223 126.911 278.775 127.359 278.775 127.911H280.775ZM278.775 132.927C278.775 133.48 279.223 133.927 279.775 133.927C280.328 133.927 280.775 133.48 280.775 132.927H278.775ZM280.775 137.944C280.775 137.391 280.328 136.944 279.775 136.944C279.223 136.944 278.775 137.391 278.775 137.944H280.775ZM278.775 142.96C278.775 143.512 279.223 143.96 279.775 143.96C280.328 143.96 280.775 143.512 280.775 142.96H278.775ZM280.775 147.976C280.775 147.424 280.328 146.976 279.775 146.976C279.223 146.976 278.775 147.424 278.775 147.976H280.775ZM278.775 152.992C278.775 153.544 279.223 153.992 279.775 153.992C280.328 153.992 280.775 153.544 280.775 152.992H278.775ZM280.775 158.008C280.775 157.456 280.328 157.008 279.775 157.008C279.223 157.008 278.775 157.456 278.775 158.008H280.775ZM278.775 163.024C278.775 163.576 279.223 164.024 279.775 164.024C280.328 164.024 280.775 163.576 280.775 163.024H278.775ZM280.775 168.04C280.775 167.488 280.328 167.04 279.775 167.04C279.223 167.04 278.775 167.488 278.775 168.04H280.775ZM278.775 173.056C278.775 173.609 279.223 174.056 279.775 174.056C280.328 174.056 280.775 173.609 280.775 173.056H278.775ZM280.775 178.073C280.775 177.52 280.328 177.073 279.775 177.073C279.223 177.073 278.775 177.52 278.775 178.073H280.775ZM278.775 183.089C278.775 183.641 279.223 184.089 279.775 184.089C280.328 184.089 280.775 183.641 280.775 183.089H278.775ZM280.775 188.105C280.775 187.553 280.328 187.105 279.775 187.105C279.223 187.105 278.775 187.553 278.775 188.105H280.775ZM278.775 193.121C278.775 193.673 279.223 194.121 279.775 194.121C280.328 194.121 280.775 193.673 280.775 193.121H278.775ZM280.775 198.137C280.775 197.585 280.328 197.137 279.775 197.137C279.223 197.137 278.775 197.585 278.775 198.137H280.775ZM278.775 203.153C278.775 203.706 279.223 204.153 279.775 204.153C280.328 204.153 280.775 203.706 280.775 203.153H278.775ZM280.775 208.169C280.775 207.617 280.328 207.169 279.775 207.169C279.223 207.169 278.775 207.617 278.775 208.169H280.775ZM278.775 213.185C278.775 213.738 279.223 214.185 279.775 214.185C280.328 214.185 280.775 213.738 280.775 213.185H278.775ZM280.775 218.202C280.775 217.649 280.328 217.202 279.775 217.202C279.223 217.202 278.775 217.649 278.775 218.202H280.775ZM278.775 223.218C278.775 223.77 279.223 224.218 279.775 224.218C280.328 224.218 280.775 223.77 280.775 223.218H278.775ZM280.775 228.234C280.775 227.682 280.328 227.234 279.775 227.234C279.223 227.234 278.775 227.682 278.775 228.234H280.775ZM278.775 233.25C278.775 233.802 279.223 234.25 279.775 234.25C280.328 234.25 280.775 233.802 280.775 233.25H278.775ZM280.775 238.266C280.775 237.714 280.328 237.266 279.775 237.266C279.223 237.266 278.775 237.714 278.775 238.266H280.775ZM278.775 243.282C278.775 243.835 279.223 244.282 279.775 244.282C280.328 244.282 280.775 243.835 280.775 243.282H278.775ZM280.775 248.298C280.775 247.746 280.328 247.298 279.775 247.298C279.223 247.298 278.775 247.746 278.775 248.298H280.775ZM278.775 253.314C278.775 253.867 279.223 254.314 279.775 254.314C280.328 254.314 280.775 253.867 280.775 253.314H278.775ZM280.775 258.331C280.775 257.778 280.328 257.331 279.775 257.331C279.223 257.331 278.775 257.778 278.775 258.331H280.775ZM278.775 263.347C278.775 263.899 279.223 264.347 279.775 264.347C280.328 264.347 280.775 263.899 280.775 263.347H278.775ZM280.775 268.363C280.775 267.811 280.328 267.363 279.775 267.363C279.223 267.363 278.775 267.811 278.775 268.363H280.775ZM278.775 273.379C278.775 273.931 279.223 274.379 279.775 274.379C280.328 274.379 280.775 273.931 280.775 273.379H278.775ZM280.775 278.395C280.775 277.843 280.328 277.395 279.775 277.395C279.223 277.395 278.775 277.843 278.775 278.395H280.775ZM278.775 283.411C278.775 283.964 279.223 284.411 279.775 284.411C280.328 284.411 280.775 283.964 280.775 283.411H278.775ZM280.775 288.427C280.775 287.875 280.328 287.427 279.775 287.427C279.223 287.427 278.775 287.875 278.775 288.427H280.775ZM278.775 293.444C278.775 293.996 279.223 294.444 279.775 294.444C280.328 294.444 280.775 293.996 280.775 293.444H278.775ZM280.775 298.46C280.775 297.908 280.328 297.46 279.775 297.46C279.223 297.46 278.775 297.908 278.775 298.46H280.775ZM278.775 303.476C278.775 304.028 279.223 304.476 279.775 304.476C280.328 304.476 280.775 304.028 280.775 303.476H278.775ZM280.775 308.492C280.775 307.94 280.328 307.492 279.775 307.492C279.223 307.492 278.775 307.94 278.775 308.492H280.775ZM30.2251 0V2.50806H32.2251V0H30.2251ZM30.2251 7.52419V12.5403H32.2251V7.52419H30.2251ZM30.2251 17.5565V22.5726H32.2251V17.5565H30.2251ZM30.2251 27.5887V32.6048H32.2251V27.5887H30.2251ZM30.2251 37.621V42.6371H32.2251V37.621H30.2251ZM30.2251 47.6532V52.6694H32.2251V47.6532H30.2251ZM30.2251 57.6855V62.7016H32.2251V57.6855H30.2251ZM30.2251 67.7177V72.7339H32.2251V67.7177H30.2251ZM30.2251 77.75V82.7661H32.2251V77.75H30.2251ZM30.2251 87.7823V92.7984H32.2251V87.7823H30.2251ZM30.2251 97.8145V102.831H32.2251V97.8145H30.2251ZM30.2251 107.847V112.863H32.2251V107.847H30.2251ZM30.2251 117.879V122.895H32.2251V117.879H30.2251ZM30.2251 127.911V132.927H32.2251V127.911H30.2251ZM30.2251 137.944V142.96H32.2251V137.944H30.2251ZM30.2251 147.976V152.992H32.2251V147.976H30.2251ZM30.2251 158.008V163.024H32.2251V158.008H30.2251ZM30.2251 168.04V173.056H32.2251V168.04H30.2251ZM30.2251 178.073V183.089H32.2251V178.073H30.2251ZM30.2251 188.105V193.121H32.2251V188.105H30.2251ZM30.2251 198.137V203.153H32.2251V198.137H30.2251ZM30.2251 208.169V213.185H32.2251V208.169H30.2251ZM30.2251 218.202V223.218H32.2251V218.202H30.2251ZM30.2251 228.234V233.25H32.2251V228.234H30.2251ZM30.2251 238.266V243.282H32.2251V238.266H30.2251ZM30.2251 248.298V253.314H32.2251V248.298H30.2251ZM30.2251 258.331V263.347H32.2251V258.331H30.2251ZM30.2251 268.363V273.379H32.2251V268.363H30.2251ZM30.2251 278.395V283.411H32.2251V278.395H30.2251ZM30.2251 288.427V293.444H32.2251V288.427H30.2251ZM30.2251 298.46V303.476H32.2251V298.46H30.2251ZM30.2251 308.492V311H32.2251V308.492H30.2251ZM278.775 0V2.50806H280.775V0H278.775ZM278.775 7.52419V12.5403H280.775V7.52419H278.775ZM278.775 17.5565V22.5726H280.775V17.5565H278.775ZM278.775 27.5887V32.6048H280.775V27.5887H278.775ZM278.775 37.621V42.6371H280.775V37.621H278.775ZM278.775 47.6532V52.6694H280.775V47.6532H278.775ZM278.775 57.6855V62.7016H280.775V57.6855H278.775ZM278.775 67.7177V72.7339H280.775V67.7177H278.775ZM278.775 77.75V82.7661H280.775V77.75H278.775ZM278.775 87.7823V92.7984H280.775V87.7823H278.775ZM278.775 97.8145V102.831H280.775V97.8145H278.775ZM278.775 107.847V112.863H280.775V107.847H278.775ZM278.775 117.879V122.895H280.775V117.879H278.775ZM278.775 127.911V132.927H280.775V127.911H278.775ZM278.775 137.944V142.96H280.775V137.944H278.775ZM278.775 147.976V152.992H280.775V147.976H278.775ZM278.775 158.008V163.024H280.775V158.008H278.775ZM278.775 168.04V173.056H280.775V168.04H278.775ZM278.775 178.073V183.089H280.775V178.073H278.775ZM278.775 188.105V193.121H280.775V188.105H278.775ZM278.775 198.137V203.153H280.775V198.137H278.775ZM278.775 208.169V213.185H280.775V208.169H278.775ZM278.775 218.202V223.218H280.775V218.202H278.775ZM278.775 228.234V233.25H280.775V228.234H278.775ZM278.775 238.266V243.282H280.775V238.266H278.775ZM278.775 248.298V253.314H280.775V248.298H278.775ZM278.775 258.331V263.347H280.775V258.331H278.775ZM278.775 268.363V273.379H280.775V268.363H278.775ZM278.775 278.395V283.411H280.775V278.395H278.775ZM278.775 288.427V293.444H280.775V288.427H278.775ZM278.775 298.46V303.476H280.775V298.46H278.775ZM278.775 308.492V311H280.775V308.492H278.775Z" fill="url(#paint0_linear_135_8657)"/>
<path d="M308.492 30.2249C307.94 30.2249 307.492 30.6726 307.492 31.2249C307.492 31.7772 307.94 32.2249 308.492 32.2249L308.492 30.2249ZM303.476 32.2249C304.028 32.2249 304.476 31.7772 304.476 31.2249C304.476 30.6726 304.028 30.2249 303.476 30.2249L303.476 32.2249ZM298.46 30.2249C297.907 30.2249 297.46 30.6726 297.46 31.2249C297.46 31.7772 297.907 32.2249 298.46 32.2249L298.46 30.2249ZM293.444 32.2249C293.996 32.2249 294.444 31.7772 294.444 31.2249C294.444 30.6726 293.996 30.2249 293.444 30.2249L293.444 32.2249ZM288.427 30.2249C287.875 30.2249 287.427 30.6726 287.427 31.2249C287.427 31.7772 287.875 32.2249 288.427 32.2249L288.427 30.2249ZM283.411 32.2249C283.964 32.2249 284.411 31.7772 284.411 31.2249C284.411 30.6726 283.964 30.2249 283.411 30.2249L283.411 32.2249ZM278.395 30.2249C277.843 30.2249 277.395 30.6726 277.395 31.2249C277.395 31.7772 277.843 32.2249 278.395 32.2249L278.395 30.2249ZM273.379 32.2249C273.931 32.2249 274.379 31.7772 274.379 31.2249C274.379 30.6726 273.931 30.2249 273.379 30.2249L273.379 32.2249ZM268.363 30.2249C267.811 30.2249 267.363 30.6726 267.363 31.2249C267.363 31.7772 267.811 32.2249 268.363 32.2249L268.363 30.2249ZM263.347 32.2249C263.899 32.2249 264.347 31.7772 264.347 31.2249C264.347 30.6726 263.899 30.2249 263.347 30.2249L263.347 32.2249ZM258.331 30.2249C257.778 30.2249 257.331 30.6726 257.331 31.2249C257.331 31.7772 257.778 32.2249 258.331 32.2249L258.331 30.2249ZM253.315 32.2249C253.867 32.2249 254.315 31.7772 254.315 31.2249C254.315 30.6726 253.867 30.2249 253.315 30.2249L253.315 32.2249ZM248.298 30.2249C247.746 30.2249 247.298 30.6726 247.298 31.2249C247.298 31.7772 247.746 32.2249 248.298 32.2249L248.298 30.2249ZM243.282 32.2249C243.835 32.2249 244.282 31.7772 244.282 31.2249C244.282 30.6726 243.835 30.2249 243.282 30.2249L243.282 32.2249ZM238.266 30.2249C237.714 30.2249 237.266 30.6726 237.266 31.2249C237.266 31.7772 237.714 32.2249 238.266 32.2249L238.266 30.2249ZM233.25 32.2249C233.802 32.2249 234.25 31.7772 234.25 31.2249C234.25 30.6726 233.802 30.2249 233.25 30.2249L233.25 32.2249ZM228.234 30.2249C227.682 30.2249 227.234 30.6726 227.234 31.2249C227.234 31.7772 227.682 32.2249 228.234 32.2249L228.234 30.2249ZM223.218 32.2249C223.77 32.2249 224.218 31.7772 224.218 31.2249C224.218 30.6726 223.77 30.2249 223.218 30.2249L223.218 32.2249ZM218.202 30.2249C217.649 30.2249 217.202 30.6726 217.202 31.2249C217.202 31.7772 217.649 32.2249 218.202 32.2249L218.202 30.2249ZM213.185 32.2249C213.738 32.2249 214.185 31.7772 214.185 31.2249C214.185 30.6726 213.738 30.2249 213.185 30.2249L213.185 32.2249ZM208.169 30.2249C207.617 30.2249 207.169 30.6726 207.169 31.2249C207.169 31.7772 207.617 32.2249 208.169 32.2249L208.169 30.2249ZM203.153 32.2249C203.706 32.2249 204.153 31.7772 204.153 31.2249C204.153 30.6726 203.706 30.2249 203.153 30.2249L203.153 32.2249ZM198.137 30.2249C197.585 30.2249 197.137 30.6726 197.137 31.2249C197.137 31.7772 197.585 32.2249 198.137 32.2249L198.137 30.2249ZM193.121 32.2249C193.673 32.2249 194.121 31.7772 194.121 31.2249C194.121 30.6726 193.673 30.2249 193.121 30.2249L193.121 32.2249ZM188.105 30.2249C187.553 30.2249 187.105 30.6726 187.105 31.2249C187.105 31.7772 187.553 32.2249 188.105 32.2249L188.105 30.2249ZM183.089 32.2249C183.641 32.2249 184.089 31.7772 184.089 31.2249C184.089 30.6726 183.641 30.2249 183.089 30.2249L183.089 32.2249ZM178.073 30.2249C177.52 30.2249 177.073 30.6726 177.073 31.2249C177.073 31.7772 177.52 32.2249 178.073 32.2249L178.073 30.2249ZM173.056 32.2249C173.609 32.2249 174.056 31.7772 174.056 31.2249C174.056 30.6726 173.609 30.2249 173.056 30.2249L173.056 32.2249ZM168.04 30.2249C167.488 30.2249 167.04 30.6726 167.04 31.2249C167.04 31.7772 167.488 32.2249 168.04 32.2249L168.04 30.2249ZM163.024 32.2249C163.577 32.2249 164.024 31.7772 164.024 31.2249C164.024 30.6726 163.577 30.2249 163.024 30.2249L163.024 32.2249ZM158.008 30.2249C157.456 30.2249 157.008 30.6726 157.008 31.2249C157.008 31.7772 157.456 32.2249 158.008 32.2249L158.008 30.2249ZM152.992 32.2249C153.544 32.2249 153.992 31.7772 153.992 31.2249C153.992 30.6726 153.544 30.2249 152.992 30.2249L152.992 32.2249ZM147.976 30.2249C147.424 30.2249 146.976 30.6726 146.976 31.2249C146.976 31.7772 147.424 32.2249 147.976 32.2249L147.976 30.2249ZM142.96 32.2249C143.512 32.2249 143.96 31.7772 143.96 31.2249C143.96 30.6726 143.512 30.2249 142.96 30.2249L142.96 32.2249ZM137.944 30.2249C137.391 30.2249 136.944 30.6726 136.944 31.2249C136.944 31.7772 137.391 32.2249 137.944 32.2249L137.944 30.2249ZM132.927 32.2249C133.48 32.2249 133.927 31.7772 133.927 31.2249C133.927 30.6726 133.48 30.2249 132.927 30.2249L132.927 32.2249ZM127.911 30.2249C127.359 30.2249 126.911 30.6726 126.911 31.2249C126.911 31.7772 127.359 32.2249 127.911 32.2249L127.911 30.2249ZM122.895 32.2249C123.447 32.2249 123.895 31.7772 123.895 31.2249C123.895 30.6726 123.447 30.2249 122.895 30.2249L122.895 32.2249ZM117.879 30.2249C117.327 30.2249 116.879 30.6726 116.879 31.2249C116.879 31.7772 117.327 32.2249 117.879 32.2249L117.879 30.2249ZM112.863 32.2249C113.415 32.2249 113.863 31.7772 113.863 31.2249C113.863 30.6726 113.415 30.2249 112.863 30.2249L112.863 32.2249ZM107.847 30.2249C107.295 30.2249 106.847 30.6726 106.847 31.2249C106.847 31.7772 107.295 32.2249 107.847 32.2249L107.847 30.2249ZM102.831 32.2249C103.383 32.2249 103.831 31.7772 103.831 31.2249C103.831 30.6726 103.383 30.2249 102.831 30.2249L102.831 32.2249ZM97.8145 30.2249C97.2623 30.2249 96.8145 30.6726 96.8145 31.2249C96.8145 31.7772 97.2623 32.2249 97.8145 32.2249L97.8145 30.2249ZM92.7984 32.2249C93.3507 32.2249 93.7984 31.7772 93.7984 31.2249C93.7984 30.6726 93.3507 30.2249 92.7984 30.2249L92.7984 32.2249ZM87.7823 30.2249C87.23 30.2249 86.7823 30.6726 86.7823 31.2249C86.7823 31.7772 87.23 32.2249 87.7823 32.2249L87.7823 30.2249ZM82.7662 32.2249C83.3185 32.2249 83.7662 31.7772 83.7662 31.2249C83.7662 30.6726 83.3185 30.2249 82.7662 30.2249L82.7662 32.2249ZM77.75 30.2249C77.1977 30.2249 76.75 30.6726 76.75 31.2249C76.75 31.7772 77.1977 32.2249 77.75 32.2249L77.75 30.2249ZM72.7339 32.2249C73.2862 32.2249 73.7339 31.7772 73.7339 31.2249C73.7339 30.6726 73.2862 30.2249 72.7339 30.2249L72.7339 32.2249ZM67.7178 30.2249C67.1655 30.2249 66.7178 30.6726 66.7178 31.2249C66.7178 31.7772 67.1655 32.2249 67.7178 32.2249L67.7178 30.2249ZM62.7017 32.2249C63.2539 32.2249 63.7017 31.7772 63.7017 31.2249C63.7017 30.6726 63.2539 30.2249 62.7017 30.2249L62.7017 32.2249ZM57.6855 30.2249C57.1332 30.2249 56.6855 30.6726 56.6855 31.2249C56.6855 31.7772 57.1332 32.2249 57.6855 32.2249L57.6855 30.2249ZM52.6694 32.2249C53.2216 32.2249 53.6694 31.7772 53.6694 31.2249C53.6694 30.6726 53.2216 30.2249 52.6694 30.2249L52.6694 32.2249ZM47.6533 30.2249C47.101 30.2249 46.6533 30.6726 46.6533 31.2249C46.6533 31.7772 47.101 32.2249 47.6533 32.2249L47.6533 30.2249ZM42.6371 32.2249C43.1894 32.2249 43.6371 31.7772 43.6371 31.2249C43.6371 30.6726 43.1894 30.2249 42.6371 30.2249L42.6371 32.2249ZM37.621 30.2249C37.0688 30.2249 36.621 30.6726 36.621 31.2249C36.621 31.7772 37.0688 32.2249 37.621 32.2249L37.621 30.2249ZM32.6049 32.2249C33.1572 32.2249 33.6049 31.7772 33.6049 31.2249C33.6049 30.6726 33.1572 30.2249 32.6049 30.2249L32.6049 32.2249ZM27.5888 30.2249C27.0365 30.2249 26.5888 30.6726 26.5888 31.2249C26.5888 31.7772 27.0365 32.2249 27.5888 32.2249L27.5888 30.2249ZM22.5727 32.2249C23.125 32.2249 23.5727 31.7772 23.5727 31.2249C23.5727 30.6726 23.125 30.2249 22.5727 30.2249L22.5727 32.2249ZM17.5566 30.2249C17.0043 30.2249 16.5566 30.6726 16.5566 31.2249C16.5566 31.7772 17.0043 32.2249 17.5566 32.2249L17.5566 30.2249ZM12.5405 32.2249C13.0928 32.2249 13.5405 31.7772 13.5405 31.2249C13.5405 30.6726 13.0928 30.2249 12.5405 30.2249L12.5405 32.2249ZM7.52435 30.2249C6.97208 30.2249 6.52435 30.6726 6.52435 31.2249C6.52435 31.7772 6.97208 32.2249 7.52435 32.2249L7.52435 30.2249ZM2.50824 32.2249C3.06055 32.2249 3.50824 31.7772 3.50824 31.2249C3.50824 30.6726 3.06055 30.2249 2.50824 30.2249L2.50824 32.2249ZM308.492 278.775C307.94 278.775 307.492 279.223 307.492 279.775C307.492 280.327 307.94 280.775 308.492 280.775L308.492 278.775ZM303.476 280.775C304.028 280.775 304.476 280.327 304.476 279.775C304.476 279.223 304.028 278.775 303.476 278.775L303.476 280.775ZM298.46 278.775C297.907 278.775 297.46 279.223 297.46 279.775C297.46 280.327 297.907 280.775 298.46 280.775L298.46 278.775ZM293.444 280.775C293.996 280.775 294.444 280.327 294.444 279.775C294.444 279.223 293.996 278.775 293.444 278.775L293.444 280.775ZM288.427 278.775C287.875 278.775 287.427 279.223 287.427 279.775C287.427 280.327 287.875 280.775 288.427 280.775L288.427 278.775ZM283.411 280.775C283.964 280.775 284.411 280.327 284.411 279.775C284.411 279.223 283.964 278.775 283.411 278.775L283.411 280.775ZM278.395 278.775C277.843 278.775 277.395 279.223 277.395 279.775C277.395 280.327 277.843 280.775 278.395 280.775L278.395 278.775ZM273.379 280.775C273.931 280.775 274.379 280.327 274.379 279.775C274.379 279.223 273.931 278.775 273.379 278.775L273.379 280.775ZM268.363 278.775C267.811 278.775 267.363 279.223 267.363 279.775C267.363 280.327 267.811 280.775 268.363 280.775L268.363 278.775ZM263.347 280.775C263.899 280.775 264.347 280.327 264.347 279.775C264.347 279.223 263.899 278.775 263.347 278.775L263.347 280.775ZM258.331 278.775C257.778 278.775 257.331 279.223 257.331 279.775C257.331 280.327 257.778 280.775 258.331 280.775L258.331 278.775ZM253.315 280.775C253.867 280.775 254.315 280.327 254.315 279.775C254.315 279.223 253.867 278.775 253.315 278.775L253.315 280.775ZM248.298 278.775C247.746 278.775 247.298 279.223 247.298 279.775C247.298 280.327 247.746 280.775 248.298 280.775L248.298 278.775ZM243.282 280.775C243.835 280.775 244.282 280.327 244.282 279.775C244.282 279.223 243.835 278.775 243.282 278.775L243.282 280.775ZM238.266 278.775C237.714 278.775 237.266 279.223 237.266 279.775C237.266 280.327 237.714 280.775 238.266 280.775L238.266 278.775ZM233.25 280.775C233.802 280.775 234.25 280.327 234.25 279.775C234.25 279.223 233.802 278.775 233.25 278.775L233.25 280.775ZM228.234 278.775C227.682 278.775 227.234 279.223 227.234 279.775C227.234 280.327 227.682 280.775 228.234 280.775L228.234 278.775ZM223.218 280.775C223.77 280.775 224.218 280.327 224.218 279.775C224.218 279.223 223.77 278.775 223.218 278.775L223.218 280.775ZM218.202 278.775C217.649 278.775 217.202 279.223 217.202 279.775C217.202 280.327 217.649 280.775 218.202 280.775L218.202 278.775ZM213.185 280.775C213.738 280.775 214.185 280.327 214.185 279.775C214.185 279.223 213.738 278.775 213.185 278.775L213.185 280.775ZM208.169 278.775C207.617 278.775 207.169 279.223 207.169 279.775C207.169 280.327 207.617 280.775 208.169 280.775L208.169 278.775ZM203.153 280.775C203.706 280.775 204.153 280.327 204.153 279.775C204.153 279.223 203.706 278.775 203.153 278.775L203.153 280.775ZM198.137 278.775C197.585 278.775 197.137 279.223 197.137 279.775C197.137 280.327 197.585 280.775 198.137 280.775L198.137 278.775ZM193.121 280.775C193.673 280.775 194.121 280.327 194.121 279.775C194.121 279.223 193.673 278.775 193.121 278.775L193.121 280.775ZM188.105 278.775C187.553 278.775 187.105 279.223 187.105 279.775C187.105 280.327 187.553 280.775 188.105 280.775L188.105 278.775ZM183.089 280.775C183.641 280.775 184.089 280.327 184.089 279.775C184.089 279.223 183.641 278.775 183.089 278.775L183.089 280.775ZM178.073 278.775C177.52 278.775 177.073 279.223 177.073 279.775C177.073 280.327 177.52 280.775 178.073 280.775L178.073 278.775ZM173.056 280.775C173.609 280.775 174.056 280.327 174.056 279.775C174.056 279.223 173.609 278.775 173.056 278.775L173.056 280.775ZM168.04 278.775C167.488 278.775 167.04 279.223 167.04 279.775C167.04 280.327 167.488 280.775 168.04 280.775L168.04 278.775ZM163.024 280.775C163.576 280.775 164.024 280.327 164.024 279.775C164.024 279.223 163.576 278.775 163.024 278.775L163.024 280.775ZM158.008 278.775C157.456 278.775 157.008 279.223 157.008 279.775C157.008 280.327 157.456 280.775 158.008 280.775L158.008 278.775ZM152.992 280.775C153.544 280.775 153.992 280.327 153.992 279.775C153.992 279.223 153.544 278.775 152.992 278.775L152.992 280.775ZM147.976 278.775C147.424 278.775 146.976 279.223 146.976 279.775C146.976 280.327 147.424 280.775 147.976 280.775L147.976 278.775ZM142.96 280.775C143.512 280.775 143.96 280.327 143.96 279.775C143.96 279.223 143.512 278.775 142.96 278.775L142.96 280.775ZM137.944 278.775C137.391 278.775 136.944 279.223 136.944 279.775C136.944 280.327 137.391 280.775 137.944 280.775L137.944 278.775ZM132.927 280.775C133.48 280.775 133.927 280.327 133.927 279.775C133.927 279.223 133.48 278.775 132.927 278.775L132.927 280.775ZM127.911 278.775C127.359 278.775 126.911 279.223 126.911 279.775C126.911 280.327 127.359 280.775 127.911 280.775L127.911 278.775ZM122.895 280.775C123.447 280.775 123.895 280.327 123.895 279.775C123.895 279.223 123.447 278.775 122.895 278.775L122.895 280.775ZM117.879 278.775C117.327 278.775 116.879 279.223 116.879 279.775C116.879 280.327 117.327 280.775 117.879 280.775L117.879 278.775ZM112.863 280.775C113.415 280.775 113.863 280.327 113.863 279.775C113.863 279.223 113.415 278.775 112.863 278.775L112.863 280.775ZM107.847 278.775C107.295 278.775 106.847 279.223 106.847 279.775C106.847 280.327 107.295 280.775 107.847 280.775L107.847 278.775ZM102.831 280.775C103.383 280.775 103.831 280.327 103.831 279.775C103.831 279.223 103.383 278.775 102.831 278.775L102.831 280.775ZM97.8145 278.775C97.2622 278.775 96.8145 279.223 96.8145 279.775C96.8145 280.327 97.2622 280.775 97.8145 280.775L97.8145 278.775ZM92.7984 280.775C93.3507 280.775 93.7984 280.327 93.7984 279.775C93.7984 279.223 93.3507 278.775 92.7984 278.775L92.7984 280.775ZM87.7823 278.775C87.23 278.775 86.7823 279.223 86.7823 279.775C86.7823 280.327 87.23 280.775 87.7823 280.775L87.7823 278.775ZM82.7662 280.775C83.3184 280.775 83.7662 280.327 83.7662 279.775C83.7662 279.223 83.3184 278.775 82.7662 278.775L82.7662 280.775ZM77.75 278.775C77.1977 278.775 76.75 279.223 76.75 279.775C76.75 280.327 77.1977 280.775 77.75 280.775L77.75 278.775ZM72.7339 280.775C73.2862 280.775 73.7339 280.327 73.7339 279.775C73.7339 279.223 73.2862 278.775 72.7339 278.775L72.7339 280.775ZM67.7178 278.775C67.1655 278.775 66.7178 279.223 66.7178 279.775C66.7178 280.327 67.1655 280.775 67.7178 280.775L67.7178 278.775ZM62.7016 280.775C63.2539 280.775 63.7016 280.327 63.7016 279.775C63.7016 279.223 63.2539 278.775 62.7016 278.775L62.7016 280.775ZM57.6855 278.775C57.1332 278.775 56.6855 279.223 56.6855 279.775C56.6855 280.327 57.1332 280.775 57.6855 280.775L57.6855 278.775ZM52.6694 280.775C53.2216 280.775 53.6694 280.327 53.6694 279.775C53.6694 279.223 53.2216 278.775 52.6694 278.775L52.6694 280.775ZM47.6532 278.775C47.101 278.775 46.6532 279.223 46.6532 279.775C46.6532 280.327 47.101 280.775 47.6532 280.775L47.6532 278.775ZM42.6371 280.775C43.1894 280.775 43.6371 280.327 43.6371 279.775C43.6371 279.223 43.1894 278.775 42.6371 278.775L42.6371 280.775ZM37.621 278.775C37.0687 278.775 36.621 279.223 36.621 279.775C36.621 280.327 37.0687 280.775 37.621 280.775L37.621 278.775ZM32.6049 280.775C33.1572 280.775 33.6049 280.327 33.6049 279.775C33.6049 279.223 33.1572 278.775 32.6049 278.775L32.6049 280.775ZM27.5888 278.775C27.0365 278.775 26.5888 279.223 26.5888 279.775C26.5888 280.327 27.0365 280.775 27.5888 280.775L27.5888 278.775ZM22.5727 280.775C23.125 280.775 23.5727 280.327 23.5727 279.775C23.5727 279.223 23.125 278.775 22.5727 278.775L22.5727 280.775ZM17.5566 278.775C17.0043 278.775 16.5566 279.223 16.5566 279.775C16.5566 280.327 17.0043 280.775 17.5566 280.775L17.5566 278.775ZM12.5405 280.775C13.0928 280.775 13.5405 280.327 13.5405 279.775C13.5405 279.223 13.0928 278.775 12.5405 278.775L12.5405 280.775ZM7.52434 278.775C6.97207 278.775 6.52434 279.223 6.52434 279.775C6.52434 280.327 6.97207 280.775 7.52434 280.775L7.52434 278.775ZM2.50823 280.775C3.06054 280.775 3.50823 280.327 3.50823 279.775C3.50823 279.223 3.06054 278.775 2.50823 278.775L2.50823 280.775ZM311 30.2249L308.492 30.2249L308.492 32.2249L311 32.2249L311 30.2249ZM303.476 30.2249L298.46 30.2249L298.46 32.2249L303.476 32.2249L303.476 30.2249ZM293.444 30.2249L288.427 30.2249L288.427 32.2249L293.444 32.2249L293.444 30.2249ZM283.411 30.2249L278.395 30.2249L278.395 32.2249L283.411 32.2249L283.411 30.2249ZM273.379 30.2249L268.363 30.2249L268.363 32.2249L273.379 32.2249L273.379 30.2249ZM263.347 30.2249L258.331 30.2249L258.331 32.2249L263.347 32.2249L263.347 30.2249ZM253.315 30.2249L248.298 30.2249L248.298 32.2249L253.315 32.2249L253.315 30.2249ZM243.282 30.2249L238.266 30.2249L238.266 32.2249L243.282 32.2249L243.282 30.2249ZM233.25 30.2249L228.234 30.2249L228.234 32.2249L233.25 32.2249L233.25 30.2249ZM223.218 30.2249L218.202 30.2249L218.202 32.2249L223.218 32.2249L223.218 30.2249ZM213.185 30.2249L208.169 30.2249L208.169 32.2249L213.185 32.2249L213.185 30.2249ZM203.153 30.2249L198.137 30.2249L198.137 32.2249L203.153 32.2249L203.153 30.2249ZM193.121 30.2249L188.105 30.2249L188.105 32.2249L193.121 32.2249L193.121 30.2249ZM183.089 30.2249L178.073 30.2249L178.073 32.2249L183.089 32.2249L183.089 30.2249ZM173.056 30.2249L168.04 30.2249L168.04 32.2249L173.056 32.2249L173.056 30.2249ZM163.024 30.2249L158.008 30.2249L158.008 32.2249L163.024 32.2249L163.024 30.2249ZM152.992 30.2249L147.976 30.2249L147.976 32.2249L152.992 32.2249L152.992 30.2249ZM142.96 30.2249L137.944 30.2249L137.944 32.2249L142.96 32.2249L142.96 30.2249ZM132.927 30.2249L127.911 30.2249L127.911 32.2249L132.927 32.2249L132.927 30.2249ZM122.895 30.2249L117.879 30.2249L117.879 32.2249L122.895 32.2249L122.895 30.2249ZM112.863 30.2249L107.847 30.2249L107.847 32.2249L112.863 32.2249L112.863 30.2249ZM102.831 30.2249L97.8145 30.2249L97.8145 32.2249L102.831 32.2249L102.831 30.2249ZM92.7984 30.2249L87.7823 30.2249L87.7823 32.2249L92.7984 32.2249L92.7984 30.2249ZM82.7662 30.2249L77.75 30.2249L77.75 32.2249L82.7662 32.2249L82.7662 30.2249ZM72.7339 30.2249L67.7178 30.2249L67.7178 32.2249L72.7339 32.2249L72.7339 30.2249ZM62.7017 30.2249L57.6855 30.2249L57.6855 32.2249L62.7017 32.2249L62.7017 30.2249ZM52.6694 30.2249L47.6533 30.2249L47.6533 32.2249L52.6694 32.2249L52.6694 30.2249ZM42.6371 30.2249L37.621 30.2249L37.621 32.2249L42.6371 32.2249L42.6371 30.2249ZM32.6049 30.2249L27.5888 30.2249L27.5888 32.2249L32.6049 32.2249L32.6049 30.2249ZM22.5727 30.2249L17.5566 30.2249L17.5566 32.2249L22.5727 32.2249L22.5727 30.2249ZM12.5405 30.2249L7.52435 30.2249L7.52435 32.2249L12.5405 32.2249L12.5405 30.2249ZM2.50824 30.2249L3.05613e-05 30.2249L3.04739e-05 32.2249L2.50824 32.2249L2.50824 30.2249ZM311 278.775L308.492 278.775L308.492 280.775L311 280.775L311 278.775ZM303.476 278.775L298.46 278.775L298.46 280.775L303.476 280.775L303.476 278.775ZM293.444 278.775L288.427 278.775L288.427 280.775L293.444 280.775L293.444 278.775ZM283.411 278.775L278.395 278.775L278.395 280.775L283.411 280.775L283.411 278.775ZM273.379 278.775L268.363 278.775L268.363 280.775L273.379 280.775L273.379 278.775ZM263.347 278.775L258.331 278.775L258.331 280.775L263.347 280.775L263.347 278.775ZM253.315 278.775L248.298 278.775L248.298 280.775L253.315 280.775L253.315 278.775ZM243.282 278.775L238.266 278.775L238.266 280.775L243.282 280.775L243.282 278.775ZM233.25 278.775L228.234 278.775L228.234 280.775L233.25 280.775L233.25 278.775ZM223.218 278.775L218.202 278.775L218.202 280.775L223.218 280.775L223.218 278.775ZM213.185 278.775L208.169 278.775L208.169 280.775L213.185 280.775L213.185 278.775ZM203.153 278.775L198.137 278.775L198.137 280.775L203.153 280.775L203.153 278.775ZM193.121 278.775L188.105 278.775L188.105 280.775L193.121 280.775L193.121 278.775ZM183.089 278.775L178.073 278.775L178.073 280.775L183.089 280.775L183.089 278.775ZM173.056 278.775L168.04 278.775L168.04 280.775L173.056 280.775L173.056 278.775ZM163.024 278.775L158.008 278.775L158.008 280.775L163.024 280.775L163.024 278.775ZM152.992 278.775L147.976 278.775L147.976 280.775L152.992 280.775L152.992 278.775ZM142.96 278.775L137.944 278.775L137.944 280.775L142.96 280.775L142.96 278.775ZM132.927 278.775L127.911 278.775L127.911 280.775L132.927 280.775L132.927 278.775ZM122.895 278.775L117.879 278.775L117.879 280.775L122.895 280.775L122.895 278.775ZM112.863 278.775L107.847 278.775L107.847 280.775L112.863 280.775L112.863 278.775ZM102.831 278.775L97.8145 278.775L97.8145 280.775L102.831 280.775L102.831 278.775ZM92.7984 278.775L87.7823 278.775L87.7823 280.775L92.7984 280.775L92.7984 278.775ZM82.7662 278.775L77.75 278.775L77.75 280.775L82.7662 280.775L82.7662 278.775ZM72.7339 278.775L67.7178 278.775L67.7178 280.775L72.7339 280.775L72.7339 278.775ZM62.7016 278.775L57.6855 278.775L57.6855 280.775L62.7016 280.775L62.7016 278.775ZM52.6694 278.775L47.6532 278.775L47.6532 280.775L52.6694 280.775L52.6694 278.775ZM42.6371 278.775L37.621 278.775L37.621 280.775L42.6371 280.775L42.6371 278.775ZM32.6049 278.775L27.5888 278.775L27.5888 280.775L32.6049 280.775L32.6049 278.775ZM22.5727 278.775L17.5566 278.775L17.5566 280.775L22.5727 280.775L22.5727 278.775ZM12.5405 278.775L7.52434 278.775L7.52434 280.775L12.5405 280.775L12.5405 278.775ZM2.50823 278.775L1.96968e-05 278.775L1.96094e-05 280.775L2.50823 280.775L2.50823 278.775Z" fill="url(#paint1_linear_135_8657)"/>
</g>
<mask id="mask0_135_8657" style="mask-type:alpha" maskUnits="userSpaceOnUse" x="40" y="40" width="231" height="231">
<rect x="40" y="40" width="231" height="231" fill="#C4C4C4"/>
</mask>
<g mask="url(#mask0_135_8657)">
<path d="M158.259 244.808C158.186 244.808 158.112 244.793 158.044 244.764C157.976 244.735 157.915 244.693 157.863 244.64L157.459 244.23L157.112 243.881C157.021 243.787 156.965 243.663 156.957 243.532C156.948 243.401 156.987 243.271 157.066 243.166C157.966 242.016 159.106 241.077 160.407 240.415C161.656 237.368 160.652 234.224 159.538 230.737L159.423 230.376C158.958 229.975 158.477 229.592 157.984 229.199C156.681 228.165 155.333 227.095 154.183 225.53C154.119 225.442 154.082 225.338 154.077 225.229C154.072 225.12 154.1 225.013 154.156 224.919C154.621 224.155 155.655 223.478 156.854 222.694L157.476 222.285C157.25 219.595 157.715 217.133 159.83 216.052C159.938 215.997 160.062 215.979 160.181 216.002C160.3 216.024 160.409 216.085 160.49 216.176C161.376 217.163 161.761 218.162 161.631 219.138C161.436 220.637 160.102 221.803 158.644 222.818C158.958 225.357 159.835 228.088 160.377 229.749C161.079 230.359 161.72 231.036 162.292 231.771C163.98 234.018 164.272 236.372 164.552 238.647C164.552 238.704 164.566 238.762 164.574 238.82C166.252 238.361 167.999 238.031 169.665 237.72C170.411 237.58 171.115 237.445 171.797 237.307C172.721 237.115 173.651 236.903 174.594 236.677C176.297 235.027 177.895 233.481 179.157 232.711C183.624 229.991 188.233 228.467 194.537 227.612C200.327 226.831 201.023 225.236 203.338 219.944C204.189 218.079 205.132 216.257 206.166 214.487C207.406 212.287 208.683 210.012 209.574 207.551C209.191 207.113 208.793 206.676 208.396 206.241C205.844 203.453 202.953 200.29 205.58 197.209C206.349 196.351 207.221 195.591 208.176 194.946C208.603 194.635 209.002 194.34 209.389 194.016C208.883 192.718 208.262 191.373 207.566 189.912C204.87 184.26 203.691 180.107 204.727 173.088C205.044 170.935 205.432 168.751 205.844 166.438C206.144 164.752 206.446 163.055 206.721 161.355C206.119 160.142 205.484 158.959 204.857 157.793C201.831 152.147 198.957 146.814 200.071 139.349C200.071 139.321 200.071 139.297 200.085 139.269C199.507 138.527 198.82 137.699 198.069 136.794C194.402 132.366 189.84 126.857 190.381 122.508C190.64 120.434 191.462 119.208 192.821 118.864C193.825 118.611 194.994 118.897 196.171 119.477C195.641 118.701 195.018 117.991 194.317 117.365C191.968 115.288 189.069 114.714 185.703 115.651C180.502 117.104 174.729 121.521 170.851 124.728L170.507 125.003C167.971 127.082 164.816 129.679 163.455 132.487C162.605 134.244 162.572 136.062 162.539 137.987C162.523 138.813 162.509 139.673 162.429 140.559L162.399 140.911C162.195 143.329 161.818 147.828 159.054 148.508C156.653 149.094 154.929 146.162 153.804 144.22C153.606 143.882 153.419 143.56 153.254 143.31L153.116 143.095C151.92 141.233 151.106 140.18 150.696 139.951C150.599 140.356 150.569 140.774 150.608 141.189C150.671 142.916 152.104 144.723 153.358 146.316C153.564 146.574 153.765 146.827 153.952 147.072C154.902 148.259 155.911 149.397 156.978 150.48C159.662 153.307 162.203 155.981 162.429 160.577C162.641 164.771 161.398 168.173 160.198 171.465C159.507 173.232 158.92 175.037 158.441 176.873C157.77 179.686 158.339 182.544 158.889 185.311C159.387 187.808 159.901 190.394 159.527 192.979C158.51 199.99 151.661 202.916 148.765 203.851C146.053 204.723 143.165 205.554 140.258 205.309C139.579 205.251 138.949 205.147 138.333 205.034C136.487 204.726 135.032 204.484 133.145 205.639C130.079 207.52 126.861 212.345 126.424 216.016L126.809 215.37C128.712 212.177 130.678 208.876 134.048 207.19C137.194 205.614 140.041 206.338 142.552 206.973C145.027 207.6 147.145 208.139 149.365 206.767C153.677 204.099 157.454 200.369 161.103 196.761C161.821 196.051 162.539 195.344 163.254 194.649C165.768 192.206 168.48 189.877 171.107 187.624C173.876 185.242 176.742 182.781 179.308 180.236C183.632 175.951 182.317 171.207 180.796 165.712L180.725 165.456C180.21 165.375 179.744 165.107 179.415 164.702C179.283 164.543 179.126 164.407 178.951 164.298C178.851 164.239 178.772 164.15 178.726 164.044C178.679 163.938 178.667 163.82 178.692 163.706C180.018 157.579 192.507 154.883 197.422 155.384C199.361 155.582 200.808 156.267 201.719 157.419C203.471 159.619 203.017 163.074 202.579 166.405C202.382 167.689 202.263 168.984 202.225 170.283C202.273 171.909 202.408 173.531 202.629 175.143C203.132 179.477 203.704 184.392 201.705 187.704C200.228 190.146 197.263 191.904 194.391 193.601C192.381 194.792 190.48 195.914 189.13 197.223C188.162 198.161 187.221 199.148 186.314 200.103C183.365 203.213 180.315 206.417 176.044 208.145C174.841 208.629 173.641 209.118 172.443 209.613C168.741 211.132 164.913 212.705 161.026 213.978C156.312 215.521 152.079 219.768 148.677 223.181C148.011 223.85 147.415 224.474 146.837 225.079C143.971 228.08 141.9 230.25 137.211 231.386C136.168 231.639 134.6 232.612 132.939 233.644C129.256 235.932 125.081 238.526 122.433 236.323C122.345 236.25 122.282 236.152 122.253 236.042C122.223 235.932 122.228 235.816 122.268 235.709C122.884 234.042 124.724 232.981 126.501 231.952C128.277 230.924 129.936 229.969 130.351 228.553C128.486 229.04 126.858 230.054 125.15 231.122C124.658 231.427 124.149 231.746 123.632 232.048C122.136 232.931 120.166 233.173 119.168 232.623C118.978 232.529 118.818 232.385 118.705 232.206C118.591 232.027 118.529 231.82 118.524 231.608C118.539 231.379 118.599 231.155 118.701 230.949C118.803 230.743 118.945 230.56 119.118 230.409H119.11C119.01 230.444 118.902 230.448 118.799 230.422C118.696 230.397 118.602 230.342 118.53 230.264C118.457 230.186 118.409 230.089 118.391 229.985C118.372 229.88 118.384 229.773 118.425 229.675C121.971 221.347 124.336 213.841 124.336 204.294C124.336 203.561 124.325 202.845 124.303 202.146C123.708 204.926 122.905 207.658 121.902 210.318C121.605 211.11 121.307 211.901 121.008 212.691C119.327 217.152 117.586 221.767 116.459 226.394C115.749 229.309 115.386 232.865 115.034 236.295C114.729 239.299 114.44 242.134 113.934 244.357C113.907 244.481 113.837 244.592 113.736 244.671C113.636 244.75 113.511 244.791 113.384 244.788H36.7898C36.6439 244.788 36.504 244.73 36.4009 244.627C36.2977 244.524 36.2397 244.384 36.2397 244.238C36.2397 244.092 36.2977 243.952 36.4009 243.849C36.504 243.746 36.6439 243.688 36.7898 243.688H112.96C113.392 241.592 113.662 238.96 113.942 236.182C114.297 232.706 114.666 229.111 115.392 226.121C116.539 221.426 118.288 216.784 119.982 212.292C120.279 211.503 120.579 210.714 120.873 209.921C122.422 205.88 123.455 201.66 123.948 197.36C123.652 194.851 123.089 192.381 122.268 189.992C121.217 192.984 119.352 195.446 117.262 197.71C118.362 202.746 119.506 207.955 117.405 212.177C117.13 212.727 116.283 214.421 115.004 214.212C113.433 213.951 112.253 210.846 111.173 203.967C110.266 204.953 109.432 206.003 108.675 207.108C109.57 208.347 110.338 209.673 110.969 211.066C112.344 214.231 111.316 216.745 109.998 217.942C108.898 218.946 107.481 219.207 106.423 218.605C105.597 218.14 104.31 216.775 105.047 212.9C105.453 210.858 106.232 208.908 107.347 207.149C106.72 206.294 106.051 205.449 105.369 204.586C103.878 202.702 102.344 200.752 101.161 198.551C94.9782 186.942 93.4462 170.53 97.437 158.637C97.6626 157.966 97.8908 157.306 98.1164 156.657C99.8986 151.528 101.439 147.094 99.5136 141.775C99.035 140.457 98.4959 139.154 97.9211 137.77C96.1058 133.397 94.2301 128.875 94.5188 123.974C94.6729 121.356 96.7852 115.91 99.5383 111.023C101.543 107.464 105.589 101.204 110.147 99.2783C112.57 98.2524 114.781 98.5825 116.723 100.257C117.331 100.788 117.817 101.445 118.145 102.183C118.699 102.052 119.261 101.96 119.828 101.908C121.074 101.78 122.329 102.021 123.439 102.601C124.071 102.912 124.74 103.14 125.431 103.28C126.451 103.475 127.793 103.093 129.094 102.73C130.054 102.415 131.045 102.207 132.051 102.111C131.776 101.173 131.869 100.04 131.955 98.9208C132.164 96.1704 132.081 96.0163 131.08 94.1378C130.912 93.8215 130.72 93.4585 130.5 93.0377C129.207 90.5265 128.231 85.6528 128.162 81.5382C127.456 81.5801 126.749 81.4821 126.081 81.2498C125.413 81.0176 124.798 80.6558 124.27 80.185C123.145 79.2141 122.584 78.1442 122.6 77.0028C122.639 74.5137 125.351 72.3134 127.749 70.3743C128.448 69.8105 129.105 69.2742 129.625 68.7901C134.152 64.5572 138.638 61.5483 142.942 59.8403C148.669 57.5767 153.917 57.728 158.534 60.2831C167.091 65.0193 169.795 73.8481 170.446 81.0762C171.321 80.317 172.647 80.251 173.747 80.185C174.176 80.1732 174.605 80.1327 175.029 80.064C175.449 79.9815 175.925 79.8605 176.429 79.734C178.23 79.2746 180.279 78.7576 181.753 79.4397C183.087 80.0558 184.152 81.3815 184.837 83.2682C185.849 86.0654 185.871 89.8692 184.889 91.954C184.511 92.7339 184.034 93.4615 183.47 94.1186C182.796 94.9437 182.353 95.4938 182.402 97.144C182.402 97.3145 182.419 97.4796 182.435 97.6418C188.057 98.3074 189.801 102.318 191.787 106.897C192.343 108.084 192.993 109.224 193.731 110.307C194.909 112.142 196.127 114.037 196.418 116.345C196.431 116.446 196.416 116.548 196.373 116.641C196.331 116.734 196.264 116.813 196.179 116.87C196.094 116.927 195.996 116.959 195.894 116.963C195.792 116.967 195.69 116.942 195.602 116.892C195.461 116.812 195.291 116.708 195.096 116.584C196.374 117.774 197.432 119.181 198.22 120.74C199.798 121.904 201.203 123.284 202.395 124.841C204.549 127.849 205.522 131.477 206.466 134.984C206.807 136.255 207.129 137.459 207.505 138.617C209.125 143.653 209.213 149.165 208.694 154.655C208.804 154.966 208.914 155.276 209.021 155.587L209.455 156.819C211.427 162.428 212.272 167.524 212.277 173.872C212.277 175.739 212.156 177.637 212.002 179.491C212.082 180.465 212.165 181.46 212.258 182.431C212.302 182.863 212.349 183.306 212.401 183.76C212.676 186.219 212.984 189.007 212.321 191.326C212.239 191.612 212.147 191.879 212.046 192.126C212.649 195.977 213.355 199.794 214.04 203.497C215.344 210.543 216.692 217.826 217.36 225.5C217.434 226.355 217.52 227.219 217.605 228.088C218.103 233.245 218.62 238.572 217.434 243.702H360.631C360.777 243.702 360.917 243.76 361.02 243.863C361.123 243.966 361.181 244.106 361.181 244.252C361.181 244.398 361.123 244.538 361.02 244.641C360.917 244.744 360.777 244.802 360.631 244.802H216.749C216.665 244.802 216.582 244.782 216.507 244.745C216.432 244.708 216.366 244.654 216.314 244.587C216.263 244.521 216.228 244.443 216.211 244.361C216.195 244.278 216.197 244.193 216.219 244.112C217.569 238.96 217.044 233.487 216.524 228.195C216.441 227.321 216.356 226.454 216.282 225.596C215.616 217.98 214.274 210.722 212.981 203.703C212.376 200.435 211.755 197.077 211.202 193.683C211.031 193.904 210.847 194.114 210.652 194.313C211.961 197.927 212.407 201.376 211.202 205.953C211.081 206.413 210.946 206.864 210.798 207.306C211.564 208.168 212.197 209.14 212.673 210.191C214.288 214.163 213.688 214.823 211.133 216.715C210.858 216.913 210.583 217.128 210.267 217.364C208.768 218.511 208.454 219.097 208.454 219.388C208.454 219.754 209.035 220.197 209.706 220.709C210.507 221.28 211.239 221.943 211.887 222.683C213.9 225.093 217.113 231.031 215.77 234.51C215.418 235.426 214.568 236.581 212.522 236.873C208.586 237.423 204.436 236.633 200.42 235.863C197.519 235.313 194.521 234.73 191.724 234.708C187.158 234.667 182.323 235.883 177.644 237.051C176.819 237.258 175.972 237.469 175.133 237.673L175.097 237.706C171.574 241.141 167.933 244.692 165.072 244.346C164.976 244.334 164.885 244.297 164.808 244.239C164.731 244.182 164.67 244.104 164.632 244.015C164.141 242.806 163.807 241.539 163.639 240.245C162.829 240.504 162.038 240.822 161.274 241.196C160.629 242.514 159.731 243.691 158.631 244.662C158.53 244.755 158.397 244.807 158.259 244.808ZM158.243 243.46L158.27 243.485C158.532 243.21 158.771 242.965 158.991 242.704C158.725 242.938 158.475 243.191 158.243 243.46ZM164.704 239.923C164.851 241.066 165.127 242.189 165.529 243.27C167.542 243.226 170.452 240.663 173.065 238.157L172.017 238.383C171.324 238.523 170.617 238.658 169.866 238.798C168.166 239.117 166.39 239.453 164.704 239.923ZM161.128 232.07C161.917 234.692 162.476 237.238 161.813 239.747C162.363 239.521 162.927 239.318 163.504 239.136C163.488 239.018 163.474 238.9 163.46 238.784C163.185 236.551 162.924 234.444 161.411 232.434C161.304 232.31 161.211 232.189 161.114 232.073L161.128 232.07ZM210.36 208.522C209.461 210.829 208.267 212.952 207.104 215.023C206.136 216.748 205.132 218.533 204.326 220.381C201.963 225.805 201.078 227.838 194.675 228.701C188.519 229.526 184.047 231.012 179.718 233.652C178.893 234.161 177.842 235.079 176.709 236.155L177.38 235.987C182.127 234.802 187.026 233.578 191.735 233.611C194.633 233.635 197.681 234.219 200.629 234.785C204.554 235.539 208.606 236.317 212.368 235.786C213.603 235.61 214.381 235.066 214.744 234.117C215.77 231.449 213.281 226.075 211.042 223.39C210.447 222.712 209.775 222.106 209.04 221.583C208.135 220.896 207.354 220.301 207.354 219.383C207.354 218.558 208.003 217.705 209.598 216.487C209.915 216.242 210.209 216.025 210.479 215.827C212.726 214.16 213.014 213.945 211.656 210.601C211.319 209.852 210.882 209.153 210.358 208.522H210.36ZM123.483 235.701C125.601 236.9 129.333 234.582 132.364 232.7C134.177 231.573 135.745 230.602 136.958 230.305C141.331 229.246 143.206 227.279 146.034 224.309C146.614 223.698 147.217 223.071 147.89 222.384C151.375 218.888 155.71 214.537 160.677 212.911C164.528 211.649 168.334 210.087 172.017 208.574C173.22 208.079 174.423 207.588 175.625 207.102C179.671 205.474 182.501 202.498 185.508 199.346C186.424 198.381 187.372 197.385 188.357 196.434C189.801 195.034 191.847 193.823 193.825 192.654C196.575 191.026 199.422 189.34 200.756 187.134C202.56 184.145 202.01 179.433 201.526 175.269C201.3 173.616 201.163 171.953 201.116 170.285C201.152 168.938 201.274 167.594 201.482 166.262C201.889 163.156 202.307 159.949 200.849 158.101C200.118 157.177 198.957 156.646 197.304 156.478C192.758 156.016 181.41 158.593 179.85 163.596C179.979 163.708 180.101 163.827 180.216 163.954C180.328 164.104 180.476 164.223 180.646 164.302C180.816 164.381 181.003 164.416 181.189 164.405C181.303 164.414 181.411 164.457 181.499 164.529C181.586 164.602 181.649 164.7 181.679 164.809L181.85 165.417C183.395 171.003 184.856 176.279 180.076 181.018C177.479 183.592 174.6 186.064 171.824 188.444C169.214 190.685 166.513 193.007 164.024 195.424C163.309 196.117 162.597 196.824 161.879 197.531C158.185 201.181 154.365 204.957 149.945 207.688C147.329 209.305 144.763 208.656 142.282 208.026C139.845 207.408 137.332 206.77 134.543 208.158C132.452 209.206 130.912 210.997 129.57 212.996C129.977 212.87 130.42 212.768 130.871 212.666C131.762 212.466 132.683 212.257 133.305 211.841L133.404 211.77C133.523 211.685 133.671 211.651 133.814 211.675C133.886 211.687 133.954 211.713 134.015 211.752C134.076 211.79 134.129 211.84 134.171 211.899C134.213 211.958 134.243 212.024 134.259 212.095C134.276 212.165 134.278 212.238 134.266 212.309C134.254 212.381 134.228 212.449 134.189 212.51C134.151 212.571 134.101 212.624 134.042 212.666L133.94 212.738C133.311 213.205 132.331 214.303 131.3 215.461C128.794 218.266 126.913 220.255 125.48 220.26C125.286 220.262 125.094 220.222 124.916 220.144C124.739 220.065 124.58 219.949 124.451 219.804C124.366 219.709 124.317 219.588 124.311 219.462C124.305 219.335 124.343 219.21 124.418 219.108C124.738 218.676 125.046 218.225 125.348 217.76C124.688 213.332 129.05 206.858 132.579 204.693C134.815 203.318 136.616 203.623 138.523 203.942C139.108 204.038 139.713 204.14 140.352 204.192C143.055 204.421 145.822 203.623 148.427 202.784C151.128 201.915 157.503 199.209 158.438 192.803C158.785 190.402 158.312 188.023 157.811 185.506C157.236 182.624 156.645 179.645 157.371 176.598C157.85 174.723 158.44 172.877 159.137 171.072C160.352 167.736 161.502 164.587 161.304 160.621C161.092 156.426 158.804 154.02 156.153 151.228C155.063 150.117 154.032 148.95 153.064 147.732C152.88 147.493 152.684 147.243 152.481 146.987C151.177 145.337 149.557 143.307 149.48 141.211C149.445 140.706 149.482 140.198 149.59 139.704C147.769 143.136 145.492 146.483 142.94 146.723C142.8 146.736 142.66 146.696 142.549 146.609C142.438 146.523 142.364 146.397 142.343 146.258C142.068 144.399 142.709 142.957 143.512 141.403C145.795 136.984 149.45 133.224 153.369 130.157C155.426 127.121 157.93 124.412 160.795 122.123C163.29 120.093 166.214 118.52 169.046 116.999C175.128 113.732 180.873 110.643 182.133 103.437C182.361 102.122 182.086 101.063 181.792 99.9439C181.682 99.5259 181.572 99.1023 181.484 98.6567C181.286 98.6567 181.082 98.6402 180.873 98.6375C180.429 98.6345 179.984 98.6547 179.542 98.698C178.962 99.396 178.232 99.9545 177.406 100.332C176.58 100.71 175.68 100.897 174.773 100.879C174.23 100.887 173.689 100.794 173.18 100.604C170.768 101.745 168.431 103.039 166.183 104.477C161.865 107.153 157.693 110.203 153.658 113.165C153.941 113.89 153.97 114.69 153.74 115.434C152.877 118.622 148.207 122.28 145.946 123.344C143.768 124.373 142.387 124.533 141.6 123.85C141.113 123.427 140.954 122.783 140.987 121.997C139.65 122.836 138.294 123.64 136.919 124.406C134.955 125.506 132.824 126.158 130.764 126.799C127.812 127.715 125.026 128.581 122.771 130.597C122.33 130.99 121.916 131.412 121.533 131.862C120.771 133.32 119.963 134.687 119.157 136.018C118.332 138.219 117.972 140.647 117.639 143.144C118.002 143.675 118.379 144.203 118.758 144.737C119.625 145.955 120.521 147.212 121.344 148.588C125.194 155.029 123.112 160.268 119.968 165.029C121.189 167.098 122.306 169.254 122.897 171.611C123.64 174.56 123.912 178.091 123.723 181.592C125.161 186.727 125.613 192.088 125.054 197.391C125.319 199.682 125.446 201.987 125.436 204.294C125.436 213.646 123.211 221.072 119.831 229.139C120.041 229.114 120.248 229.073 120.452 229.018C120.528 228.967 120.614 228.936 120.704 228.926C120.795 228.917 120.886 228.931 120.969 228.965C121.039 228.99 121.103 229.028 121.157 229.078C121.212 229.127 121.256 229.187 121.286 229.254C121.317 229.321 121.334 229.394 121.337 229.467C121.339 229.541 121.326 229.614 121.3 229.683C121.338 229.803 121.335 229.932 121.29 230.05C121.245 230.168 121.161 230.266 121.052 230.329C119.649 231.155 119.622 231.586 119.622 231.592C119.708 231.666 119.812 231.717 119.924 231.738C120.617 231.933 121.924 231.768 123.082 231.083C123.585 230.786 124.088 230.472 124.575 230.167C126.514 228.96 128.519 227.708 130.915 227.288C130.995 227.273 131.077 227.277 131.155 227.298C131.233 227.319 131.306 227.358 131.368 227.41C131.43 227.463 131.479 227.528 131.512 227.602C131.546 227.676 131.563 227.756 131.561 227.838C131.561 230.288 129.273 231.614 127.053 232.896C125.609 233.723 124.116 234.595 123.483 235.701ZM155.316 225.197C156.331 226.473 157.517 227.417 158.669 228.33L158.809 228.443C158.293 226.824 157.896 225.169 157.621 223.492L157.456 223.599C156.59 224.169 155.765 224.71 155.316 225.197ZM159.959 217.251C158.812 218.076 158.468 219.691 158.54 221.531C159.571 220.755 160.418 219.911 160.539 218.987C160.614 218.434 160.421 217.862 159.959 217.249V217.251ZM125.934 218.871L125.766 219.119C125.989 219.036 126.2 218.924 126.393 218.786C126.321 218.814 126.248 218.837 126.173 218.858C126.095 218.878 126.014 218.883 125.934 218.871ZM108.04 208.106C107.123 209.648 106.477 211.335 106.131 213.095C105.688 215.398 105.994 217.095 106.956 217.634C107.605 217.999 108.51 217.793 109.264 217.111C110.364 216.121 111.118 214.124 109.962 211.495C109.429 210.309 108.785 209.177 108.04 208.112V208.106ZM131.418 213.687L131.107 213.758C130.2 213.965 129.342 214.16 128.907 214.548C128.321 215.073 128.187 215.728 128.043 216.421C127.979 216.889 127.841 217.345 127.636 217.771C128.605 216.861 129.661 215.678 130.491 214.746L131.418 213.687ZM112.124 202.927C113.464 211.836 114.69 213.035 115.18 213.117C115.397 213.153 115.856 212.798 116.415 211.676C118.247 207.993 117.35 203.288 116.343 198.667C115.694 199.338 115.031 199.998 114.374 200.653C113.609 201.42 112.859 202.171 112.13 202.933L112.124 202.927ZM209.763 195.102C209.447 195.353 209.123 195.589 208.793 195.828C207.907 196.422 207.098 197.123 206.386 197.916C204.529 200.092 206.287 202.317 209.18 205.493C209.433 205.768 209.689 206.043 209.942 206.335C210.008 206.115 210.071 205.895 210.129 205.672C211.229 201.527 210.91 198.411 209.769 195.108L209.763 195.102ZM112.801 99.7981C112.034 99.8115 111.277 99.9789 110.576 100.29C103.425 103.316 95.905 119.172 95.6163 124.04C95.3412 128.686 97.1702 133.092 98.9387 137.349C99.4888 138.681 100.061 140.059 100.548 141.401C102.605 147.089 100.93 151.91 99.156 157.018C98.9305 157.663 98.705 158.319 98.4794 158.987C94.6289 170.431 96.1773 186.848 102.137 198.023C103.265 200.138 104.775 202.047 106.236 203.895C106.827 204.638 107.421 205.392 107.996 206.164C108.897 204.896 109.889 203.695 110.964 202.57C110.881 201.998 110.798 201.406 110.716 200.79C110.68 200.515 110.65 200.298 110.628 200.136C110.378 198.362 110.061 196.703 109.756 195.102C108.931 190.812 108.166 186.758 108.912 181.697C109.657 176.636 112.333 173.272 115.169 169.686C115.994 168.652 116.819 167.585 117.644 166.46C117.21 164.809 116.819 163.137 116.514 161.446C115.854 160.343 115.252 159.208 114.71 158.043C111.371 150.736 112.509 145.766 114.985 140.991C113.722 138.772 112.995 136.288 112.864 133.738C112.589 128.237 114.069 122.692 115.757 117.038L115.812 116.851C116.192 115.583 116.739 113.748 117.168 111.751C115.205 109.07 113.216 105.296 114.319 101.996C114.347 101.91 114.396 101.833 114.462 101.77C114.527 101.708 114.607 101.663 114.694 101.639C114.781 101.614 114.872 101.612 114.96 101.632C115.049 101.651 115.131 101.692 115.199 101.751C115.437 101.986 115.724 102.166 116.039 102.279C116.354 102.391 116.69 102.434 117.023 102.403C116.771 101.909 116.428 101.469 116.01 101.105C115.14 100.285 113.996 99.8192 112.801 99.7981ZM118.01 167.813C117.35 168.698 116.682 169.543 116.03 170.368C113.279 173.836 110.699 177.109 109.998 181.859C109.28 186.733 109.998 190.515 110.823 194.896C111.131 196.511 111.448 198.18 111.703 199.982C111.728 200.147 111.756 200.372 111.794 200.644C111.833 200.917 111.877 201.26 111.918 201.557C112.468 200.991 113.018 200.433 113.59 199.877C114.429 199.052 115.26 198.227 116.065 197.38C115.348 194.096 114.663 190.737 115.004 187.816C115.345 184.896 116.233 183.27 117.633 183.094C119.151 182.902 120.793 184.541 121.998 186.67C122.318 185.035 122.526 183.381 122.62 181.719C122.276 180.489 121.877 179.26 121.421 178.022C120.21 174.703 118.997 171.303 118.01 167.813ZM117.881 184.178C117.843 184.175 117.806 184.175 117.768 184.178C116.97 184.277 116.36 185.646 116.093 187.935C115.796 190.476 116.321 193.342 116.973 196.381C119.039 194.065 120.747 191.601 121.564 188.526C121.58 188.457 121.599 188.391 121.616 188.323C120.543 185.971 118.953 184.178 117.884 184.178H117.881ZM207.519 163.088C207.316 164.284 207.107 165.467 206.9 166.627C206.49 168.932 206.103 171.108 205.786 173.245C204.898 179.282 205.564 183.215 208.537 189.434C209.158 190.737 209.722 191.964 210.206 193.158C210.495 192.803 210.736 192.411 210.924 191.994C210.886 191.719 210.844 191.469 210.806 191.208C210.278 187.726 210.564 184.013 210.842 180.421C210.866 180.118 210.888 179.81 210.913 179.505C210.913 179.362 210.888 179.23 210.877 179.076C210.578 175.363 210.267 171.523 209.321 168.005C208.856 166.32 208.255 164.675 207.522 163.088H207.519ZM122.776 188.232C122.851 188.405 122.922 188.581 122.988 188.757C123.465 190.001 123.864 191.273 124.182 192.566C124.159 190.017 123.897 187.476 123.398 184.975C123.236 186.092 123.032 187.184 122.776 188.232ZM211.614 187.132C211.614 187.456 211.614 187.784 211.634 188.105C211.628 187.792 211.62 187.47 211.606 187.143L211.614 187.132ZM118.835 166.674C119.85 170.426 121.134 174.081 122.446 177.64C122.521 177.835 122.592 178.033 122.661 178.229C122.611 176.087 122.335 173.956 121.836 171.872C121.316 169.801 120.381 167.915 119.292 166.036C119.14 166.248 118.992 166.462 118.835 166.674ZM207.833 161.173C208.892 163.266 209.746 165.456 210.382 167.714C210.682 168.841 210.932 169.994 211.117 171.16C210.938 166.393 210.026 161.683 208.413 157.194C208.245 158.53 208.047 159.859 207.838 161.176L207.833 161.173ZM118.23 164.268C118.31 164.606 118.39 164.939 118.475 165.274L118.667 164.999C118.524 164.749 118.379 164.51 118.23 164.268ZM117.562 161.058C117.952 161.721 118.354 162.373 118.75 163.016L119.336 163.968C122.587 158.822 123.58 154.482 120.389 149.146C119.589 147.809 118.706 146.569 117.851 145.367L117.413 144.751C117.342 145.282 117.267 145.818 117.188 146.346C116.431 151.404 116.704 156.308 117.562 161.058ZM201.006 140.554C200.352 147.127 203.003 152.061 205.803 157.268C206.196 158.005 206.595 158.748 206.988 159.501C207.222 157.942 207.428 156.385 207.582 154.825C205.803 149.773 204.021 144.979 201.006 140.554ZM115.636 142.108C113.486 146.508 112.702 151.002 115.708 157.587C115.807 157.804 115.909 158.019 116.016 158.233C115.492 154.231 115.521 150.175 116.101 146.181C116.22 145.397 116.324 144.588 116.429 143.807C116.445 143.675 116.464 143.532 116.481 143.409C116.189 142.979 115.906 142.548 115.636 142.108ZM201.21 138.958C201.443 139.266 201.658 139.561 201.851 139.841C204.513 143.722 206.229 147.842 207.8 152.163C208.075 147.606 207.8 143.15 206.455 138.961C206.072 137.773 205.731 136.505 205.401 135.278C204.483 131.865 203.537 128.336 201.498 125.487C200.831 124.589 200.077 123.76 199.246 123.012C201.287 128.276 201.735 134.684 201.21 138.958ZM150.583 138.81C151.469 138.81 152.434 140.056 154.007 142.504L154.145 142.715C154.321 142.99 154.513 143.318 154.717 143.667C155.688 145.317 157.154 147.831 158.754 147.441C160.751 146.951 161.114 142.658 161.268 140.823L161.299 140.463C161.373 139.616 161.389 138.78 161.403 137.971C161.439 135.916 161.472 133.975 162.429 132C163.895 128.974 167.154 126.293 169.775 124.142L170.116 123.867C174.082 120.608 179.979 116.1 185.381 114.593C188.261 113.789 190.843 113.987 193.082 115.187C190.893 113.545 188.883 111.679 187.084 109.617C182.763 115.456 171.563 121.232 169.167 122.269C165.867 123.685 159.761 126.604 154.197 130.924C153.538 131.924 152.934 132.96 152.39 134.027C152.148 134.5 151.862 135.105 151.529 135.806C151.053 136.813 150.517 137.943 149.928 139.085C150.035 138.978 150.165 138.899 150.308 138.854C150.397 138.825 150.49 138.811 150.583 138.81ZM151.658 133.034C148.784 135.603 146.218 138.576 144.483 141.937C143.842 143.183 143.344 144.264 143.382 145.537C146.155 144.588 148.974 138.634 150.534 135.342C150.872 134.632 151.161 134.019 151.411 133.532C151.485 133.359 151.565 133.194 151.658 133.029V133.034ZM116.231 140.955C116.385 141.23 116.544 141.489 116.709 141.75C116.822 140.966 116.948 140.182 117.1 139.407C116.797 139.935 116.506 140.435 116.231 140.95V140.955ZM118.038 112.879C117.65 114.51 117.212 116.001 116.858 117.156L116.803 117.343C115.081 123.119 113.678 128.331 113.956 133.672C114.065 135.81 114.627 137.901 115.606 139.805C116.239 138.672 116.929 137.539 117.636 136.378C117.817 136.084 117.996 135.79 118.186 135.493C118.753 133.955 119.572 132.523 120.609 131.254C121.251 130.028 121.826 128.767 122.331 127.478C124.388 122.189 123.706 118.869 119.751 114.796C119.336 114.375 118.72 113.71 118.038 112.874V112.879ZM193.586 119.857C193.411 119.855 193.238 119.876 193.068 119.917C192.191 120.14 191.647 121.053 191.449 122.632C190.964 126.507 195.547 132.038 198.891 136.079C199.367 136.651 199.815 137.193 200.228 137.704C200.594 132.916 199.768 126.279 197.334 121.477C196.014 120.539 194.653 119.857 193.586 119.857ZM118.343 111.493C119.022 112.378 119.752 113.223 120.529 114.023C124.801 118.424 125.565 122.167 123.346 127.871C123.181 128.292 123.013 128.697 122.84 129.101C125.117 127.39 127.812 126.551 130.425 125.74C132.433 125.116 134.51 124.472 136.374 123.438C138.008 122.53 139.612 121.562 141.193 120.55C141.364 119.796 141.617 118.979 141.873 118.146C142.155 117.307 142.385 116.45 142.563 115.583C143.091 112.436 141.76 111.457 140.088 110.195C138.883 109.298 137.532 108.291 136.971 106.344C136.685 106.329 136.4 106.295 136.119 106.242C135.794 106.169 135.46 106.146 135.129 106.174C135.054 106.19 134.977 106.191 134.902 106.176C134.827 106.162 134.756 106.132 134.693 106.088C134.631 106.044 134.578 105.988 134.538 105.923C134.499 105.857 134.473 105.784 134.463 105.709C134.412 105.114 134.236 104.536 133.946 104.015C133.453 103.868 133.008 103.594 132.656 103.22C131.77 103.115 130.612 103.445 129.405 103.786C127.983 104.191 126.512 104.611 125.235 104.367C124.461 104.21 123.709 103.955 122.999 103.607C122.108 103.206 121.404 102.89 119.927 103.011C119.459 103.054 118.994 103.127 118.535 103.231C119.212 105.646 118.915 108.69 118.343 111.493ZM182.617 98.7915C182.686 99.0885 182.763 99.3856 182.842 99.6881C183.153 100.874 183.472 102.097 183.203 103.649C181.85 111.383 175.598 114.741 169.553 117.989C166.769 119.486 163.892 121.034 161.477 122.998C159.631 124.488 157.931 126.15 156.4 127.962C160.289 125.345 164.417 123.101 168.727 121.26C171.956 119.884 182.625 114.009 186.377 108.72C185.277 107.26 184.495 105.778 184.352 104.422C184.272 103.845 184.337 103.257 184.544 102.712C184.75 102.168 185.09 101.684 185.532 101.305C185.623 101.225 185.737 101.177 185.857 101.168C185.977 101.159 186.097 101.19 186.198 101.256C188.063 102.461 188.929 103.973 188.778 105.753C188.654 106.796 188.29 107.797 187.716 108.676C189.881 111.328 193.082 113.916 195.065 115.277C194.609 113.74 193.726 112.365 192.802 110.926C192.031 109.791 191.354 108.595 190.777 107.351C188.695 102.579 187.103 99.4516 182.617 98.7915ZM142.181 121.232C142.024 122.057 142.007 122.756 142.31 123.017C142.494 123.179 143.171 123.432 145.465 122.351C147.508 121.386 151.903 117.97 152.668 115.145C152.796 114.724 152.812 114.277 152.715 113.847C149.301 116.342 145.808 118.883 142.181 121.232ZM143.757 113.806C143.8 114.46 143.764 115.116 143.649 115.761C143.463 116.677 143.222 117.581 142.926 118.468C142.81 118.842 142.684 119.246 142.568 119.656C145.847 117.494 149.024 115.178 152.137 112.896C151.339 112.323 149.89 112.92 147.998 113.809C146.897 114.318 145.883 114.802 145.079 114.815C144.975 114.817 144.872 114.788 144.782 114.733C144.376 114.504 144.026 114.187 143.757 113.806ZM144.1 112.511C144.221 112.554 144.323 112.638 144.389 112.747C144.571 113.136 144.857 113.467 145.214 113.704C145.792 113.627 146.675 113.215 147.53 112.813C149.403 111.933 151.702 110.855 153.047 112.227C157.085 109.265 161.257 106.218 165.595 103.53C167.673 102.211 169.82 101.004 172.028 99.9164C171.907 99.8119 171.789 99.7019 171.673 99.5836C169.803 97.6253 169.401 93.8655 169.379 90.7356C169.26 92.1629 169.062 93.5825 168.785 94.9877C168.767 95.0783 168.726 95.1629 168.666 95.2335C168.607 95.3042 168.53 95.3587 168.444 95.392C166.755 96.0548 160.418 95.8623 158.966 94.6659C157.685 93.607 157.982 91.7945 158.27 90.0425C158.455 88.9176 158.644 87.7569 158.422 86.8355C158.053 85.3063 156.876 81.7885 153.936 82.1323C152.954 82.2478 152.286 82.5531 151.898 83.0647C151.177 84.0108 151.433 85.6556 151.68 87.2453C151.814 87.9869 151.897 88.7368 151.928 89.4896C151.929 89.584 151.906 89.6772 151.861 89.76C151.815 89.8429 151.75 89.9127 151.669 89.9627C150.358 90.7878 149.367 91.0381 148.548 90.7878C147.497 90.4578 147.041 89.4126 146.556 88.2877C146.149 87.3416 145.731 86.3624 144.934 85.7821C144.433 85.4108 143.897 85.32 143.283 85.2128C142.497 85.078 141.606 84.9377 140.753 84.1374C140.137 83.568 139.914 82.8227 139.7 82.1048C139.502 81.4337 139.312 80.8011 138.809 80.3913C136.944 78.8731 134.732 79.6597 132.395 80.4931C131.379 80.8867 130.333 81.1967 129.267 81.42C129.314 85.254 130.164 89.982 131.481 92.5398C131.696 92.9606 131.889 93.3182 132.054 93.64C133.154 95.6918 133.28 96.0658 133.055 99.0253C132.939 100.53 132.892 101.578 133.283 102.249C133.553 102.323 133.811 102.439 134.045 102.593C134.251 102.727 134.436 102.89 134.595 103.077C134.841 103.128 135.09 103.162 135.34 103.178C135.387 103.183 135.433 103.193 135.478 103.209C136.96 103.72 138.038 105.247 139.078 106.724C140.156 108.25 141.174 109.694 142.467 109.895C142.606 109.916 142.732 109.99 142.819 110.101C143.119 110.508 143.374 110.946 143.581 111.408C143.615 111.409 143.649 111.414 143.682 111.421C143.814 111.45 143.931 111.526 144.011 111.635C144.09 111.744 144.127 111.878 144.114 112.013C144.096 112.179 144.091 112.346 144.1 112.513V112.511ZM115.169 103.079C114.756 105.464 115.994 108.113 117.446 110.261C117.859 107.862 117.996 105.379 117.446 103.459C116.666 103.606 115.859 103.471 115.169 103.079ZM185.97 102.444C185.756 102.702 185.599 103.002 185.509 103.325C185.419 103.648 185.398 103.986 185.447 104.317C185.56 105.37 186.146 106.55 186.996 107.747C187.365 107.11 187.599 106.402 187.68 105.67C187.788 104.413 187.227 103.354 185.97 102.433V102.444ZM135.461 105.073C135.738 105.09 136.014 105.123 136.286 105.172L136.501 105.208C136.151 104.828 135.731 104.52 135.263 104.301C135.345 104.55 135.411 104.805 135.461 105.062V105.073ZM177.468 99.0858C176.699 99.2737 175.94 99.5042 175.196 99.7761C175.998 99.7247 176.777 99.4844 177.468 99.0748V99.0858ZM170.611 86.1424C170.611 86.5632 170.589 86.9675 170.57 87.3636C170.441 90.0645 170.136 96.3931 172.468 98.8328C172.678 99.0549 172.919 99.2457 173.183 99.3993C175.014 98.5676 176.951 97.9928 178.94 97.6913C179.198 97.3073 179.402 96.89 179.548 96.4509C179.838 95.5814 179.906 94.6532 179.746 93.7506C179.586 92.8481 179.203 91.9998 178.632 91.2829C178.618 91.3572 178.601 91.4314 178.585 91.5029C178.51 91.7789 178.475 92.0641 178.48 92.3501C178.489 92.4789 178.451 92.6066 178.375 92.7107C178.298 92.8148 178.188 92.8887 178.062 92.9194C177.254 93.1202 176.225 92.6884 175.004 91.6432C173.488 90.334 171.717 88.0924 170.611 86.1314V86.1424ZM180.741 97.5703H180.87H181.313C181.313 97.4466 181.297 97.32 181.294 97.1908C181.231 95.1087 181.866 94.3276 182.606 93.4255C183.114 92.8366 183.543 92.1838 183.882 91.4837C184.743 89.6739 184.707 86.1561 183.791 83.645C183.384 82.5256 182.62 81.0624 181.28 80.4408C180.169 79.921 178.313 80.3886 176.687 80.8011C176.17 80.9331 175.68 81.0569 175.229 81.1477C174.755 81.2265 174.277 81.2733 173.796 81.2879C171.926 81.387 170.771 81.563 170.642 83.1582C170.534 84.3656 173.241 88.6728 175.719 90.7961C176.202 91.2542 176.777 91.6047 177.405 91.8247C177.43 91.6184 177.471 91.4314 177.509 91.2554C177.631 90.8935 177.64 90.5034 177.537 90.136C177.498 90.0241 177.496 89.9027 177.532 89.7898C177.568 89.6769 177.639 89.5785 177.735 89.5093C177.831 89.4401 177.947 89.4038 178.066 89.4057C178.184 89.4076 178.299 89.4476 178.392 89.5199C179.473 90.3509 180.266 91.4993 180.661 92.804C181.055 94.1087 181.032 95.5042 180.593 96.7947C180.503 97.059 180.397 97.3172 180.274 97.5676C180.429 97.5621 180.585 97.5593 180.741 97.5593V97.5703ZM154.315 81.0101C156.719 81.0101 158.628 83.0482 159.483 86.577C159.758 87.7156 159.549 88.9891 159.349 90.2212C159.098 91.734 158.865 93.1614 159.659 93.816C160.652 94.6411 165.939 94.9162 167.757 94.4541C169.957 82.8309 166.381 71.9613 158.166 65.3274C155.77 63.4021 153.886 62.577 152.247 62.764C150.151 63.0033 148.281 64.8928 146.116 67.6597C142.821 71.8788 139.408 75.7514 133.962 76.813C132.548 77.1127 131.106 77.2647 129.661 77.2669C129.42 78.2578 129.291 79.2726 129.276 80.2923C130.211 80.0743 131.13 79.7921 132.026 79.4479C134.548 78.5513 137.156 77.6217 139.502 79.5304C140.269 80.1548 140.528 81.0184 140.756 81.7803C140.935 82.3853 141.105 82.9547 141.501 83.3205C142.115 83.8871 142.742 83.9943 143.468 84.1209C144.228 84.1975 144.957 84.4611 145.591 84.8882C146.622 85.6473 147.126 86.8135 147.571 87.8421C147.967 88.758 148.308 89.5501 148.878 89.7289C149.312 89.8637 149.964 89.6822 150.82 89.1788C150.787 88.6288 150.693 88.0319 150.594 87.3993C150.319 85.5841 150.022 83.7028 151.023 82.3854C151.603 81.6235 152.514 81.1779 153.812 81.0267C153.979 81.0108 154.147 81.0053 154.315 81.0101ZM152.72 61.6363C154.516 61.6363 156.488 62.5495 158.865 64.4692C165.526 69.8545 169.256 77.9049 169.489 86.9015C169.764 79.6625 168.584 67.0986 158.001 61.2458C148.289 55.8687 137.618 62.819 130.387 69.596C129.837 70.1103 129.166 70.6549 128.462 71.2462C126.363 72.946 123.75 75.061 123.72 77.0358C123.706 77.8472 124.127 78.6118 125.007 79.3682C125.436 79.7546 125.938 80.0511 126.484 80.2401C127.03 80.429 127.608 80.5067 128.184 80.4683C128.174 79.1346 128.36 77.8066 128.737 76.527C128.775 76.4137 128.85 76.3161 128.949 76.249C129.049 76.182 129.167 76.1492 129.287 76.1557C130.788 76.1917 132.288 76.0495 133.756 75.7321C138.831 74.7502 141.969 71.1747 145.258 66.9803C147.593 63.9989 149.659 61.9526 152.134 61.6693C152.329 61.6475 152.524 61.6365 152.72 61.6363Z" fill="#111113"/>
</g>
<defs>
<linearGradient id="paint0_linear_135_8657" x1="155.5" y1="0" x2="155.5" y2="311" gradientUnits="userSpaceOnUse">
<stop stop-color="#C4C4C4" stop-opacity="0"/>
<stop offset="0.0884102" stop-color="#C4C4C4"/>
<stop offset="0.914586" stop-color="#C4C4C4"/>
<stop offset="1" stop-color="#C4C4C4" stop-opacity="0"/>
</linearGradient>
<linearGradient id="paint1_linear_135_8657" x1="311" y1="155.5" x2="2.50853e-05" y2="155.5" gradientUnits="userSpaceOnUse">
<stop stop-color="#C4C4C4" stop-opacity="0"/>
<stop offset="0.0967224" stop-color="#C4C4C4"/>
<stop offset="0.901883" stop-color="#C4C4C4"/>
<stop offset="1" stop-color="#C4C4C4" stop-opacity="0"/>
</linearGradient>
</defs>
</svg>
