<svg width="311" height="311" viewBox="0 0 311 311" fill="none" xmlns="http://www.w3.org/2000/svg">
<g opacity="0.5">
<path d="M30.2251 2.50806C30.2251 3.06035 30.6728 3.50806 31.2251 3.50806C31.7774 3.50806 32.2251 3.06035 32.2251 2.50806H30.2251ZM32.2251 7.52419C32.2251 6.97191 31.7774 6.52419 31.2251 6.52419C30.6728 6.52419 30.2251 6.97191 30.2251 7.52419H32.2251ZM30.2251 12.5403C30.2251 13.0926 30.6728 13.5403 31.2251 13.5403C31.7774 13.5403 32.2251 13.0926 32.2251 12.5403H30.2251ZM32.2251 17.5565C32.2251 17.0042 31.7774 16.5565 31.2251 16.5565C30.6728 16.5565 30.2251 17.0042 30.2251 17.5565H32.2251ZM30.2251 22.5726C30.2251 23.1249 30.6728 23.5726 31.2251 23.5726C31.7774 23.5726 32.2251 23.1249 32.2251 22.5726H30.2251ZM32.2251 27.5887C32.2251 27.0364 31.7774 26.5887 31.2251 26.5887C30.6728 26.5887 30.2251 27.0364 30.2251 27.5887H32.2251ZM30.2251 32.6048C30.2251 33.1571 30.6728 33.6048 31.2251 33.6048C31.7774 33.6048 32.2251 33.1571 32.2251 32.6048H30.2251ZM32.2251 37.621C32.2251 37.0687 31.7774 36.621 31.2251 36.621C30.6728 36.621 30.2251 37.0687 30.2251 37.621H32.2251ZM30.2251 42.6371C30.2251 43.1894 30.6728 43.6371 31.2251 43.6371C31.7774 43.6371 32.2251 43.1894 32.2251 42.6371H30.2251ZM32.2251 47.6532C32.2251 47.1009 31.7774 46.6532 31.2251 46.6532C30.6728 46.6532 30.2251 47.1009 30.2251 47.6532H32.2251ZM30.2251 52.6694C30.2251 53.2216 30.6728 53.6694 31.2251 53.6694C31.7774 53.6694 32.2251 53.2216 32.2251 52.6694H30.2251ZM32.2251 57.6855C32.2251 57.1332 31.7774 56.6855 31.2251 56.6855C30.6728 56.6855 30.2251 57.1332 30.2251 57.6855H32.2251ZM30.2251 62.7016C30.2251 63.2539 30.6728 63.7016 31.2251 63.7016C31.7774 63.7016 32.2251 63.2539 32.2251 62.7016H30.2251ZM32.2251 67.7177C32.2251 67.1655 31.7774 66.7177 31.2251 66.7177C30.6728 66.7177 30.2251 67.1655 30.2251 67.7177H32.2251ZM30.2251 72.7339C30.2251 73.2862 30.6728 73.7339 31.2251 73.7339C31.7774 73.7339 32.2251 73.2862 32.2251 72.7339H30.2251ZM32.2251 77.75C32.2251 77.1977 31.7774 76.75 31.2251 76.75C30.6728 76.75 30.2251 77.1977 30.2251 77.75H32.2251ZM30.2251 82.7661C30.2251 83.3184 30.6728 83.7661 31.2251 83.7661C31.7774 83.7661 32.2251 83.3184 32.2251 82.7661H30.2251ZM32.2251 87.7823C32.2251 87.23 31.7774 86.7823 31.2251 86.7823C30.6728 86.7823 30.2251 87.23 30.2251 87.7823H32.2251ZM30.2251 92.7984C30.2251 93.3507 30.6728 93.7984 31.2251 93.7984C31.7774 93.7984 32.2251 93.3507 32.2251 92.7984H30.2251ZM32.2251 97.8145C32.2251 97.2622 31.7774 96.8145 31.2251 96.8145C30.6728 96.8145 30.2251 97.2622 30.2251 97.8145H32.2251ZM30.2251 102.831C30.2251 103.383 30.6728 103.831 31.2251 103.831C31.7774 103.831 32.2251 103.383 32.2251 102.831H30.2251ZM32.2251 107.847C32.2251 107.294 31.7774 106.847 31.2251 106.847C30.6728 106.847 30.2251 107.294 30.2251 107.847H32.2251ZM30.2251 112.863C30.2251 113.415 30.6728 113.863 31.2251 113.863C31.7774 113.863 32.2251 113.415 32.2251 112.863H30.2251ZM32.2251 117.879C32.2251 117.327 31.7774 116.879 31.2251 116.879C30.6728 116.879 30.2251 117.327 30.2251 117.879H32.2251ZM30.2251 122.895C30.2251 123.447 30.6728 123.895 31.2251 123.895C31.7774 123.895 32.2251 123.447 32.2251 122.895H30.2251ZM32.2251 127.911C32.2251 127.359 31.7774 126.911 31.2251 126.911C30.6728 126.911 30.2251 127.359 30.2251 127.911H32.2251ZM30.2251 132.927C30.2251 133.48 30.6728 133.927 31.2251 133.927C31.7774 133.927 32.2251 133.48 32.2251 132.927H30.2251ZM32.2251 137.944C32.2251 137.391 31.7774 136.944 31.2251 136.944C30.6728 136.944 30.2251 137.391 30.2251 137.944H32.2251ZM30.2251 142.96C30.2251 143.512 30.6728 143.96 31.2251 143.96C31.7774 143.96 32.2251 143.512 32.2251 142.96H30.2251ZM32.2251 147.976C32.2251 147.424 31.7774 146.976 31.2251 146.976C30.6728 146.976 30.2251 147.424 30.2251 147.976H32.2251ZM30.2251 152.992C30.2251 153.544 30.6728 153.992 31.2251 153.992C31.7774 153.992 32.2251 153.544 32.2251 152.992H30.2251ZM32.2251 158.008C32.2251 157.456 31.7774 157.008 31.2251 157.008C30.6728 157.008 30.2251 157.456 30.2251 158.008H32.2251ZM30.2251 163.024C30.2251 163.576 30.6728 164.024 31.2251 164.024C31.7774 164.024 32.2251 163.576 32.2251 163.024H30.2251ZM32.2251 168.04C32.2251 167.488 31.7774 167.04 31.2251 167.04C30.6728 167.04 30.2251 167.488 30.2251 168.04H32.2251ZM30.2251 173.056C30.2251 173.609 30.6728 174.056 31.2251 174.056C31.7774 174.056 32.2251 173.609 32.2251 173.056H30.2251ZM32.2251 178.073C32.2251 177.52 31.7774 177.073 31.2251 177.073C30.6728 177.073 30.2251 177.52 30.2251 178.073H32.2251ZM30.2251 183.089C30.2251 183.641 30.6728 184.089 31.2251 184.089C31.7774 184.089 32.2251 183.641 32.2251 183.089H30.2251ZM32.2251 188.105C32.2251 187.553 31.7774 187.105 31.2251 187.105C30.6728 187.105 30.2251 187.553 30.2251 188.105H32.2251ZM30.2251 193.121C30.2251 193.673 30.6728 194.121 31.2251 194.121C31.7774 194.121 32.2251 193.673 32.2251 193.121H30.2251ZM32.2251 198.137C32.2251 197.585 31.7774 197.137 31.2251 197.137C30.6728 197.137 30.2251 197.585 30.2251 198.137H32.2251ZM30.2251 203.153C30.2251 203.706 30.6728 204.153 31.2251 204.153C31.7774 204.153 32.2251 203.706 32.2251 203.153H30.2251ZM32.2251 208.169C32.2251 207.617 31.7774 207.169 31.2251 207.169C30.6728 207.169 30.2251 207.617 30.2251 208.169H32.2251ZM30.2251 213.185C30.2251 213.738 30.6728 214.185 31.2251 214.185C31.7774 214.185 32.2251 213.738 32.2251 213.185H30.2251ZM32.2251 218.202C32.2251 217.649 31.7774 217.202 31.2251 217.202C30.6728 217.202 30.2251 217.649 30.2251 218.202H32.2251ZM30.2251 223.218C30.2251 223.77 30.6728 224.218 31.2251 224.218C31.7774 224.218 32.2251 223.77 32.2251 223.218H30.2251ZM32.2251 228.234C32.2251 227.682 31.7774 227.234 31.2251 227.234C30.6728 227.234 30.2251 227.682 30.2251 228.234H32.2251ZM30.2251 233.25C30.2251 233.802 30.6728 234.25 31.2251 234.25C31.7774 234.25 32.2251 233.802 32.2251 233.25H30.2251ZM32.2251 238.266C32.2251 237.714 31.7774 237.266 31.2251 237.266C30.6728 237.266 30.2251 237.714 30.2251 238.266H32.2251ZM30.2251 243.282C30.2251 243.835 30.6728 244.282 31.2251 244.282C31.7774 244.282 32.2251 243.835 32.2251 243.282H30.2251ZM32.2251 248.298C32.2251 247.746 31.7774 247.298 31.2251 247.298C30.6728 247.298 30.2251 247.746 30.2251 248.298H32.2251ZM30.2251 253.314C30.2251 253.867 30.6728 254.314 31.2251 254.314C31.7774 254.314 32.2251 253.867 32.2251 253.314H30.2251ZM32.2251 258.331C32.2251 257.778 31.7774 257.331 31.2251 257.331C30.6728 257.331 30.2251 257.778 30.2251 258.331H32.2251ZM30.2251 263.347C30.2251 263.899 30.6728 264.347 31.2251 264.347C31.7774 264.347 32.2251 263.899 32.2251 263.347H30.2251ZM32.2251 268.363C32.2251 267.811 31.7774 267.363 31.2251 267.363C30.6728 267.363 30.2251 267.811 30.2251 268.363H32.2251ZM30.2251 273.379C30.2251 273.931 30.6728 274.379 31.2251 274.379C31.7774 274.379 32.2251 273.931 32.2251 273.379H30.2251ZM32.2251 278.395C32.2251 277.843 31.7774 277.395 31.2251 277.395C30.6728 277.395 30.2251 277.843 30.2251 278.395H32.2251ZM30.2251 283.411C30.2251 283.964 30.6728 284.411 31.2251 284.411C31.7774 284.411 32.2251 283.964 32.2251 283.411H30.2251ZM32.2251 288.427C32.2251 287.875 31.7774 287.427 31.2251 287.427C30.6728 287.427 30.2251 287.875 30.2251 288.427H32.2251ZM30.2251 293.444C30.2251 293.996 30.6728 294.444 31.2251 294.444C31.7774 294.444 32.2251 293.996 32.2251 293.444H30.2251ZM32.2251 298.46C32.2251 297.908 31.7774 297.46 31.2251 297.46C30.6728 297.46 30.2251 297.908 30.2251 298.46H32.2251ZM30.2251 303.476C30.2251 304.028 30.6728 304.476 31.2251 304.476C31.7774 304.476 32.2251 304.028 32.2251 303.476H30.2251ZM32.2251 308.492C32.2251 307.94 31.7774 307.492 31.2251 307.492C30.6728 307.492 30.2251 307.94 30.2251 308.492H32.2251ZM278.775 2.50806C278.775 3.06035 279.223 3.50806 279.775 3.50806C280.328 3.50806 280.775 3.06035 280.775 2.50806H278.775ZM280.775 7.52419C280.775 6.97191 280.328 6.52419 279.775 6.52419C279.223 6.52419 278.775 6.97191 278.775 7.52419H280.775ZM278.775 12.5403C278.775 13.0926 279.223 13.5403 279.775 13.5403C280.328 13.5403 280.775 13.0926 280.775 12.5403H278.775ZM280.775 17.5565C280.775 17.0042 280.328 16.5565 279.775 16.5565C279.223 16.5565 278.775 17.0042 278.775 17.5565H280.775ZM278.775 22.5726C278.775 23.1249 279.223 23.5726 279.775 23.5726C280.328 23.5726 280.775 23.1249 280.775 22.5726H278.775ZM280.775 27.5887C280.775 27.0364 280.328 26.5887 279.775 26.5887C279.223 26.5887 278.775 27.0364 278.775 27.5887H280.775ZM278.775 32.6048C278.775 33.1571 279.223 33.6048 279.775 33.6048C280.328 33.6048 280.775 33.1571 280.775 32.6048H278.775ZM280.775 37.621C280.775 37.0687 280.328 36.621 279.775 36.621C279.223 36.621 278.775 37.0687 278.775 37.621H280.775ZM278.775 42.6371C278.775 43.1894 279.223 43.6371 279.775 43.6371C280.328 43.6371 280.775 43.1894 280.775 42.6371H278.775ZM280.775 47.6532C280.775 47.1009 280.328 46.6532 279.775 46.6532C279.223 46.6532 278.775 47.1009 278.775 47.6532H280.775ZM278.775 52.6694C278.775 53.2216 279.223 53.6694 279.775 53.6694C280.328 53.6694 280.775 53.2216 280.775 52.6694H278.775ZM280.775 57.6855C280.775 57.1332 280.328 56.6855 279.775 56.6855C279.223 56.6855 278.775 57.1332 278.775 57.6855H280.775ZM278.775 62.7016C278.775 63.2539 279.223 63.7016 279.775 63.7016C280.328 63.7016 280.775 63.2539 280.775 62.7016H278.775ZM280.775 67.7177C280.775 67.1655 280.328 66.7177 279.775 66.7177C279.223 66.7177 278.775 67.1655 278.775 67.7177H280.775ZM278.775 72.7339C278.775 73.2862 279.223 73.7339 279.775 73.7339C280.328 73.7339 280.775 73.2862 280.775 72.7339H278.775ZM280.775 77.75C280.775 77.1977 280.328 76.75 279.775 76.75C279.223 76.75 278.775 77.1977 278.775 77.75H280.775ZM278.775 82.7661C278.775 83.3184 279.223 83.7661 279.775 83.7661C280.328 83.7661 280.775 83.3184 280.775 82.7661H278.775ZM280.775 87.7823C280.775 87.23 280.328 86.7823 279.775 86.7823C279.223 86.7823 278.775 87.23 278.775 87.7823H280.775ZM278.775 92.7984C278.775 93.3507 279.223 93.7984 279.775 93.7984C280.328 93.7984 280.775 93.3507 280.775 92.7984H278.775ZM280.775 97.8145C280.775 97.2622 280.328 96.8145 279.775 96.8145C279.223 96.8145 278.775 97.2622 278.775 97.8145H280.775ZM278.775 102.831C278.775 103.383 279.223 103.831 279.775 103.831C280.328 103.831 280.775 103.383 280.775 102.831H278.775ZM280.775 107.847C280.775 107.294 280.328 106.847 279.775 106.847C279.223 106.847 278.775 107.294 278.775 107.847H280.775ZM278.775 112.863C278.775 113.415 279.223 113.863 279.775 113.863C280.328 113.863 280.775 113.415 280.775 112.863H278.775ZM280.775 117.879C280.775 117.327 280.328 116.879 279.775 116.879C279.223 116.879 278.775 117.327 278.775 117.879H280.775ZM278.775 122.895C278.775 123.447 279.223 123.895 279.775 123.895C280.328 123.895 280.775 123.447 280.775 122.895H278.775ZM280.775 127.911C280.775 127.359 280.328 126.911 279.775 126.911C279.223 126.911 278.775 127.359 278.775 127.911H280.775ZM278.775 132.927C278.775 133.48 279.223 133.927 279.775 133.927C280.328 133.927 280.775 133.48 280.775 132.927H278.775ZM280.775 137.944C280.775 137.391 280.328 136.944 279.775 136.944C279.223 136.944 278.775 137.391 278.775 137.944H280.775ZM278.775 142.96C278.775 143.512 279.223 143.96 279.775 143.96C280.328 143.96 280.775 143.512 280.775 142.96H278.775ZM280.775 147.976C280.775 147.424 280.328 146.976 279.775 146.976C279.223 146.976 278.775 147.424 278.775 147.976H280.775ZM278.775 152.992C278.775 153.544 279.223 153.992 279.775 153.992C280.328 153.992 280.775 153.544 280.775 152.992H278.775ZM280.775 158.008C280.775 157.456 280.328 157.008 279.775 157.008C279.223 157.008 278.775 157.456 278.775 158.008H280.775ZM278.775 163.024C278.775 163.576 279.223 164.024 279.775 164.024C280.328 164.024 280.775 163.576 280.775 163.024H278.775ZM280.775 168.04C280.775 167.488 280.328 167.04 279.775 167.04C279.223 167.04 278.775 167.488 278.775 168.04H280.775ZM278.775 173.056C278.775 173.609 279.223 174.056 279.775 174.056C280.328 174.056 280.775 173.609 280.775 173.056H278.775ZM280.775 178.073C280.775 177.52 280.328 177.073 279.775 177.073C279.223 177.073 278.775 177.52 278.775 178.073H280.775ZM278.775 183.089C278.775 183.641 279.223 184.089 279.775 184.089C280.328 184.089 280.775 183.641 280.775 183.089H278.775ZM280.775 188.105C280.775 187.553 280.328 187.105 279.775 187.105C279.223 187.105 278.775 187.553 278.775 188.105H280.775ZM278.775 193.121C278.775 193.673 279.223 194.121 279.775 194.121C280.328 194.121 280.775 193.673 280.775 193.121H278.775ZM280.775 198.137C280.775 197.585 280.328 197.137 279.775 197.137C279.223 197.137 278.775 197.585 278.775 198.137H280.775ZM278.775 203.153C278.775 203.706 279.223 204.153 279.775 204.153C280.328 204.153 280.775 203.706 280.775 203.153H278.775ZM280.775 208.169C280.775 207.617 280.328 207.169 279.775 207.169C279.223 207.169 278.775 207.617 278.775 208.169H280.775ZM278.775 213.185C278.775 213.738 279.223 214.185 279.775 214.185C280.328 214.185 280.775 213.738 280.775 213.185H278.775ZM280.775 218.202C280.775 217.649 280.328 217.202 279.775 217.202C279.223 217.202 278.775 217.649 278.775 218.202H280.775ZM278.775 223.218C278.775 223.77 279.223 224.218 279.775 224.218C280.328 224.218 280.775 223.77 280.775 223.218H278.775ZM280.775 228.234C280.775 227.682 280.328 227.234 279.775 227.234C279.223 227.234 278.775 227.682 278.775 228.234H280.775ZM278.775 233.25C278.775 233.802 279.223 234.25 279.775 234.25C280.328 234.25 280.775 233.802 280.775 233.25H278.775ZM280.775 238.266C280.775 237.714 280.328 237.266 279.775 237.266C279.223 237.266 278.775 237.714 278.775 238.266H280.775ZM278.775 243.282C278.775 243.835 279.223 244.282 279.775 244.282C280.328 244.282 280.775 243.835 280.775 243.282H278.775ZM280.775 248.298C280.775 247.746 280.328 247.298 279.775 247.298C279.223 247.298 278.775 247.746 278.775 248.298H280.775ZM278.775 253.314C278.775 253.867 279.223 254.314 279.775 254.314C280.328 254.314 280.775 253.867 280.775 253.314H278.775ZM280.775 258.331C280.775 257.778 280.328 257.331 279.775 257.331C279.223 257.331 278.775 257.778 278.775 258.331H280.775ZM278.775 263.347C278.775 263.899 279.223 264.347 279.775 264.347C280.328 264.347 280.775 263.899 280.775 263.347H278.775ZM280.775 268.363C280.775 267.811 280.328 267.363 279.775 267.363C279.223 267.363 278.775 267.811 278.775 268.363H280.775ZM278.775 273.379C278.775 273.931 279.223 274.379 279.775 274.379C280.328 274.379 280.775 273.931 280.775 273.379H278.775ZM280.775 278.395C280.775 277.843 280.328 277.395 279.775 277.395C279.223 277.395 278.775 277.843 278.775 278.395H280.775ZM278.775 283.411C278.775 283.964 279.223 284.411 279.775 284.411C280.328 284.411 280.775 283.964 280.775 283.411H278.775ZM280.775 288.427C280.775 287.875 280.328 287.427 279.775 287.427C279.223 287.427 278.775 287.875 278.775 288.427H280.775ZM278.775 293.444C278.775 293.996 279.223 294.444 279.775 294.444C280.328 294.444 280.775 293.996 280.775 293.444H278.775ZM280.775 298.46C280.775 297.908 280.328 297.46 279.775 297.46C279.223 297.46 278.775 297.908 278.775 298.46H280.775ZM278.775 303.476C278.775 304.028 279.223 304.476 279.775 304.476C280.328 304.476 280.775 304.028 280.775 303.476H278.775ZM280.775 308.492C280.775 307.94 280.328 307.492 279.775 307.492C279.223 307.492 278.775 307.94 278.775 308.492H280.775ZM30.2251 0V2.50806H32.2251V0H30.2251ZM30.2251 7.52419V12.5403H32.2251V7.52419H30.2251ZM30.2251 17.5565V22.5726H32.2251V17.5565H30.2251ZM30.2251 27.5887V32.6048H32.2251V27.5887H30.2251ZM30.2251 37.621V42.6371H32.2251V37.621H30.2251ZM30.2251 47.6532V52.6694H32.2251V47.6532H30.2251ZM30.2251 57.6855V62.7016H32.2251V57.6855H30.2251ZM30.2251 67.7177V72.7339H32.2251V67.7177H30.2251ZM30.2251 77.75V82.7661H32.2251V77.75H30.2251ZM30.2251 87.7823V92.7984H32.2251V87.7823H30.2251ZM30.2251 97.8145V102.831H32.2251V97.8145H30.2251ZM30.2251 107.847V112.863H32.2251V107.847H30.2251ZM30.2251 117.879V122.895H32.2251V117.879H30.2251ZM30.2251 127.911V132.927H32.2251V127.911H30.2251ZM30.2251 137.944V142.96H32.2251V137.944H30.2251ZM30.2251 147.976V152.992H32.2251V147.976H30.2251ZM30.2251 158.008V163.024H32.2251V158.008H30.2251ZM30.2251 168.04V173.056H32.2251V168.04H30.2251ZM30.2251 178.073V183.089H32.2251V178.073H30.2251ZM30.2251 188.105V193.121H32.2251V188.105H30.2251ZM30.2251 198.137V203.153H32.2251V198.137H30.2251ZM30.2251 208.169V213.185H32.2251V208.169H30.2251ZM30.2251 218.202V223.218H32.2251V218.202H30.2251ZM30.2251 228.234V233.25H32.2251V228.234H30.2251ZM30.2251 238.266V243.282H32.2251V238.266H30.2251ZM30.2251 248.298V253.314H32.2251V248.298H30.2251ZM30.2251 258.331V263.347H32.2251V258.331H30.2251ZM30.2251 268.363V273.379H32.2251V268.363H30.2251ZM30.2251 278.395V283.411H32.2251V278.395H30.2251ZM30.2251 288.427V293.444H32.2251V288.427H30.2251ZM30.2251 298.46V303.476H32.2251V298.46H30.2251ZM30.2251 308.492V311H32.2251V308.492H30.2251ZM278.775 0V2.50806H280.775V0H278.775ZM278.775 7.52419V12.5403H280.775V7.52419H278.775ZM278.775 17.5565V22.5726H280.775V17.5565H278.775ZM278.775 27.5887V32.6048H280.775V27.5887H278.775ZM278.775 37.621V42.6371H280.775V37.621H278.775ZM278.775 47.6532V52.6694H280.775V47.6532H278.775ZM278.775 57.6855V62.7016H280.775V57.6855H278.775ZM278.775 67.7177V72.7339H280.775V67.7177H278.775ZM278.775 77.75V82.7661H280.775V77.75H278.775ZM278.775 87.7823V92.7984H280.775V87.7823H278.775ZM278.775 97.8145V102.831H280.775V97.8145H278.775ZM278.775 107.847V112.863H280.775V107.847H278.775ZM278.775 117.879V122.895H280.775V117.879H278.775ZM278.775 127.911V132.927H280.775V127.911H278.775ZM278.775 137.944V142.96H280.775V137.944H278.775ZM278.775 147.976V152.992H280.775V147.976H278.775ZM278.775 158.008V163.024H280.775V158.008H278.775ZM278.775 168.04V173.056H280.775V168.04H278.775ZM278.775 178.073V183.089H280.775V178.073H278.775ZM278.775 188.105V193.121H280.775V188.105H278.775ZM278.775 198.137V203.153H280.775V198.137H278.775ZM278.775 208.169V213.185H280.775V208.169H278.775ZM278.775 218.202V223.218H280.775V218.202H278.775ZM278.775 228.234V233.25H280.775V228.234H278.775ZM278.775 238.266V243.282H280.775V238.266H278.775ZM278.775 248.298V253.314H280.775V248.298H278.775ZM278.775 258.331V263.347H280.775V258.331H278.775ZM278.775 268.363V273.379H280.775V268.363H278.775ZM278.775 278.395V283.411H280.775V278.395H278.775ZM278.775 288.427V293.444H280.775V288.427H278.775ZM278.775 298.46V303.476H280.775V298.46H278.775ZM278.775 308.492V311H280.775V308.492H278.775Z" fill="url(#paint0_linear_127_7948)"/>
<path d="M308.492 30.2249C307.94 30.2249 307.492 30.6726 307.492 31.2249C307.492 31.7772 307.94 32.2249 308.492 32.2249L308.492 30.2249ZM303.476 32.2249C304.028 32.2249 304.476 31.7772 304.476 31.2249C304.476 30.6726 304.028 30.2249 303.476 30.2249L303.476 32.2249ZM298.46 30.2249C297.907 30.2249 297.46 30.6726 297.46 31.2249C297.46 31.7772 297.907 32.2249 298.46 32.2249L298.46 30.2249ZM293.444 32.2249C293.996 32.2249 294.444 31.7772 294.444 31.2249C294.444 30.6726 293.996 30.2249 293.444 30.2249L293.444 32.2249ZM288.427 30.2249C287.875 30.2249 287.427 30.6726 287.427 31.2249C287.427 31.7772 287.875 32.2249 288.427 32.2249L288.427 30.2249ZM283.411 32.2249C283.964 32.2249 284.411 31.7772 284.411 31.2249C284.411 30.6726 283.964 30.2249 283.411 30.2249L283.411 32.2249ZM278.395 30.2249C277.843 30.2249 277.395 30.6726 277.395 31.2249C277.395 31.7772 277.843 32.2249 278.395 32.2249L278.395 30.2249ZM273.379 32.2249C273.931 32.2249 274.379 31.7772 274.379 31.2249C274.379 30.6726 273.931 30.2249 273.379 30.2249L273.379 32.2249ZM268.363 30.2249C267.811 30.2249 267.363 30.6726 267.363 31.2249C267.363 31.7772 267.811 32.2249 268.363 32.2249L268.363 30.2249ZM263.347 32.2249C263.899 32.2249 264.347 31.7772 264.347 31.2249C264.347 30.6726 263.899 30.2249 263.347 30.2249L263.347 32.2249ZM258.331 30.2249C257.778 30.2249 257.331 30.6726 257.331 31.2249C257.331 31.7772 257.778 32.2249 258.331 32.2249L258.331 30.2249ZM253.315 32.2249C253.867 32.2249 254.315 31.7772 254.315 31.2249C254.315 30.6726 253.867 30.2249 253.315 30.2249L253.315 32.2249ZM248.298 30.2249C247.746 30.2249 247.298 30.6726 247.298 31.2249C247.298 31.7772 247.746 32.2249 248.298 32.2249L248.298 30.2249ZM243.282 32.2249C243.835 32.2249 244.282 31.7772 244.282 31.2249C244.282 30.6726 243.835 30.2249 243.282 30.2249L243.282 32.2249ZM238.266 30.2249C237.714 30.2249 237.266 30.6726 237.266 31.2249C237.266 31.7772 237.714 32.2249 238.266 32.2249L238.266 30.2249ZM233.25 32.2249C233.802 32.2249 234.25 31.7772 234.25 31.2249C234.25 30.6726 233.802 30.2249 233.25 30.2249L233.25 32.2249ZM228.234 30.2249C227.682 30.2249 227.234 30.6726 227.234 31.2249C227.234 31.7772 227.682 32.2249 228.234 32.2249L228.234 30.2249ZM223.218 32.2249C223.77 32.2249 224.218 31.7772 224.218 31.2249C224.218 30.6726 223.77 30.2249 223.218 30.2249L223.218 32.2249ZM218.202 30.2249C217.649 30.2249 217.202 30.6726 217.202 31.2249C217.202 31.7772 217.649 32.2249 218.202 32.2249L218.202 30.2249ZM213.185 32.2249C213.738 32.2249 214.185 31.7772 214.185 31.2249C214.185 30.6726 213.738 30.2249 213.185 30.2249L213.185 32.2249ZM208.169 30.2249C207.617 30.2249 207.169 30.6726 207.169 31.2249C207.169 31.7772 207.617 32.2249 208.169 32.2249L208.169 30.2249ZM203.153 32.2249C203.706 32.2249 204.153 31.7772 204.153 31.2249C204.153 30.6726 203.706 30.2249 203.153 30.2249L203.153 32.2249ZM198.137 30.2249C197.585 30.2249 197.137 30.6726 197.137 31.2249C197.137 31.7772 197.585 32.2249 198.137 32.2249L198.137 30.2249ZM193.121 32.2249C193.673 32.2249 194.121 31.7772 194.121 31.2249C194.121 30.6726 193.673 30.2249 193.121 30.2249L193.121 32.2249ZM188.105 30.2249C187.553 30.2249 187.105 30.6726 187.105 31.2249C187.105 31.7772 187.553 32.2249 188.105 32.2249L188.105 30.2249ZM183.089 32.2249C183.641 32.2249 184.089 31.7772 184.089 31.2249C184.089 30.6726 183.641 30.2249 183.089 30.2249L183.089 32.2249ZM178.073 30.2249C177.52 30.2249 177.073 30.6726 177.073 31.2249C177.073 31.7772 177.52 32.2249 178.073 32.2249L178.073 30.2249ZM173.056 32.2249C173.609 32.2249 174.056 31.7772 174.056 31.2249C174.056 30.6726 173.609 30.2249 173.056 30.2249L173.056 32.2249ZM168.04 30.2249C167.488 30.2249 167.04 30.6726 167.04 31.2249C167.04 31.7772 167.488 32.2249 168.04 32.2249L168.04 30.2249ZM163.024 32.2249C163.577 32.2249 164.024 31.7772 164.024 31.2249C164.024 30.6726 163.577 30.2249 163.024 30.2249L163.024 32.2249ZM158.008 30.2249C157.456 30.2249 157.008 30.6726 157.008 31.2249C157.008 31.7772 157.456 32.2249 158.008 32.2249L158.008 30.2249ZM152.992 32.2249C153.544 32.2249 153.992 31.7772 153.992 31.2249C153.992 30.6726 153.544 30.2249 152.992 30.2249L152.992 32.2249ZM147.976 30.2249C147.424 30.2249 146.976 30.6726 146.976 31.2249C146.976 31.7772 147.424 32.2249 147.976 32.2249L147.976 30.2249ZM142.96 32.2249C143.512 32.2249 143.96 31.7772 143.96 31.2249C143.96 30.6726 143.512 30.2249 142.96 30.2249L142.96 32.2249ZM137.944 30.2249C137.391 30.2249 136.944 30.6726 136.944 31.2249C136.944 31.7772 137.391 32.2249 137.944 32.2249L137.944 30.2249ZM132.927 32.2249C133.48 32.2249 133.927 31.7772 133.927 31.2249C133.927 30.6726 133.48 30.2249 132.927 30.2249L132.927 32.2249ZM127.911 30.2249C127.359 30.2249 126.911 30.6726 126.911 31.2249C126.911 31.7772 127.359 32.2249 127.911 32.2249L127.911 30.2249ZM122.895 32.2249C123.447 32.2249 123.895 31.7772 123.895 31.2249C123.895 30.6726 123.447 30.2249 122.895 30.2249L122.895 32.2249ZM117.879 30.2249C117.327 30.2249 116.879 30.6726 116.879 31.2249C116.879 31.7772 117.327 32.2249 117.879 32.2249L117.879 30.2249ZM112.863 32.2249C113.415 32.2249 113.863 31.7772 113.863 31.2249C113.863 30.6726 113.415 30.2249 112.863 30.2249L112.863 32.2249ZM107.847 30.2249C107.295 30.2249 106.847 30.6726 106.847 31.2249C106.847 31.7772 107.295 32.2249 107.847 32.2249L107.847 30.2249ZM102.831 32.2249C103.383 32.2249 103.831 31.7772 103.831 31.2249C103.831 30.6726 103.383 30.2249 102.831 30.2249L102.831 32.2249ZM97.8145 30.2249C97.2623 30.2249 96.8145 30.6726 96.8145 31.2249C96.8145 31.7772 97.2623 32.2249 97.8145 32.2249L97.8145 30.2249ZM92.7984 32.2249C93.3507 32.2249 93.7984 31.7772 93.7984 31.2249C93.7984 30.6726 93.3507 30.2249 92.7984 30.2249L92.7984 32.2249ZM87.7823 30.2249C87.23 30.2249 86.7823 30.6726 86.7823 31.2249C86.7823 31.7772 87.23 32.2249 87.7823 32.2249L87.7823 30.2249ZM82.7662 32.2249C83.3185 32.2249 83.7662 31.7772 83.7662 31.2249C83.7662 30.6726 83.3185 30.2249 82.7662 30.2249L82.7662 32.2249ZM77.75 30.2249C77.1977 30.2249 76.75 30.6726 76.75 31.2249C76.75 31.7772 77.1977 32.2249 77.75 32.2249L77.75 30.2249ZM72.7339 32.2249C73.2862 32.2249 73.7339 31.7772 73.7339 31.2249C73.7339 30.6726 73.2862 30.2249 72.7339 30.2249L72.7339 32.2249ZM67.7178 30.2249C67.1655 30.2249 66.7178 30.6726 66.7178 31.2249C66.7178 31.7772 67.1655 32.2249 67.7178 32.2249L67.7178 30.2249ZM62.7017 32.2249C63.2539 32.2249 63.7017 31.7772 63.7017 31.2249C63.7017 30.6726 63.2539 30.2249 62.7017 30.2249L62.7017 32.2249ZM57.6855 30.2249C57.1332 30.2249 56.6855 30.6726 56.6855 31.2249C56.6855 31.7772 57.1332 32.2249 57.6855 32.2249L57.6855 30.2249ZM52.6694 32.2249C53.2216 32.2249 53.6694 31.7772 53.6694 31.2249C53.6694 30.6726 53.2216 30.2249 52.6694 30.2249L52.6694 32.2249ZM47.6533 30.2249C47.101 30.2249 46.6533 30.6726 46.6533 31.2249C46.6533 31.7772 47.101 32.2249 47.6533 32.2249L47.6533 30.2249ZM42.6371 32.2249C43.1894 32.2249 43.6371 31.7772 43.6371 31.2249C43.6371 30.6726 43.1894 30.2249 42.6371 30.2249L42.6371 32.2249ZM37.621 30.2249C37.0688 30.2249 36.621 30.6726 36.621 31.2249C36.621 31.7772 37.0688 32.2249 37.621 32.2249L37.621 30.2249ZM32.6049 32.2249C33.1572 32.2249 33.6049 31.7772 33.6049 31.2249C33.6049 30.6726 33.1572 30.2249 32.6049 30.2249L32.6049 32.2249ZM27.5888 30.2249C27.0365 30.2249 26.5888 30.6726 26.5888 31.2249C26.5888 31.7772 27.0365 32.2249 27.5888 32.2249L27.5888 30.2249ZM22.5727 32.2249C23.125 32.2249 23.5727 31.7772 23.5727 31.2249C23.5727 30.6726 23.125 30.2249 22.5727 30.2249L22.5727 32.2249ZM17.5566 30.2249C17.0043 30.2249 16.5566 30.6726 16.5566 31.2249C16.5566 31.7772 17.0043 32.2249 17.5566 32.2249L17.5566 30.2249ZM12.5405 32.2249C13.0928 32.2249 13.5405 31.7772 13.5405 31.2249C13.5405 30.6726 13.0928 30.2249 12.5405 30.2249L12.5405 32.2249ZM7.52435 30.2249C6.97208 30.2249 6.52435 30.6726 6.52435 31.2249C6.52435 31.7772 6.97208 32.2249 7.52435 32.2249L7.52435 30.2249ZM2.50824 32.2249C3.06055 32.2249 3.50824 31.7772 3.50824 31.2249C3.50824 30.6726 3.06055 30.2249 2.50824 30.2249L2.50824 32.2249ZM308.492 278.775C307.94 278.775 307.492 279.223 307.492 279.775C307.492 280.327 307.94 280.775 308.492 280.775L308.492 278.775ZM303.476 280.775C304.028 280.775 304.476 280.327 304.476 279.775C304.476 279.223 304.028 278.775 303.476 278.775L303.476 280.775ZM298.46 278.775C297.907 278.775 297.46 279.223 297.46 279.775C297.46 280.327 297.907 280.775 298.46 280.775L298.46 278.775ZM293.444 280.775C293.996 280.775 294.444 280.327 294.444 279.775C294.444 279.223 293.996 278.775 293.444 278.775L293.444 280.775ZM288.427 278.775C287.875 278.775 287.427 279.223 287.427 279.775C287.427 280.327 287.875 280.775 288.427 280.775L288.427 278.775ZM283.411 280.775C283.964 280.775 284.411 280.327 284.411 279.775C284.411 279.223 283.964 278.775 283.411 278.775L283.411 280.775ZM278.395 278.775C277.843 278.775 277.395 279.223 277.395 279.775C277.395 280.327 277.843 280.775 278.395 280.775L278.395 278.775ZM273.379 280.775C273.931 280.775 274.379 280.327 274.379 279.775C274.379 279.223 273.931 278.775 273.379 278.775L273.379 280.775ZM268.363 278.775C267.811 278.775 267.363 279.223 267.363 279.775C267.363 280.327 267.811 280.775 268.363 280.775L268.363 278.775ZM263.347 280.775C263.899 280.775 264.347 280.327 264.347 279.775C264.347 279.223 263.899 278.775 263.347 278.775L263.347 280.775ZM258.331 278.775C257.778 278.775 257.331 279.223 257.331 279.775C257.331 280.327 257.778 280.775 258.331 280.775L258.331 278.775ZM253.315 280.775C253.867 280.775 254.315 280.327 254.315 279.775C254.315 279.223 253.867 278.775 253.315 278.775L253.315 280.775ZM248.298 278.775C247.746 278.775 247.298 279.223 247.298 279.775C247.298 280.327 247.746 280.775 248.298 280.775L248.298 278.775ZM243.282 280.775C243.835 280.775 244.282 280.327 244.282 279.775C244.282 279.223 243.835 278.775 243.282 278.775L243.282 280.775ZM238.266 278.775C237.714 278.775 237.266 279.223 237.266 279.775C237.266 280.327 237.714 280.775 238.266 280.775L238.266 278.775ZM233.25 280.775C233.802 280.775 234.25 280.327 234.25 279.775C234.25 279.223 233.802 278.775 233.25 278.775L233.25 280.775ZM228.234 278.775C227.682 278.775 227.234 279.223 227.234 279.775C227.234 280.327 227.682 280.775 228.234 280.775L228.234 278.775ZM223.218 280.775C223.77 280.775 224.218 280.327 224.218 279.775C224.218 279.223 223.77 278.775 223.218 278.775L223.218 280.775ZM218.202 278.775C217.649 278.775 217.202 279.223 217.202 279.775C217.202 280.327 217.649 280.775 218.202 280.775L218.202 278.775ZM213.185 280.775C213.738 280.775 214.185 280.327 214.185 279.775C214.185 279.223 213.738 278.775 213.185 278.775L213.185 280.775ZM208.169 278.775C207.617 278.775 207.169 279.223 207.169 279.775C207.169 280.327 207.617 280.775 208.169 280.775L208.169 278.775ZM203.153 280.775C203.706 280.775 204.153 280.327 204.153 279.775C204.153 279.223 203.706 278.775 203.153 278.775L203.153 280.775ZM198.137 278.775C197.585 278.775 197.137 279.223 197.137 279.775C197.137 280.327 197.585 280.775 198.137 280.775L198.137 278.775ZM193.121 280.775C193.673 280.775 194.121 280.327 194.121 279.775C194.121 279.223 193.673 278.775 193.121 278.775L193.121 280.775ZM188.105 278.775C187.553 278.775 187.105 279.223 187.105 279.775C187.105 280.327 187.553 280.775 188.105 280.775L188.105 278.775ZM183.089 280.775C183.641 280.775 184.089 280.327 184.089 279.775C184.089 279.223 183.641 278.775 183.089 278.775L183.089 280.775ZM178.073 278.775C177.52 278.775 177.073 279.223 177.073 279.775C177.073 280.327 177.52 280.775 178.073 280.775L178.073 278.775ZM173.056 280.775C173.609 280.775 174.056 280.327 174.056 279.775C174.056 279.223 173.609 278.775 173.056 278.775L173.056 280.775ZM168.04 278.775C167.488 278.775 167.04 279.223 167.04 279.775C167.04 280.327 167.488 280.775 168.04 280.775L168.04 278.775ZM163.024 280.775C163.576 280.775 164.024 280.327 164.024 279.775C164.024 279.223 163.576 278.775 163.024 278.775L163.024 280.775ZM158.008 278.775C157.456 278.775 157.008 279.223 157.008 279.775C157.008 280.327 157.456 280.775 158.008 280.775L158.008 278.775ZM152.992 280.775C153.544 280.775 153.992 280.327 153.992 279.775C153.992 279.223 153.544 278.775 152.992 278.775L152.992 280.775ZM147.976 278.775C147.424 278.775 146.976 279.223 146.976 279.775C146.976 280.327 147.424 280.775 147.976 280.775L147.976 278.775ZM142.96 280.775C143.512 280.775 143.96 280.327 143.96 279.775C143.96 279.223 143.512 278.775 142.96 278.775L142.96 280.775ZM137.944 278.775C137.391 278.775 136.944 279.223 136.944 279.775C136.944 280.327 137.391 280.775 137.944 280.775L137.944 278.775ZM132.927 280.775C133.48 280.775 133.927 280.327 133.927 279.775C133.927 279.223 133.48 278.775 132.927 278.775L132.927 280.775ZM127.911 278.775C127.359 278.775 126.911 279.223 126.911 279.775C126.911 280.327 127.359 280.775 127.911 280.775L127.911 278.775ZM122.895 280.775C123.447 280.775 123.895 280.327 123.895 279.775C123.895 279.223 123.447 278.775 122.895 278.775L122.895 280.775ZM117.879 278.775C117.327 278.775 116.879 279.223 116.879 279.775C116.879 280.327 117.327 280.775 117.879 280.775L117.879 278.775ZM112.863 280.775C113.415 280.775 113.863 280.327 113.863 279.775C113.863 279.223 113.415 278.775 112.863 278.775L112.863 280.775ZM107.847 278.775C107.295 278.775 106.847 279.223 106.847 279.775C106.847 280.327 107.295 280.775 107.847 280.775L107.847 278.775ZM102.831 280.775C103.383 280.775 103.831 280.327 103.831 279.775C103.831 279.223 103.383 278.775 102.831 278.775L102.831 280.775ZM97.8145 278.775C97.2622 278.775 96.8145 279.223 96.8145 279.775C96.8145 280.327 97.2622 280.775 97.8145 280.775L97.8145 278.775ZM92.7984 280.775C93.3507 280.775 93.7984 280.327 93.7984 279.775C93.7984 279.223 93.3507 278.775 92.7984 278.775L92.7984 280.775ZM87.7823 278.775C87.23 278.775 86.7823 279.223 86.7823 279.775C86.7823 280.327 87.23 280.775 87.7823 280.775L87.7823 278.775ZM82.7662 280.775C83.3184 280.775 83.7662 280.327 83.7662 279.775C83.7662 279.223 83.3184 278.775 82.7662 278.775L82.7662 280.775ZM77.75 278.775C77.1977 278.775 76.75 279.223 76.75 279.775C76.75 280.327 77.1977 280.775 77.75 280.775L77.75 278.775ZM72.7339 280.775C73.2862 280.775 73.7339 280.327 73.7339 279.775C73.7339 279.223 73.2862 278.775 72.7339 278.775L72.7339 280.775ZM67.7178 278.775C67.1655 278.775 66.7178 279.223 66.7178 279.775C66.7178 280.327 67.1655 280.775 67.7178 280.775L67.7178 278.775ZM62.7016 280.775C63.2539 280.775 63.7016 280.327 63.7016 279.775C63.7016 279.223 63.2539 278.775 62.7016 278.775L62.7016 280.775ZM57.6855 278.775C57.1332 278.775 56.6855 279.223 56.6855 279.775C56.6855 280.327 57.1332 280.775 57.6855 280.775L57.6855 278.775ZM52.6694 280.775C53.2216 280.775 53.6694 280.327 53.6694 279.775C53.6694 279.223 53.2216 278.775 52.6694 278.775L52.6694 280.775ZM47.6532 278.775C47.101 278.775 46.6532 279.223 46.6532 279.775C46.6532 280.327 47.101 280.775 47.6532 280.775L47.6532 278.775ZM42.6371 280.775C43.1894 280.775 43.6371 280.327 43.6371 279.775C43.6371 279.223 43.1894 278.775 42.6371 278.775L42.6371 280.775ZM37.621 278.775C37.0687 278.775 36.621 279.223 36.621 279.775C36.621 280.327 37.0687 280.775 37.621 280.775L37.621 278.775ZM32.6049 280.775C33.1572 280.775 33.6049 280.327 33.6049 279.775C33.6049 279.223 33.1572 278.775 32.6049 278.775L32.6049 280.775ZM27.5888 278.775C27.0365 278.775 26.5888 279.223 26.5888 279.775C26.5888 280.327 27.0365 280.775 27.5888 280.775L27.5888 278.775ZM22.5727 280.775C23.125 280.775 23.5727 280.327 23.5727 279.775C23.5727 279.223 23.125 278.775 22.5727 278.775L22.5727 280.775ZM17.5566 278.775C17.0043 278.775 16.5566 279.223 16.5566 279.775C16.5566 280.327 17.0043 280.775 17.5566 280.775L17.5566 278.775ZM12.5405 280.775C13.0928 280.775 13.5405 280.327 13.5405 279.775C13.5405 279.223 13.0928 278.775 12.5405 278.775L12.5405 280.775ZM7.52434 278.775C6.97207 278.775 6.52434 279.223 6.52434 279.775C6.52434 280.327 6.97207 280.775 7.52434 280.775L7.52434 278.775ZM2.50823 280.775C3.06054 280.775 3.50823 280.327 3.50823 279.775C3.50823 279.223 3.06054 278.775 2.50823 278.775L2.50823 280.775ZM311 30.2249L308.492 30.2249L308.492 32.2249L311 32.2249L311 30.2249ZM303.476 30.2249L298.46 30.2249L298.46 32.2249L303.476 32.2249L303.476 30.2249ZM293.444 30.2249L288.427 30.2249L288.427 32.2249L293.444 32.2249L293.444 30.2249ZM283.411 30.2249L278.395 30.2249L278.395 32.2249L283.411 32.2249L283.411 30.2249ZM273.379 30.2249L268.363 30.2249L268.363 32.2249L273.379 32.2249L273.379 30.2249ZM263.347 30.2249L258.331 30.2249L258.331 32.2249L263.347 32.2249L263.347 30.2249ZM253.315 30.2249L248.298 30.2249L248.298 32.2249L253.315 32.2249L253.315 30.2249ZM243.282 30.2249L238.266 30.2249L238.266 32.2249L243.282 32.2249L243.282 30.2249ZM233.25 30.2249L228.234 30.2249L228.234 32.2249L233.25 32.2249L233.25 30.2249ZM223.218 30.2249L218.202 30.2249L218.202 32.2249L223.218 32.2249L223.218 30.2249ZM213.185 30.2249L208.169 30.2249L208.169 32.2249L213.185 32.2249L213.185 30.2249ZM203.153 30.2249L198.137 30.2249L198.137 32.2249L203.153 32.2249L203.153 30.2249ZM193.121 30.2249L188.105 30.2249L188.105 32.2249L193.121 32.2249L193.121 30.2249ZM183.089 30.2249L178.073 30.2249L178.073 32.2249L183.089 32.2249L183.089 30.2249ZM173.056 30.2249L168.04 30.2249L168.04 32.2249L173.056 32.2249L173.056 30.2249ZM163.024 30.2249L158.008 30.2249L158.008 32.2249L163.024 32.2249L163.024 30.2249ZM152.992 30.2249L147.976 30.2249L147.976 32.2249L152.992 32.2249L152.992 30.2249ZM142.96 30.2249L137.944 30.2249L137.944 32.2249L142.96 32.2249L142.96 30.2249ZM132.927 30.2249L127.911 30.2249L127.911 32.2249L132.927 32.2249L132.927 30.2249ZM122.895 30.2249L117.879 30.2249L117.879 32.2249L122.895 32.2249L122.895 30.2249ZM112.863 30.2249L107.847 30.2249L107.847 32.2249L112.863 32.2249L112.863 30.2249ZM102.831 30.2249L97.8145 30.2249L97.8145 32.2249L102.831 32.2249L102.831 30.2249ZM92.7984 30.2249L87.7823 30.2249L87.7823 32.2249L92.7984 32.2249L92.7984 30.2249ZM82.7662 30.2249L77.75 30.2249L77.75 32.2249L82.7662 32.2249L82.7662 30.2249ZM72.7339 30.2249L67.7178 30.2249L67.7178 32.2249L72.7339 32.2249L72.7339 30.2249ZM62.7017 30.2249L57.6855 30.2249L57.6855 32.2249L62.7017 32.2249L62.7017 30.2249ZM52.6694 30.2249L47.6533 30.2249L47.6533 32.2249L52.6694 32.2249L52.6694 30.2249ZM42.6371 30.2249L37.621 30.2249L37.621 32.2249L42.6371 32.2249L42.6371 30.2249ZM32.6049 30.2249L27.5888 30.2249L27.5888 32.2249L32.6049 32.2249L32.6049 30.2249ZM22.5727 30.2249L17.5566 30.2249L17.5566 32.2249L22.5727 32.2249L22.5727 30.2249ZM12.5405 30.2249L7.52435 30.2249L7.52435 32.2249L12.5405 32.2249L12.5405 30.2249ZM2.50824 30.2249L3.05613e-05 30.2249L3.04739e-05 32.2249L2.50824 32.2249L2.50824 30.2249ZM311 278.775L308.492 278.775L308.492 280.775L311 280.775L311 278.775ZM303.476 278.775L298.46 278.775L298.46 280.775L303.476 280.775L303.476 278.775ZM293.444 278.775L288.427 278.775L288.427 280.775L293.444 280.775L293.444 278.775ZM283.411 278.775L278.395 278.775L278.395 280.775L283.411 280.775L283.411 278.775ZM273.379 278.775L268.363 278.775L268.363 280.775L273.379 280.775L273.379 278.775ZM263.347 278.775L258.331 278.775L258.331 280.775L263.347 280.775L263.347 278.775ZM253.315 278.775L248.298 278.775L248.298 280.775L253.315 280.775L253.315 278.775ZM243.282 278.775L238.266 278.775L238.266 280.775L243.282 280.775L243.282 278.775ZM233.25 278.775L228.234 278.775L228.234 280.775L233.25 280.775L233.25 278.775ZM223.218 278.775L218.202 278.775L218.202 280.775L223.218 280.775L223.218 278.775ZM213.185 278.775L208.169 278.775L208.169 280.775L213.185 280.775L213.185 278.775ZM203.153 278.775L198.137 278.775L198.137 280.775L203.153 280.775L203.153 278.775ZM193.121 278.775L188.105 278.775L188.105 280.775L193.121 280.775L193.121 278.775ZM183.089 278.775L178.073 278.775L178.073 280.775L183.089 280.775L183.089 278.775ZM173.056 278.775L168.04 278.775L168.04 280.775L173.056 280.775L173.056 278.775ZM163.024 278.775L158.008 278.775L158.008 280.775L163.024 280.775L163.024 278.775ZM152.992 278.775L147.976 278.775L147.976 280.775L152.992 280.775L152.992 278.775ZM142.96 278.775L137.944 278.775L137.944 280.775L142.96 280.775L142.96 278.775ZM132.927 278.775L127.911 278.775L127.911 280.775L132.927 280.775L132.927 278.775ZM122.895 278.775L117.879 278.775L117.879 280.775L122.895 280.775L122.895 278.775ZM112.863 278.775L107.847 278.775L107.847 280.775L112.863 280.775L112.863 278.775ZM102.831 278.775L97.8145 278.775L97.8145 280.775L102.831 280.775L102.831 278.775ZM92.7984 278.775L87.7823 278.775L87.7823 280.775L92.7984 280.775L92.7984 278.775ZM82.7662 278.775L77.75 278.775L77.75 280.775L82.7662 280.775L82.7662 278.775ZM72.7339 278.775L67.7178 278.775L67.7178 280.775L72.7339 280.775L72.7339 278.775ZM62.7016 278.775L57.6855 278.775L57.6855 280.775L62.7016 280.775L62.7016 278.775ZM52.6694 278.775L47.6532 278.775L47.6532 280.775L52.6694 280.775L52.6694 278.775ZM42.6371 278.775L37.621 278.775L37.621 280.775L42.6371 280.775L42.6371 278.775ZM32.6049 278.775L27.5888 278.775L27.5888 280.775L32.6049 280.775L32.6049 278.775ZM22.5727 278.775L17.5566 278.775L17.5566 280.775L22.5727 280.775L22.5727 278.775ZM12.5405 278.775L7.52434 278.775L7.52434 280.775L12.5405 280.775L12.5405 278.775ZM2.50823 278.775L1.96968e-05 278.775L1.96094e-05 280.775L2.50823 280.775L2.50823 278.775Z" fill="url(#paint1_linear_127_7948)"/>
</g>
<mask id="mask0_127_7948" style="mask-type:alpha" maskUnits="userSpaceOnUse" x="39" y="39" width="233" height="233">
<rect x="39.9678" y="39.9679" width="231.064" height="231.064" fill="#C4C4C4"/>
</mask>
<g mask="url(#mask0_127_7948)">
<mask id="path-4-inside-1_127_7948" fill="white">
<path d="M111.482 110.016L112.096 112.93C112.115 113 112.162 113.06 112.226 113.096C112.29 113.132 112.365 113.141 112.436 113.122C112.505 113.101 112.564 113.054 112.6 112.991C112.636 112.928 112.646 112.853 112.628 112.783L112.015 109.869C111.995 109.799 111.948 109.739 111.884 109.703C111.82 109.667 111.745 109.657 111.674 109.676C111.605 109.697 111.546 109.744 111.51 109.807C111.474 109.871 111.464 109.945 111.482 110.016Z"/>
</mask>
<path d="M111.482 110.016L112.096 112.93C112.115 113 112.162 113.06 112.226 113.096C112.29 113.132 112.365 113.141 112.436 113.122C112.505 113.101 112.564 113.054 112.6 112.991C112.636 112.928 112.646 112.853 112.628 112.783L112.015 109.869C111.995 109.799 111.948 109.739 111.884 109.703C111.82 109.667 111.745 109.657 111.674 109.676C111.605 109.697 111.546 109.744 111.51 109.807C111.474 109.871 111.464 109.945 111.482 110.016Z" fill="#111113"/>
<path d="M111.482 110.016L112.46 109.81L112.456 109.79L112.451 109.771L111.482 110.016ZM112.096 112.93L111.117 113.136L111.124 113.169L111.133 113.202L112.096 112.93ZM112.436 113.122L112.696 114.088L112.71 114.084L112.723 114.08L112.436 113.122ZM112.628 112.783L111.65 112.989L111.654 113.008L111.659 113.027L112.628 112.783ZM112.015 109.869L112.993 109.663L112.986 109.63L112.977 109.597L112.015 109.869ZM111.674 109.676L111.414 108.711L111.4 108.714L111.387 108.718L111.674 109.676ZM110.503 110.222L111.117 113.136L113.074 112.723L112.46 109.81L110.503 110.222ZM111.133 113.202C111.225 113.525 111.44 113.8 111.733 113.966L112.719 112.226C112.884 112.319 113.006 112.474 113.058 112.657L111.133 113.202ZM111.733 113.966C112.025 114.132 112.372 114.175 112.696 114.088L112.175 112.157C112.358 112.107 112.554 112.132 112.719 112.226L111.733 113.966ZM112.723 114.08C113.039 113.985 113.307 113.772 113.47 113.485L111.73 112.497C111.822 112.337 111.971 112.217 112.148 112.164L112.723 114.08ZM113.47 113.485C113.633 113.198 113.679 112.859 113.598 112.539L111.659 113.027C111.613 112.848 111.639 112.658 111.73 112.497L113.47 113.485ZM113.607 112.577L112.993 109.663L111.036 110.075L111.65 112.989L113.607 112.577ZM112.977 109.597C112.885 109.273 112.67 108.999 112.377 108.833L111.391 110.573C111.226 110.479 111.104 110.324 111.052 110.141L112.977 109.597ZM112.377 108.833C112.085 108.667 111.738 108.623 111.414 108.711L111.935 110.642C111.752 110.691 111.556 110.666 111.391 110.573L112.377 108.833ZM111.387 108.718C111.071 108.813 110.803 109.026 110.64 109.314L112.38 110.301C112.288 110.462 112.139 110.581 111.962 110.634L111.387 108.718ZM110.64 109.314C110.477 109.601 110.431 109.94 110.512 110.26L112.451 109.771C112.497 109.951 112.471 110.14 112.38 110.301L110.64 109.314Z" fill="#111113" mask="url(#path-4-inside-1_127_7948)"/>
<path d="M113.129 116.339L113.129 116.339L113.129 116.339Z" fill="#111113" stroke="#111113"/>
<path d="M113.649 122.205L113.636 121.944L113.634 121.944L113.426 121.954C113.425 121.946 113.425 121.937 113.424 121.928C113.424 121.927 113.424 121.926 113.424 121.926C113.398 121.429 113.372 120.94 113.332 120.456C113.332 120.456 113.332 120.456 113.332 120.456C113.312 120.21 113.288 119.966 113.26 119.723L113.212 119.728L113.26 119.723L113.283 120.46C113.312 120.822 113.331 121.183 113.351 121.544C113.358 121.672 113.365 121.8 113.372 121.929C113.374 122.002 113.403 122.071 113.455 122.123C113.506 122.174 113.576 122.204 113.649 122.205ZM113.649 122.205L113.653 121.943L113.648 118.897C113.816 119.903 113.873 120.915 113.925 121.929C113.932 122.082 113.792 122.198 113.649 122.205Z" fill="#111113" stroke="#111113"/>
<mask id="path-8-inside-2_127_7948" fill="white">
<path d="M113.981 124.623L114.245 128.046C114.256 128.19 114.364 128.33 114.521 128.322C114.661 128.316 114.809 128.2 114.798 128.046L114.533 124.623C114.522 124.479 114.414 124.34 114.257 124.347C114.117 124.353 113.969 124.469 113.981 124.623Z"/>
</mask>
<path d="M113.981 124.623L114.245 128.046C114.256 128.19 114.364 128.33 114.521 128.322C114.661 128.316 114.809 128.2 114.798 128.046L114.533 124.623C114.522 124.479 114.414 124.34 114.257 124.347C114.117 124.353 113.969 124.469 113.981 124.623Z" fill="#111113"/>
<path d="M113.981 124.623L112.984 124.699L112.984 124.7L113.981 124.623ZM114.245 128.046L115.242 127.969L115.242 127.969L114.245 128.046ZM114.521 128.322L114.478 127.323L114.475 127.323L114.521 128.322ZM114.798 128.046L115.795 127.97L115.795 127.969L114.798 128.046ZM114.533 124.623L113.536 124.699L113.536 124.7L114.533 124.623ZM114.257 124.347L114.214 123.347L114.209 123.348L114.257 124.347ZM112.984 124.7L113.248 128.123L115.242 127.969L114.978 124.546L112.984 124.7ZM113.248 128.123C113.285 128.608 113.693 129.362 114.568 129.321L114.475 127.323C114.73 127.311 114.939 127.428 115.063 127.562C115.176 127.685 115.231 127.829 115.242 127.969L113.248 128.123ZM114.565 129.321C114.881 129.307 115.176 129.177 115.396 128.973C115.625 128.761 115.828 128.411 115.795 127.97L113.801 128.122C113.779 127.835 113.914 127.619 114.037 127.506C114.151 127.4 114.301 127.331 114.478 127.323L114.565 129.321ZM115.795 127.969L115.53 124.546L113.536 124.7L113.801 128.123L115.795 127.969ZM115.53 124.546C115.492 124.057 115.083 123.31 114.214 123.348L114.3 125.346C114.047 125.357 113.84 125.242 113.716 125.107C113.603 124.985 113.547 124.84 113.536 124.699L115.53 124.546ZM114.209 123.348C113.896 123.363 113.603 123.492 113.383 123.695C113.154 123.907 112.95 124.258 112.984 124.699L114.978 124.547C115 124.835 114.864 125.05 114.741 125.164C114.627 125.269 114.478 125.337 114.305 125.345L114.209 123.348Z" fill="#111113" mask="url(#path-8-inside-2_127_7948)"/>
<path d="M114.813 131.648C114.865 132.108 114.908 132.569 114.941 133.031C114.95 133.175 115.06 133.315 115.217 133.307C115.358 133.301 115.504 133.184 115.493 133.031L114.813 131.648ZM114.813 131.648C114.811 131.638 114.81 131.629 114.809 131.619C114.795 131.5 114.78 131.38 114.764 131.26M114.813 131.648L114.764 131.26M115.25 131.113L115.25 131.116L115.25 131.116C115.25 131.119 115.251 131.135 115.251 131.155C115.251 131.162 115.25 131.178 115.249 131.196L115.26 131.194C115.276 131.317 115.292 131.439 115.306 131.561L115.306 131.562C115.361 132.038 115.406 132.517 115.439 132.996C115.437 132.958 115.422 132.92 115.39 132.886C115.353 132.845 115.283 132.804 115.195 132.808C115.195 132.808 115.195 132.808 115.194 132.808L114.859 131.627C114.87 131.621 114.88 131.616 114.89 131.61C114.89 131.61 114.89 131.61 114.89 131.61C115.088 131.496 115.233 131.288 115.246 131.231C115.247 131.221 115.248 131.209 115.249 131.197L115.26 131.195C115.26 131.191 115.259 131.184 115.258 131.177C115.256 131.159 115.253 131.135 115.25 131.113ZM115.25 131.113C115.249 131.11 115.249 131.107 115.248 131.104L115.245 131.08L114.797 131.134M115.25 131.113L114.813 131.254M114.813 131.254C114.809 131.224 114.805 131.194 114.801 131.165L114.753 131.17M114.813 131.254L114.764 131.26M114.813 131.254L114.764 131.26M114.753 131.17L114.801 131.163C114.8 131.154 114.798 131.144 114.797 131.134M114.753 131.17C114.756 131.19 114.758 131.211 114.761 131.231C114.762 131.241 114.763 131.251 114.764 131.26M114.753 131.17L114.749 131.14M114.797 131.134L114.749 131.14M114.797 131.134C114.797 131.134 114.797 131.134 114.797 131.134M114.749 131.14L115.244 131.068C115.244 131.068 115.244 131.068 115.244 131.069L115.245 131.073M114.749 131.14L114.797 131.134M114.749 131.14L114.797 131.133C114.797 131.133 114.797 131.133 114.797 131.133C114.797 131.133 114.797 131.134 114.797 131.134M114.749 131.14L114.764 131.26M114.797 131.134L115.245 131.075C115.245 131.073 115.244 131.072 115.244 131.07L115.244 131.071L115.245 131.073M115.245 131.073L115.245 131.073L115.245 131.074L115.245 131.074C115.245 131.074 115.245 131.073 115.245 131.073ZM114.764 131.26L114.813 131.254L114.764 131.26ZM114.729 130.662C114.744 130.759 114.758 130.857 114.772 130.954C114.772 130.955 114.772 130.955 114.772 130.955C114.78 131.012 114.788 131.069 114.796 131.126L114.748 131.132C114.745 131.107 114.741 131.083 114.738 131.059C114.733 131.027 114.729 130.994 114.725 130.961C114.71 130.863 114.696 130.764 114.681 130.666C114.688 130.663 114.695 130.66 114.702 130.657C114.711 130.659 114.72 130.66 114.729 130.662Z" fill="#111113" stroke="#111113"/>
<path d="M105.571 114.048C105.638 114.02 105.707 113.993 105.775 113.966C105.806 113.954 105.837 113.942 105.868 113.93C105.862 113.914 105.854 113.899 105.846 113.883C105.816 113.894 105.786 113.906 105.756 113.918C105.688 113.945 105.619 113.973 105.551 114.001L105.571 114.048ZM105.571 114.048C105.561 114.053 105.55 114.057 105.539 114.061C105.52 114.069 105.5 114.077 105.481 114.085M105.571 114.048L105.551 114.001C105.521 114.013 105.491 114.025 105.462 114.038M105.391 113.618C105.365 113.618 105.347 113.621 105.344 113.621C105.344 113.621 105.344 113.621 105.344 113.621C105.322 113.624 105.304 113.628 105.295 113.63L105.462 114.038M105.391 113.618L105.462 114.038M105.391 113.618C105.391 113.618 105.392 113.618 105.393 113.618L105.38 113.586C105.376 113.588 105.369 113.591 105.361 113.594C105.34 113.602 105.311 113.614 105.288 113.624M105.462 114.038L105.481 114.085M105.481 114.085L105.461 114.038C105.444 114.045 105.428 114.052 105.411 114.059C105.408 114.06 105.405 114.062 105.402 114.063L105.408 114.078L105.422 114.11C105.426 114.109 105.429 114.107 105.43 114.106L105.481 114.085Z" fill="#111113" stroke="#111113"/>
<path d="M109.77 113.481C109.775 113.477 109.781 113.473 109.786 113.469L109.756 113.428C109.742 113.439 109.728 113.45 109.714 113.461L109.747 113.5L109.714 113.461C109.688 113.482 109.663 113.504 109.639 113.526C109.639 113.526 109.639 113.526 109.639 113.526C109.557 113.601 109.481 113.682 109.411 113.769C109.414 113.773 109.417 113.776 109.42 113.78C109.428 113.789 109.436 113.798 109.445 113.807C109.515 113.72 109.591 113.639 109.673 113.564C109.697 113.542 109.722 113.521 109.747 113.5C109.749 113.498 109.759 113.49 109.77 113.481ZM109.413 113.766L109.403 113.758C109.345 113.682 109.318 113.604 109.308 113.535L109.357 113.482C109.384 113.507 109.408 113.541 109.424 113.582C109.439 113.621 109.442 113.657 109.44 113.684C109.438 113.732 109.421 113.757 109.413 113.766ZM109.356 113.481L109.308 113.534C109.303 113.502 109.301 113.471 109.302 113.445C109.319 113.452 109.337 113.464 109.356 113.481Z" fill="#111113" stroke="#111113"/>
<mask id="path-13-inside-3_127_7948" fill="white">
<path d="M102.253 114.316C101.896 114.742 101.591 115.209 101.346 115.708C101.317 115.761 101.306 115.821 101.315 115.881C101.324 115.94 101.351 115.995 101.394 116.038C101.436 116.08 101.491 116.108 101.551 116.116C101.61 116.125 101.671 116.114 101.724 116.085L101.823 116.04C101.796 116.052 101.818 116.04 101.832 116.036L101.883 116.016C101.951 115.989 102.02 115.966 102.09 115.945C102.234 115.903 102.381 115.87 102.529 115.846C102.574 115.838 102.491 115.85 102.537 115.846L102.591 115.84L102.7 115.831C102.773 115.826 102.845 115.824 102.918 115.824C102.991 115.825 103.064 115.827 103.137 115.833C103.173 115.833 103.209 115.839 103.245 115.843L103.276 115.846C103.247 115.842 103.323 115.854 103.32 115.854C103.463 115.876 103.627 115.817 103.66 115.66C103.69 115.528 103.62 115.345 103.468 115.321C102.779 115.208 102.072 115.309 101.442 115.609L101.82 115.988C101.934 115.753 102.062 115.525 102.203 115.305C102.273 115.197 102.346 115.091 102.421 114.988L102.479 114.91L102.512 114.867C102.5 114.883 102.499 114.883 102.512 114.867C102.555 114.813 102.598 114.759 102.642 114.707C102.734 114.596 102.759 114.423 102.642 114.316C102.54 114.222 102.35 114.198 102.252 114.316H102.253Z"/>
</mask>
<path d="M102.253 114.316C101.896 114.742 101.591 115.209 101.346 115.708C101.317 115.761 101.306 115.821 101.315 115.881C101.324 115.94 101.351 115.995 101.394 116.038C101.436 116.08 101.491 116.108 101.551 116.116C101.61 116.125 101.671 116.114 101.724 116.085L101.823 116.04C101.796 116.052 101.818 116.04 101.832 116.036L101.883 116.016C101.951 115.989 102.02 115.966 102.09 115.945C102.234 115.903 102.381 115.87 102.529 115.846C102.574 115.838 102.491 115.85 102.537 115.846L102.591 115.84L102.7 115.831C102.773 115.826 102.845 115.824 102.918 115.824C102.991 115.825 103.064 115.827 103.137 115.833C103.173 115.833 103.209 115.839 103.245 115.843L103.276 115.846C103.247 115.842 103.323 115.854 103.32 115.854C103.463 115.876 103.627 115.817 103.66 115.66C103.69 115.528 103.62 115.345 103.468 115.321C102.779 115.208 102.072 115.309 101.442 115.609L101.82 115.988C101.934 115.753 102.062 115.525 102.203 115.305C102.273 115.197 102.346 115.091 102.421 114.988L102.479 114.91L102.512 114.867C102.5 114.883 102.499 114.883 102.512 114.867C102.555 114.813 102.598 114.759 102.642 114.707C102.734 114.596 102.759 114.423 102.642 114.316C102.54 114.222 102.35 114.198 102.252 114.316H102.253Z" fill="#111113"/>
<path d="M102.253 114.316L103.019 114.96L104.4 113.316H102.253V114.316ZM101.346 115.708L102.225 116.184L102.234 116.167L102.243 116.149L101.346 115.708ZM101.724 116.085L101.308 115.176L101.277 115.19L101.246 115.206L101.724 116.085ZM101.823 116.04L102.239 116.949L101.409 115.129L101.823 116.04ZM101.832 116.036L102.085 117.004L102.144 116.988L102.202 116.965L101.832 116.036ZM101.883 116.016L101.522 115.083L101.514 115.087L101.883 116.016ZM102.09 115.945L101.809 114.985L101.804 114.987L102.09 115.945ZM102.529 115.846L102.687 116.834L102.694 116.833L102.702 116.831L102.529 115.846ZM102.537 115.846L102.617 116.843L102.633 116.842L102.65 116.84L102.537 115.846ZM102.591 115.84L102.507 114.844L102.492 114.845L102.478 114.847L102.591 115.84ZM102.7 115.831L102.633 114.833L102.624 114.834L102.615 114.835L102.7 115.831ZM103.137 115.833L103.061 116.83L103.099 116.833H103.137V115.833ZM103.245 115.843L103.365 114.85L103.356 114.849L103.347 114.848L103.245 115.843ZM103.276 115.846L103.157 116.839L103.42 114.857L103.276 115.846ZM103.32 115.854V114.854L103.167 116.842L103.32 115.854ZM103.66 115.66L102.685 115.439L102.684 115.446L102.682 115.453L103.66 115.66ZM103.468 115.321L103.306 116.308L103.312 116.309L103.468 115.321ZM101.442 115.609L101.011 114.707L99.7348 115.317L100.735 116.317L101.442 115.609ZM101.82 115.988L101.113 116.695L102.106 117.688L102.72 116.424L101.82 115.988ZM102.203 115.305L101.364 114.761L101.362 114.765L102.203 115.305ZM102.421 114.988L101.619 114.39L101.614 114.397L102.421 114.988ZM102.479 114.91L101.683 114.305L101.677 114.312L102.479 114.91ZM102.512 114.867L103.308 115.472L101.719 114.257L102.512 114.867ZM102.512 114.867L101.729 114.244L101.723 114.253L102.512 114.867ZM102.642 114.707L103.409 115.348L103.41 115.347L102.642 114.707ZM102.642 114.316L101.964 115.051L101.967 115.054L102.642 114.316ZM102.252 114.316L101.482 113.678L100.124 115.316H102.252V114.316ZM101.488 113.673C101.078 114.16 100.729 114.695 100.448 115.266L102.243 116.149C102.453 115.723 102.713 115.323 103.019 114.96L101.488 113.673ZM100.466 115.232C100.335 115.474 100.286 115.752 100.325 116.025L102.304 115.736C102.327 115.89 102.299 116.047 102.225 116.184L100.466 115.232ZM100.325 116.025C100.365 116.298 100.492 116.55 100.687 116.745L102.1 115.33C102.21 115.44 102.282 115.582 102.304 115.736L100.325 116.025ZM100.687 116.745C100.882 116.94 101.135 117.066 101.408 117.106L101.694 115.126C101.848 115.149 101.99 115.22 102.1 115.33L100.687 116.745ZM101.408 117.106C101.681 117.145 101.959 117.095 102.201 116.964L101.246 115.206C101.383 115.132 101.54 115.104 101.694 115.126L101.408 117.106ZM102.139 116.995L102.239 116.949L101.408 115.13L101.308 115.176L102.139 116.995ZM101.409 115.129C101.411 115.129 101.416 115.127 101.423 115.123C101.424 115.123 101.451 115.111 101.486 115.099C101.496 115.096 101.517 115.089 101.542 115.082C101.554 115.079 101.627 115.057 101.722 115.049C101.753 115.046 101.904 115.031 102.087 115.084C102.185 115.112 102.367 115.181 102.532 115.352C102.72 115.549 102.812 115.803 102.81 116.051C102.808 116.431 102.592 116.67 102.578 116.686C102.521 116.754 102.468 116.799 102.447 116.816C102.399 116.855 102.359 116.881 102.347 116.889C102.329 116.9 102.314 116.909 102.306 116.914C102.288 116.924 102.274 116.931 102.267 116.935C102.236 116.95 102.174 116.98 102.085 117.004L101.58 115.068C101.477 115.095 101.396 115.133 101.358 115.153C101.35 115.157 101.335 115.165 101.316 115.175C101.307 115.181 101.293 115.189 101.274 115.201C101.262 115.209 101.222 115.234 101.174 115.273C101.153 115.291 101.1 115.336 101.043 115.404C101.029 115.42 100.813 115.659 100.81 116.039C100.809 116.287 100.901 116.542 101.089 116.738C101.254 116.909 101.436 116.978 101.534 117.006C101.717 117.059 101.868 117.044 101.899 117.041C101.995 117.033 102.068 117.012 102.079 117.008C102.105 117.001 102.126 116.994 102.136 116.991C102.173 116.978 102.202 116.965 102.207 116.963C102.219 116.958 102.229 116.954 102.237 116.95L101.409 115.129ZM102.202 116.965L102.253 116.945L101.514 115.087L101.463 115.107L102.202 116.965ZM102.245 116.948C102.286 116.932 102.33 116.917 102.376 116.904L101.804 114.987C101.711 115.015 101.617 115.047 101.522 115.083L102.245 116.948ZM102.371 116.905C102.475 116.875 102.58 116.851 102.687 116.834L102.371 114.859C102.182 114.889 101.994 114.931 101.809 114.985L102.371 116.905ZM102.702 116.831C102.707 116.83 102.713 116.829 102.72 116.828C102.725 116.827 102.735 116.825 102.746 116.823C102.751 116.822 102.76 116.82 102.771 116.817C102.777 116.816 102.784 116.814 102.793 116.812C102.801 116.81 102.814 116.806 102.829 116.802C102.837 116.799 102.847 116.796 102.859 116.792C102.87 116.789 102.886 116.783 102.905 116.776C102.923 116.769 102.951 116.757 102.985 116.741C103.002 116.732 103.025 116.72 103.05 116.705C103.075 116.691 103.11 116.669 103.149 116.639C103.166 116.626 103.2 116.598 103.218 116.582C103.238 116.563 103.28 116.519 103.302 116.495C103.327 116.465 103.376 116.396 103.401 116.358C103.427 116.31 103.476 116.204 103.497 116.144C103.516 116.075 103.54 115.926 103.543 115.846C103.54 115.763 103.512 115.598 103.489 115.518C103.416 115.308 103.291 115.168 103.195 115.085C103.16 115.057 103.093 115.008 103.061 114.988C103.033 114.972 102.98 114.944 102.955 114.933C102.897 114.906 102.846 114.89 102.811 114.88C102.775 114.87 102.744 114.864 102.722 114.86C102.698 114.855 102.678 114.853 102.662 114.851C102.631 114.847 102.605 114.845 102.589 114.845C102.571 114.844 102.556 114.844 102.546 114.844C102.524 114.843 102.507 114.844 102.497 114.845C102.477 114.845 102.461 114.847 102.453 114.848C102.437 114.849 102.424 114.851 102.418 114.851C102.403 114.853 102.391 114.855 102.38 114.857C102.371 114.858 102.354 114.861 102.333 114.865C102.327 114.866 102.32 114.867 102.311 114.869C102.303 114.871 102.29 114.874 102.275 114.878C102.267 114.88 102.257 114.883 102.245 114.886C102.234 114.889 102.218 114.894 102.2 114.9C102.182 114.906 102.154 114.917 102.12 114.932C102.102 114.939 102.079 114.95 102.052 114.964C102.027 114.978 101.99 114.999 101.949 115.028C101.928 115.043 101.903 115.062 101.875 115.085C101.848 115.107 101.816 115.137 101.783 115.174C101.749 115.211 101.71 115.26 101.672 115.321C101.634 115.382 101.595 115.461 101.566 115.557C101.536 115.654 101.519 115.766 101.523 115.887C101.528 116.009 101.555 116.125 101.599 116.23C101.642 116.334 101.697 116.418 101.752 116.484C101.806 116.549 101.86 116.599 101.907 116.635C101.954 116.672 101.998 116.699 102.034 116.719C102.07 116.74 102.103 116.755 102.13 116.767C102.184 116.79 102.23 116.804 102.261 116.812C102.293 116.821 102.321 116.827 102.342 116.83C102.363 116.834 102.381 116.837 102.396 116.839C102.424 116.843 102.447 116.844 102.463 116.845C102.479 116.846 102.492 116.847 102.502 116.847C102.522 116.847 102.538 116.847 102.548 116.847C102.567 116.846 102.583 116.846 102.591 116.845C102.601 116.844 102.61 116.844 102.617 116.843L102.457 114.85C102.458 114.849 102.462 114.849 102.468 114.849C102.473 114.849 102.486 114.848 102.503 114.847C102.512 114.847 102.527 114.847 102.546 114.847C102.555 114.848 102.569 114.848 102.584 114.849C102.599 114.85 102.622 114.852 102.651 114.855C102.665 114.857 102.683 114.86 102.704 114.864C102.725 114.867 102.752 114.873 102.785 114.882C102.816 114.89 102.862 114.904 102.915 114.927C102.943 114.939 102.976 114.954 103.012 114.975C103.048 114.995 103.092 115.022 103.138 115.059C103.185 115.095 103.24 115.145 103.294 115.21C103.348 115.276 103.403 115.36 103.446 115.464C103.49 115.569 103.517 115.685 103.522 115.807C103.527 115.928 103.509 116.04 103.48 116.137C103.451 116.233 103.411 116.311 103.373 116.373C103.335 116.434 103.296 116.483 103.263 116.519C103.229 116.557 103.197 116.586 103.17 116.609C103.143 116.632 103.118 116.651 103.097 116.666C103.055 116.695 103.019 116.716 102.993 116.729C102.967 116.743 102.944 116.754 102.926 116.762C102.892 116.777 102.864 116.787 102.847 116.793C102.813 116.804 102.786 116.812 102.773 116.815C102.759 116.819 102.747 116.821 102.739 116.823C102.731 116.825 102.724 116.826 102.719 116.827C102.703 116.83 102.69 116.832 102.685 116.833C102.68 116.834 102.672 116.835 102.661 116.836C102.657 116.837 102.645 116.838 102.63 116.84C102.623 116.84 102.608 116.842 102.588 116.843C102.578 116.843 102.561 116.844 102.54 116.844C102.529 116.844 102.515 116.843 102.497 116.842C102.481 116.842 102.455 116.84 102.424 116.836C102.408 116.835 102.388 116.832 102.364 116.827C102.342 116.823 102.311 116.817 102.275 116.807C102.24 116.797 102.189 116.781 102.131 116.755C102.106 116.743 102.053 116.715 102.025 116.699C101.993 116.679 101.926 116.63 101.891 116.602C101.795 116.519 101.67 116.379 101.597 116.169C101.574 116.089 101.546 115.925 101.543 115.841C101.546 115.762 101.57 115.612 101.589 115.543C101.61 115.483 101.659 115.377 101.685 115.33C101.71 115.291 101.759 115.222 101.784 115.193C101.806 115.168 101.848 115.125 101.869 115.105C101.886 115.089 101.921 115.061 101.937 115.048C101.976 115.018 102.011 114.997 102.036 114.982C102.061 114.967 102.084 114.955 102.101 114.947C102.135 114.93 102.163 114.918 102.181 114.912C102.215 114.898 102.243 114.89 102.256 114.886C102.272 114.881 102.284 114.878 102.292 114.876C102.3 114.874 102.308 114.872 102.313 114.871C102.323 114.868 102.331 114.867 102.335 114.866C102.344 114.864 102.351 114.862 102.353 114.862C102.355 114.862 102.356 114.861 102.356 114.861L102.702 116.831ZM102.65 116.84L102.704 116.834L102.478 114.847L102.424 114.853L102.65 116.84ZM102.675 116.837L102.784 116.827L102.615 114.835L102.507 114.844L102.675 116.837ZM102.767 116.829C102.818 116.825 102.865 116.824 102.91 116.824L102.927 114.824C102.825 114.823 102.728 114.827 102.633 114.833L102.767 116.829ZM102.91 116.824C102.966 116.825 103.016 116.827 103.061 116.83L103.212 114.836C103.112 114.828 103.016 114.825 102.927 114.824L102.91 116.824ZM103.137 116.833C103.118 116.833 103.103 116.832 103.094 116.831C103.085 116.831 103.08 116.83 103.082 116.83C103.082 116.83 103.083 116.831 103.086 116.831C103.09 116.831 103.092 116.832 103.098 116.832C103.103 116.833 103.11 116.834 103.118 116.835C103.125 116.836 103.134 116.837 103.144 116.838L103.347 114.848C103.348 114.848 103.347 114.848 103.338 114.847C103.332 114.846 103.316 114.844 103.301 114.842C103.269 114.839 103.209 114.833 103.137 114.833V116.833ZM103.126 116.836L103.157 116.839L103.395 114.854L103.365 114.85L103.126 116.836ZM103.42 114.857C103.418 114.857 103.415 114.856 103.412 114.856C103.412 114.856 103.403 114.854 103.393 114.853C103.39 114.853 103.382 114.852 103.373 114.851C103.368 114.85 103.358 114.849 103.346 114.848C103.34 114.848 103.33 114.847 103.317 114.847C103.307 114.846 103.283 114.845 103.253 114.846C103.237 114.846 103.2 114.848 103.178 114.85C103.143 114.853 103.05 114.87 102.992 114.885C102.875 114.926 102.534 115.167 102.368 115.411C102.27 115.824 102.459 116.432 102.607 116.595C102.681 116.654 102.802 116.73 102.846 116.751C102.873 116.764 102.918 116.782 102.936 116.788C102.949 116.793 102.972 116.8 102.982 116.803C102.99 116.806 103.004 116.81 103.01 116.811C103.023 116.815 103.034 116.817 103.041 116.819C103.048 116.821 103.054 116.822 103.058 116.823C103.067 116.825 103.073 116.826 103.077 116.827C103.089 116.829 103.099 116.831 103.1 116.831C103.103 116.832 103.106 116.832 103.108 116.832C103.115 116.834 103.127 116.835 103.132 116.836C103.14 116.837 103.146 116.838 103.15 116.839C103.153 116.84 103.151 116.839 103.147 116.839C103.145 116.838 103.143 116.838 103.14 116.837C103.137 116.837 103.13 116.835 103.121 116.834C103.116 116.833 103.108 116.831 103.097 116.828C103.091 116.827 103.083 116.825 103.073 116.823C103.064 116.82 103.047 116.816 103.025 116.809C103.015 116.806 102.999 116.801 102.98 116.794C102.962 116.788 102.931 116.776 102.894 116.758C102.876 116.75 102.837 116.729 102.816 116.717C102.788 116.7 102.723 116.656 102.687 116.627C102.637 116.584 102.527 116.463 102.471 116.382C102.403 116.253 102.323 115.923 102.328 115.729C102.372 115.536 102.539 115.229 102.644 115.117C102.723 115.052 102.869 114.961 102.932 114.932C102.976 114.915 103.054 114.89 103.087 114.881C103.112 114.876 103.157 114.867 103.176 114.864C103.218 114.858 103.253 114.856 103.271 114.855C103.292 114.854 103.309 114.854 103.32 114.854V116.854C103.332 116.854 103.349 116.854 103.369 116.853C103.388 116.852 103.422 116.849 103.464 116.843C103.484 116.84 103.529 116.832 103.554 116.826C103.587 116.818 103.665 116.793 103.709 116.775C103.771 116.746 103.918 116.656 103.997 116.59C104.101 116.478 104.269 116.171 104.312 115.979C104.318 115.784 104.237 115.455 104.169 115.325C104.113 115.244 104.003 115.123 103.954 115.08C103.918 115.052 103.853 115.007 103.825 114.99C103.803 114.978 103.764 114.958 103.747 114.949C103.709 114.932 103.678 114.92 103.661 114.914C103.642 114.907 103.626 114.902 103.615 114.898C103.594 114.892 103.577 114.887 103.568 114.885C103.558 114.882 103.549 114.88 103.543 114.879C103.532 114.876 103.524 114.875 103.519 114.874C103.503 114.87 103.49 114.868 103.489 114.868C103.481 114.867 103.474 114.865 103.47 114.865C103.462 114.863 103.451 114.862 103.444 114.861C103.434 114.859 103.433 114.859 103.434 114.859C103.435 114.859 103.437 114.86 103.44 114.86C103.44 114.86 103.45 114.862 103.462 114.864C103.466 114.865 103.472 114.866 103.48 114.868C103.486 114.869 103.505 114.873 103.529 114.88C103.539 114.883 103.567 114.89 103.602 114.902C103.62 114.909 103.666 114.927 103.692 114.939C103.736 114.961 103.858 115.037 103.932 115.096C104.079 115.259 104.269 115.867 104.17 116.28C104.004 116.524 103.663 116.765 103.547 116.806C103.488 116.821 103.395 116.837 103.361 116.841C103.339 116.843 103.301 116.845 103.286 116.845C103.255 116.846 103.232 116.845 103.221 116.844C103.209 116.844 103.199 116.843 103.193 116.843C103.18 116.842 103.171 116.841 103.166 116.84C103.156 116.839 103.149 116.838 103.146 116.838C103.14 116.837 103.136 116.836 103.135 116.836C103.133 116.836 103.132 116.836 103.131 116.836C103.13 116.836 103.13 116.836 103.132 116.836L103.42 114.857ZM103.167 116.842C103.414 116.88 103.705 116.855 103.978 116.718C104.274 116.571 104.55 116.285 104.639 115.868L102.682 115.453C102.737 115.193 102.914 115.014 103.084 114.93C103.231 114.856 103.369 114.849 103.474 114.866L103.167 116.842ZM104.636 115.882C104.705 115.576 104.657 115.261 104.525 115C104.388 114.727 104.096 114.408 103.623 114.333L103.312 116.309C102.991 116.258 102.811 116.042 102.739 115.9C102.674 115.77 102.646 115.612 102.685 115.439L104.636 115.882ZM103.629 114.334C102.739 114.188 101.825 114.318 101.011 114.707L101.873 116.512C102.318 116.299 102.818 116.228 103.306 116.308L103.629 114.334ZM100.735 116.317L101.113 116.695L102.527 115.28L102.149 114.902L100.735 116.317ZM102.72 116.424C102.816 116.225 102.925 116.032 103.045 115.845L101.362 114.765C101.199 115.018 101.052 115.28 100.92 115.551L102.72 116.424ZM103.042 115.849C103.104 115.754 103.165 115.664 103.228 115.578L101.614 114.397C101.526 114.518 101.442 114.64 101.364 114.761L103.042 115.849ZM103.223 115.586L103.28 115.508L101.677 114.312L101.619 114.39L103.223 115.586ZM103.275 115.516L103.308 115.472L101.716 114.261L101.683 114.305L103.275 115.516ZM101.719 114.257C101.717 114.26 101.715 114.262 101.714 114.263C101.714 114.264 101.714 114.264 101.715 114.263C101.715 114.263 101.716 114.261 101.717 114.259C101.718 114.259 101.72 114.256 101.723 114.253C101.724 114.251 101.727 114.247 101.731 114.242C101.733 114.24 101.738 114.234 101.744 114.227C101.747 114.224 101.752 114.218 101.758 114.211C101.763 114.206 101.777 114.19 101.795 114.172C101.806 114.162 101.833 114.136 101.849 114.122C101.881 114.096 101.99 114.02 102.071 113.977C102.368 113.888 103.216 114.178 103.49 114.722C103.501 114.932 103.447 115.208 103.421 115.273C103.407 115.304 103.383 115.352 103.374 115.369C103.368 115.38 103.356 115.399 103.352 115.407C103.342 115.422 103.334 115.434 103.331 115.439C103.323 115.45 103.317 115.459 103.315 115.462C103.312 115.466 103.31 115.469 103.309 115.471C103.304 115.477 103.301 115.481 103.3 115.482C103.298 115.484 103.297 115.486 103.297 115.487C103.296 115.488 103.296 115.488 103.296 115.487C103.297 115.486 103.298 115.484 103.301 115.481L101.723 114.253C101.719 114.258 101.716 114.262 101.713 114.265C101.712 114.266 101.711 114.268 101.709 114.27C101.709 114.271 101.707 114.273 101.705 114.276C101.704 114.276 101.701 114.281 101.696 114.287C101.695 114.289 101.693 114.292 101.69 114.296C101.688 114.299 101.682 114.308 101.674 114.319C101.67 114.324 101.663 114.336 101.653 114.351C101.648 114.359 101.637 114.378 101.631 114.389C101.621 114.406 101.597 114.454 101.583 114.485C101.558 114.55 101.504 114.826 101.515 115.036C101.789 115.58 102.637 115.87 102.934 115.781C103.015 115.738 103.124 115.662 103.155 115.636C103.172 115.621 103.199 115.596 103.21 115.586C103.228 115.567 103.242 115.552 103.247 115.547C103.253 115.54 103.258 115.534 103.261 115.53C103.267 115.524 103.271 115.518 103.273 115.516C103.278 115.511 103.281 115.506 103.282 115.505C103.285 115.502 103.287 115.499 103.288 115.498C103.289 115.496 103.291 115.494 103.291 115.493C103.293 115.491 103.294 115.49 103.295 115.488C103.298 115.485 103.301 115.481 103.304 115.476L101.719 114.257ZM103.294 115.489C103.336 115.438 103.372 115.392 103.409 115.348L101.875 114.065C101.823 114.127 101.774 114.188 101.729 114.244L103.294 115.489ZM103.41 115.347C103.706 114.992 103.969 114.176 103.317 113.579L101.967 115.054C101.779 114.882 101.713 114.652 101.721 114.466C101.728 114.3 101.791 114.165 101.874 114.066L103.41 115.347ZM103.32 113.581C103.086 113.366 102.784 113.25 102.488 113.237C102.178 113.224 101.774 113.326 101.482 113.678L103.021 114.954C102.828 115.188 102.568 115.243 102.403 115.236C102.252 115.229 102.096 115.173 101.964 115.051L103.32 113.581ZM102.252 115.316H102.253V113.316H102.252V115.316Z" fill="#111113" mask="url(#path-13-inside-3_127_7948)"/>
<path d="M-42.2026 113.655C-42.2026 113.655 -12.4017 116.335 8.03854 115.353C28.4787 114.371 64.4204 110.123 77.6635 106.262C90.9067 102.402 92.5628 103.383 94.0973 101.112C95.6319 98.8411 95.7547 97.1224 100.236 97.1224C104.716 97.1224 119.203 96.3858 121.535 96.5086C123.868 96.6314 124.175 97.7976 123.99 99.7005C123.806 101.603 122.63 104.708 124.876 105.519C127.121 106.33 128.717 102.401 127.551 101.603C126.384 100.805 125.648 99.3936 118.405 99.3936C111.162 99.3936 100.481 99.7005 98.5782 100.498C96.6754 101.296 95.325 102.585 94.5884 108.171C93.8518 113.757 96.026 113.428 98.6525 116.355C101.279 119.281 111.123 131.946 112.573 133.89C114.023 135.835 107.663 142.177 106.374 143.589C105.085 145 109.416 138.267 112.021 136.53C114.626 134.792 116.226 134.259 114.522 134.352C112.819 134.445 108.031 130.637 105.023 125.542C102.016 120.448 96.4335 113.266 94.3754 114.002C92.3173 114.739 86.8543 128.591 87.4392 134.402C88.0242 140.213 89.1254 154.969 108.8 159.776C128.475 164.582 141.671 145.062 139.891 133.216C138.111 121.369 133.618 116.458 128.499 112.866C123.38 109.273 115.523 106.514 106.377 109.584C97.2309 112.653 98.1516 113.082 97.4764 111.855C96.8012 110.627 97.9675 109.706 100.791 108.601C103.615 107.497 110.273 103.482 120.325 106.165C130.377 108.847 137.083 115.253 140.052 122.485C143.021 129.717 142.715 134.505 142.654 136.653C142.592 138.801 146.337 139.845 146.766 136.162C147.196 132.479 146.03 129.533 143.943 130.76C141.856 131.988 142.838 139.415 141.119 144.326C139.4 149.236 134.903 154.624 129.663 158.437C124.423 162.25 114.348 165.266 104.5 161.578C94.6522 157.891 84.7704 149.236 85.0159 135.18C85.2614 121.123 91.0927 117.379 93.1183 114.433C94.4073 112.714 94.5301 112.284 94.5301 112.284" stroke="#111113" stroke-miterlimit="10"/>
<path d="M128.286 108.417C128.286 108.417 129.979 98.2071 132.031 97.4907C134.082 96.7744 145.903 93.8692 150.138 91.1684C154.742 88.8359 169.525 82.9954 186.472 85.7005C203.418 88.4056 208.083 84.5391 212.318 85.3985C216.554 86.2578 221.746 88.4712 228.45 89.8794C235.153 91.2875 244.638 90.9167 250.486 105.405C256.334 119.894 247.795 123.516 246.201 123.083C244.608 122.651 243.378 118.602 251.48 123.083C255.347 125.6 257.373 137.324 254.488 144.383C251.787 148.127 249.086 146.593 250.314 145.058C251.542 143.524 255.654 144.322 257.618 145.672C259.583 147.022 265.475 155.923 263.941 165.191C262.406 174.46 258.662 176.424 257.68 176.854C256.698 177.284 258.171 175.319 260.534 176.854C262.897 178.389 267.637 183.919 264.192 194.9C260.748 205.882 257.95 206.325 245.956 207.791C233.961 209.256 231.268 209.509 229.312 209.602C227.356 209.695 227.933 212.294 229.241 213.756C230.549 215.218 234.213 218.332 235.511 219.353C236.809 220.374 236.852 224.75 235.511 222.347C234.17 219.945 235.86 217.88 232.959 215.104C230.057 212.328 225.751 210.612 221.828 211.042C217.904 211.472 204.277 217.057 210.6 215.83C216.922 214.602 221.051 212.147 226.989 211.656C232.926 211.165 248.963 209.262 251.173 208.28C253.383 207.298 259.951 202.51 261.24 205.763C262.529 209.016 263.511 211.472 258.6 217.119C253.69 222.766 250.805 226.449 248.227 235.165C245.649 243.881 234.048 244.25 225.945 242.592C217.843 240.935 204.584 236.27 197.157 234.981C189.73 233.692 179.847 226.94 170.701 218.285C161.556 209.63 149.525 199.748 146.21 195.942C142.895 192.136 138.858 188.443 136.696 187.471C134.533 186.5 129.774 188.125 128.877 180.217C127.98 172.309 128.286 167.315 128.286 167.315C128.286 167.315 131.049 171.144 131.908 166.479C132.767 161.814 132.109 156.488 132.109 156.488C132.109 156.488 127.94 157.624 128.236 160.609C128.531 163.594 128.225 169.241 128.041 165.435C127.857 161.629 129.391 158.683 125.77 160.831C122.148 162.98 117.391 166.623 108.092 164.023C98.7924 161.424 97.5893 159.817 97.3499 164.269C97.1105 168.72 97.7796 169.179 100.91 170.162C104.041 171.144 100.971 178.141 100.726 180.658C100.48 183.174 101.334 184.057 104.283 184.107C107.232 184.157 118.895 183.85 121.534 184.648C124.174 185.446 126.845 184.14 127.12 181.026C127.396 177.912 127.673 166.97 127.673 166.97" stroke="#111113" stroke-miterlimit="10"/>
<path d="M95.6311 183.548C95.6311 183.548 75.4616 184.076 56.1134 188.293C36.7651 192.511 17.1689 197.864 6.86474 203.351C-3.43946 208.838 -22.714 215.582 -31.0313 215.832C-39.3486 216.081 -61.489 215.498 -70.244 194.182C-78.9989 172.865 -81.456 163.845 -71.7576 137.819C-62.0593 111.793 -40.5025 112.496 -40.5025 112.496" stroke="#111113" stroke-miterlimit="10"/>
</g>
<defs>
<linearGradient id="paint0_linear_127_7948" x1="155.5" y1="0" x2="155.5" y2="311" gradientUnits="userSpaceOnUse">
<stop stop-color="#C4C4C4" stop-opacity="0"/>
<stop offset="0.0884102" stop-color="#C4C4C4"/>
<stop offset="0.914586" stop-color="#C4C4C4"/>
<stop offset="1" stop-color="#C4C4C4" stop-opacity="0"/>
</linearGradient>
<linearGradient id="paint1_linear_127_7948" x1="311" y1="155.5" x2="2.50853e-05" y2="155.5" gradientUnits="userSpaceOnUse">
<stop stop-color="#C4C4C4" stop-opacity="0"/>
<stop offset="0.0967224" stop-color="#C4C4C4"/>
<stop offset="0.901883" stop-color="#C4C4C4"/>
<stop offset="1" stop-color="#C4C4C4" stop-opacity="0"/>
</linearGradient>
</defs>
</svg>
