<svg width="311" height="311" viewBox="0 0 311 311" fill="none" xmlns="http://www.w3.org/2000/svg">
<g opacity="0.5">
<path d="M30.2251 2.50806C30.2251 3.06035 30.6728 3.50806 31.2251 3.50806C31.7774 3.50806 32.2251 3.06035 32.2251 2.50806H30.2251ZM32.2251 7.52419C32.2251 6.97191 31.7774 6.52419 31.2251 6.52419C30.6728 6.52419 30.2251 6.97191 30.2251 7.52419H32.2251ZM30.2251 12.5403C30.2251 13.0926 30.6728 13.5403 31.2251 13.5403C31.7774 13.5403 32.2251 13.0926 32.2251 12.5403H30.2251ZM32.2251 17.5565C32.2251 17.0042 31.7774 16.5565 31.2251 16.5565C30.6728 16.5565 30.2251 17.0042 30.2251 17.5565H32.2251ZM30.2251 22.5726C30.2251 23.1249 30.6728 23.5726 31.2251 23.5726C31.7774 23.5726 32.2251 23.1249 32.2251 22.5726H30.2251ZM32.2251 27.5887C32.2251 27.0364 31.7774 26.5887 31.2251 26.5887C30.6728 26.5887 30.2251 27.0364 30.2251 27.5887H32.2251ZM30.2251 32.6048C30.2251 33.1571 30.6728 33.6048 31.2251 33.6048C31.7774 33.6048 32.2251 33.1571 32.2251 32.6048H30.2251ZM32.2251 37.621C32.2251 37.0687 31.7774 36.621 31.2251 36.621C30.6728 36.621 30.2251 37.0687 30.2251 37.621H32.2251ZM30.2251 42.6371C30.2251 43.1894 30.6728 43.6371 31.2251 43.6371C31.7774 43.6371 32.2251 43.1894 32.2251 42.6371H30.2251ZM32.2251 47.6532C32.2251 47.1009 31.7774 46.6532 31.2251 46.6532C30.6728 46.6532 30.2251 47.1009 30.2251 47.6532H32.2251ZM30.2251 52.6694C30.2251 53.2216 30.6728 53.6694 31.2251 53.6694C31.7774 53.6694 32.2251 53.2216 32.2251 52.6694H30.2251ZM32.2251 57.6855C32.2251 57.1332 31.7774 56.6855 31.2251 56.6855C30.6728 56.6855 30.2251 57.1332 30.2251 57.6855H32.2251ZM30.2251 62.7016C30.2251 63.2539 30.6728 63.7016 31.2251 63.7016C31.7774 63.7016 32.2251 63.2539 32.2251 62.7016H30.2251ZM32.2251 67.7177C32.2251 67.1655 31.7774 66.7177 31.2251 66.7177C30.6728 66.7177 30.2251 67.1655 30.2251 67.7177H32.2251ZM30.2251 72.7339C30.2251 73.2862 30.6728 73.7339 31.2251 73.7339C31.7774 73.7339 32.2251 73.2862 32.2251 72.7339H30.2251ZM32.2251 77.75C32.2251 77.1977 31.7774 76.75 31.2251 76.75C30.6728 76.75 30.2251 77.1977 30.2251 77.75H32.2251ZM30.2251 82.7661C30.2251 83.3184 30.6728 83.7661 31.2251 83.7661C31.7774 83.7661 32.2251 83.3184 32.2251 82.7661H30.2251ZM32.2251 87.7823C32.2251 87.23 31.7774 86.7823 31.2251 86.7823C30.6728 86.7823 30.2251 87.23 30.2251 87.7823H32.2251ZM30.2251 92.7984C30.2251 93.3507 30.6728 93.7984 31.2251 93.7984C31.7774 93.7984 32.2251 93.3507 32.2251 92.7984H30.2251ZM32.2251 97.8145C32.2251 97.2622 31.7774 96.8145 31.2251 96.8145C30.6728 96.8145 30.2251 97.2622 30.2251 97.8145H32.2251ZM30.2251 102.831C30.2251 103.383 30.6728 103.831 31.2251 103.831C31.7774 103.831 32.2251 103.383 32.2251 102.831H30.2251ZM32.2251 107.847C32.2251 107.294 31.7774 106.847 31.2251 106.847C30.6728 106.847 30.2251 107.294 30.2251 107.847H32.2251ZM30.2251 112.863C30.2251 113.415 30.6728 113.863 31.2251 113.863C31.7774 113.863 32.2251 113.415 32.2251 112.863H30.2251ZM32.2251 117.879C32.2251 117.327 31.7774 116.879 31.2251 116.879C30.6728 116.879 30.2251 117.327 30.2251 117.879H32.2251ZM30.2251 122.895C30.2251 123.447 30.6728 123.895 31.2251 123.895C31.7774 123.895 32.2251 123.447 32.2251 122.895H30.2251ZM32.2251 127.911C32.2251 127.359 31.7774 126.911 31.2251 126.911C30.6728 126.911 30.2251 127.359 30.2251 127.911H32.2251ZM30.2251 132.927C30.2251 133.48 30.6728 133.927 31.2251 133.927C31.7774 133.927 32.2251 133.48 32.2251 132.927H30.2251ZM32.2251 137.944C32.2251 137.391 31.7774 136.944 31.2251 136.944C30.6728 136.944 30.2251 137.391 30.2251 137.944H32.2251ZM30.2251 142.96C30.2251 143.512 30.6728 143.96 31.2251 143.96C31.7774 143.96 32.2251 143.512 32.2251 142.96H30.2251ZM32.2251 147.976C32.2251 147.424 31.7774 146.976 31.2251 146.976C30.6728 146.976 30.2251 147.424 30.2251 147.976H32.2251ZM30.2251 152.992C30.2251 153.544 30.6728 153.992 31.2251 153.992C31.7774 153.992 32.2251 153.544 32.2251 152.992H30.2251ZM32.2251 158.008C32.2251 157.456 31.7774 157.008 31.2251 157.008C30.6728 157.008 30.2251 157.456 30.2251 158.008H32.2251ZM30.2251 163.024C30.2251 163.576 30.6728 164.024 31.2251 164.024C31.7774 164.024 32.2251 163.576 32.2251 163.024H30.2251ZM32.2251 168.04C32.2251 167.488 31.7774 167.04 31.2251 167.04C30.6728 167.04 30.2251 167.488 30.2251 168.04H32.2251ZM30.2251 173.056C30.2251 173.609 30.6728 174.056 31.2251 174.056C31.7774 174.056 32.2251 173.609 32.2251 173.056H30.2251ZM32.2251 178.073C32.2251 177.52 31.7774 177.073 31.2251 177.073C30.6728 177.073 30.2251 177.52 30.2251 178.073H32.2251ZM30.2251 183.089C30.2251 183.641 30.6728 184.089 31.2251 184.089C31.7774 184.089 32.2251 183.641 32.2251 183.089H30.2251ZM32.2251 188.105C32.2251 187.553 31.7774 187.105 31.2251 187.105C30.6728 187.105 30.2251 187.553 30.2251 188.105H32.2251ZM30.2251 193.121C30.2251 193.673 30.6728 194.121 31.2251 194.121C31.7774 194.121 32.2251 193.673 32.2251 193.121H30.2251ZM32.2251 198.137C32.2251 197.585 31.7774 197.137 31.2251 197.137C30.6728 197.137 30.2251 197.585 30.2251 198.137H32.2251ZM30.2251 203.153C30.2251 203.706 30.6728 204.153 31.2251 204.153C31.7774 204.153 32.2251 203.706 32.2251 203.153H30.2251ZM32.2251 208.169C32.2251 207.617 31.7774 207.169 31.2251 207.169C30.6728 207.169 30.2251 207.617 30.2251 208.169H32.2251ZM30.2251 213.185C30.2251 213.738 30.6728 214.185 31.2251 214.185C31.7774 214.185 32.2251 213.738 32.2251 213.185H30.2251ZM32.2251 218.202C32.2251 217.649 31.7774 217.202 31.2251 217.202C30.6728 217.202 30.2251 217.649 30.2251 218.202H32.2251ZM30.2251 223.218C30.2251 223.77 30.6728 224.218 31.2251 224.218C31.7774 224.218 32.2251 223.77 32.2251 223.218H30.2251ZM32.2251 228.234C32.2251 227.682 31.7774 227.234 31.2251 227.234C30.6728 227.234 30.2251 227.682 30.2251 228.234H32.2251ZM30.2251 233.25C30.2251 233.802 30.6728 234.25 31.2251 234.25C31.7774 234.25 32.2251 233.802 32.2251 233.25H30.2251ZM32.2251 238.266C32.2251 237.714 31.7774 237.266 31.2251 237.266C30.6728 237.266 30.2251 237.714 30.2251 238.266H32.2251ZM30.2251 243.282C30.2251 243.835 30.6728 244.282 31.2251 244.282C31.7774 244.282 32.2251 243.835 32.2251 243.282H30.2251ZM32.2251 248.298C32.2251 247.746 31.7774 247.298 31.2251 247.298C30.6728 247.298 30.2251 247.746 30.2251 248.298H32.2251ZM30.2251 253.314C30.2251 253.867 30.6728 254.314 31.2251 254.314C31.7774 254.314 32.2251 253.867 32.2251 253.314H30.2251ZM32.2251 258.331C32.2251 257.778 31.7774 257.331 31.2251 257.331C30.6728 257.331 30.2251 257.778 30.2251 258.331H32.2251ZM30.2251 263.347C30.2251 263.899 30.6728 264.347 31.2251 264.347C31.7774 264.347 32.2251 263.899 32.2251 263.347H30.2251ZM32.2251 268.363C32.2251 267.811 31.7774 267.363 31.2251 267.363C30.6728 267.363 30.2251 267.811 30.2251 268.363H32.2251ZM30.2251 273.379C30.2251 273.931 30.6728 274.379 31.2251 274.379C31.7774 274.379 32.2251 273.931 32.2251 273.379H30.2251ZM32.2251 278.395C32.2251 277.843 31.7774 277.395 31.2251 277.395C30.6728 277.395 30.2251 277.843 30.2251 278.395H32.2251ZM30.2251 283.411C30.2251 283.964 30.6728 284.411 31.2251 284.411C31.7774 284.411 32.2251 283.964 32.2251 283.411H30.2251ZM32.2251 288.427C32.2251 287.875 31.7774 287.427 31.2251 287.427C30.6728 287.427 30.2251 287.875 30.2251 288.427H32.2251ZM30.2251 293.444C30.2251 293.996 30.6728 294.444 31.2251 294.444C31.7774 294.444 32.2251 293.996 32.2251 293.444H30.2251ZM32.2251 298.46C32.2251 297.908 31.7774 297.46 31.2251 297.46C30.6728 297.46 30.2251 297.908 30.2251 298.46H32.2251ZM30.2251 303.476C30.2251 304.028 30.6728 304.476 31.2251 304.476C31.7774 304.476 32.2251 304.028 32.2251 303.476H30.2251ZM32.2251 308.492C32.2251 307.94 31.7774 307.492 31.2251 307.492C30.6728 307.492 30.2251 307.94 30.2251 308.492H32.2251ZM278.775 2.50806C278.775 3.06035 279.223 3.50806 279.775 3.50806C280.328 3.50806 280.775 3.06035 280.775 2.50806H278.775ZM280.775 7.52419C280.775 6.97191 280.328 6.52419 279.775 6.52419C279.223 6.52419 278.775 6.97191 278.775 7.52419H280.775ZM278.775 12.5403C278.775 13.0926 279.223 13.5403 279.775 13.5403C280.328 13.5403 280.775 13.0926 280.775 12.5403H278.775ZM280.775 17.5565C280.775 17.0042 280.328 16.5565 279.775 16.5565C279.223 16.5565 278.775 17.0042 278.775 17.5565H280.775ZM278.775 22.5726C278.775 23.1249 279.223 23.5726 279.775 23.5726C280.328 23.5726 280.775 23.1249 280.775 22.5726H278.775ZM280.775 27.5887C280.775 27.0364 280.328 26.5887 279.775 26.5887C279.223 26.5887 278.775 27.0364 278.775 27.5887H280.775ZM278.775 32.6048C278.775 33.1571 279.223 33.6048 279.775 33.6048C280.328 33.6048 280.775 33.1571 280.775 32.6048H278.775ZM280.775 37.621C280.775 37.0687 280.328 36.621 279.775 36.621C279.223 36.621 278.775 37.0687 278.775 37.621H280.775ZM278.775 42.6371C278.775 43.1894 279.223 43.6371 279.775 43.6371C280.328 43.6371 280.775 43.1894 280.775 42.6371H278.775ZM280.775 47.6532C280.775 47.1009 280.328 46.6532 279.775 46.6532C279.223 46.6532 278.775 47.1009 278.775 47.6532H280.775ZM278.775 52.6694C278.775 53.2216 279.223 53.6694 279.775 53.6694C280.328 53.6694 280.775 53.2216 280.775 52.6694H278.775ZM280.775 57.6855C280.775 57.1332 280.328 56.6855 279.775 56.6855C279.223 56.6855 278.775 57.1332 278.775 57.6855H280.775ZM278.775 62.7016C278.775 63.2539 279.223 63.7016 279.775 63.7016C280.328 63.7016 280.775 63.2539 280.775 62.7016H278.775ZM280.775 67.7177C280.775 67.1655 280.328 66.7177 279.775 66.7177C279.223 66.7177 278.775 67.1655 278.775 67.7177H280.775ZM278.775 72.7339C278.775 73.2862 279.223 73.7339 279.775 73.7339C280.328 73.7339 280.775 73.2862 280.775 72.7339H278.775ZM280.775 77.75C280.775 77.1977 280.328 76.75 279.775 76.75C279.223 76.75 278.775 77.1977 278.775 77.75H280.775ZM278.775 82.7661C278.775 83.3184 279.223 83.7661 279.775 83.7661C280.328 83.7661 280.775 83.3184 280.775 82.7661H278.775ZM280.775 87.7823C280.775 87.23 280.328 86.7823 279.775 86.7823C279.223 86.7823 278.775 87.23 278.775 87.7823H280.775ZM278.775 92.7984C278.775 93.3507 279.223 93.7984 279.775 93.7984C280.328 93.7984 280.775 93.3507 280.775 92.7984H278.775ZM280.775 97.8145C280.775 97.2622 280.328 96.8145 279.775 96.8145C279.223 96.8145 278.775 97.2622 278.775 97.8145H280.775ZM278.775 102.831C278.775 103.383 279.223 103.831 279.775 103.831C280.328 103.831 280.775 103.383 280.775 102.831H278.775ZM280.775 107.847C280.775 107.294 280.328 106.847 279.775 106.847C279.223 106.847 278.775 107.294 278.775 107.847H280.775ZM278.775 112.863C278.775 113.415 279.223 113.863 279.775 113.863C280.328 113.863 280.775 113.415 280.775 112.863H278.775ZM280.775 117.879C280.775 117.327 280.328 116.879 279.775 116.879C279.223 116.879 278.775 117.327 278.775 117.879H280.775ZM278.775 122.895C278.775 123.447 279.223 123.895 279.775 123.895C280.328 123.895 280.775 123.447 280.775 122.895H278.775ZM280.775 127.911C280.775 127.359 280.328 126.911 279.775 126.911C279.223 126.911 278.775 127.359 278.775 127.911H280.775ZM278.775 132.927C278.775 133.48 279.223 133.927 279.775 133.927C280.328 133.927 280.775 133.48 280.775 132.927H278.775ZM280.775 137.944C280.775 137.391 280.328 136.944 279.775 136.944C279.223 136.944 278.775 137.391 278.775 137.944H280.775ZM278.775 142.96C278.775 143.512 279.223 143.96 279.775 143.96C280.328 143.96 280.775 143.512 280.775 142.96H278.775ZM280.775 147.976C280.775 147.424 280.328 146.976 279.775 146.976C279.223 146.976 278.775 147.424 278.775 147.976H280.775ZM278.775 152.992C278.775 153.544 279.223 153.992 279.775 153.992C280.328 153.992 280.775 153.544 280.775 152.992H278.775ZM280.775 158.008C280.775 157.456 280.328 157.008 279.775 157.008C279.223 157.008 278.775 157.456 278.775 158.008H280.775ZM278.775 163.024C278.775 163.576 279.223 164.024 279.775 164.024C280.328 164.024 280.775 163.576 280.775 163.024H278.775ZM280.775 168.04C280.775 167.488 280.328 167.04 279.775 167.04C279.223 167.04 278.775 167.488 278.775 168.04H280.775ZM278.775 173.056C278.775 173.609 279.223 174.056 279.775 174.056C280.328 174.056 280.775 173.609 280.775 173.056H278.775ZM280.775 178.073C280.775 177.52 280.328 177.073 279.775 177.073C279.223 177.073 278.775 177.52 278.775 178.073H280.775ZM278.775 183.089C278.775 183.641 279.223 184.089 279.775 184.089C280.328 184.089 280.775 183.641 280.775 183.089H278.775ZM280.775 188.105C280.775 187.553 280.328 187.105 279.775 187.105C279.223 187.105 278.775 187.553 278.775 188.105H280.775ZM278.775 193.121C278.775 193.673 279.223 194.121 279.775 194.121C280.328 194.121 280.775 193.673 280.775 193.121H278.775ZM280.775 198.137C280.775 197.585 280.328 197.137 279.775 197.137C279.223 197.137 278.775 197.585 278.775 198.137H280.775ZM278.775 203.153C278.775 203.706 279.223 204.153 279.775 204.153C280.328 204.153 280.775 203.706 280.775 203.153H278.775ZM280.775 208.169C280.775 207.617 280.328 207.169 279.775 207.169C279.223 207.169 278.775 207.617 278.775 208.169H280.775ZM278.775 213.185C278.775 213.738 279.223 214.185 279.775 214.185C280.328 214.185 280.775 213.738 280.775 213.185H278.775ZM280.775 218.202C280.775 217.649 280.328 217.202 279.775 217.202C279.223 217.202 278.775 217.649 278.775 218.202H280.775ZM278.775 223.218C278.775 223.77 279.223 224.218 279.775 224.218C280.328 224.218 280.775 223.77 280.775 223.218H278.775ZM280.775 228.234C280.775 227.682 280.328 227.234 279.775 227.234C279.223 227.234 278.775 227.682 278.775 228.234H280.775ZM278.775 233.25C278.775 233.802 279.223 234.25 279.775 234.25C280.328 234.25 280.775 233.802 280.775 233.25H278.775ZM280.775 238.266C280.775 237.714 280.328 237.266 279.775 237.266C279.223 237.266 278.775 237.714 278.775 238.266H280.775ZM278.775 243.282C278.775 243.835 279.223 244.282 279.775 244.282C280.328 244.282 280.775 243.835 280.775 243.282H278.775ZM280.775 248.298C280.775 247.746 280.328 247.298 279.775 247.298C279.223 247.298 278.775 247.746 278.775 248.298H280.775ZM278.775 253.314C278.775 253.867 279.223 254.314 279.775 254.314C280.328 254.314 280.775 253.867 280.775 253.314H278.775ZM280.775 258.331C280.775 257.778 280.328 257.331 279.775 257.331C279.223 257.331 278.775 257.778 278.775 258.331H280.775ZM278.775 263.347C278.775 263.899 279.223 264.347 279.775 264.347C280.328 264.347 280.775 263.899 280.775 263.347H278.775ZM280.775 268.363C280.775 267.811 280.328 267.363 279.775 267.363C279.223 267.363 278.775 267.811 278.775 268.363H280.775ZM278.775 273.379C278.775 273.931 279.223 274.379 279.775 274.379C280.328 274.379 280.775 273.931 280.775 273.379H278.775ZM280.775 278.395C280.775 277.843 280.328 277.395 279.775 277.395C279.223 277.395 278.775 277.843 278.775 278.395H280.775ZM278.775 283.411C278.775 283.964 279.223 284.411 279.775 284.411C280.328 284.411 280.775 283.964 280.775 283.411H278.775ZM280.775 288.427C280.775 287.875 280.328 287.427 279.775 287.427C279.223 287.427 278.775 287.875 278.775 288.427H280.775ZM278.775 293.444C278.775 293.996 279.223 294.444 279.775 294.444C280.328 294.444 280.775 293.996 280.775 293.444H278.775ZM280.775 298.46C280.775 297.908 280.328 297.46 279.775 297.46C279.223 297.46 278.775 297.908 278.775 298.46H280.775ZM278.775 303.476C278.775 304.028 279.223 304.476 279.775 304.476C280.328 304.476 280.775 304.028 280.775 303.476H278.775ZM280.775 308.492C280.775 307.94 280.328 307.492 279.775 307.492C279.223 307.492 278.775 307.94 278.775 308.492H280.775ZM30.2251 0V2.50806H32.2251V0H30.2251ZM30.2251 7.52419V12.5403H32.2251V7.52419H30.2251ZM30.2251 17.5565V22.5726H32.2251V17.5565H30.2251ZM30.2251 27.5887V32.6048H32.2251V27.5887H30.2251ZM30.2251 37.621V42.6371H32.2251V37.621H30.2251ZM30.2251 47.6532V52.6694H32.2251V47.6532H30.2251ZM30.2251 57.6855V62.7016H32.2251V57.6855H30.2251ZM30.2251 67.7177V72.7339H32.2251V67.7177H30.2251ZM30.2251 77.75V82.7661H32.2251V77.75H30.2251ZM30.2251 87.7823V92.7984H32.2251V87.7823H30.2251ZM30.2251 97.8145V102.831H32.2251V97.8145H30.2251ZM30.2251 107.847V112.863H32.2251V107.847H30.2251ZM30.2251 117.879V122.895H32.2251V117.879H30.2251ZM30.2251 127.911V132.927H32.2251V127.911H30.2251ZM30.2251 137.944V142.96H32.2251V137.944H30.2251ZM30.2251 147.976V152.992H32.2251V147.976H30.2251ZM30.2251 158.008V163.024H32.2251V158.008H30.2251ZM30.2251 168.04V173.056H32.2251V168.04H30.2251ZM30.2251 178.073V183.089H32.2251V178.073H30.2251ZM30.2251 188.105V193.121H32.2251V188.105H30.2251ZM30.2251 198.137V203.153H32.2251V198.137H30.2251ZM30.2251 208.169V213.185H32.2251V208.169H30.2251ZM30.2251 218.202V223.218H32.2251V218.202H30.2251ZM30.2251 228.234V233.25H32.2251V228.234H30.2251ZM30.2251 238.266V243.282H32.2251V238.266H30.2251ZM30.2251 248.298V253.314H32.2251V248.298H30.2251ZM30.2251 258.331V263.347H32.2251V258.331H30.2251ZM30.2251 268.363V273.379H32.2251V268.363H30.2251ZM30.2251 278.395V283.411H32.2251V278.395H30.2251ZM30.2251 288.427V293.444H32.2251V288.427H30.2251ZM30.2251 298.46V303.476H32.2251V298.46H30.2251ZM30.2251 308.492V311H32.2251V308.492H30.2251ZM278.775 0V2.50806H280.775V0H278.775ZM278.775 7.52419V12.5403H280.775V7.52419H278.775ZM278.775 17.5565V22.5726H280.775V17.5565H278.775ZM278.775 27.5887V32.6048H280.775V27.5887H278.775ZM278.775 37.621V42.6371H280.775V37.621H278.775ZM278.775 47.6532V52.6694H280.775V47.6532H278.775ZM278.775 57.6855V62.7016H280.775V57.6855H278.775ZM278.775 67.7177V72.7339H280.775V67.7177H278.775ZM278.775 77.75V82.7661H280.775V77.75H278.775ZM278.775 87.7823V92.7984H280.775V87.7823H278.775ZM278.775 97.8145V102.831H280.775V97.8145H278.775ZM278.775 107.847V112.863H280.775V107.847H278.775ZM278.775 117.879V122.895H280.775V117.879H278.775ZM278.775 127.911V132.927H280.775V127.911H278.775ZM278.775 137.944V142.96H280.775V137.944H278.775ZM278.775 147.976V152.992H280.775V147.976H278.775ZM278.775 158.008V163.024H280.775V158.008H278.775ZM278.775 168.04V173.056H280.775V168.04H278.775ZM278.775 178.073V183.089H280.775V178.073H278.775ZM278.775 188.105V193.121H280.775V188.105H278.775ZM278.775 198.137V203.153H280.775V198.137H278.775ZM278.775 208.169V213.185H280.775V208.169H278.775ZM278.775 218.202V223.218H280.775V218.202H278.775ZM278.775 228.234V233.25H280.775V228.234H278.775ZM278.775 238.266V243.282H280.775V238.266H278.775ZM278.775 248.298V253.314H280.775V248.298H278.775ZM278.775 258.331V263.347H280.775V258.331H278.775ZM278.775 268.363V273.379H280.775V268.363H278.775ZM278.775 278.395V283.411H280.775V278.395H278.775ZM278.775 288.427V293.444H280.775V288.427H278.775ZM278.775 298.46V303.476H280.775V298.46H278.775ZM278.775 308.492V311H280.775V308.492H278.775Z" fill="url(#paint0_linear_131_8508)"/>
<path d="M308.492 30.2249C307.94 30.2249 307.492 30.6726 307.492 31.2249C307.492 31.7772 307.94 32.2249 308.492 32.2249L308.492 30.2249ZM303.476 32.2249C304.028 32.2249 304.476 31.7772 304.476 31.2249C304.476 30.6726 304.028 30.2249 303.476 30.2249L303.476 32.2249ZM298.46 30.2249C297.907 30.2249 297.46 30.6726 297.46 31.2249C297.46 31.7772 297.907 32.2249 298.46 32.2249L298.46 30.2249ZM293.444 32.2249C293.996 32.2249 294.444 31.7772 294.444 31.2249C294.444 30.6726 293.996 30.2249 293.444 30.2249L293.444 32.2249ZM288.427 30.2249C287.875 30.2249 287.427 30.6726 287.427 31.2249C287.427 31.7772 287.875 32.2249 288.427 32.2249L288.427 30.2249ZM283.411 32.2249C283.964 32.2249 284.411 31.7772 284.411 31.2249C284.411 30.6726 283.964 30.2249 283.411 30.2249L283.411 32.2249ZM278.395 30.2249C277.843 30.2249 277.395 30.6726 277.395 31.2249C277.395 31.7772 277.843 32.2249 278.395 32.2249L278.395 30.2249ZM273.379 32.2249C273.931 32.2249 274.379 31.7772 274.379 31.2249C274.379 30.6726 273.931 30.2249 273.379 30.2249L273.379 32.2249ZM268.363 30.2249C267.811 30.2249 267.363 30.6726 267.363 31.2249C267.363 31.7772 267.811 32.2249 268.363 32.2249L268.363 30.2249ZM263.347 32.2249C263.899 32.2249 264.347 31.7772 264.347 31.2249C264.347 30.6726 263.899 30.2249 263.347 30.2249L263.347 32.2249ZM258.331 30.2249C257.778 30.2249 257.331 30.6726 257.331 31.2249C257.331 31.7772 257.778 32.2249 258.331 32.2249L258.331 30.2249ZM253.315 32.2249C253.867 32.2249 254.315 31.7772 254.315 31.2249C254.315 30.6726 253.867 30.2249 253.315 30.2249L253.315 32.2249ZM248.298 30.2249C247.746 30.2249 247.298 30.6726 247.298 31.2249C247.298 31.7772 247.746 32.2249 248.298 32.2249L248.298 30.2249ZM243.282 32.2249C243.835 32.2249 244.282 31.7772 244.282 31.2249C244.282 30.6726 243.835 30.2249 243.282 30.2249L243.282 32.2249ZM238.266 30.2249C237.714 30.2249 237.266 30.6726 237.266 31.2249C237.266 31.7772 237.714 32.2249 238.266 32.2249L238.266 30.2249ZM233.25 32.2249C233.802 32.2249 234.25 31.7772 234.25 31.2249C234.25 30.6726 233.802 30.2249 233.25 30.2249L233.25 32.2249ZM228.234 30.2249C227.682 30.2249 227.234 30.6726 227.234 31.2249C227.234 31.7772 227.682 32.2249 228.234 32.2249L228.234 30.2249ZM223.218 32.2249C223.77 32.2249 224.218 31.7772 224.218 31.2249C224.218 30.6726 223.77 30.2249 223.218 30.2249L223.218 32.2249ZM218.202 30.2249C217.649 30.2249 217.202 30.6726 217.202 31.2249C217.202 31.7772 217.649 32.2249 218.202 32.2249L218.202 30.2249ZM213.185 32.2249C213.738 32.2249 214.185 31.7772 214.185 31.2249C214.185 30.6726 213.738 30.2249 213.185 30.2249L213.185 32.2249ZM208.169 30.2249C207.617 30.2249 207.169 30.6726 207.169 31.2249C207.169 31.7772 207.617 32.2249 208.169 32.2249L208.169 30.2249ZM203.153 32.2249C203.706 32.2249 204.153 31.7772 204.153 31.2249C204.153 30.6726 203.706 30.2249 203.153 30.2249L203.153 32.2249ZM198.137 30.2249C197.585 30.2249 197.137 30.6726 197.137 31.2249C197.137 31.7772 197.585 32.2249 198.137 32.2249L198.137 30.2249ZM193.121 32.2249C193.673 32.2249 194.121 31.7772 194.121 31.2249C194.121 30.6726 193.673 30.2249 193.121 30.2249L193.121 32.2249ZM188.105 30.2249C187.553 30.2249 187.105 30.6726 187.105 31.2249C187.105 31.7772 187.553 32.2249 188.105 32.2249L188.105 30.2249ZM183.089 32.2249C183.641 32.2249 184.089 31.7772 184.089 31.2249C184.089 30.6726 183.641 30.2249 183.089 30.2249L183.089 32.2249ZM178.073 30.2249C177.52 30.2249 177.073 30.6726 177.073 31.2249C177.073 31.7772 177.52 32.2249 178.073 32.2249L178.073 30.2249ZM173.056 32.2249C173.609 32.2249 174.056 31.7772 174.056 31.2249C174.056 30.6726 173.609 30.2249 173.056 30.2249L173.056 32.2249ZM168.04 30.2249C167.488 30.2249 167.04 30.6726 167.04 31.2249C167.04 31.7772 167.488 32.2249 168.04 32.2249L168.04 30.2249ZM163.024 32.2249C163.577 32.2249 164.024 31.7772 164.024 31.2249C164.024 30.6726 163.577 30.2249 163.024 30.2249L163.024 32.2249ZM158.008 30.2249C157.456 30.2249 157.008 30.6726 157.008 31.2249C157.008 31.7772 157.456 32.2249 158.008 32.2249L158.008 30.2249ZM152.992 32.2249C153.544 32.2249 153.992 31.7772 153.992 31.2249C153.992 30.6726 153.544 30.2249 152.992 30.2249L152.992 32.2249ZM147.976 30.2249C147.424 30.2249 146.976 30.6726 146.976 31.2249C146.976 31.7772 147.424 32.2249 147.976 32.2249L147.976 30.2249ZM142.96 32.2249C143.512 32.2249 143.96 31.7772 143.96 31.2249C143.96 30.6726 143.512 30.2249 142.96 30.2249L142.96 32.2249ZM137.944 30.2249C137.391 30.2249 136.944 30.6726 136.944 31.2249C136.944 31.7772 137.391 32.2249 137.944 32.2249L137.944 30.2249ZM132.927 32.2249C133.48 32.2249 133.927 31.7772 133.927 31.2249C133.927 30.6726 133.48 30.2249 132.927 30.2249L132.927 32.2249ZM127.911 30.2249C127.359 30.2249 126.911 30.6726 126.911 31.2249C126.911 31.7772 127.359 32.2249 127.911 32.2249L127.911 30.2249ZM122.895 32.2249C123.447 32.2249 123.895 31.7772 123.895 31.2249C123.895 30.6726 123.447 30.2249 122.895 30.2249L122.895 32.2249ZM117.879 30.2249C117.327 30.2249 116.879 30.6726 116.879 31.2249C116.879 31.7772 117.327 32.2249 117.879 32.2249L117.879 30.2249ZM112.863 32.2249C113.415 32.2249 113.863 31.7772 113.863 31.2249C113.863 30.6726 113.415 30.2249 112.863 30.2249L112.863 32.2249ZM107.847 30.2249C107.295 30.2249 106.847 30.6726 106.847 31.2249C106.847 31.7772 107.295 32.2249 107.847 32.2249L107.847 30.2249ZM102.831 32.2249C103.383 32.2249 103.831 31.7772 103.831 31.2249C103.831 30.6726 103.383 30.2249 102.831 30.2249L102.831 32.2249ZM97.8145 30.2249C97.2623 30.2249 96.8145 30.6726 96.8145 31.2249C96.8145 31.7772 97.2623 32.2249 97.8145 32.2249L97.8145 30.2249ZM92.7984 32.2249C93.3507 32.2249 93.7984 31.7772 93.7984 31.2249C93.7984 30.6726 93.3507 30.2249 92.7984 30.2249L92.7984 32.2249ZM87.7823 30.2249C87.23 30.2249 86.7823 30.6726 86.7823 31.2249C86.7823 31.7772 87.23 32.2249 87.7823 32.2249L87.7823 30.2249ZM82.7662 32.2249C83.3185 32.2249 83.7662 31.7772 83.7662 31.2249C83.7662 30.6726 83.3185 30.2249 82.7662 30.2249L82.7662 32.2249ZM77.75 30.2249C77.1977 30.2249 76.75 30.6726 76.75 31.2249C76.75 31.7772 77.1977 32.2249 77.75 32.2249L77.75 30.2249ZM72.7339 32.2249C73.2862 32.2249 73.7339 31.7772 73.7339 31.2249C73.7339 30.6726 73.2862 30.2249 72.7339 30.2249L72.7339 32.2249ZM67.7178 30.2249C67.1655 30.2249 66.7178 30.6726 66.7178 31.2249C66.7178 31.7772 67.1655 32.2249 67.7178 32.2249L67.7178 30.2249ZM62.7017 32.2249C63.2539 32.2249 63.7017 31.7772 63.7017 31.2249C63.7017 30.6726 63.2539 30.2249 62.7017 30.2249L62.7017 32.2249ZM57.6855 30.2249C57.1332 30.2249 56.6855 30.6726 56.6855 31.2249C56.6855 31.7772 57.1332 32.2249 57.6855 32.2249L57.6855 30.2249ZM52.6694 32.2249C53.2216 32.2249 53.6694 31.7772 53.6694 31.2249C53.6694 30.6726 53.2216 30.2249 52.6694 30.2249L52.6694 32.2249ZM47.6533 30.2249C47.101 30.2249 46.6533 30.6726 46.6533 31.2249C46.6533 31.7772 47.101 32.2249 47.6533 32.2249L47.6533 30.2249ZM42.6371 32.2249C43.1894 32.2249 43.6371 31.7772 43.6371 31.2249C43.6371 30.6726 43.1894 30.2249 42.6371 30.2249L42.6371 32.2249ZM37.621 30.2249C37.0688 30.2249 36.621 30.6726 36.621 31.2249C36.621 31.7772 37.0688 32.2249 37.621 32.2249L37.621 30.2249ZM32.6049 32.2249C33.1572 32.2249 33.6049 31.7772 33.6049 31.2249C33.6049 30.6726 33.1572 30.2249 32.6049 30.2249L32.6049 32.2249ZM27.5888 30.2249C27.0365 30.2249 26.5888 30.6726 26.5888 31.2249C26.5888 31.7772 27.0365 32.2249 27.5888 32.2249L27.5888 30.2249ZM22.5727 32.2249C23.125 32.2249 23.5727 31.7772 23.5727 31.2249C23.5727 30.6726 23.125 30.2249 22.5727 30.2249L22.5727 32.2249ZM17.5566 30.2249C17.0043 30.2249 16.5566 30.6726 16.5566 31.2249C16.5566 31.7772 17.0043 32.2249 17.5566 32.2249L17.5566 30.2249ZM12.5405 32.2249C13.0928 32.2249 13.5405 31.7772 13.5405 31.2249C13.5405 30.6726 13.0928 30.2249 12.5405 30.2249L12.5405 32.2249ZM7.52435 30.2249C6.97208 30.2249 6.52435 30.6726 6.52435 31.2249C6.52435 31.7772 6.97208 32.2249 7.52435 32.2249L7.52435 30.2249ZM2.50824 32.2249C3.06055 32.2249 3.50824 31.7772 3.50824 31.2249C3.50824 30.6726 3.06055 30.2249 2.50824 30.2249L2.50824 32.2249ZM308.492 278.775C307.94 278.775 307.492 279.223 307.492 279.775C307.492 280.327 307.94 280.775 308.492 280.775L308.492 278.775ZM303.476 280.775C304.028 280.775 304.476 280.327 304.476 279.775C304.476 279.223 304.028 278.775 303.476 278.775L303.476 280.775ZM298.46 278.775C297.907 278.775 297.46 279.223 297.46 279.775C297.46 280.327 297.907 280.775 298.46 280.775L298.46 278.775ZM293.444 280.775C293.996 280.775 294.444 280.327 294.444 279.775C294.444 279.223 293.996 278.775 293.444 278.775L293.444 280.775ZM288.427 278.775C287.875 278.775 287.427 279.223 287.427 279.775C287.427 280.327 287.875 280.775 288.427 280.775L288.427 278.775ZM283.411 280.775C283.964 280.775 284.411 280.327 284.411 279.775C284.411 279.223 283.964 278.775 283.411 278.775L283.411 280.775ZM278.395 278.775C277.843 278.775 277.395 279.223 277.395 279.775C277.395 280.327 277.843 280.775 278.395 280.775L278.395 278.775ZM273.379 280.775C273.931 280.775 274.379 280.327 274.379 279.775C274.379 279.223 273.931 278.775 273.379 278.775L273.379 280.775ZM268.363 278.775C267.811 278.775 267.363 279.223 267.363 279.775C267.363 280.327 267.811 280.775 268.363 280.775L268.363 278.775ZM263.347 280.775C263.899 280.775 264.347 280.327 264.347 279.775C264.347 279.223 263.899 278.775 263.347 278.775L263.347 280.775ZM258.331 278.775C257.778 278.775 257.331 279.223 257.331 279.775C257.331 280.327 257.778 280.775 258.331 280.775L258.331 278.775ZM253.315 280.775C253.867 280.775 254.315 280.327 254.315 279.775C254.315 279.223 253.867 278.775 253.315 278.775L253.315 280.775ZM248.298 278.775C247.746 278.775 247.298 279.223 247.298 279.775C247.298 280.327 247.746 280.775 248.298 280.775L248.298 278.775ZM243.282 280.775C243.835 280.775 244.282 280.327 244.282 279.775C244.282 279.223 243.835 278.775 243.282 278.775L243.282 280.775ZM238.266 278.775C237.714 278.775 237.266 279.223 237.266 279.775C237.266 280.327 237.714 280.775 238.266 280.775L238.266 278.775ZM233.25 280.775C233.802 280.775 234.25 280.327 234.25 279.775C234.25 279.223 233.802 278.775 233.25 278.775L233.25 280.775ZM228.234 278.775C227.682 278.775 227.234 279.223 227.234 279.775C227.234 280.327 227.682 280.775 228.234 280.775L228.234 278.775ZM223.218 280.775C223.77 280.775 224.218 280.327 224.218 279.775C224.218 279.223 223.77 278.775 223.218 278.775L223.218 280.775ZM218.202 278.775C217.649 278.775 217.202 279.223 217.202 279.775C217.202 280.327 217.649 280.775 218.202 280.775L218.202 278.775ZM213.185 280.775C213.738 280.775 214.185 280.327 214.185 279.775C214.185 279.223 213.738 278.775 213.185 278.775L213.185 280.775ZM208.169 278.775C207.617 278.775 207.169 279.223 207.169 279.775C207.169 280.327 207.617 280.775 208.169 280.775L208.169 278.775ZM203.153 280.775C203.706 280.775 204.153 280.327 204.153 279.775C204.153 279.223 203.706 278.775 203.153 278.775L203.153 280.775ZM198.137 278.775C197.585 278.775 197.137 279.223 197.137 279.775C197.137 280.327 197.585 280.775 198.137 280.775L198.137 278.775ZM193.121 280.775C193.673 280.775 194.121 280.327 194.121 279.775C194.121 279.223 193.673 278.775 193.121 278.775L193.121 280.775ZM188.105 278.775C187.553 278.775 187.105 279.223 187.105 279.775C187.105 280.327 187.553 280.775 188.105 280.775L188.105 278.775ZM183.089 280.775C183.641 280.775 184.089 280.327 184.089 279.775C184.089 279.223 183.641 278.775 183.089 278.775L183.089 280.775ZM178.073 278.775C177.52 278.775 177.073 279.223 177.073 279.775C177.073 280.327 177.52 280.775 178.073 280.775L178.073 278.775ZM173.056 280.775C173.609 280.775 174.056 280.327 174.056 279.775C174.056 279.223 173.609 278.775 173.056 278.775L173.056 280.775ZM168.04 278.775C167.488 278.775 167.04 279.223 167.04 279.775C167.04 280.327 167.488 280.775 168.04 280.775L168.04 278.775ZM163.024 280.775C163.576 280.775 164.024 280.327 164.024 279.775C164.024 279.223 163.576 278.775 163.024 278.775L163.024 280.775ZM158.008 278.775C157.456 278.775 157.008 279.223 157.008 279.775C157.008 280.327 157.456 280.775 158.008 280.775L158.008 278.775ZM152.992 280.775C153.544 280.775 153.992 280.327 153.992 279.775C153.992 279.223 153.544 278.775 152.992 278.775L152.992 280.775ZM147.976 278.775C147.424 278.775 146.976 279.223 146.976 279.775C146.976 280.327 147.424 280.775 147.976 280.775L147.976 278.775ZM142.96 280.775C143.512 280.775 143.96 280.327 143.96 279.775C143.96 279.223 143.512 278.775 142.96 278.775L142.96 280.775ZM137.944 278.775C137.391 278.775 136.944 279.223 136.944 279.775C136.944 280.327 137.391 280.775 137.944 280.775L137.944 278.775ZM132.927 280.775C133.48 280.775 133.927 280.327 133.927 279.775C133.927 279.223 133.48 278.775 132.927 278.775L132.927 280.775ZM127.911 278.775C127.359 278.775 126.911 279.223 126.911 279.775C126.911 280.327 127.359 280.775 127.911 280.775L127.911 278.775ZM122.895 280.775C123.447 280.775 123.895 280.327 123.895 279.775C123.895 279.223 123.447 278.775 122.895 278.775L122.895 280.775ZM117.879 278.775C117.327 278.775 116.879 279.223 116.879 279.775C116.879 280.327 117.327 280.775 117.879 280.775L117.879 278.775ZM112.863 280.775C113.415 280.775 113.863 280.327 113.863 279.775C113.863 279.223 113.415 278.775 112.863 278.775L112.863 280.775ZM107.847 278.775C107.295 278.775 106.847 279.223 106.847 279.775C106.847 280.327 107.295 280.775 107.847 280.775L107.847 278.775ZM102.831 280.775C103.383 280.775 103.831 280.327 103.831 279.775C103.831 279.223 103.383 278.775 102.831 278.775L102.831 280.775ZM97.8145 278.775C97.2622 278.775 96.8145 279.223 96.8145 279.775C96.8145 280.327 97.2622 280.775 97.8145 280.775L97.8145 278.775ZM92.7984 280.775C93.3507 280.775 93.7984 280.327 93.7984 279.775C93.7984 279.223 93.3507 278.775 92.7984 278.775L92.7984 280.775ZM87.7823 278.775C87.23 278.775 86.7823 279.223 86.7823 279.775C86.7823 280.327 87.23 280.775 87.7823 280.775L87.7823 278.775ZM82.7662 280.775C83.3184 280.775 83.7662 280.327 83.7662 279.775C83.7662 279.223 83.3184 278.775 82.7662 278.775L82.7662 280.775ZM77.75 278.775C77.1977 278.775 76.75 279.223 76.75 279.775C76.75 280.327 77.1977 280.775 77.75 280.775L77.75 278.775ZM72.7339 280.775C73.2862 280.775 73.7339 280.327 73.7339 279.775C73.7339 279.223 73.2862 278.775 72.7339 278.775L72.7339 280.775ZM67.7178 278.775C67.1655 278.775 66.7178 279.223 66.7178 279.775C66.7178 280.327 67.1655 280.775 67.7178 280.775L67.7178 278.775ZM62.7016 280.775C63.2539 280.775 63.7016 280.327 63.7016 279.775C63.7016 279.223 63.2539 278.775 62.7016 278.775L62.7016 280.775ZM57.6855 278.775C57.1332 278.775 56.6855 279.223 56.6855 279.775C56.6855 280.327 57.1332 280.775 57.6855 280.775L57.6855 278.775ZM52.6694 280.775C53.2216 280.775 53.6694 280.327 53.6694 279.775C53.6694 279.223 53.2216 278.775 52.6694 278.775L52.6694 280.775ZM47.6532 278.775C47.101 278.775 46.6532 279.223 46.6532 279.775C46.6532 280.327 47.101 280.775 47.6532 280.775L47.6532 278.775ZM42.6371 280.775C43.1894 280.775 43.6371 280.327 43.6371 279.775C43.6371 279.223 43.1894 278.775 42.6371 278.775L42.6371 280.775ZM37.621 278.775C37.0687 278.775 36.621 279.223 36.621 279.775C36.621 280.327 37.0687 280.775 37.621 280.775L37.621 278.775ZM32.6049 280.775C33.1572 280.775 33.6049 280.327 33.6049 279.775C33.6049 279.223 33.1572 278.775 32.6049 278.775L32.6049 280.775ZM27.5888 278.775C27.0365 278.775 26.5888 279.223 26.5888 279.775C26.5888 280.327 27.0365 280.775 27.5888 280.775L27.5888 278.775ZM22.5727 280.775C23.125 280.775 23.5727 280.327 23.5727 279.775C23.5727 279.223 23.125 278.775 22.5727 278.775L22.5727 280.775ZM17.5566 278.775C17.0043 278.775 16.5566 279.223 16.5566 279.775C16.5566 280.327 17.0043 280.775 17.5566 280.775L17.5566 278.775ZM12.5405 280.775C13.0928 280.775 13.5405 280.327 13.5405 279.775C13.5405 279.223 13.0928 278.775 12.5405 278.775L12.5405 280.775ZM7.52434 278.775C6.97207 278.775 6.52434 279.223 6.52434 279.775C6.52434 280.327 6.97207 280.775 7.52434 280.775L7.52434 278.775ZM2.50823 280.775C3.06054 280.775 3.50823 280.327 3.50823 279.775C3.50823 279.223 3.06054 278.775 2.50823 278.775L2.50823 280.775ZM311 30.2249L308.492 30.2249L308.492 32.2249L311 32.2249L311 30.2249ZM303.476 30.2249L298.46 30.2249L298.46 32.2249L303.476 32.2249L303.476 30.2249ZM293.444 30.2249L288.427 30.2249L288.427 32.2249L293.444 32.2249L293.444 30.2249ZM283.411 30.2249L278.395 30.2249L278.395 32.2249L283.411 32.2249L283.411 30.2249ZM273.379 30.2249L268.363 30.2249L268.363 32.2249L273.379 32.2249L273.379 30.2249ZM263.347 30.2249L258.331 30.2249L258.331 32.2249L263.347 32.2249L263.347 30.2249ZM253.315 30.2249L248.298 30.2249L248.298 32.2249L253.315 32.2249L253.315 30.2249ZM243.282 30.2249L238.266 30.2249L238.266 32.2249L243.282 32.2249L243.282 30.2249ZM233.25 30.2249L228.234 30.2249L228.234 32.2249L233.25 32.2249L233.25 30.2249ZM223.218 30.2249L218.202 30.2249L218.202 32.2249L223.218 32.2249L223.218 30.2249ZM213.185 30.2249L208.169 30.2249L208.169 32.2249L213.185 32.2249L213.185 30.2249ZM203.153 30.2249L198.137 30.2249L198.137 32.2249L203.153 32.2249L203.153 30.2249ZM193.121 30.2249L188.105 30.2249L188.105 32.2249L193.121 32.2249L193.121 30.2249ZM183.089 30.2249L178.073 30.2249L178.073 32.2249L183.089 32.2249L183.089 30.2249ZM173.056 30.2249L168.04 30.2249L168.04 32.2249L173.056 32.2249L173.056 30.2249ZM163.024 30.2249L158.008 30.2249L158.008 32.2249L163.024 32.2249L163.024 30.2249ZM152.992 30.2249L147.976 30.2249L147.976 32.2249L152.992 32.2249L152.992 30.2249ZM142.96 30.2249L137.944 30.2249L137.944 32.2249L142.96 32.2249L142.96 30.2249ZM132.927 30.2249L127.911 30.2249L127.911 32.2249L132.927 32.2249L132.927 30.2249ZM122.895 30.2249L117.879 30.2249L117.879 32.2249L122.895 32.2249L122.895 30.2249ZM112.863 30.2249L107.847 30.2249L107.847 32.2249L112.863 32.2249L112.863 30.2249ZM102.831 30.2249L97.8145 30.2249L97.8145 32.2249L102.831 32.2249L102.831 30.2249ZM92.7984 30.2249L87.7823 30.2249L87.7823 32.2249L92.7984 32.2249L92.7984 30.2249ZM82.7662 30.2249L77.75 30.2249L77.75 32.2249L82.7662 32.2249L82.7662 30.2249ZM72.7339 30.2249L67.7178 30.2249L67.7178 32.2249L72.7339 32.2249L72.7339 30.2249ZM62.7017 30.2249L57.6855 30.2249L57.6855 32.2249L62.7017 32.2249L62.7017 30.2249ZM52.6694 30.2249L47.6533 30.2249L47.6533 32.2249L52.6694 32.2249L52.6694 30.2249ZM42.6371 30.2249L37.621 30.2249L37.621 32.2249L42.6371 32.2249L42.6371 30.2249ZM32.6049 30.2249L27.5888 30.2249L27.5888 32.2249L32.6049 32.2249L32.6049 30.2249ZM22.5727 30.2249L17.5566 30.2249L17.5566 32.2249L22.5727 32.2249L22.5727 30.2249ZM12.5405 30.2249L7.52435 30.2249L7.52435 32.2249L12.5405 32.2249L12.5405 30.2249ZM2.50824 30.2249L3.05613e-05 30.2249L3.04739e-05 32.2249L2.50824 32.2249L2.50824 30.2249ZM311 278.775L308.492 278.775L308.492 280.775L311 280.775L311 278.775ZM303.476 278.775L298.46 278.775L298.46 280.775L303.476 280.775L303.476 278.775ZM293.444 278.775L288.427 278.775L288.427 280.775L293.444 280.775L293.444 278.775ZM283.411 278.775L278.395 278.775L278.395 280.775L283.411 280.775L283.411 278.775ZM273.379 278.775L268.363 278.775L268.363 280.775L273.379 280.775L273.379 278.775ZM263.347 278.775L258.331 278.775L258.331 280.775L263.347 280.775L263.347 278.775ZM253.315 278.775L248.298 278.775L248.298 280.775L253.315 280.775L253.315 278.775ZM243.282 278.775L238.266 278.775L238.266 280.775L243.282 280.775L243.282 278.775ZM233.25 278.775L228.234 278.775L228.234 280.775L233.25 280.775L233.25 278.775ZM223.218 278.775L218.202 278.775L218.202 280.775L223.218 280.775L223.218 278.775ZM213.185 278.775L208.169 278.775L208.169 280.775L213.185 280.775L213.185 278.775ZM203.153 278.775L198.137 278.775L198.137 280.775L203.153 280.775L203.153 278.775ZM193.121 278.775L188.105 278.775L188.105 280.775L193.121 280.775L193.121 278.775ZM183.089 278.775L178.073 278.775L178.073 280.775L183.089 280.775L183.089 278.775ZM173.056 278.775L168.04 278.775L168.04 280.775L173.056 280.775L173.056 278.775ZM163.024 278.775L158.008 278.775L158.008 280.775L163.024 280.775L163.024 278.775ZM152.992 278.775L147.976 278.775L147.976 280.775L152.992 280.775L152.992 278.775ZM142.96 278.775L137.944 278.775L137.944 280.775L142.96 280.775L142.96 278.775ZM132.927 278.775L127.911 278.775L127.911 280.775L132.927 280.775L132.927 278.775ZM122.895 278.775L117.879 278.775L117.879 280.775L122.895 280.775L122.895 278.775ZM112.863 278.775L107.847 278.775L107.847 280.775L112.863 280.775L112.863 278.775ZM102.831 278.775L97.8145 278.775L97.8145 280.775L102.831 280.775L102.831 278.775ZM92.7984 278.775L87.7823 278.775L87.7823 280.775L92.7984 280.775L92.7984 278.775ZM82.7662 278.775L77.75 278.775L77.75 280.775L82.7662 280.775L82.7662 278.775ZM72.7339 278.775L67.7178 278.775L67.7178 280.775L72.7339 280.775L72.7339 278.775ZM62.7016 278.775L57.6855 278.775L57.6855 280.775L62.7016 280.775L62.7016 278.775ZM52.6694 278.775L47.6532 278.775L47.6532 280.775L52.6694 280.775L52.6694 278.775ZM42.6371 278.775L37.621 278.775L37.621 280.775L42.6371 280.775L42.6371 278.775ZM32.6049 278.775L27.5888 278.775L27.5888 280.775L32.6049 280.775L32.6049 278.775ZM22.5727 278.775L17.5566 278.775L17.5566 280.775L22.5727 280.775L22.5727 278.775ZM12.5405 278.775L7.52434 278.775L7.52434 280.775L12.5405 280.775L12.5405 278.775ZM2.50823 278.775L1.96968e-05 278.775L1.96094e-05 280.775L2.50823 280.775L2.50823 278.775Z" fill="url(#paint1_linear_131_8508)"/>
</g>
<mask id="mask0_131_8508" style="mask-type:alpha" maskUnits="userSpaceOnUse" x="39" y="39" width="233" height="233">
<rect x="40.4678" y="40.4679" width="230.064" height="230.064" fill="#C4C4C4" stroke="#111113"/>
</mask>
<g mask="url(#mask0_131_8508)">
<path d="M-10 225.703C-7.91753 225.619 -5.81527 225.681 -3.71301 225.681C14.8981 225.496 33.5711 225.681 52.1823 225.805C61.457 225.867 70.7316 225.681 80.0681 226.176C80.1918 226.176 80.3155 226.238 80.4391 226.361C80.4613 226.38 80.4792 226.404 80.4914 226.431C80.5036 226.458 80.51 226.487 80.51 226.516C80.51 226.545 80.5036 226.574 80.4914 226.601C80.4792 226.628 80.4613 226.651 80.4391 226.67C79.0788 227.536 77.5949 227.783 76.1109 228.278C75.7123 228.352 75.3196 228.455 74.9361 228.587C74.4415 228.711 74.0087 228.835 73.514 228.958C71.4736 229.391 69.4332 229.267 67.7019 228.031C67.5782 227.907 67.4546 227.783 67.2623 227.722L66.9228 227.389C66.8783 227.289 66.7225 227.301 66.6508 227.229C65.5378 226.116 64.7959 224.88 64.0539 223.52C63.992 223.396 64.0539 223.334 63.992 223.21C63.4974 222.221 63.0646 221.294 62.6318 220.304C61.2715 217.027 60.0967 213.75 58.8601 210.35C58.7364 209.979 58.7364 209.608 58.6127 209.298C58.3654 208.927 58.2418 208.495 58.0563 208.062C56.5723 203.795 55.3357 199.591 53.9754 195.263C53.9136 194.954 53.8517 194.706 53.7899 194.397C51.3167 185.864 49.2144 177.641 48.2869 168.861C48.2251 168.552 48.2251 168.304 48.1633 167.995C48.0396 166.14 48.0396 164.347 48.2869 162.492C48.4724 161.379 48.7198 160.328 49.4617 159.463C49.5854 159.401 49.6472 159.277 49.7709 159.153C51.0693 158.164 52.5533 157.546 54.1609 157.175C54.2227 157.175 54.3464 157.051 54.4082 157.051C55.8303 156.804 57.1288 156.618 58.4891 156.618C59.9112 156.68 61.2715 156.804 62.6936 157.175C63.1629 157.292 63.5765 157.354 64.0403 157.465L64.4731 157.597C67.0533 158.533 70.088 159.761 71.0402 162.616C71.4112 163.853 71.5348 165.089 71.844 166.388C73.4516 173.065 74.5645 179.187 75.8012 185.988C77.5324 195.51 79.0782 204.352 80.3148 213.812C80.624 216.471 80.995 219.006 80.8713 221.665C80.8713 221.85 80.8095 222.036 80.7477 222.221C80.5622 222.53 80.253 222.345 80.0675 222.097C80.0057 221.974 80.0057 221.85 79.9439 221.788C79.6347 221.417 79.4492 220.984 79.3255 220.552C79.2637 220.366 79.14 220.243 79.0782 220.057C77.6561 215.976 76.7286 212.019 75.8012 207.691C75.8012 207.629 75.6775 207.505 75.6775 207.443C75.5538 206.702 75.3684 206.083 75.2447 205.341C74.6882 201.817 73.8226 198.54 73.3898 195.015C73.2661 194.212 73.0188 193.47 72.8951 192.666C71.102 182.093 69.8036 172.014 69.1852 161.565C68.9997 158.226 68.8761 154.949 69.1234 151.61C69.3089 149.631 69.4944 147.715 70.1745 145.86C70.731 144.499 72.0295 143.696 73.3279 143.139C76.605 141.717 116.976 141.284 120.5 141.222C126.436 141.099 132.248 141.655 138.184 143.201C139.482 143.51 140.719 143.881 141.955 144.561C142.141 144.685 142.388 144.685 142.636 144.747C143.254 144.994 143.748 145.303 144.367 145.612C145.356 146.107 146.345 146.416 147.335 147.035C148.077 147.405 148.819 147.715 149.561 148.024C149.932 148.209 150.241 148.395 150.612 148.58C154.198 150.188 157.722 151.795 161.432 153.218C161.803 153.403 162.112 153.589 162.483 153.712C165.142 154.702 167.739 155.629 170.645 156.124C172.253 156.371 173.86 156.618 175.344 155.815C176.952 154.949 177.57 153.156 178.312 151.548C178.869 150.312 179.24 149.013 179.549 147.653C179.549 147.591 179.672 147.467 179.672 147.405C180.167 145.365 180.476 143.448 180.847 141.346C180.971 140.419 181.094 139.553 181.218 138.625C181.218 137.945 181.218 137.265 181.28 136.585C181.527 134.545 181.527 132.566 181.404 130.526C181.28 129.289 181.156 128.052 180.476 126.939C180.414 126.816 180.291 126.754 180.167 126.692C179.672 126.568 179.178 126.63 178.683 126.63C177.014 126.754 175.344 126.816 173.675 126.692C173.18 126.692 172.747 126.63 172.314 126.383C171.943 126.136 171.634 125.765 171.572 125.332C171.261 122.298 171.642 119.232 172.685 116.366C172.809 115.995 172.995 115.562 173.366 115.377C174.54 114.82 175.282 116.243 175.468 117.232C175.53 117.541 175.653 117.788 175.653 118.036C175.653 118.283 175.777 118.53 175.592 118.778C175.53 118.84 175.468 118.778 175.406 118.716C174.973 117.727 174.973 116.737 175.159 115.686C175.282 115.191 175.53 114.759 175.839 114.326C176.704 113.337 178.003 113.089 179.24 113.213C179.92 113.337 180.538 113.646 181.156 114.017C182.207 114.697 182.949 115.686 183.506 116.799C184.372 118.469 183.753 120.323 182.702 121.807C182.64 121.869 182.702 121.993 182.64 122.055C182.022 123.044 181.404 123.848 180.476 124.466C179.611 125.084 178.621 125.146 177.694 125.455C177.014 125.703 176.395 126.012 175.777 126.321C175.53 126.445 175.221 126.445 174.911 126.445C174.687 126.421 174.471 126.348 174.278 126.23C174.086 126.113 173.922 125.954 173.798 125.765C173.737 125.641 173.737 125.455 173.613 125.332C173.502 125.031 173.419 124.72 173.366 124.404C173.118 123.353 173.191 124.843 173.067 123.792C173.019 123.681 172.957 123.577 172.881 123.483C172.387 123.298 171.423 123.473 170.929 123.473C170.372 123.411 169.878 123.164 169.63 122.669C168.888 121.124 169.285 104.804 170.15 104.309C170.63 104.22 171.59 104.186 172.716 104.175C172.831 104.174 172.948 104.174 173.067 104.173M136.632 138.44C136.762 137.945 136.947 137.451 137.071 136.956C137.249 136.606 137.374 136.231 137.442 135.843C137.565 135.41 137.813 135.101 137.875 134.668C137.936 134.483 138.06 134.359 138.122 134.174C138.184 134.05 138.122 133.988 138.184 133.864C139.111 131.886 139.729 129.784 141.337 128.3C141.832 127.867 142.388 127.929 143.007 128.052C143.068 128.052 143.13 128.176 143.192 128.176C143.316 128.238 143.501 128.238 143.625 128.3C144.861 128.98 146.036 129.598 147.211 130.464C151.848 133.803 156.115 136.771 161.185 138.935C161.309 138.996 161.37 138.935 161.494 138.996C161.741 139.12 161.989 139.244 162.298 139.367C164.462 140.109 166.564 140.604 168.605 141.903C169.285 142.397 170.15 142.706 170.398 143.572C170.46 143.943 170.212 144.252 169.965 144.438C169.285 144.809 168.234 144.932 167.739 144.252C167.739 143.588 167.801 142.926 167.924 142.274C168.728 138.44 169.779 135.039 170.769 131.329C170.831 131.082 170.831 130.773 170.892 130.526C171.002 130.288 171.085 130.039 171.14 129.784V129.289C171.387 128.485 171.263 127.681 171.387 126.816C171.511 126.321 171.696 125.95 172.005 125.517C172.933 124.281 173.984 123.353 174.664 122.055C175.159 121.004 174.85 119.829 174.911 118.716C175.035 117.108 176.643 116.366 178.065 115.995L179.549 115.624C180.229 114.573 180.056 105.181 180.056 104.996C180.056 104.625 179.623 104.501 179.314 104.315C179.314 104.315 178.332 104.274 177 104.236M136.632 138.44C136.651 138.412 136.667 138.381 136.679 138.35C136.659 138.377 136.643 138.408 136.632 138.44ZM136.632 138.44C137.009 137.76 137.504 137.203 137.875 136.523C137.998 136.276 138.184 136.09 138.369 135.843C139.235 134.359 140.039 132.875 140.719 131.329C141.152 130.216 141.584 129.103 141.77 127.929C141.77 127.62 141.832 127.249 141.708 126.939C141.523 126.383 141.09 126.012 140.595 125.765C140.1 125.517 139.668 125.332 139.173 125.084C136.452 123.353 134.412 120.818 131.197 120.323C128.724 119.891 126.498 120.571 124.086 121.127C123.53 121.313 122.973 121.498 122.479 121.807C121.366 122.488 120.438 123.291 119.758 124.404L119.573 124.59C118.336 126.63 117.408 128.609 116.481 130.773C116.357 131.144 116.172 131.515 116.048 131.886C115.986 132.01 116.048 132.071 115.986 132.195C115.198 134.149 114.537 136.153 114.008 138.193C113.946 138.44 113.946 138.749 114.07 138.996M114.07 138.996C114.289 138.896 113.919 138.547 114.07 138.996ZM114.07 138.996C114.812 138.687 115.183 137.945 115.677 137.389C115.739 137.327 115.863 137.265 115.924 137.203C117.656 135.039 119.016 133.061 120.624 130.773C121.304 129.722 121.922 128.794 122.664 127.805C123.406 126.63 124.148 125.703 124.828 124.528C125.137 124.033 125.57 123.601 125.941 123.106C126.559 122.178 126.992 121.313 127.116 120.262C127.24 119.272 127.24 118.345 126.992 117.356C126.992 117.294 126.869 117.232 126.869 117.17C126.799 116.842 126.674 116.528 126.498 116.243C126.436 116.119 126.436 115.933 126.374 115.81C125.014 113.955 123.53 112.656 121.984 111.049C121.922 110.987 121.922 110.863 121.86 110.801C121.427 110.43 121.118 109.998 120.685 109.565C120.129 109.132 119.758 108.514 119.325 108.019C118.954 107.648 118.645 107.277 118.336 106.906C117.903 106.35 117.532 105.793 117.099 105.237C116.728 104.742 116.543 104.186 116.172 103.691C114.997 101.712 114.07 99.4864 114.812 97.2605C115.677 94.4781 117.347 91.5102 120.438 90.8919C120.438 88.8514 120.685 86.8728 121.427 84.9561C121.568 84.6345 121.733 84.3244 121.922 84.0286C123.097 81.679 125.508 80.1332 128.167 80.0096C129.342 79.9477 130.455 80.1951 131.63 80.4424C132.619 80.6279 133.546 80.7516 134.536 81.0607C135.896 81.4935 137.318 81.7409 138.678 82.2355C139.358 82.5447 140.1 82.7301 140.781 82.9775C141.894 83.4103 142.945 83.9049 144.058 84.3378C144.676 84.5232 145.232 84.8942 145.851 84.7706C146.902 84.7087 147.706 84.0904 148.757 83.8431C149.499 83.7194 150.241 83.7813 150.921 84.1523C151.601 84.5851 151.91 85.2652 152.219 85.9454C152.59 86.811 152.838 87.7385 152.776 88.6659C152.776 89.0988 152.838 89.4697 152.652 89.9026C152.281 90.83 151.663 91.6338 150.735 92.0048C150.612 92.0666 150.426 92.1285 150.303 92.1903C146.655 93.3651 142.821 92.8086 139.201 91.9294M139.201 91.9294C139.329 92.037 139.477 92.1953 139.634 92.2583C139.559 92.1211 139.349 91.9764 139.201 91.9294ZM139.201 91.9294C140.253 92.816 140.954 94.3161 140.225 95.6188C139.908 96.1865 139.411 96.6261 138.935 97.0577C138.374 97.5719 137.841 98.1162 137.338 98.6881C136.72 99.3912 136.108 100.128 135.607 100.921C135.101 100.037 134.478 99.1278 133.736 98.4216C133.055 97.629 131.757 97.1343 130.953 98C130.088 98.9274 129.902 100.288 130.088 101.524C130.335 102.823 131.139 103.874 131.819 104.925C132.561 106.904 130.768 108.511 129.222 109.439C128.171 110.119 127.058 110.923 125.821 110.428C125.079 110.057 124.585 109.439 124.09 108.82C123.41 108.017 122.853 107.275 122.42 106.347C122.359 106.162 122.111 106.038 122.049 105.853C121.431 104.43 120.875 103.07 120.627 101.524C120.325 99.9162 120.431 98.2578 120.937 96.7015C121.555 94.8466 122.853 93.4245 124.337 92.1878C126.439 90.4566 128.789 89.4673 131.262 88.6016C132.412 88.2381 133.622 87.9932 134.832 87.8096L136.733 87.6241C138.234 87.5524 139.661 87.5425 141.155 87.7378C142.516 87.9233 143.814 88.1707 145.051 88.8508C146.225 89.531 147.153 90.3966 147.709 91.5714C148.08 92.3752 148.328 93.2408 148.575 94.1065C149.132 96.085 149.626 97.94 149.873 99.9804C150.306 104.061 150.677 107.957 149.688 112.037C149.502 112.656 149.255 113.212 149.008 113.831C148.761 114.263 148.513 114.634 148.266 115.067C147.957 115.5 147.524 115.871 147.153 116.242C146.04 117.231 144.556 117.54 143.072 117.293C140.29 116.737 138.064 115.191 135.467 114.202C135.281 114.14 135.158 113.954 134.91 114.263C135.056 114.595 135.321 114.86 135.652 115.005C136.703 115.438 137.755 115.871 138.929 116.18C139.053 116.242 139.177 116.366 139.3 116.427C140.104 116.737 140.908 117.231 141.217 118.035C141.341 118.468 141.279 118.963 141.341 119.457C141.526 120.261 141.65 121.003 141.835 121.745C141.959 121.992 142.021 122.301 142.145 122.549C142.206 122.734 142.206 122.92 142.268 123.105C142.516 123.6 142.639 124.095 142.763 124.589C143.196 126.32 143.072 127.99 143.01 129.721C142.948 130.401 142.887 131.02 142.639 131.638C142.454 132.009 142.083 132.133 141.712 132.256C140.104 132.689 138.558 133.06 136.951 133.555C135.838 133.864 134.787 134.359 133.859 135.162C133.241 135.781 133.241 136.646 133.55 137.388C133.612 137.512 133.674 137.697 133.736 137.821C135.714 141.16 138.435 143.633 141.279 146.168C141.341 146.23 141.464 146.23 141.526 146.292C142.701 147.281 143.814 147.961 145.112 148.827C145.353 148.949 145.58 149.094 145.793 149.26C145.978 149.383 146.164 149.383 146.349 149.507C146.596 149.693 146.844 149.816 147.091 150.002C149.997 151.671 152.78 153.155 155.747 154.701C157.973 155.876 160.076 156.865 162.302 158.04C162.611 158.163 162.858 158.287 163.167 158.411C163.229 158.473 163.353 158.534 163.414 158.596C163.909 158.782 164.342 159.029 164.837 159.215C164.898 159.276 165.022 159.338 165.084 159.4C165.826 159.771 166.568 160.08 167.31 160.389C167.372 160.451 167.495 160.513 167.557 160.575C169.598 161.441 171.514 162.368 173.617 163.048C173.802 163.11 173.926 163.234 174.049 163.295C175.286 163.728 176.585 164.47 177.883 164.037C178.192 163.976 178.007 163.419 177.883 163.172C177.697 162.801 177.388 162.492 177.141 162.121C176.585 161.255 175.904 160.637 175.162 159.895C174.853 159.524 174.544 159.215 174.297 158.782C174.173 158.534 174.049 158.225 174.359 158.102C175.41 157.669 176.646 157.916 177.759 157.978C180.109 158.163 182.397 158.596 184.808 158.905C185.674 158.967 186.539 158.967 187.343 158.596C187.568 158.482 187.76 158.312 187.9 158.102C188.889 156.741 188.332 155.134 187.529 153.835C187.219 153.341 186.91 152.908 186.601 152.413C185.365 150.682 184.066 149.383 182.768 147.776C182.149 146.972 181.593 146.23 181.284 145.303C181.098 144.746 181.036 144.19 181.346 143.695C181.606 143.381 181.948 143.145 182.335 143.015C183.448 142.644 184.561 142.644 185.674 142.582C191.609 142.087 197.545 141.902 203.488 141.855L239.014 140.177C239.543 140.166 240.07 140.263 240.561 140.461C241.052 140.66 241.497 140.956 241.87 141.332L241.883 141.345C241.945 141.407 241.945 141.531 242.007 141.593C242.873 142.397 243.058 143.51 243.12 144.622C243.182 146.354 243.058 148.023 242.873 149.754C241.883 161.255 240.276 172.199 238.482 183.823C236.628 195.695 235.02 206.639 232.361 218.511C231.928 220.304 231.557 221.973 230.815 223.643C230.754 223.766 230.63 223.952 230.444 223.952C230.259 223.89 230.197 223.643 230.197 223.519C229.888 221.169 230.135 218.943 230.259 216.656C230.444 214.615 230.63 212.699 230.939 210.658C231.063 210.163 231.063 209.669 231.186 209.174C232.361 200.827 233.598 193.16 235.515 184.875C235.824 183.576 236.009 182.339 236.318 181.041C236.318 180.979 236.442 180.856 236.442 180.794C237.864 174.858 239.163 169.293 241.821 163.852C242.254 162.986 242.625 162.121 243.367 161.441C243.676 161.193 243.985 160.884 244.356 160.699C246.892 159.647 249.303 158.782 252.085 158.163C255.115 157.545 258.145 157.051 260.927 158.72C261.051 158.844 261.175 158.905 261.36 159.029C262.386 159.864 263.104 161.017 263.4 162.306C263.462 164.408 263.215 166.511 263.029 168.613C262.844 169.911 262.658 171.148 262.473 172.446C262.102 174.301 261.855 175.971 261.422 177.826C259.876 184.133 258.701 190.006 257.032 196.251C256.043 199.714 255.177 203.053 254.126 206.515C253.507 208.494 252.889 210.349 252.333 212.328C251.591 214.739 250.849 217.027 249.921 219.314C249.241 220.984 248.623 222.591 247.695 224.199C247.448 224.57 247.077 224.941 246.644 224.941C241.018 225.374 235.391 225.127 229.764 225.188C219.748 225.312 209.669 225.312 199.653 225.188C192.789 225.127 185.864 225.127 179.001 225.065C170.777 225.003 162.554 224.941 154.33 224.817C146.54 224.694 138.749 224.632 130.958 224.446C122.982 224.261 115.006 224.137 106.968 223.828C102.763 223.643 98.5587 223.519 94.2924 223.272C92.6229 223.148 90.9535 223.024 89.2841 222.53C89.0986 222.468 88.9131 222.282 88.7894 222.159C87.8001 220.675 86.9345 219.376 85.8833 217.954C85.8215 217.831 85.8215 217.769 85.7597 217.645C85.1414 216.841 84.6467 216.037 84.1521 215.234C83.5338 214.306 83.1628 213.44 82.6063 212.513C82.5445 212.451 82.6063 212.328 82.5445 212.266C82.1735 211.586 81.8643 210.905 81.9262 210.102C81.988 209.731 82.4208 209.545 82.73 209.669C83.6723 210.087 84.6733 210.358 85.6979 210.473C92.4374 211.091 99.0534 211.215 105.793 211.4C111.976 211.586 118.097 211.586 124.28 211.709C129.165 211.833 133.988 211.771 138.873 211.833C149.508 211.957 160.143 211.895 170.777 211.895C179.619 211.833 188.399 211.771 197.241 211.647C206.949 211.524 216.594 211.4 226.302 210.782C226.487 210.782 226.673 210.658 226.858 210.658C227.477 210.658 228.033 210.473 228.651 210.473C228.775 210.473 228.837 210.349 228.899 210.225C229.393 208.803 229.888 207.443 229.888 205.959C229.888 205.897 229.764 205.897 229.702 205.897C229.579 205.959 229.517 206.144 229.455 206.206C228.28 208.432 227.477 210.658 226.796 213.07C225.993 215.543 225.436 218.016 225.622 220.613C225.622 220.922 225.622 221.293 225.745 221.602L226.116 222.53C226.487 223.148 226.982 223.643 227.662 223.89C228.59 224.137 229.517 224.137 230.444 224.261C236.875 224.694 243.305 224.756 249.736 224.879C259.258 225.065 268.842 225.065 278.364 225.127C292.894 225.25 307.362 225.188 321.872 225.188M177 104.236C177.177 104.991 177.326 106.5 176.5 106.5C175.468 106.5 171.634 107.347 173.067 104.173M177 104.236C175.818 104.202 174.36 104.171 173.067 104.173" stroke="#111113" stroke-linecap="round" stroke-linejoin="round"/>
</g>
<defs>
<linearGradient id="paint0_linear_131_8508" x1="155.5" y1="0" x2="155.5" y2="311" gradientUnits="userSpaceOnUse">
<stop stop-color="#C4C4C4" stop-opacity="0"/>
<stop offset="0.0884102" stop-color="#C4C4C4"/>
<stop offset="0.914586" stop-color="#C4C4C4"/>
<stop offset="1" stop-color="#C4C4C4" stop-opacity="0"/>
</linearGradient>
<linearGradient id="paint1_linear_131_8508" x1="311" y1="155.5" x2="2.50853e-05" y2="155.5" gradientUnits="userSpaceOnUse">
<stop stop-color="#C4C4C4" stop-opacity="0"/>
<stop offset="0.0967224" stop-color="#C4C4C4"/>
<stop offset="0.901883" stop-color="#C4C4C4"/>
<stop offset="1" stop-color="#C4C4C4" stop-opacity="0"/>
</linearGradient>
</defs>
</svg>
