<svg width="311" height="311" viewBox="0 0 311 311" fill="none" xmlns="http://www.w3.org/2000/svg">
<g opacity="0.5">
<path d="M30.2251 2.50806C30.2251 3.06035 30.6728 3.50806 31.2251 3.50806C31.7774 3.50806 32.2251 3.06035 32.2251 2.50806H30.2251ZM32.2251 7.52419C32.2251 6.97191 31.7774 6.52419 31.2251 6.52419C30.6728 6.52419 30.2251 6.97191 30.2251 7.52419H32.2251ZM30.2251 12.5403C30.2251 13.0926 30.6728 13.5403 31.2251 13.5403C31.7774 13.5403 32.2251 13.0926 32.2251 12.5403H30.2251ZM32.2251 17.5565C32.2251 17.0042 31.7774 16.5565 31.2251 16.5565C30.6728 16.5565 30.2251 17.0042 30.2251 17.5565H32.2251ZM30.2251 22.5726C30.2251 23.1249 30.6728 23.5726 31.2251 23.5726C31.7774 23.5726 32.2251 23.1249 32.2251 22.5726H30.2251ZM32.2251 27.5887C32.2251 27.0364 31.7774 26.5887 31.2251 26.5887C30.6728 26.5887 30.2251 27.0364 30.2251 27.5887H32.2251ZM30.2251 32.6048C30.2251 33.1571 30.6728 33.6048 31.2251 33.6048C31.7774 33.6048 32.2251 33.1571 32.2251 32.6048H30.2251ZM32.2251 37.621C32.2251 37.0687 31.7774 36.621 31.2251 36.621C30.6728 36.621 30.2251 37.0687 30.2251 37.621H32.2251ZM30.2251 42.6371C30.2251 43.1894 30.6728 43.6371 31.2251 43.6371C31.7774 43.6371 32.2251 43.1894 32.2251 42.6371H30.2251ZM32.2251 47.6532C32.2251 47.1009 31.7774 46.6532 31.2251 46.6532C30.6728 46.6532 30.2251 47.1009 30.2251 47.6532H32.2251ZM30.2251 52.6694C30.2251 53.2216 30.6728 53.6694 31.2251 53.6694C31.7774 53.6694 32.2251 53.2216 32.2251 52.6694H30.2251ZM32.2251 57.6855C32.2251 57.1332 31.7774 56.6855 31.2251 56.6855C30.6728 56.6855 30.2251 57.1332 30.2251 57.6855H32.2251ZM30.2251 62.7016C30.2251 63.2539 30.6728 63.7016 31.2251 63.7016C31.7774 63.7016 32.2251 63.2539 32.2251 62.7016H30.2251ZM32.2251 67.7177C32.2251 67.1655 31.7774 66.7177 31.2251 66.7177C30.6728 66.7177 30.2251 67.1655 30.2251 67.7177H32.2251ZM30.2251 72.7339C30.2251 73.2862 30.6728 73.7339 31.2251 73.7339C31.7774 73.7339 32.2251 73.2862 32.2251 72.7339H30.2251ZM32.2251 77.75C32.2251 77.1977 31.7774 76.75 31.2251 76.75C30.6728 76.75 30.2251 77.1977 30.2251 77.75H32.2251ZM30.2251 82.7661C30.2251 83.3184 30.6728 83.7661 31.2251 83.7661C31.7774 83.7661 32.2251 83.3184 32.2251 82.7661H30.2251ZM32.2251 87.7823C32.2251 87.23 31.7774 86.7823 31.2251 86.7823C30.6728 86.7823 30.2251 87.23 30.2251 87.7823H32.2251ZM30.2251 92.7984C30.2251 93.3507 30.6728 93.7984 31.2251 93.7984C31.7774 93.7984 32.2251 93.3507 32.2251 92.7984H30.2251ZM32.2251 97.8145C32.2251 97.2622 31.7774 96.8145 31.2251 96.8145C30.6728 96.8145 30.2251 97.2622 30.2251 97.8145H32.2251ZM30.2251 102.831C30.2251 103.383 30.6728 103.831 31.2251 103.831C31.7774 103.831 32.2251 103.383 32.2251 102.831H30.2251ZM32.2251 107.847C32.2251 107.294 31.7774 106.847 31.2251 106.847C30.6728 106.847 30.2251 107.294 30.2251 107.847H32.2251ZM30.2251 112.863C30.2251 113.415 30.6728 113.863 31.2251 113.863C31.7774 113.863 32.2251 113.415 32.2251 112.863H30.2251ZM32.2251 117.879C32.2251 117.327 31.7774 116.879 31.2251 116.879C30.6728 116.879 30.2251 117.327 30.2251 117.879H32.2251ZM30.2251 122.895C30.2251 123.447 30.6728 123.895 31.2251 123.895C31.7774 123.895 32.2251 123.447 32.2251 122.895H30.2251ZM32.2251 127.911C32.2251 127.359 31.7774 126.911 31.2251 126.911C30.6728 126.911 30.2251 127.359 30.2251 127.911H32.2251ZM30.2251 132.927C30.2251 133.48 30.6728 133.927 31.2251 133.927C31.7774 133.927 32.2251 133.48 32.2251 132.927H30.2251ZM32.2251 137.944C32.2251 137.391 31.7774 136.944 31.2251 136.944C30.6728 136.944 30.2251 137.391 30.2251 137.944H32.2251ZM30.2251 142.96C30.2251 143.512 30.6728 143.96 31.2251 143.96C31.7774 143.96 32.2251 143.512 32.2251 142.96H30.2251ZM32.2251 147.976C32.2251 147.424 31.7774 146.976 31.2251 146.976C30.6728 146.976 30.2251 147.424 30.2251 147.976H32.2251ZM30.2251 152.992C30.2251 153.544 30.6728 153.992 31.2251 153.992C31.7774 153.992 32.2251 153.544 32.2251 152.992H30.2251ZM32.2251 158.008C32.2251 157.456 31.7774 157.008 31.2251 157.008C30.6728 157.008 30.2251 157.456 30.2251 158.008H32.2251ZM30.2251 163.024C30.2251 163.576 30.6728 164.024 31.2251 164.024C31.7774 164.024 32.2251 163.576 32.2251 163.024H30.2251ZM32.2251 168.04C32.2251 167.488 31.7774 167.04 31.2251 167.04C30.6728 167.04 30.2251 167.488 30.2251 168.04H32.2251ZM30.2251 173.056C30.2251 173.609 30.6728 174.056 31.2251 174.056C31.7774 174.056 32.2251 173.609 32.2251 173.056H30.2251ZM32.2251 178.073C32.2251 177.52 31.7774 177.073 31.2251 177.073C30.6728 177.073 30.2251 177.52 30.2251 178.073H32.2251ZM30.2251 183.089C30.2251 183.641 30.6728 184.089 31.2251 184.089C31.7774 184.089 32.2251 183.641 32.2251 183.089H30.2251ZM32.2251 188.105C32.2251 187.553 31.7774 187.105 31.2251 187.105C30.6728 187.105 30.2251 187.553 30.2251 188.105H32.2251ZM30.2251 193.121C30.2251 193.673 30.6728 194.121 31.2251 194.121C31.7774 194.121 32.2251 193.673 32.2251 193.121H30.2251ZM32.2251 198.137C32.2251 197.585 31.7774 197.137 31.2251 197.137C30.6728 197.137 30.2251 197.585 30.2251 198.137H32.2251ZM30.2251 203.153C30.2251 203.706 30.6728 204.153 31.2251 204.153C31.7774 204.153 32.2251 203.706 32.2251 203.153H30.2251ZM32.2251 208.169C32.2251 207.617 31.7774 207.169 31.2251 207.169C30.6728 207.169 30.2251 207.617 30.2251 208.169H32.2251ZM30.2251 213.185C30.2251 213.738 30.6728 214.185 31.2251 214.185C31.7774 214.185 32.2251 213.738 32.2251 213.185H30.2251ZM32.2251 218.202C32.2251 217.649 31.7774 217.202 31.2251 217.202C30.6728 217.202 30.2251 217.649 30.2251 218.202H32.2251ZM30.2251 223.218C30.2251 223.77 30.6728 224.218 31.2251 224.218C31.7774 224.218 32.2251 223.77 32.2251 223.218H30.2251ZM32.2251 228.234C32.2251 227.682 31.7774 227.234 31.2251 227.234C30.6728 227.234 30.2251 227.682 30.2251 228.234H32.2251ZM30.2251 233.25C30.2251 233.802 30.6728 234.25 31.2251 234.25C31.7774 234.25 32.2251 233.802 32.2251 233.25H30.2251ZM32.2251 238.266C32.2251 237.714 31.7774 237.266 31.2251 237.266C30.6728 237.266 30.2251 237.714 30.2251 238.266H32.2251ZM30.2251 243.282C30.2251 243.835 30.6728 244.282 31.2251 244.282C31.7774 244.282 32.2251 243.835 32.2251 243.282H30.2251ZM32.2251 248.298C32.2251 247.746 31.7774 247.298 31.2251 247.298C30.6728 247.298 30.2251 247.746 30.2251 248.298H32.2251ZM30.2251 253.314C30.2251 253.867 30.6728 254.314 31.2251 254.314C31.7774 254.314 32.2251 253.867 32.2251 253.314H30.2251ZM32.2251 258.331C32.2251 257.778 31.7774 257.331 31.2251 257.331C30.6728 257.331 30.2251 257.778 30.2251 258.331H32.2251ZM30.2251 263.347C30.2251 263.899 30.6728 264.347 31.2251 264.347C31.7774 264.347 32.2251 263.899 32.2251 263.347H30.2251ZM32.2251 268.363C32.2251 267.811 31.7774 267.363 31.2251 267.363C30.6728 267.363 30.2251 267.811 30.2251 268.363H32.2251ZM30.2251 273.379C30.2251 273.931 30.6728 274.379 31.2251 274.379C31.7774 274.379 32.2251 273.931 32.2251 273.379H30.2251ZM32.2251 278.395C32.2251 277.843 31.7774 277.395 31.2251 277.395C30.6728 277.395 30.2251 277.843 30.2251 278.395H32.2251ZM30.2251 283.411C30.2251 283.964 30.6728 284.411 31.2251 284.411C31.7774 284.411 32.2251 283.964 32.2251 283.411H30.2251ZM32.2251 288.427C32.2251 287.875 31.7774 287.427 31.2251 287.427C30.6728 287.427 30.2251 287.875 30.2251 288.427H32.2251ZM30.2251 293.444C30.2251 293.996 30.6728 294.444 31.2251 294.444C31.7774 294.444 32.2251 293.996 32.2251 293.444H30.2251ZM32.2251 298.46C32.2251 297.908 31.7774 297.46 31.2251 297.46C30.6728 297.46 30.2251 297.908 30.2251 298.46H32.2251ZM30.2251 303.476C30.2251 304.028 30.6728 304.476 31.2251 304.476C31.7774 304.476 32.2251 304.028 32.2251 303.476H30.2251ZM32.2251 308.492C32.2251 307.94 31.7774 307.492 31.2251 307.492C30.6728 307.492 30.2251 307.94 30.2251 308.492H32.2251ZM278.775 2.50806C278.775 3.06035 279.223 3.50806 279.775 3.50806C280.328 3.50806 280.775 3.06035 280.775 2.50806H278.775ZM280.775 7.52419C280.775 6.97191 280.328 6.52419 279.775 6.52419C279.223 6.52419 278.775 6.97191 278.775 7.52419H280.775ZM278.775 12.5403C278.775 13.0926 279.223 13.5403 279.775 13.5403C280.328 13.5403 280.775 13.0926 280.775 12.5403H278.775ZM280.775 17.5565C280.775 17.0042 280.328 16.5565 279.775 16.5565C279.223 16.5565 278.775 17.0042 278.775 17.5565H280.775ZM278.775 22.5726C278.775 23.1249 279.223 23.5726 279.775 23.5726C280.328 23.5726 280.775 23.1249 280.775 22.5726H278.775ZM280.775 27.5887C280.775 27.0364 280.328 26.5887 279.775 26.5887C279.223 26.5887 278.775 27.0364 278.775 27.5887H280.775ZM278.775 32.6048C278.775 33.1571 279.223 33.6048 279.775 33.6048C280.328 33.6048 280.775 33.1571 280.775 32.6048H278.775ZM280.775 37.621C280.775 37.0687 280.328 36.621 279.775 36.621C279.223 36.621 278.775 37.0687 278.775 37.621H280.775ZM278.775 42.6371C278.775 43.1894 279.223 43.6371 279.775 43.6371C280.328 43.6371 280.775 43.1894 280.775 42.6371H278.775ZM280.775 47.6532C280.775 47.1009 280.328 46.6532 279.775 46.6532C279.223 46.6532 278.775 47.1009 278.775 47.6532H280.775ZM278.775 52.6694C278.775 53.2216 279.223 53.6694 279.775 53.6694C280.328 53.6694 280.775 53.2216 280.775 52.6694H278.775ZM280.775 57.6855C280.775 57.1332 280.328 56.6855 279.775 56.6855C279.223 56.6855 278.775 57.1332 278.775 57.6855H280.775ZM278.775 62.7016C278.775 63.2539 279.223 63.7016 279.775 63.7016C280.328 63.7016 280.775 63.2539 280.775 62.7016H278.775ZM280.775 67.7177C280.775 67.1655 280.328 66.7177 279.775 66.7177C279.223 66.7177 278.775 67.1655 278.775 67.7177H280.775ZM278.775 72.7339C278.775 73.2862 279.223 73.7339 279.775 73.7339C280.328 73.7339 280.775 73.2862 280.775 72.7339H278.775ZM280.775 77.75C280.775 77.1977 280.328 76.75 279.775 76.75C279.223 76.75 278.775 77.1977 278.775 77.75H280.775ZM278.775 82.7661C278.775 83.3184 279.223 83.7661 279.775 83.7661C280.328 83.7661 280.775 83.3184 280.775 82.7661H278.775ZM280.775 87.7823C280.775 87.23 280.328 86.7823 279.775 86.7823C279.223 86.7823 278.775 87.23 278.775 87.7823H280.775ZM278.775 92.7984C278.775 93.3507 279.223 93.7984 279.775 93.7984C280.328 93.7984 280.775 93.3507 280.775 92.7984H278.775ZM280.775 97.8145C280.775 97.2622 280.328 96.8145 279.775 96.8145C279.223 96.8145 278.775 97.2622 278.775 97.8145H280.775ZM278.775 102.831C278.775 103.383 279.223 103.831 279.775 103.831C280.328 103.831 280.775 103.383 280.775 102.831H278.775ZM280.775 107.847C280.775 107.294 280.328 106.847 279.775 106.847C279.223 106.847 278.775 107.294 278.775 107.847H280.775ZM278.775 112.863C278.775 113.415 279.223 113.863 279.775 113.863C280.328 113.863 280.775 113.415 280.775 112.863H278.775ZM280.775 117.879C280.775 117.327 280.328 116.879 279.775 116.879C279.223 116.879 278.775 117.327 278.775 117.879H280.775ZM278.775 122.895C278.775 123.447 279.223 123.895 279.775 123.895C280.328 123.895 280.775 123.447 280.775 122.895H278.775ZM280.775 127.911C280.775 127.359 280.328 126.911 279.775 126.911C279.223 126.911 278.775 127.359 278.775 127.911H280.775ZM278.775 132.927C278.775 133.48 279.223 133.927 279.775 133.927C280.328 133.927 280.775 133.48 280.775 132.927H278.775ZM280.775 137.944C280.775 137.391 280.328 136.944 279.775 136.944C279.223 136.944 278.775 137.391 278.775 137.944H280.775ZM278.775 142.96C278.775 143.512 279.223 143.96 279.775 143.96C280.328 143.96 280.775 143.512 280.775 142.96H278.775ZM280.775 147.976C280.775 147.424 280.328 146.976 279.775 146.976C279.223 146.976 278.775 147.424 278.775 147.976H280.775ZM278.775 152.992C278.775 153.544 279.223 153.992 279.775 153.992C280.328 153.992 280.775 153.544 280.775 152.992H278.775ZM280.775 158.008C280.775 157.456 280.328 157.008 279.775 157.008C279.223 157.008 278.775 157.456 278.775 158.008H280.775ZM278.775 163.024C278.775 163.576 279.223 164.024 279.775 164.024C280.328 164.024 280.775 163.576 280.775 163.024H278.775ZM280.775 168.04C280.775 167.488 280.328 167.04 279.775 167.04C279.223 167.04 278.775 167.488 278.775 168.04H280.775ZM278.775 173.056C278.775 173.609 279.223 174.056 279.775 174.056C280.328 174.056 280.775 173.609 280.775 173.056H278.775ZM280.775 178.073C280.775 177.52 280.328 177.073 279.775 177.073C279.223 177.073 278.775 177.52 278.775 178.073H280.775ZM278.775 183.089C278.775 183.641 279.223 184.089 279.775 184.089C280.328 184.089 280.775 183.641 280.775 183.089H278.775ZM280.775 188.105C280.775 187.553 280.328 187.105 279.775 187.105C279.223 187.105 278.775 187.553 278.775 188.105H280.775ZM278.775 193.121C278.775 193.673 279.223 194.121 279.775 194.121C280.328 194.121 280.775 193.673 280.775 193.121H278.775ZM280.775 198.137C280.775 197.585 280.328 197.137 279.775 197.137C279.223 197.137 278.775 197.585 278.775 198.137H280.775ZM278.775 203.153C278.775 203.706 279.223 204.153 279.775 204.153C280.328 204.153 280.775 203.706 280.775 203.153H278.775ZM280.775 208.169C280.775 207.617 280.328 207.169 279.775 207.169C279.223 207.169 278.775 207.617 278.775 208.169H280.775ZM278.775 213.185C278.775 213.738 279.223 214.185 279.775 214.185C280.328 214.185 280.775 213.738 280.775 213.185H278.775ZM280.775 218.202C280.775 217.649 280.328 217.202 279.775 217.202C279.223 217.202 278.775 217.649 278.775 218.202H280.775ZM278.775 223.218C278.775 223.77 279.223 224.218 279.775 224.218C280.328 224.218 280.775 223.77 280.775 223.218H278.775ZM280.775 228.234C280.775 227.682 280.328 227.234 279.775 227.234C279.223 227.234 278.775 227.682 278.775 228.234H280.775ZM278.775 233.25C278.775 233.802 279.223 234.25 279.775 234.25C280.328 234.25 280.775 233.802 280.775 233.25H278.775ZM280.775 238.266C280.775 237.714 280.328 237.266 279.775 237.266C279.223 237.266 278.775 237.714 278.775 238.266H280.775ZM278.775 243.282C278.775 243.835 279.223 244.282 279.775 244.282C280.328 244.282 280.775 243.835 280.775 243.282H278.775ZM280.775 248.298C280.775 247.746 280.328 247.298 279.775 247.298C279.223 247.298 278.775 247.746 278.775 248.298H280.775ZM278.775 253.314C278.775 253.867 279.223 254.314 279.775 254.314C280.328 254.314 280.775 253.867 280.775 253.314H278.775ZM280.775 258.331C280.775 257.778 280.328 257.331 279.775 257.331C279.223 257.331 278.775 257.778 278.775 258.331H280.775ZM278.775 263.347C278.775 263.899 279.223 264.347 279.775 264.347C280.328 264.347 280.775 263.899 280.775 263.347H278.775ZM280.775 268.363C280.775 267.811 280.328 267.363 279.775 267.363C279.223 267.363 278.775 267.811 278.775 268.363H280.775ZM278.775 273.379C278.775 273.931 279.223 274.379 279.775 274.379C280.328 274.379 280.775 273.931 280.775 273.379H278.775ZM280.775 278.395C280.775 277.843 280.328 277.395 279.775 277.395C279.223 277.395 278.775 277.843 278.775 278.395H280.775ZM278.775 283.411C278.775 283.964 279.223 284.411 279.775 284.411C280.328 284.411 280.775 283.964 280.775 283.411H278.775ZM280.775 288.427C280.775 287.875 280.328 287.427 279.775 287.427C279.223 287.427 278.775 287.875 278.775 288.427H280.775ZM278.775 293.444C278.775 293.996 279.223 294.444 279.775 294.444C280.328 294.444 280.775 293.996 280.775 293.444H278.775ZM280.775 298.46C280.775 297.908 280.328 297.46 279.775 297.46C279.223 297.46 278.775 297.908 278.775 298.46H280.775ZM278.775 303.476C278.775 304.028 279.223 304.476 279.775 304.476C280.328 304.476 280.775 304.028 280.775 303.476H278.775ZM280.775 308.492C280.775 307.94 280.328 307.492 279.775 307.492C279.223 307.492 278.775 307.94 278.775 308.492H280.775ZM30.2251 0V2.50806H32.2251V0H30.2251ZM30.2251 7.52419V12.5403H32.2251V7.52419H30.2251ZM30.2251 17.5565V22.5726H32.2251V17.5565H30.2251ZM30.2251 27.5887V32.6048H32.2251V27.5887H30.2251ZM30.2251 37.621V42.6371H32.2251V37.621H30.2251ZM30.2251 47.6532V52.6694H32.2251V47.6532H30.2251ZM30.2251 57.6855V62.7016H32.2251V57.6855H30.2251ZM30.2251 67.7177V72.7339H32.2251V67.7177H30.2251ZM30.2251 77.75V82.7661H32.2251V77.75H30.2251ZM30.2251 87.7823V92.7984H32.2251V87.7823H30.2251ZM30.2251 97.8145V102.831H32.2251V97.8145H30.2251ZM30.2251 107.847V112.863H32.2251V107.847H30.2251ZM30.2251 117.879V122.895H32.2251V117.879H30.2251ZM30.2251 127.911V132.927H32.2251V127.911H30.2251ZM30.2251 137.944V142.96H32.2251V137.944H30.2251ZM30.2251 147.976V152.992H32.2251V147.976H30.2251ZM30.2251 158.008V163.024H32.2251V158.008H30.2251ZM30.2251 168.04V173.056H32.2251V168.04H30.2251ZM30.2251 178.073V183.089H32.2251V178.073H30.2251ZM30.2251 188.105V193.121H32.2251V188.105H30.2251ZM30.2251 198.137V203.153H32.2251V198.137H30.2251ZM30.2251 208.169V213.185H32.2251V208.169H30.2251ZM30.2251 218.202V223.218H32.2251V218.202H30.2251ZM30.2251 228.234V233.25H32.2251V228.234H30.2251ZM30.2251 238.266V243.282H32.2251V238.266H30.2251ZM30.2251 248.298V253.314H32.2251V248.298H30.2251ZM30.2251 258.331V263.347H32.2251V258.331H30.2251ZM30.2251 268.363V273.379H32.2251V268.363H30.2251ZM30.2251 278.395V283.411H32.2251V278.395H30.2251ZM30.2251 288.427V293.444H32.2251V288.427H30.2251ZM30.2251 298.46V303.476H32.2251V298.46H30.2251ZM30.2251 308.492V311H32.2251V308.492H30.2251ZM278.775 0V2.50806H280.775V0H278.775ZM278.775 7.52419V12.5403H280.775V7.52419H278.775ZM278.775 17.5565V22.5726H280.775V17.5565H278.775ZM278.775 27.5887V32.6048H280.775V27.5887H278.775ZM278.775 37.621V42.6371H280.775V37.621H278.775ZM278.775 47.6532V52.6694H280.775V47.6532H278.775ZM278.775 57.6855V62.7016H280.775V57.6855H278.775ZM278.775 67.7177V72.7339H280.775V67.7177H278.775ZM278.775 77.75V82.7661H280.775V77.75H278.775ZM278.775 87.7823V92.7984H280.775V87.7823H278.775ZM278.775 97.8145V102.831H280.775V97.8145H278.775ZM278.775 107.847V112.863H280.775V107.847H278.775ZM278.775 117.879V122.895H280.775V117.879H278.775ZM278.775 127.911V132.927H280.775V127.911H278.775ZM278.775 137.944V142.96H280.775V137.944H278.775ZM278.775 147.976V152.992H280.775V147.976H278.775ZM278.775 158.008V163.024H280.775V158.008H278.775ZM278.775 168.04V173.056H280.775V168.04H278.775ZM278.775 178.073V183.089H280.775V178.073H278.775ZM278.775 188.105V193.121H280.775V188.105H278.775ZM278.775 198.137V203.153H280.775V198.137H278.775ZM278.775 208.169V213.185H280.775V208.169H278.775ZM278.775 218.202V223.218H280.775V218.202H278.775ZM278.775 228.234V233.25H280.775V228.234H278.775ZM278.775 238.266V243.282H280.775V238.266H278.775ZM278.775 248.298V253.314H280.775V248.298H278.775ZM278.775 258.331V263.347H280.775V258.331H278.775ZM278.775 268.363V273.379H280.775V268.363H278.775ZM278.775 278.395V283.411H280.775V278.395H278.775ZM278.775 288.427V293.444H280.775V288.427H278.775ZM278.775 298.46V303.476H280.775V298.46H278.775ZM278.775 308.492V311H280.775V308.492H278.775Z" fill="url(#paint0_linear_131_8525)"/>
<path d="M308.492 30.2249C307.94 30.2249 307.492 30.6726 307.492 31.2249C307.492 31.7772 307.94 32.2249 308.492 32.2249L308.492 30.2249ZM303.476 32.2249C304.028 32.2249 304.476 31.7772 304.476 31.2249C304.476 30.6726 304.028 30.2249 303.476 30.2249L303.476 32.2249ZM298.46 30.2249C297.907 30.2249 297.46 30.6726 297.46 31.2249C297.46 31.7772 297.907 32.2249 298.46 32.2249L298.46 30.2249ZM293.444 32.2249C293.996 32.2249 294.444 31.7772 294.444 31.2249C294.444 30.6726 293.996 30.2249 293.444 30.2249L293.444 32.2249ZM288.427 30.2249C287.875 30.2249 287.427 30.6726 287.427 31.2249C287.427 31.7772 287.875 32.2249 288.427 32.2249L288.427 30.2249ZM283.411 32.2249C283.964 32.2249 284.411 31.7772 284.411 31.2249C284.411 30.6726 283.964 30.2249 283.411 30.2249L283.411 32.2249ZM278.395 30.2249C277.843 30.2249 277.395 30.6726 277.395 31.2249C277.395 31.7772 277.843 32.2249 278.395 32.2249L278.395 30.2249ZM273.379 32.2249C273.931 32.2249 274.379 31.7772 274.379 31.2249C274.379 30.6726 273.931 30.2249 273.379 30.2249L273.379 32.2249ZM268.363 30.2249C267.811 30.2249 267.363 30.6726 267.363 31.2249C267.363 31.7772 267.811 32.2249 268.363 32.2249L268.363 30.2249ZM263.347 32.2249C263.899 32.2249 264.347 31.7772 264.347 31.2249C264.347 30.6726 263.899 30.2249 263.347 30.2249L263.347 32.2249ZM258.331 30.2249C257.778 30.2249 257.331 30.6726 257.331 31.2249C257.331 31.7772 257.778 32.2249 258.331 32.2249L258.331 30.2249ZM253.315 32.2249C253.867 32.2249 254.315 31.7772 254.315 31.2249C254.315 30.6726 253.867 30.2249 253.315 30.2249L253.315 32.2249ZM248.298 30.2249C247.746 30.2249 247.298 30.6726 247.298 31.2249C247.298 31.7772 247.746 32.2249 248.298 32.2249L248.298 30.2249ZM243.282 32.2249C243.835 32.2249 244.282 31.7772 244.282 31.2249C244.282 30.6726 243.835 30.2249 243.282 30.2249L243.282 32.2249ZM238.266 30.2249C237.714 30.2249 237.266 30.6726 237.266 31.2249C237.266 31.7772 237.714 32.2249 238.266 32.2249L238.266 30.2249ZM233.25 32.2249C233.802 32.2249 234.25 31.7772 234.25 31.2249C234.25 30.6726 233.802 30.2249 233.25 30.2249L233.25 32.2249ZM228.234 30.2249C227.682 30.2249 227.234 30.6726 227.234 31.2249C227.234 31.7772 227.682 32.2249 228.234 32.2249L228.234 30.2249ZM223.218 32.2249C223.77 32.2249 224.218 31.7772 224.218 31.2249C224.218 30.6726 223.77 30.2249 223.218 30.2249L223.218 32.2249ZM218.202 30.2249C217.649 30.2249 217.202 30.6726 217.202 31.2249C217.202 31.7772 217.649 32.2249 218.202 32.2249L218.202 30.2249ZM213.185 32.2249C213.738 32.2249 214.185 31.7772 214.185 31.2249C214.185 30.6726 213.738 30.2249 213.185 30.2249L213.185 32.2249ZM208.169 30.2249C207.617 30.2249 207.169 30.6726 207.169 31.2249C207.169 31.7772 207.617 32.2249 208.169 32.2249L208.169 30.2249ZM203.153 32.2249C203.706 32.2249 204.153 31.7772 204.153 31.2249C204.153 30.6726 203.706 30.2249 203.153 30.2249L203.153 32.2249ZM198.137 30.2249C197.585 30.2249 197.137 30.6726 197.137 31.2249C197.137 31.7772 197.585 32.2249 198.137 32.2249L198.137 30.2249ZM193.121 32.2249C193.673 32.2249 194.121 31.7772 194.121 31.2249C194.121 30.6726 193.673 30.2249 193.121 30.2249L193.121 32.2249ZM188.105 30.2249C187.553 30.2249 187.105 30.6726 187.105 31.2249C187.105 31.7772 187.553 32.2249 188.105 32.2249L188.105 30.2249ZM183.089 32.2249C183.641 32.2249 184.089 31.7772 184.089 31.2249C184.089 30.6726 183.641 30.2249 183.089 30.2249L183.089 32.2249ZM178.073 30.2249C177.52 30.2249 177.073 30.6726 177.073 31.2249C177.073 31.7772 177.52 32.2249 178.073 32.2249L178.073 30.2249ZM173.056 32.2249C173.609 32.2249 174.056 31.7772 174.056 31.2249C174.056 30.6726 173.609 30.2249 173.056 30.2249L173.056 32.2249ZM168.04 30.2249C167.488 30.2249 167.04 30.6726 167.04 31.2249C167.04 31.7772 167.488 32.2249 168.04 32.2249L168.04 30.2249ZM163.024 32.2249C163.577 32.2249 164.024 31.7772 164.024 31.2249C164.024 30.6726 163.577 30.2249 163.024 30.2249L163.024 32.2249ZM158.008 30.2249C157.456 30.2249 157.008 30.6726 157.008 31.2249C157.008 31.7772 157.456 32.2249 158.008 32.2249L158.008 30.2249ZM152.992 32.2249C153.544 32.2249 153.992 31.7772 153.992 31.2249C153.992 30.6726 153.544 30.2249 152.992 30.2249L152.992 32.2249ZM147.976 30.2249C147.424 30.2249 146.976 30.6726 146.976 31.2249C146.976 31.7772 147.424 32.2249 147.976 32.2249L147.976 30.2249ZM142.96 32.2249C143.512 32.2249 143.96 31.7772 143.96 31.2249C143.96 30.6726 143.512 30.2249 142.96 30.2249L142.96 32.2249ZM137.944 30.2249C137.391 30.2249 136.944 30.6726 136.944 31.2249C136.944 31.7772 137.391 32.2249 137.944 32.2249L137.944 30.2249ZM132.927 32.2249C133.48 32.2249 133.927 31.7772 133.927 31.2249C133.927 30.6726 133.48 30.2249 132.927 30.2249L132.927 32.2249ZM127.911 30.2249C127.359 30.2249 126.911 30.6726 126.911 31.2249C126.911 31.7772 127.359 32.2249 127.911 32.2249L127.911 30.2249ZM122.895 32.2249C123.447 32.2249 123.895 31.7772 123.895 31.2249C123.895 30.6726 123.447 30.2249 122.895 30.2249L122.895 32.2249ZM117.879 30.2249C117.327 30.2249 116.879 30.6726 116.879 31.2249C116.879 31.7772 117.327 32.2249 117.879 32.2249L117.879 30.2249ZM112.863 32.2249C113.415 32.2249 113.863 31.7772 113.863 31.2249C113.863 30.6726 113.415 30.2249 112.863 30.2249L112.863 32.2249ZM107.847 30.2249C107.295 30.2249 106.847 30.6726 106.847 31.2249C106.847 31.7772 107.295 32.2249 107.847 32.2249L107.847 30.2249ZM102.831 32.2249C103.383 32.2249 103.831 31.7772 103.831 31.2249C103.831 30.6726 103.383 30.2249 102.831 30.2249L102.831 32.2249ZM97.8145 30.2249C97.2623 30.2249 96.8145 30.6726 96.8145 31.2249C96.8145 31.7772 97.2623 32.2249 97.8145 32.2249L97.8145 30.2249ZM92.7984 32.2249C93.3507 32.2249 93.7984 31.7772 93.7984 31.2249C93.7984 30.6726 93.3507 30.2249 92.7984 30.2249L92.7984 32.2249ZM87.7823 30.2249C87.23 30.2249 86.7823 30.6726 86.7823 31.2249C86.7823 31.7772 87.23 32.2249 87.7823 32.2249L87.7823 30.2249ZM82.7662 32.2249C83.3185 32.2249 83.7662 31.7772 83.7662 31.2249C83.7662 30.6726 83.3185 30.2249 82.7662 30.2249L82.7662 32.2249ZM77.75 30.2249C77.1977 30.2249 76.75 30.6726 76.75 31.2249C76.75 31.7772 77.1977 32.2249 77.75 32.2249L77.75 30.2249ZM72.7339 32.2249C73.2862 32.2249 73.7339 31.7772 73.7339 31.2249C73.7339 30.6726 73.2862 30.2249 72.7339 30.2249L72.7339 32.2249ZM67.7178 30.2249C67.1655 30.2249 66.7178 30.6726 66.7178 31.2249C66.7178 31.7772 67.1655 32.2249 67.7178 32.2249L67.7178 30.2249ZM62.7017 32.2249C63.2539 32.2249 63.7017 31.7772 63.7017 31.2249C63.7017 30.6726 63.2539 30.2249 62.7017 30.2249L62.7017 32.2249ZM57.6855 30.2249C57.1332 30.2249 56.6855 30.6726 56.6855 31.2249C56.6855 31.7772 57.1332 32.2249 57.6855 32.2249L57.6855 30.2249ZM52.6694 32.2249C53.2216 32.2249 53.6694 31.7772 53.6694 31.2249C53.6694 30.6726 53.2216 30.2249 52.6694 30.2249L52.6694 32.2249ZM47.6533 30.2249C47.101 30.2249 46.6533 30.6726 46.6533 31.2249C46.6533 31.7772 47.101 32.2249 47.6533 32.2249L47.6533 30.2249ZM42.6371 32.2249C43.1894 32.2249 43.6371 31.7772 43.6371 31.2249C43.6371 30.6726 43.1894 30.2249 42.6371 30.2249L42.6371 32.2249ZM37.621 30.2249C37.0688 30.2249 36.621 30.6726 36.621 31.2249C36.621 31.7772 37.0688 32.2249 37.621 32.2249L37.621 30.2249ZM32.6049 32.2249C33.1572 32.2249 33.6049 31.7772 33.6049 31.2249C33.6049 30.6726 33.1572 30.2249 32.6049 30.2249L32.6049 32.2249ZM27.5888 30.2249C27.0365 30.2249 26.5888 30.6726 26.5888 31.2249C26.5888 31.7772 27.0365 32.2249 27.5888 32.2249L27.5888 30.2249ZM22.5727 32.2249C23.125 32.2249 23.5727 31.7772 23.5727 31.2249C23.5727 30.6726 23.125 30.2249 22.5727 30.2249L22.5727 32.2249ZM17.5566 30.2249C17.0043 30.2249 16.5566 30.6726 16.5566 31.2249C16.5566 31.7772 17.0043 32.2249 17.5566 32.2249L17.5566 30.2249ZM12.5405 32.2249C13.0928 32.2249 13.5405 31.7772 13.5405 31.2249C13.5405 30.6726 13.0928 30.2249 12.5405 30.2249L12.5405 32.2249ZM7.52435 30.2249C6.97208 30.2249 6.52435 30.6726 6.52435 31.2249C6.52435 31.7772 6.97208 32.2249 7.52435 32.2249L7.52435 30.2249ZM2.50824 32.2249C3.06055 32.2249 3.50824 31.7772 3.50824 31.2249C3.50824 30.6726 3.06055 30.2249 2.50824 30.2249L2.50824 32.2249ZM308.492 278.775C307.94 278.775 307.492 279.223 307.492 279.775C307.492 280.327 307.94 280.775 308.492 280.775L308.492 278.775ZM303.476 280.775C304.028 280.775 304.476 280.327 304.476 279.775C304.476 279.223 304.028 278.775 303.476 278.775L303.476 280.775ZM298.46 278.775C297.907 278.775 297.46 279.223 297.46 279.775C297.46 280.327 297.907 280.775 298.46 280.775L298.46 278.775ZM293.444 280.775C293.996 280.775 294.444 280.327 294.444 279.775C294.444 279.223 293.996 278.775 293.444 278.775L293.444 280.775ZM288.427 278.775C287.875 278.775 287.427 279.223 287.427 279.775C287.427 280.327 287.875 280.775 288.427 280.775L288.427 278.775ZM283.411 280.775C283.964 280.775 284.411 280.327 284.411 279.775C284.411 279.223 283.964 278.775 283.411 278.775L283.411 280.775ZM278.395 278.775C277.843 278.775 277.395 279.223 277.395 279.775C277.395 280.327 277.843 280.775 278.395 280.775L278.395 278.775ZM273.379 280.775C273.931 280.775 274.379 280.327 274.379 279.775C274.379 279.223 273.931 278.775 273.379 278.775L273.379 280.775ZM268.363 278.775C267.811 278.775 267.363 279.223 267.363 279.775C267.363 280.327 267.811 280.775 268.363 280.775L268.363 278.775ZM263.347 280.775C263.899 280.775 264.347 280.327 264.347 279.775C264.347 279.223 263.899 278.775 263.347 278.775L263.347 280.775ZM258.331 278.775C257.778 278.775 257.331 279.223 257.331 279.775C257.331 280.327 257.778 280.775 258.331 280.775L258.331 278.775ZM253.315 280.775C253.867 280.775 254.315 280.327 254.315 279.775C254.315 279.223 253.867 278.775 253.315 278.775L253.315 280.775ZM248.298 278.775C247.746 278.775 247.298 279.223 247.298 279.775C247.298 280.327 247.746 280.775 248.298 280.775L248.298 278.775ZM243.282 280.775C243.835 280.775 244.282 280.327 244.282 279.775C244.282 279.223 243.835 278.775 243.282 278.775L243.282 280.775ZM238.266 278.775C237.714 278.775 237.266 279.223 237.266 279.775C237.266 280.327 237.714 280.775 238.266 280.775L238.266 278.775ZM233.25 280.775C233.802 280.775 234.25 280.327 234.25 279.775C234.25 279.223 233.802 278.775 233.25 278.775L233.25 280.775ZM228.234 278.775C227.682 278.775 227.234 279.223 227.234 279.775C227.234 280.327 227.682 280.775 228.234 280.775L228.234 278.775ZM223.218 280.775C223.77 280.775 224.218 280.327 224.218 279.775C224.218 279.223 223.77 278.775 223.218 278.775L223.218 280.775ZM218.202 278.775C217.649 278.775 217.202 279.223 217.202 279.775C217.202 280.327 217.649 280.775 218.202 280.775L218.202 278.775ZM213.185 280.775C213.738 280.775 214.185 280.327 214.185 279.775C214.185 279.223 213.738 278.775 213.185 278.775L213.185 280.775ZM208.169 278.775C207.617 278.775 207.169 279.223 207.169 279.775C207.169 280.327 207.617 280.775 208.169 280.775L208.169 278.775ZM203.153 280.775C203.706 280.775 204.153 280.327 204.153 279.775C204.153 279.223 203.706 278.775 203.153 278.775L203.153 280.775ZM198.137 278.775C197.585 278.775 197.137 279.223 197.137 279.775C197.137 280.327 197.585 280.775 198.137 280.775L198.137 278.775ZM193.121 280.775C193.673 280.775 194.121 280.327 194.121 279.775C194.121 279.223 193.673 278.775 193.121 278.775L193.121 280.775ZM188.105 278.775C187.553 278.775 187.105 279.223 187.105 279.775C187.105 280.327 187.553 280.775 188.105 280.775L188.105 278.775ZM183.089 280.775C183.641 280.775 184.089 280.327 184.089 279.775C184.089 279.223 183.641 278.775 183.089 278.775L183.089 280.775ZM178.073 278.775C177.52 278.775 177.073 279.223 177.073 279.775C177.073 280.327 177.52 280.775 178.073 280.775L178.073 278.775ZM173.056 280.775C173.609 280.775 174.056 280.327 174.056 279.775C174.056 279.223 173.609 278.775 173.056 278.775L173.056 280.775ZM168.04 278.775C167.488 278.775 167.04 279.223 167.04 279.775C167.04 280.327 167.488 280.775 168.04 280.775L168.04 278.775ZM163.024 280.775C163.576 280.775 164.024 280.327 164.024 279.775C164.024 279.223 163.576 278.775 163.024 278.775L163.024 280.775ZM158.008 278.775C157.456 278.775 157.008 279.223 157.008 279.775C157.008 280.327 157.456 280.775 158.008 280.775L158.008 278.775ZM152.992 280.775C153.544 280.775 153.992 280.327 153.992 279.775C153.992 279.223 153.544 278.775 152.992 278.775L152.992 280.775ZM147.976 278.775C147.424 278.775 146.976 279.223 146.976 279.775C146.976 280.327 147.424 280.775 147.976 280.775L147.976 278.775ZM142.96 280.775C143.512 280.775 143.96 280.327 143.96 279.775C143.96 279.223 143.512 278.775 142.96 278.775L142.96 280.775ZM137.944 278.775C137.391 278.775 136.944 279.223 136.944 279.775C136.944 280.327 137.391 280.775 137.944 280.775L137.944 278.775ZM132.927 280.775C133.48 280.775 133.927 280.327 133.927 279.775C133.927 279.223 133.48 278.775 132.927 278.775L132.927 280.775ZM127.911 278.775C127.359 278.775 126.911 279.223 126.911 279.775C126.911 280.327 127.359 280.775 127.911 280.775L127.911 278.775ZM122.895 280.775C123.447 280.775 123.895 280.327 123.895 279.775C123.895 279.223 123.447 278.775 122.895 278.775L122.895 280.775ZM117.879 278.775C117.327 278.775 116.879 279.223 116.879 279.775C116.879 280.327 117.327 280.775 117.879 280.775L117.879 278.775ZM112.863 280.775C113.415 280.775 113.863 280.327 113.863 279.775C113.863 279.223 113.415 278.775 112.863 278.775L112.863 280.775ZM107.847 278.775C107.295 278.775 106.847 279.223 106.847 279.775C106.847 280.327 107.295 280.775 107.847 280.775L107.847 278.775ZM102.831 280.775C103.383 280.775 103.831 280.327 103.831 279.775C103.831 279.223 103.383 278.775 102.831 278.775L102.831 280.775ZM97.8145 278.775C97.2622 278.775 96.8145 279.223 96.8145 279.775C96.8145 280.327 97.2622 280.775 97.8145 280.775L97.8145 278.775ZM92.7984 280.775C93.3507 280.775 93.7984 280.327 93.7984 279.775C93.7984 279.223 93.3507 278.775 92.7984 278.775L92.7984 280.775ZM87.7823 278.775C87.23 278.775 86.7823 279.223 86.7823 279.775C86.7823 280.327 87.23 280.775 87.7823 280.775L87.7823 278.775ZM82.7662 280.775C83.3184 280.775 83.7662 280.327 83.7662 279.775C83.7662 279.223 83.3184 278.775 82.7662 278.775L82.7662 280.775ZM77.75 278.775C77.1977 278.775 76.75 279.223 76.75 279.775C76.75 280.327 77.1977 280.775 77.75 280.775L77.75 278.775ZM72.7339 280.775C73.2862 280.775 73.7339 280.327 73.7339 279.775C73.7339 279.223 73.2862 278.775 72.7339 278.775L72.7339 280.775ZM67.7178 278.775C67.1655 278.775 66.7178 279.223 66.7178 279.775C66.7178 280.327 67.1655 280.775 67.7178 280.775L67.7178 278.775ZM62.7016 280.775C63.2539 280.775 63.7016 280.327 63.7016 279.775C63.7016 279.223 63.2539 278.775 62.7016 278.775L62.7016 280.775ZM57.6855 278.775C57.1332 278.775 56.6855 279.223 56.6855 279.775C56.6855 280.327 57.1332 280.775 57.6855 280.775L57.6855 278.775ZM52.6694 280.775C53.2216 280.775 53.6694 280.327 53.6694 279.775C53.6694 279.223 53.2216 278.775 52.6694 278.775L52.6694 280.775ZM47.6532 278.775C47.101 278.775 46.6532 279.223 46.6532 279.775C46.6532 280.327 47.101 280.775 47.6532 280.775L47.6532 278.775ZM42.6371 280.775C43.1894 280.775 43.6371 280.327 43.6371 279.775C43.6371 279.223 43.1894 278.775 42.6371 278.775L42.6371 280.775ZM37.621 278.775C37.0687 278.775 36.621 279.223 36.621 279.775C36.621 280.327 37.0687 280.775 37.621 280.775L37.621 278.775ZM32.6049 280.775C33.1572 280.775 33.6049 280.327 33.6049 279.775C33.6049 279.223 33.1572 278.775 32.6049 278.775L32.6049 280.775ZM27.5888 278.775C27.0365 278.775 26.5888 279.223 26.5888 279.775C26.5888 280.327 27.0365 280.775 27.5888 280.775L27.5888 278.775ZM22.5727 280.775C23.125 280.775 23.5727 280.327 23.5727 279.775C23.5727 279.223 23.125 278.775 22.5727 278.775L22.5727 280.775ZM17.5566 278.775C17.0043 278.775 16.5566 279.223 16.5566 279.775C16.5566 280.327 17.0043 280.775 17.5566 280.775L17.5566 278.775ZM12.5405 280.775C13.0928 280.775 13.5405 280.327 13.5405 279.775C13.5405 279.223 13.0928 278.775 12.5405 278.775L12.5405 280.775ZM7.52434 278.775C6.97207 278.775 6.52434 279.223 6.52434 279.775C6.52434 280.327 6.97207 280.775 7.52434 280.775L7.52434 278.775ZM2.50823 280.775C3.06054 280.775 3.50823 280.327 3.50823 279.775C3.50823 279.223 3.06054 278.775 2.50823 278.775L2.50823 280.775ZM311 30.2249L308.492 30.2249L308.492 32.2249L311 32.2249L311 30.2249ZM303.476 30.2249L298.46 30.2249L298.46 32.2249L303.476 32.2249L303.476 30.2249ZM293.444 30.2249L288.427 30.2249L288.427 32.2249L293.444 32.2249L293.444 30.2249ZM283.411 30.2249L278.395 30.2249L278.395 32.2249L283.411 32.2249L283.411 30.2249ZM273.379 30.2249L268.363 30.2249L268.363 32.2249L273.379 32.2249L273.379 30.2249ZM263.347 30.2249L258.331 30.2249L258.331 32.2249L263.347 32.2249L263.347 30.2249ZM253.315 30.2249L248.298 30.2249L248.298 32.2249L253.315 32.2249L253.315 30.2249ZM243.282 30.2249L238.266 30.2249L238.266 32.2249L243.282 32.2249L243.282 30.2249ZM233.25 30.2249L228.234 30.2249L228.234 32.2249L233.25 32.2249L233.25 30.2249ZM223.218 30.2249L218.202 30.2249L218.202 32.2249L223.218 32.2249L223.218 30.2249ZM213.185 30.2249L208.169 30.2249L208.169 32.2249L213.185 32.2249L213.185 30.2249ZM203.153 30.2249L198.137 30.2249L198.137 32.2249L203.153 32.2249L203.153 30.2249ZM193.121 30.2249L188.105 30.2249L188.105 32.2249L193.121 32.2249L193.121 30.2249ZM183.089 30.2249L178.073 30.2249L178.073 32.2249L183.089 32.2249L183.089 30.2249ZM173.056 30.2249L168.04 30.2249L168.04 32.2249L173.056 32.2249L173.056 30.2249ZM163.024 30.2249L158.008 30.2249L158.008 32.2249L163.024 32.2249L163.024 30.2249ZM152.992 30.2249L147.976 30.2249L147.976 32.2249L152.992 32.2249L152.992 30.2249ZM142.96 30.2249L137.944 30.2249L137.944 32.2249L142.96 32.2249L142.96 30.2249ZM132.927 30.2249L127.911 30.2249L127.911 32.2249L132.927 32.2249L132.927 30.2249ZM122.895 30.2249L117.879 30.2249L117.879 32.2249L122.895 32.2249L122.895 30.2249ZM112.863 30.2249L107.847 30.2249L107.847 32.2249L112.863 32.2249L112.863 30.2249ZM102.831 30.2249L97.8145 30.2249L97.8145 32.2249L102.831 32.2249L102.831 30.2249ZM92.7984 30.2249L87.7823 30.2249L87.7823 32.2249L92.7984 32.2249L92.7984 30.2249ZM82.7662 30.2249L77.75 30.2249L77.75 32.2249L82.7662 32.2249L82.7662 30.2249ZM72.7339 30.2249L67.7178 30.2249L67.7178 32.2249L72.7339 32.2249L72.7339 30.2249ZM62.7017 30.2249L57.6855 30.2249L57.6855 32.2249L62.7017 32.2249L62.7017 30.2249ZM52.6694 30.2249L47.6533 30.2249L47.6533 32.2249L52.6694 32.2249L52.6694 30.2249ZM42.6371 30.2249L37.621 30.2249L37.621 32.2249L42.6371 32.2249L42.6371 30.2249ZM32.6049 30.2249L27.5888 30.2249L27.5888 32.2249L32.6049 32.2249L32.6049 30.2249ZM22.5727 30.2249L17.5566 30.2249L17.5566 32.2249L22.5727 32.2249L22.5727 30.2249ZM12.5405 30.2249L7.52435 30.2249L7.52435 32.2249L12.5405 32.2249L12.5405 30.2249ZM2.50824 30.2249L3.05613e-05 30.2249L3.04739e-05 32.2249L2.50824 32.2249L2.50824 30.2249ZM311 278.775L308.492 278.775L308.492 280.775L311 280.775L311 278.775ZM303.476 278.775L298.46 278.775L298.46 280.775L303.476 280.775L303.476 278.775ZM293.444 278.775L288.427 278.775L288.427 280.775L293.444 280.775L293.444 278.775ZM283.411 278.775L278.395 278.775L278.395 280.775L283.411 280.775L283.411 278.775ZM273.379 278.775L268.363 278.775L268.363 280.775L273.379 280.775L273.379 278.775ZM263.347 278.775L258.331 278.775L258.331 280.775L263.347 280.775L263.347 278.775ZM253.315 278.775L248.298 278.775L248.298 280.775L253.315 280.775L253.315 278.775ZM243.282 278.775L238.266 278.775L238.266 280.775L243.282 280.775L243.282 278.775ZM233.25 278.775L228.234 278.775L228.234 280.775L233.25 280.775L233.25 278.775ZM223.218 278.775L218.202 278.775L218.202 280.775L223.218 280.775L223.218 278.775ZM213.185 278.775L208.169 278.775L208.169 280.775L213.185 280.775L213.185 278.775ZM203.153 278.775L198.137 278.775L198.137 280.775L203.153 280.775L203.153 278.775ZM193.121 278.775L188.105 278.775L188.105 280.775L193.121 280.775L193.121 278.775ZM183.089 278.775L178.073 278.775L178.073 280.775L183.089 280.775L183.089 278.775ZM173.056 278.775L168.04 278.775L168.04 280.775L173.056 280.775L173.056 278.775ZM163.024 278.775L158.008 278.775L158.008 280.775L163.024 280.775L163.024 278.775ZM152.992 278.775L147.976 278.775L147.976 280.775L152.992 280.775L152.992 278.775ZM142.96 278.775L137.944 278.775L137.944 280.775L142.96 280.775L142.96 278.775ZM132.927 278.775L127.911 278.775L127.911 280.775L132.927 280.775L132.927 278.775ZM122.895 278.775L117.879 278.775L117.879 280.775L122.895 280.775L122.895 278.775ZM112.863 278.775L107.847 278.775L107.847 280.775L112.863 280.775L112.863 278.775ZM102.831 278.775L97.8145 278.775L97.8145 280.775L102.831 280.775L102.831 278.775ZM92.7984 278.775L87.7823 278.775L87.7823 280.775L92.7984 280.775L92.7984 278.775ZM82.7662 278.775L77.75 278.775L77.75 280.775L82.7662 280.775L82.7662 278.775ZM72.7339 278.775L67.7178 278.775L67.7178 280.775L72.7339 280.775L72.7339 278.775ZM62.7016 278.775L57.6855 278.775L57.6855 280.775L62.7016 280.775L62.7016 278.775ZM52.6694 278.775L47.6532 278.775L47.6532 280.775L52.6694 280.775L52.6694 278.775ZM42.6371 278.775L37.621 278.775L37.621 280.775L42.6371 280.775L42.6371 278.775ZM32.6049 278.775L27.5888 278.775L27.5888 280.775L32.6049 280.775L32.6049 278.775ZM22.5727 278.775L17.5566 278.775L17.5566 280.775L22.5727 280.775L22.5727 278.775ZM12.5405 278.775L7.52434 278.775L7.52434 280.775L12.5405 280.775L12.5405 278.775ZM2.50823 278.775L1.96968e-05 278.775L1.96094e-05 280.775L2.50823 280.775L2.50823 278.775Z" fill="url(#paint1_linear_131_8525)"/>
</g>
<mask id="mask0_131_8525" style="mask-type:alpha" maskUnits="userSpaceOnUse" x="39" y="39" width="233" height="233">
<rect x="39.9678" y="39.9679" width="231.064" height="231.064" fill="#C4C4C4"/>
</mask>
<g mask="url(#mask0_131_8525)">
<path d="M-40 258.288C-40 258.288 80.4688 257.295 79.1519 258.627C78.7316 259.051 75.2403 260.366 74.9436 259.278C74.3086 256.936 73.5344 250.049 73.5344 250.049C73.5344 250.049 78.5781 254.11 95.9747 254.101C113.434 254.091 119.982 251.678 120.027 250.004C120.073 248.329 125.74 207.994 123.732 198.226C121.724 188.459 121.581 181.694 120.239 183.056C118.898 184.418 107.725 188.214 92.6448 188.322C77.6112 188.432 70.3124 183.271 72.2487 183.256C74.185 183.242 87.3603 186.342 100.691 184.558C114.061 182.767 123.892 181.398 122.886 182.42C121.88 183.441 115.321 169.609 117.299 160.361C119.277 151.112 122.48 142.757 119.658 137.385C116.835 132.014 129.808 156.69 137.703 157.633C145.597 158.577 146.844 119.134 145.599 119.152C144.353 119.17 138.029 122.878 136.099 120.844C134.17 118.81 136.81 113.335 136.81 113.335C136.81 113.335 146.029 111.383 145.947 114.236C145.865 117.088 143.085 118.959 144.193 116.073C144.193 116.073 147.837 110.582 148.029 104.102C148.222 97.6213 145.167 91.1735 143.578 94.3147C141.989 97.456 144.079 102.867 141.541 104.465C139.004 106.063 139.245 97.7618 137.427 100.383C135.609 103.003 139.546 113.299 138.448 116.936C137.35 120.573 135.455 128.175 134.612 131.8C133.769 135.426 129.757 148.261 132.365 143.598C134.972 138.934 134.725 134.29 130.241 126.093C125.757 117.896 122.497 110.192 121.47 111.498C120.444 112.804 120.41 123.131 120.996 119.769C121.581 116.406 125.94 111.18 118.523 110.768C111.106 110.355 106.956 108.089 106.956 108.089C106.956 108.089 113.878 117.533 113.61 118.31C113.341 119.087 106.453 117.64 104.227 117.93C102.002 118.22 99.1368 123.924 100.184 121.593C101.232 119.263 104.464 108.902 104.518 106.837C104.571 104.772 102.41 97.7032 103.216 99.7566C104.023 101.81 107.363 101.886 110.09 101.709C112.816 101.532 114.774 92.9679 114.644 88.826C114.514 84.684 115.408 78.8348 112.861 76.6786C110.315 74.5224 104.793 67.6231 105.255 69.0402C105.717 70.4573 103.814 76.8478 99.2695 80.166C94.7255 83.4843 89.5803 92.2301 92.205 100.574C94.8296 108.918 101.184 111.396 100.43 111.795C99.6768 112.193 85.5243 116.521 79.0895 107.996C72.6547 99.4717 81.1624 73.5127 87.9381 68.5978C94.7138 63.6829 100.087 62.3946 104.099 65.3004C108.11 68.2061 101.756 64.8267 105.101 64.8905C108.445 64.9542 114.933 68.2048 116.976 75.3006C119.019 82.3964 114.53 97.1073 114.526 101.891C114.522 106.674 115.718 108.203 115.718 108.203C115.718 108.203 104.834 103.467 102.999 107.495C101.164 111.524 97.3268 122.403 97.3268 122.403C97.3268 122.403 88.5575 113.648 88.0461 114.428C87.5347 115.209 83.0076 129.152 85.0181 127.328C87.0285 125.504 96.8154 123.053 95.0951 122.952C93.3748 122.85 82.0538 112.975 80.9542 112.734C79.8546 112.493 77.3106 111.117 77.7544 112.911C78.1981 114.706 75.9001 128.607 77.2339 124.482C78.5677 120.357 77.5592 111.113 73.8298 112.968C70.1003 114.824 68.302 118.188 66.7561 121.548C65.2102 124.908 53.8162 163.385 59.128 165.627C64.4398 167.869 78.3139 160.59 78.3139 160.59C78.3139 160.59 75.5604 152.949 76.094 151.152C76.6275 149.354 79.8338 148.549 79.8338 148.549C79.8338 148.549 81.4812 161.322 80.5443 159.543C79.6074 157.765 82.0915 156.458 87.4644 157.426C92.8374 158.394 98.2728 157.569 97.8746 153.987C97.4764 150.405 85.6869 150.021 85.7507 147.459C85.8144 144.896 85.8808 142.332 85.8808 142.332C85.8808 142.332 98.1804 142.186 98.9195 142.175C99.6586 142.165 99.751 138.571 99.751 138.571C99.751 138.571 85.2705 137.208 85.4657 139.259C85.6609 141.31 97.7796 138.596 98.4602 140.899C99.1407 143.202 96.3885 163.736 95.384 164.384C94.3794 165.032 86.4338 163.96 86.3232 163.45C86.2126 162.94 85.1924 159.625 84.2178 159.379C83.2431 159.134 78.7525 157.262 78.7056 154.194C78.6588 151.126 85.5256 141.311 83.8365 145.047C82.1475 148.783 76.3555 150.122 72.2917 151.066C68.2278 152.009 61.0175 157.442 63.4769 156.661C65.9363 155.88 71.14 153.131 71.7282 149.033C72.3164 144.935 76.3386 135.661 74.8734 130.295C73.4081 124.928 69.3586 120.099 69.9741 125.224C70.5896 130.348 75.766 139.25 75.7765 143.862C75.7869 148.474 78.4675 164.043 75.6281 170.192C72.7887 176.34 69.1764 179.301 73.6762 180.279C78.176 181.258 90.4248 186.005 93.976 181.392C97.5272 176.779 102.955 162.133 101.937 168.033C100.92 173.933 97.41 181.492 100.278 179.809C103.146 178.127 112.526 172.673 110.215 176.148C107.903 179.622 105.911 180.659 107.641 180.388C109.37 180.118 112.621 178.306 112.09 179.713C111.559 181.12 72.1667 182.074 71.0672 187.173C69.9676 192.273 69.2285 202.691 68.9864 212.841C68.7444 222.991 71.3456 246.479 72.5922 245.215C73.8389 243.951 101.067 201.232 100.309 211.421C99.5519 221.61 87.4358 236.336 94.8127 234.547C102.19 232.758 121.772 226.341 117.171 232.711C112.57 239.081 104.148 242.636 106.352 242.632C108.557 242.628 119.554 244.386 119.041 245.147C118.528 245.909 115.689 257.971 115.423 258.731C115.158 259.491 97.9006 260.739 97.9331 259.476C97.9657 258.212 96.4237 247.965 95.3605 251.253C94.2974 254.541 95.9604 259.283 94.4822 259.788C93.0039 260.293 86.3753 259.089 89.808 258.332C93.2408 257.574 185.416 257.3 185.416 257.3C185.416 257.3 194.301 257.335 191.662 258.101C189.971 258.592 186.978 260.834 185.116 256.735C184.075 254.436 182.428 248.11 181.523 242.886C179 228.323 176.81 214.892 177.111 205.279C177.413 195.667 178.214 182.146 177.054 183.312C175.895 184.478 188.485 189.02 202.381 188.92C216.315 188.822 233.061 185.211 234.238 184.038C235.416 182.866 234.458 177.825 234.108 166.166C233.758 154.506 238.867 128.271 235.757 130.267C232.647 132.264 242.678 159.853 245.437 157.096C248.196 154.338 260.429 153.037 262.028 151.066C263.628 149.094 264.24 142.826 258.515 142.894C252.789 142.961 240.055 148.182 244.209 148.917C248.362 149.652 258.042 145.63 259.112 147.573C260.182 149.516 262.473 149.49 261.858 155.75C261.242 162.011 261.7 170.194 250.958 172.622C240.241 175.049 221.563 156.945 217.025 156.992C212.488 157.038 192.003 149.875 195.466 147.507C198.928 145.138 212.026 148.488 214.736 146.511C217.447 144.535 213.294 133.283 216.948 137.142C220.602 141.002 218.52 146.475 222.589 149.157C226.659 151.839 253.878 155.051 251.12 157.813C248.361 160.574 259.7 152.256 259.408 149.914C259.115 147.572 249.648 114.405 246.021 109.359C242.395 104.312 239.074 101.223 238.241 103.197C236.78 105.173 237.581 117.315 238.579 115.153C239.036 112.991 238.474 102.01 234.503 101.295C230.531 100.579 225.244 99.6773 222.661 97.5627C220.078 95.4481 216.025 91.7877 216.025 91.7877C216.025 91.7877 217.62 95.0942 212.456 102.035C207.293 108.976 202.818 113.131 202.818 113.131C202.818 113.131 197.605 110.866 195.284 106.8C192.962 102.735 193.661 98.618 192.867 99.8048C192.073 100.992 187.375 118.239 190.603 117.406C193.831 116.573 198.981 114.945 198.981 114.945C198.981 114.945 202.018 120.17 201.973 121.731C201.929 123.293 201.931 162.968 198.826 171.527C195.721 180.085 195.392 190.316 196.429 193.012C197.466 195.708 199.956 199.94 200.921 199.162C201.885 198.384 207.611 190.231 207.247 184.236C206.884 178.241 212.069 152.96 209.832 140.924C207.595 128.887 205.348 122.272 205.439 119.54C205.53 116.807 207.845 115.404 207.121 114.439C206.398 113.473 204.389 111.158 205.085 113.101C205.781 115.044 213.704 121.181 213.704 121.181C213.704 121.181 220.459 111.896 219.832 102.509C219.205 93.1215 214.367 90.2496 214.057 88.2938C213.747 86.338 214.146 80.0502 216.36 76.2779C218.575 72.5055 221.505 70.2816 218.934 62.0641C216.363 53.8466 211.022 54.3463 211.022 54.3463C211.022 54.3463 209.274 49.8478 201.867 50.0039C194.46 50.1601 178.95 56.7705 184.538 59.2091C190.125 61.6477 198.804 56.7588 198.896 59.7062C198.988 62.6536 195.465 66.2581 198.658 66.9816C201.851 67.7051 206.084 65.856 205.974 69.1937C205.863 72.5315 204.933 77.652 206.55 74.6838C208.167 71.7156 210.857 64.9711 211.831 69.8691C212.804 74.7671 208.642 80.1413 211.751 77.9266C214.86 75.7118 220.67 72.4547 216.191 64.4753C211.712 56.496 192.569 56.2982 189.1 58.3308C185.631 60.3633 184.452 67.8443 184.697 78.0307C184.941 88.217 187.732 93.4117 191.317 93.3544C194.902 93.2971 209.46 95.9465 206.101 88.2313C203.817 82.9885 197.609 98.864 194.168 100.092C190.728 101.321 185.71 105.58 184.946 105.788C184.183 105.996 170.315 110.691 168.334 114.026C166.354 117.361 153.292 166.337 154.801 165.741C156.311 165.145 158.451 162.228 164.25 161.981C170.048 161.733 172.996 163.443 173.02 162.669C173.045 161.895 175.213 158.389 168.336 156.718C161.458 155.048 150.055 155.938 153.163 158.034C156.27 160.13 164.779 156.755 162.116 158.329C159.452 159.904 152.382 159.201 152.127 161.52C151.872 163.839 151.594 166.929 152.731 166.335C153.868 165.74 157.579 160.109 156.413 161.666C155.248 163.222 152.714 173.282 159.119 177.277C165.524 181.272 171.991 177.749 175.075 174.827C178.159 171.904 180.958 148.64 183.303 145.703C185.648 142.766 185.947 145.285 189.982 142.519C194.017 139.752 199.316 133.458 197.035 134.071C194.754 134.684 187.473 138.662 190.347 137.072C193.22 135.482 198.588 132.689 196.723 132.127C194.858 131.565 185.574 133.436 187.079 133.418C188.585 133.4 197.522 130.754 195.114 129.422C192.707 128.089 182.324 129.2 185.145 129.161C187.967 129.122 197.799 128.021 196.146 126.68C194.494 125.338 184.479 126.446 184.497 125.861C184.516 125.277 184.497 119.827 184.497 119.827C184.497 119.827 198.647 119.238 198.785 120.797C198.923 122.356 197.694 142.618 196.921 143.211C196.148 143.805 187.991 145.84 187.991 145.84C187.991 145.84 194.063 144.216 195.669 141.285C197.275 138.355 198.882 123.718 196.45 123.172C194.018 122.625 182.89 123.163 182.89 123.163C182.89 123.163 182.41 126.478 180.621 129.613C178.832 132.748 162.593 155.037 162.294 164.898C161.995 174.759 171.033 178.529 176.128 177.13C181.222 175.731 198.827 148.433 194.949 157.601C191.082 166.747 181.715 178.05 186.028 178.015C190.34 177.98 194.676 177.557 192.378 178.926C190.08 180.295 176.067 179.056 179.756 180.766C183.445 182.476 194.59 185.867 203.426 185.802C212.261 185.737 220.972 185.091 225.417 181.955C229.862 178.819 228.931 167.947 226.552 171.077C224.173 174.206 233.579 181.116 235.162 189.836C236.746 198.555 241.289 256.248 239.752 257.018C238.215 257.787 217.334 257.79 217.171 257.018C217.008 256.245 208.874 224.94 207.138 220.712C205.402 216.484 193.705 207.097 194.342 210.562C194.978 214.028 204.516 220.531 202.42 221.502C200.323 222.473 188.535 222.132 194.837 224.03C201.139 225.929 207.72 225.722 207.625 228.603C207.53 231.484 209.201 255.191 208.774 256.725C208.347 258.259 195.273 256.454 202.968 255.684C210.662 254.913 270.894 255.953 270.894 255.953" stroke="#111113" stroke-linecap="round" stroke-linejoin="round"/>
</g>
<defs>
<linearGradient id="paint0_linear_131_8525" x1="155.5" y1="0" x2="155.5" y2="311" gradientUnits="userSpaceOnUse">
<stop stop-color="#C4C4C4" stop-opacity="0"/>
<stop offset="0.0884102" stop-color="#C4C4C4"/>
<stop offset="0.914586" stop-color="#C4C4C4"/>
<stop offset="1" stop-color="#C4C4C4" stop-opacity="0"/>
</linearGradient>
<linearGradient id="paint1_linear_131_8525" x1="311" y1="155.5" x2="2.50853e-05" y2="155.5" gradientUnits="userSpaceOnUse">
<stop stop-color="#C4C4C4" stop-opacity="0"/>
<stop offset="0.0967224" stop-color="#C4C4C4"/>
<stop offset="0.901883" stop-color="#C4C4C4"/>
<stop offset="1" stop-color="#C4C4C4" stop-opacity="0"/>
</linearGradient>
</defs>
</svg>
