<svg width="311" height="311" viewBox="0 0 311 311" fill="none" xmlns="http://www.w3.org/2000/svg">
<g opacity="0.5">
<path d="M30.2246 2.50806C30.2246 3.06035 30.6723 3.50806 31.2246 3.50806C31.7769 3.50806 32.2246 3.06035 32.2246 2.50806H30.2246ZM32.2246 7.52419C32.2246 6.97191 31.7769 6.52419 31.2246 6.52419C30.6723 6.52419 30.2246 6.97191 30.2246 7.52419H32.2246ZM30.2246 12.5403C30.2246 13.0926 30.6723 13.5403 31.2246 13.5403C31.7769 13.5403 32.2246 13.0926 32.2246 12.5403H30.2246ZM32.2246 17.5565C32.2246 17.0042 31.7769 16.5565 31.2246 16.5565C30.6723 16.5565 30.2246 17.0042 30.2246 17.5565H32.2246ZM30.2246 22.5726C30.2246 23.1249 30.6723 23.5726 31.2246 23.5726C31.7769 23.5726 32.2246 23.1249 32.2246 22.5726H30.2246ZM32.2246 27.5887C32.2246 27.0364 31.7769 26.5887 31.2246 26.5887C30.6723 26.5887 30.2246 27.0364 30.2246 27.5887H32.2246ZM30.2246 32.6048C30.2246 33.1571 30.6723 33.6048 31.2246 33.6048C31.7769 33.6048 32.2246 33.1571 32.2246 32.6048H30.2246ZM32.2246 37.621C32.2246 37.0687 31.7769 36.621 31.2246 36.621C30.6723 36.621 30.2246 37.0687 30.2246 37.621H32.2246ZM30.2246 42.6371C30.2246 43.1894 30.6723 43.6371 31.2246 43.6371C31.7769 43.6371 32.2246 43.1894 32.2246 42.6371H30.2246ZM32.2246 47.6532C32.2246 47.1009 31.7769 46.6532 31.2246 46.6532C30.6723 46.6532 30.2246 47.1009 30.2246 47.6532H32.2246ZM30.2246 52.6694C30.2246 53.2216 30.6723 53.6694 31.2246 53.6694C31.7769 53.6694 32.2246 53.2216 32.2246 52.6694H30.2246ZM32.2246 57.6855C32.2246 57.1332 31.7769 56.6855 31.2246 56.6855C30.6723 56.6855 30.2246 57.1332 30.2246 57.6855H32.2246ZM30.2246 62.7016C30.2246 63.2539 30.6723 63.7016 31.2246 63.7016C31.7769 63.7016 32.2246 63.2539 32.2246 62.7016H30.2246ZM32.2246 67.7177C32.2246 67.1655 31.7769 66.7177 31.2246 66.7177C30.6723 66.7177 30.2246 67.1655 30.2246 67.7177H32.2246ZM30.2246 72.7339C30.2246 73.2862 30.6723 73.7339 31.2246 73.7339C31.7769 73.7339 32.2246 73.2862 32.2246 72.7339H30.2246ZM32.2246 77.75C32.2246 77.1977 31.7769 76.75 31.2246 76.75C30.6723 76.75 30.2246 77.1977 30.2246 77.75H32.2246ZM30.2246 82.7661C30.2246 83.3184 30.6723 83.7661 31.2246 83.7661C31.7769 83.7661 32.2246 83.3184 32.2246 82.7661H30.2246ZM32.2246 87.7823C32.2246 87.23 31.7769 86.7823 31.2246 86.7823C30.6723 86.7823 30.2246 87.23 30.2246 87.7823H32.2246ZM30.2246 92.7984C30.2246 93.3507 30.6723 93.7984 31.2246 93.7984C31.7769 93.7984 32.2246 93.3507 32.2246 92.7984H30.2246ZM32.2246 97.8145C32.2246 97.2622 31.7769 96.8145 31.2246 96.8145C30.6723 96.8145 30.2246 97.2622 30.2246 97.8145H32.2246ZM30.2246 102.831C30.2246 103.383 30.6723 103.831 31.2246 103.831C31.7769 103.831 32.2246 103.383 32.2246 102.831H30.2246ZM32.2246 107.847C32.2246 107.294 31.7769 106.847 31.2246 106.847C30.6723 106.847 30.2246 107.294 30.2246 107.847H32.2246ZM30.2246 112.863C30.2246 113.415 30.6723 113.863 31.2246 113.863C31.7769 113.863 32.2246 113.415 32.2246 112.863H30.2246ZM32.2246 117.879C32.2246 117.327 31.7769 116.879 31.2246 116.879C30.6723 116.879 30.2246 117.327 30.2246 117.879H32.2246ZM30.2246 122.895C30.2246 123.447 30.6723 123.895 31.2246 123.895C31.7769 123.895 32.2246 123.447 32.2246 122.895H30.2246ZM32.2246 127.911C32.2246 127.359 31.7769 126.911 31.2246 126.911C30.6723 126.911 30.2246 127.359 30.2246 127.911H32.2246ZM30.2246 132.927C30.2246 133.48 30.6723 133.927 31.2246 133.927C31.7769 133.927 32.2246 133.48 32.2246 132.927H30.2246ZM32.2246 137.944C32.2246 137.391 31.7769 136.944 31.2246 136.944C30.6723 136.944 30.2246 137.391 30.2246 137.944H32.2246ZM30.2246 142.96C30.2246 143.512 30.6723 143.96 31.2246 143.96C31.7769 143.96 32.2246 143.512 32.2246 142.96H30.2246ZM32.2246 147.976C32.2246 147.424 31.7769 146.976 31.2246 146.976C30.6723 146.976 30.2246 147.424 30.2246 147.976H32.2246ZM30.2246 152.992C30.2246 153.544 30.6723 153.992 31.2246 153.992C31.7769 153.992 32.2246 153.544 32.2246 152.992H30.2246ZM32.2246 158.008C32.2246 157.456 31.7769 157.008 31.2246 157.008C30.6723 157.008 30.2246 157.456 30.2246 158.008H32.2246ZM30.2246 163.024C30.2246 163.576 30.6723 164.024 31.2246 164.024C31.7769 164.024 32.2246 163.576 32.2246 163.024H30.2246ZM32.2246 168.04C32.2246 167.488 31.7769 167.04 31.2246 167.04C30.6723 167.04 30.2246 167.488 30.2246 168.04H32.2246ZM30.2246 173.056C30.2246 173.609 30.6723 174.056 31.2246 174.056C31.7769 174.056 32.2246 173.609 32.2246 173.056H30.2246ZM32.2246 178.073C32.2246 177.52 31.7769 177.073 31.2246 177.073C30.6723 177.073 30.2246 177.52 30.2246 178.073H32.2246ZM30.2246 183.089C30.2246 183.641 30.6723 184.089 31.2246 184.089C31.7769 184.089 32.2246 183.641 32.2246 183.089H30.2246ZM32.2246 188.105C32.2246 187.553 31.7769 187.105 31.2246 187.105C30.6723 187.105 30.2246 187.553 30.2246 188.105H32.2246ZM30.2246 193.121C30.2246 193.673 30.6723 194.121 31.2246 194.121C31.7769 194.121 32.2246 193.673 32.2246 193.121H30.2246ZM32.2246 198.137C32.2246 197.585 31.7769 197.137 31.2246 197.137C30.6723 197.137 30.2246 197.585 30.2246 198.137H32.2246ZM30.2246 203.153C30.2246 203.706 30.6723 204.153 31.2246 204.153C31.7769 204.153 32.2246 203.706 32.2246 203.153H30.2246ZM32.2246 208.169C32.2246 207.617 31.7769 207.169 31.2246 207.169C30.6723 207.169 30.2246 207.617 30.2246 208.169H32.2246ZM30.2246 213.185C30.2246 213.738 30.6723 214.185 31.2246 214.185C31.7769 214.185 32.2246 213.738 32.2246 213.185H30.2246ZM32.2246 218.202C32.2246 217.649 31.7769 217.202 31.2246 217.202C30.6723 217.202 30.2246 217.649 30.2246 218.202H32.2246ZM30.2246 223.218C30.2246 223.77 30.6723 224.218 31.2246 224.218C31.7769 224.218 32.2246 223.77 32.2246 223.218H30.2246ZM32.2246 228.234C32.2246 227.682 31.7769 227.234 31.2246 227.234C30.6723 227.234 30.2246 227.682 30.2246 228.234H32.2246ZM30.2246 233.25C30.2246 233.802 30.6723 234.25 31.2246 234.25C31.7769 234.25 32.2246 233.802 32.2246 233.25H30.2246ZM32.2246 238.266C32.2246 237.714 31.7769 237.266 31.2246 237.266C30.6723 237.266 30.2246 237.714 30.2246 238.266H32.2246ZM30.2246 243.282C30.2246 243.835 30.6723 244.282 31.2246 244.282C31.7769 244.282 32.2246 243.835 32.2246 243.282H30.2246ZM32.2246 248.298C32.2246 247.746 31.7769 247.298 31.2246 247.298C30.6723 247.298 30.2246 247.746 30.2246 248.298H32.2246ZM30.2246 253.314C30.2246 253.867 30.6723 254.314 31.2246 254.314C31.7769 254.314 32.2246 253.867 32.2246 253.314H30.2246ZM32.2246 258.331C32.2246 257.778 31.7769 257.331 31.2246 257.331C30.6723 257.331 30.2246 257.778 30.2246 258.331H32.2246ZM30.2246 263.347C30.2246 263.899 30.6723 264.347 31.2246 264.347C31.7769 264.347 32.2246 263.899 32.2246 263.347H30.2246ZM32.2246 268.363C32.2246 267.811 31.7769 267.363 31.2246 267.363C30.6723 267.363 30.2246 267.811 30.2246 268.363H32.2246ZM30.2246 273.379C30.2246 273.931 30.6723 274.379 31.2246 274.379C31.7769 274.379 32.2246 273.931 32.2246 273.379H30.2246ZM32.2246 278.395C32.2246 277.843 31.7769 277.395 31.2246 277.395C30.6723 277.395 30.2246 277.843 30.2246 278.395H32.2246ZM30.2246 283.411C30.2246 283.964 30.6723 284.411 31.2246 284.411C31.7769 284.411 32.2246 283.964 32.2246 283.411H30.2246ZM32.2246 288.427C32.2246 287.875 31.7769 287.427 31.2246 287.427C30.6723 287.427 30.2246 287.875 30.2246 288.427H32.2246ZM30.2246 293.444C30.2246 293.996 30.6723 294.444 31.2246 294.444C31.7769 294.444 32.2246 293.996 32.2246 293.444H30.2246ZM32.2246 298.46C32.2246 297.908 31.7769 297.46 31.2246 297.46C30.6723 297.46 30.2246 297.908 30.2246 298.46H32.2246ZM30.2246 303.476C30.2246 304.028 30.6723 304.476 31.2246 304.476C31.7769 304.476 32.2246 304.028 32.2246 303.476H30.2246ZM32.2246 308.492C32.2246 307.94 31.7769 307.492 31.2246 307.492C30.6723 307.492 30.2246 307.94 30.2246 308.492H32.2246ZM278.775 2.50806C278.775 3.06035 279.223 3.50806 279.775 3.50806C280.327 3.50806 280.775 3.06035 280.775 2.50806H278.775ZM280.775 7.52419C280.775 6.97191 280.327 6.52419 279.775 6.52419C279.223 6.52419 278.775 6.97191 278.775 7.52419H280.775ZM278.775 12.5403C278.775 13.0926 279.223 13.5403 279.775 13.5403C280.327 13.5403 280.775 13.0926 280.775 12.5403H278.775ZM280.775 17.5565C280.775 17.0042 280.327 16.5565 279.775 16.5565C279.223 16.5565 278.775 17.0042 278.775 17.5565H280.775ZM278.775 22.5726C278.775 23.1249 279.223 23.5726 279.775 23.5726C280.327 23.5726 280.775 23.1249 280.775 22.5726H278.775ZM280.775 27.5887C280.775 27.0364 280.327 26.5887 279.775 26.5887C279.223 26.5887 278.775 27.0364 278.775 27.5887H280.775ZM278.775 32.6048C278.775 33.1571 279.223 33.6048 279.775 33.6048C280.327 33.6048 280.775 33.1571 280.775 32.6048H278.775ZM280.775 37.621C280.775 37.0687 280.327 36.621 279.775 36.621C279.223 36.621 278.775 37.0687 278.775 37.621H280.775ZM278.775 42.6371C278.775 43.1894 279.223 43.6371 279.775 43.6371C280.327 43.6371 280.775 43.1894 280.775 42.6371H278.775ZM280.775 47.6532C280.775 47.1009 280.327 46.6532 279.775 46.6532C279.223 46.6532 278.775 47.1009 278.775 47.6532H280.775ZM278.775 52.6694C278.775 53.2216 279.223 53.6694 279.775 53.6694C280.327 53.6694 280.775 53.2216 280.775 52.6694H278.775ZM280.775 57.6855C280.775 57.1332 280.327 56.6855 279.775 56.6855C279.223 56.6855 278.775 57.1332 278.775 57.6855H280.775ZM278.775 62.7016C278.775 63.2539 279.223 63.7016 279.775 63.7016C280.327 63.7016 280.775 63.2539 280.775 62.7016H278.775ZM280.775 67.7177C280.775 67.1655 280.327 66.7177 279.775 66.7177C279.223 66.7177 278.775 67.1655 278.775 67.7177H280.775ZM278.775 72.7339C278.775 73.2862 279.223 73.7339 279.775 73.7339C280.327 73.7339 280.775 73.2862 280.775 72.7339H278.775ZM280.775 77.75C280.775 77.1977 280.327 76.75 279.775 76.75C279.223 76.75 278.775 77.1977 278.775 77.75H280.775ZM278.775 82.7661C278.775 83.3184 279.223 83.7661 279.775 83.7661C280.327 83.7661 280.775 83.3184 280.775 82.7661H278.775ZM280.775 87.7823C280.775 87.23 280.327 86.7823 279.775 86.7823C279.223 86.7823 278.775 87.23 278.775 87.7823H280.775ZM278.775 92.7984C278.775 93.3507 279.223 93.7984 279.775 93.7984C280.327 93.7984 280.775 93.3507 280.775 92.7984H278.775ZM280.775 97.8145C280.775 97.2622 280.327 96.8145 279.775 96.8145C279.223 96.8145 278.775 97.2622 278.775 97.8145H280.775ZM278.775 102.831C278.775 103.383 279.223 103.831 279.775 103.831C280.327 103.831 280.775 103.383 280.775 102.831H278.775ZM280.775 107.847C280.775 107.294 280.327 106.847 279.775 106.847C279.223 106.847 278.775 107.294 278.775 107.847H280.775ZM278.775 112.863C278.775 113.415 279.223 113.863 279.775 113.863C280.327 113.863 280.775 113.415 280.775 112.863H278.775ZM280.775 117.879C280.775 117.327 280.327 116.879 279.775 116.879C279.223 116.879 278.775 117.327 278.775 117.879H280.775ZM278.775 122.895C278.775 123.447 279.223 123.895 279.775 123.895C280.327 123.895 280.775 123.447 280.775 122.895H278.775ZM280.775 127.911C280.775 127.359 280.327 126.911 279.775 126.911C279.223 126.911 278.775 127.359 278.775 127.911H280.775ZM278.775 132.927C278.775 133.48 279.223 133.927 279.775 133.927C280.327 133.927 280.775 133.48 280.775 132.927H278.775ZM280.775 137.944C280.775 137.391 280.327 136.944 279.775 136.944C279.223 136.944 278.775 137.391 278.775 137.944H280.775ZM278.775 142.96C278.775 143.512 279.223 143.96 279.775 143.96C280.327 143.96 280.775 143.512 280.775 142.96H278.775ZM280.775 147.976C280.775 147.424 280.327 146.976 279.775 146.976C279.223 146.976 278.775 147.424 278.775 147.976H280.775ZM278.775 152.992C278.775 153.544 279.223 153.992 279.775 153.992C280.327 153.992 280.775 153.544 280.775 152.992H278.775ZM280.775 158.008C280.775 157.456 280.327 157.008 279.775 157.008C279.223 157.008 278.775 157.456 278.775 158.008H280.775ZM278.775 163.024C278.775 163.576 279.223 164.024 279.775 164.024C280.327 164.024 280.775 163.576 280.775 163.024H278.775ZM280.775 168.04C280.775 167.488 280.327 167.04 279.775 167.04C279.223 167.04 278.775 167.488 278.775 168.04H280.775ZM278.775 173.056C278.775 173.609 279.223 174.056 279.775 174.056C280.327 174.056 280.775 173.609 280.775 173.056H278.775ZM280.775 178.073C280.775 177.52 280.327 177.073 279.775 177.073C279.223 177.073 278.775 177.52 278.775 178.073H280.775ZM278.775 183.089C278.775 183.641 279.223 184.089 279.775 184.089C280.327 184.089 280.775 183.641 280.775 183.089H278.775ZM280.775 188.105C280.775 187.553 280.327 187.105 279.775 187.105C279.223 187.105 278.775 187.553 278.775 188.105H280.775ZM278.775 193.121C278.775 193.673 279.223 194.121 279.775 194.121C280.327 194.121 280.775 193.673 280.775 193.121H278.775ZM280.775 198.137C280.775 197.585 280.327 197.137 279.775 197.137C279.223 197.137 278.775 197.585 278.775 198.137H280.775ZM278.775 203.153C278.775 203.706 279.223 204.153 279.775 204.153C280.327 204.153 280.775 203.706 280.775 203.153H278.775ZM280.775 208.169C280.775 207.617 280.327 207.169 279.775 207.169C279.223 207.169 278.775 207.617 278.775 208.169H280.775ZM278.775 213.185C278.775 213.738 279.223 214.185 279.775 214.185C280.327 214.185 280.775 213.738 280.775 213.185H278.775ZM280.775 218.202C280.775 217.649 280.327 217.202 279.775 217.202C279.223 217.202 278.775 217.649 278.775 218.202H280.775ZM278.775 223.218C278.775 223.77 279.223 224.218 279.775 224.218C280.327 224.218 280.775 223.77 280.775 223.218H278.775ZM280.775 228.234C280.775 227.682 280.327 227.234 279.775 227.234C279.223 227.234 278.775 227.682 278.775 228.234H280.775ZM278.775 233.25C278.775 233.802 279.223 234.25 279.775 234.25C280.327 234.25 280.775 233.802 280.775 233.25H278.775ZM280.775 238.266C280.775 237.714 280.327 237.266 279.775 237.266C279.223 237.266 278.775 237.714 278.775 238.266H280.775ZM278.775 243.282C278.775 243.835 279.223 244.282 279.775 244.282C280.327 244.282 280.775 243.835 280.775 243.282H278.775ZM280.775 248.298C280.775 247.746 280.327 247.298 279.775 247.298C279.223 247.298 278.775 247.746 278.775 248.298H280.775ZM278.775 253.314C278.775 253.867 279.223 254.314 279.775 254.314C280.327 254.314 280.775 253.867 280.775 253.314H278.775ZM280.775 258.331C280.775 257.778 280.327 257.331 279.775 257.331C279.223 257.331 278.775 257.778 278.775 258.331H280.775ZM278.775 263.347C278.775 263.899 279.223 264.347 279.775 264.347C280.327 264.347 280.775 263.899 280.775 263.347H278.775ZM280.775 268.363C280.775 267.811 280.327 267.363 279.775 267.363C279.223 267.363 278.775 267.811 278.775 268.363H280.775ZM278.775 273.379C278.775 273.931 279.223 274.379 279.775 274.379C280.327 274.379 280.775 273.931 280.775 273.379H278.775ZM280.775 278.395C280.775 277.843 280.327 277.395 279.775 277.395C279.223 277.395 278.775 277.843 278.775 278.395H280.775ZM278.775 283.411C278.775 283.964 279.223 284.411 279.775 284.411C280.327 284.411 280.775 283.964 280.775 283.411H278.775ZM280.775 288.427C280.775 287.875 280.327 287.427 279.775 287.427C279.223 287.427 278.775 287.875 278.775 288.427H280.775ZM278.775 293.444C278.775 293.996 279.223 294.444 279.775 294.444C280.327 294.444 280.775 293.996 280.775 293.444H278.775ZM280.775 298.46C280.775 297.908 280.327 297.46 279.775 297.46C279.223 297.46 278.775 297.908 278.775 298.46H280.775ZM278.775 303.476C278.775 304.028 279.223 304.476 279.775 304.476C280.327 304.476 280.775 304.028 280.775 303.476H278.775ZM280.775 308.492C280.775 307.94 280.327 307.492 279.775 307.492C279.223 307.492 278.775 307.94 278.775 308.492H280.775ZM30.2246 0V2.50806H32.2246V0H30.2246ZM30.2246 7.52419V12.5403H32.2246V7.52419H30.2246ZM30.2246 17.5565V22.5726H32.2246V17.5565H30.2246ZM30.2246 27.5887V32.6048H32.2246V27.5887H30.2246ZM30.2246 37.621V42.6371H32.2246V37.621H30.2246ZM30.2246 47.6532V52.6694H32.2246V47.6532H30.2246ZM30.2246 57.6855V62.7016H32.2246V57.6855H30.2246ZM30.2246 67.7177V72.7339H32.2246V67.7177H30.2246ZM30.2246 77.75V82.7661H32.2246V77.75H30.2246ZM30.2246 87.7823V92.7984H32.2246V87.7823H30.2246ZM30.2246 97.8145V102.831H32.2246V97.8145H30.2246ZM30.2246 107.847V112.863H32.2246V107.847H30.2246ZM30.2246 117.879V122.895H32.2246V117.879H30.2246ZM30.2246 127.911V132.927H32.2246V127.911H30.2246ZM30.2246 137.944V142.96H32.2246V137.944H30.2246ZM30.2246 147.976V152.992H32.2246V147.976H30.2246ZM30.2246 158.008V163.024H32.2246V158.008H30.2246ZM30.2246 168.04V173.056H32.2246V168.04H30.2246ZM30.2246 178.073V183.089H32.2246V178.073H30.2246ZM30.2246 188.105V193.121H32.2246V188.105H30.2246ZM30.2246 198.137V203.153H32.2246V198.137H30.2246ZM30.2246 208.169V213.185H32.2246V208.169H30.2246ZM30.2246 218.202V223.218H32.2246V218.202H30.2246ZM30.2246 228.234V233.25H32.2246V228.234H30.2246ZM30.2246 238.266V243.282H32.2246V238.266H30.2246ZM30.2246 248.298V253.314H32.2246V248.298H30.2246ZM30.2246 258.331V263.347H32.2246V258.331H30.2246ZM30.2246 268.363V273.379H32.2246V268.363H30.2246ZM30.2246 278.395V283.411H32.2246V278.395H30.2246ZM30.2246 288.427V293.444H32.2246V288.427H30.2246ZM30.2246 298.46V303.476H32.2246V298.46H30.2246ZM30.2246 308.492V311H32.2246V308.492H30.2246ZM278.775 0V2.50806H280.775V0H278.775ZM278.775 7.52419V12.5403H280.775V7.52419H278.775ZM278.775 17.5565V22.5726H280.775V17.5565H278.775ZM278.775 27.5887V32.6048H280.775V27.5887H278.775ZM278.775 37.621V42.6371H280.775V37.621H278.775ZM278.775 47.6532V52.6694H280.775V47.6532H278.775ZM278.775 57.6855V62.7016H280.775V57.6855H278.775ZM278.775 67.7177V72.7339H280.775V67.7177H278.775ZM278.775 77.75V82.7661H280.775V77.75H278.775ZM278.775 87.7823V92.7984H280.775V87.7823H278.775ZM278.775 97.8145V102.831H280.775V97.8145H278.775ZM278.775 107.847V112.863H280.775V107.847H278.775ZM278.775 117.879V122.895H280.775V117.879H278.775ZM278.775 127.911V132.927H280.775V127.911H278.775ZM278.775 137.944V142.96H280.775V137.944H278.775ZM278.775 147.976V152.992H280.775V147.976H278.775ZM278.775 158.008V163.024H280.775V158.008H278.775ZM278.775 168.04V173.056H280.775V168.04H278.775ZM278.775 178.073V183.089H280.775V178.073H278.775ZM278.775 188.105V193.121H280.775V188.105H278.775ZM278.775 198.137V203.153H280.775V198.137H278.775ZM278.775 208.169V213.185H280.775V208.169H278.775ZM278.775 218.202V223.218H280.775V218.202H278.775ZM278.775 228.234V233.25H280.775V228.234H278.775ZM278.775 238.266V243.282H280.775V238.266H278.775ZM278.775 248.298V253.314H280.775V248.298H278.775ZM278.775 258.331V263.347H280.775V258.331H278.775ZM278.775 268.363V273.379H280.775V268.363H278.775ZM278.775 278.395V283.411H280.775V278.395H278.775ZM278.775 288.427V293.444H280.775V288.427H278.775ZM278.775 298.46V303.476H280.775V298.46H278.775ZM278.775 308.492V311H280.775V308.492H278.775Z" fill="url(#paint0_linear_127_8120)"/>
<path d="M308.492 30.2249C307.94 30.2249 307.492 30.6726 307.492 31.2249C307.492 31.7772 307.94 32.2249 308.492 32.2249L308.492 30.2249ZM303.476 32.2249C304.028 32.2249 304.476 31.7772 304.476 31.2249C304.476 30.6726 304.028 30.2249 303.476 30.2249L303.476 32.2249ZM298.46 30.2249C297.907 30.2249 297.46 30.6726 297.46 31.2249C297.46 31.7772 297.907 32.2249 298.46 32.2249L298.46 30.2249ZM293.444 32.2249C293.996 32.2249 294.444 31.7772 294.444 31.2249C294.444 30.6726 293.996 30.2249 293.444 30.2249L293.444 32.2249ZM288.427 30.2249C287.875 30.2249 287.427 30.6726 287.427 31.2249C287.427 31.7772 287.875 32.2249 288.427 32.2249L288.427 30.2249ZM283.411 32.2249C283.964 32.2249 284.411 31.7772 284.411 31.2249C284.411 30.6726 283.964 30.2249 283.411 30.2249L283.411 32.2249ZM278.395 30.2249C277.843 30.2249 277.395 30.6726 277.395 31.2249C277.395 31.7772 277.843 32.2249 278.395 32.2249L278.395 30.2249ZM273.379 32.2249C273.931 32.2249 274.379 31.7772 274.379 31.2249C274.379 30.6726 273.931 30.2249 273.379 30.2249L273.379 32.2249ZM268.363 30.2249C267.811 30.2249 267.363 30.6726 267.363 31.2249C267.363 31.7772 267.811 32.2249 268.363 32.2249L268.363 30.2249ZM263.347 32.2249C263.899 32.2249 264.347 31.7772 264.347 31.2249C264.347 30.6726 263.899 30.2249 263.347 30.2249L263.347 32.2249ZM258.331 30.2249C257.778 30.2249 257.331 30.6726 257.331 31.2249C257.331 31.7772 257.778 32.2249 258.331 32.2249L258.331 30.2249ZM253.315 32.2249C253.867 32.2249 254.315 31.7772 254.315 31.2249C254.315 30.6726 253.867 30.2249 253.315 30.2249L253.315 32.2249ZM248.298 30.2249C247.746 30.2249 247.298 30.6726 247.298 31.2249C247.298 31.7772 247.746 32.2249 248.298 32.2249L248.298 30.2249ZM243.282 32.2249C243.835 32.2249 244.282 31.7772 244.282 31.2249C244.282 30.6726 243.835 30.2249 243.282 30.2249L243.282 32.2249ZM238.266 30.2249C237.714 30.2249 237.266 30.6726 237.266 31.2249C237.266 31.7772 237.714 32.2249 238.266 32.2249L238.266 30.2249ZM233.25 32.2249C233.802 32.2249 234.25 31.7772 234.25 31.2249C234.25 30.6726 233.802 30.2249 233.25 30.2249L233.25 32.2249ZM228.234 30.2249C227.682 30.2249 227.234 30.6726 227.234 31.2249C227.234 31.7772 227.682 32.2249 228.234 32.2249L228.234 30.2249ZM223.218 32.2249C223.77 32.2249 224.218 31.7772 224.218 31.2249C224.218 30.6726 223.77 30.2249 223.218 30.2249L223.218 32.2249ZM218.202 30.2249C217.649 30.2249 217.202 30.6726 217.202 31.2249C217.202 31.7772 217.649 32.2249 218.202 32.2249L218.202 30.2249ZM213.185 32.2249C213.738 32.2249 214.185 31.7772 214.185 31.2249C214.185 30.6726 213.738 30.2249 213.185 30.2249L213.185 32.2249ZM208.169 30.2249C207.617 30.2249 207.169 30.6726 207.169 31.2249C207.169 31.7772 207.617 32.2249 208.169 32.2249L208.169 30.2249ZM203.153 32.2249C203.706 32.2249 204.153 31.7772 204.153 31.2249C204.153 30.6726 203.706 30.2249 203.153 30.2249L203.153 32.2249ZM198.137 30.2249C197.585 30.2249 197.137 30.6726 197.137 31.2249C197.137 31.7772 197.585 32.2249 198.137 32.2249L198.137 30.2249ZM193.121 32.2249C193.673 32.2249 194.121 31.7772 194.121 31.2249C194.121 30.6726 193.673 30.2249 193.121 30.2249L193.121 32.2249ZM188.105 30.2249C187.553 30.2249 187.105 30.6726 187.105 31.2249C187.105 31.7772 187.553 32.2249 188.105 32.2249L188.105 30.2249ZM183.089 32.2249C183.641 32.2249 184.089 31.7772 184.089 31.2249C184.089 30.6726 183.641 30.2249 183.089 30.2249L183.089 32.2249ZM178.073 30.2249C177.52 30.2249 177.073 30.6726 177.073 31.2249C177.073 31.7772 177.52 32.2249 178.073 32.2249L178.073 30.2249ZM173.056 32.2249C173.609 32.2249 174.056 31.7772 174.056 31.2249C174.056 30.6726 173.609 30.2249 173.056 30.2249L173.056 32.2249ZM168.04 30.2249C167.488 30.2249 167.04 30.6726 167.04 31.2249C167.04 31.7772 167.488 32.2249 168.04 32.2249L168.04 30.2249ZM163.024 32.2249C163.577 32.2249 164.024 31.7772 164.024 31.2249C164.024 30.6726 163.577 30.2249 163.024 30.2249L163.024 32.2249ZM158.008 30.2249C157.456 30.2249 157.008 30.6726 157.008 31.2249C157.008 31.7772 157.456 32.2249 158.008 32.2249L158.008 30.2249ZM152.992 32.2249C153.544 32.2249 153.992 31.7772 153.992 31.2249C153.992 30.6726 153.544 30.2249 152.992 30.2249L152.992 32.2249ZM147.976 30.2249C147.424 30.2249 146.976 30.6726 146.976 31.2249C146.976 31.7772 147.424 32.2249 147.976 32.2249L147.976 30.2249ZM142.96 32.2249C143.512 32.2249 143.96 31.7772 143.96 31.2249C143.96 30.6726 143.512 30.2249 142.96 30.2249L142.96 32.2249ZM137.944 30.2249C137.391 30.2249 136.944 30.6726 136.944 31.2249C136.944 31.7772 137.391 32.2249 137.944 32.2249L137.944 30.2249ZM132.927 32.2249C133.48 32.2249 133.927 31.7772 133.927 31.2249C133.927 30.6726 133.48 30.2249 132.927 30.2249L132.927 32.2249ZM127.911 30.2249C127.359 30.2249 126.911 30.6726 126.911 31.2249C126.911 31.7772 127.359 32.2249 127.911 32.2249L127.911 30.2249ZM122.895 32.2249C123.447 32.2249 123.895 31.7772 123.895 31.2249C123.895 30.6726 123.447 30.2249 122.895 30.2249L122.895 32.2249ZM117.879 30.2249C117.327 30.2249 116.879 30.6726 116.879 31.2249C116.879 31.7772 117.327 32.2249 117.879 32.2249L117.879 30.2249ZM112.863 32.2249C113.415 32.2249 113.863 31.7772 113.863 31.2249C113.863 30.6726 113.415 30.2249 112.863 30.2249L112.863 32.2249ZM107.847 30.2249C107.295 30.2249 106.847 30.6726 106.847 31.2249C106.847 31.7772 107.295 32.2249 107.847 32.2249L107.847 30.2249ZM102.831 32.2249C103.383 32.2249 103.831 31.7772 103.831 31.2249C103.831 30.6726 103.383 30.2249 102.831 30.2249L102.831 32.2249ZM97.8145 30.2249C97.2623 30.2249 96.8145 30.6726 96.8145 31.2249C96.8145 31.7772 97.2623 32.2249 97.8145 32.2249L97.8145 30.2249ZM92.7984 32.2249C93.3507 32.2249 93.7984 31.7772 93.7984 31.2249C93.7984 30.6726 93.3507 30.2249 92.7984 30.2249L92.7984 32.2249ZM87.7823 30.2249C87.23 30.2249 86.7823 30.6726 86.7823 31.2249C86.7823 31.7772 87.23 32.2249 87.7823 32.2249L87.7823 30.2249ZM82.7662 32.2249C83.3185 32.2249 83.7662 31.7772 83.7662 31.2249C83.7662 30.6726 83.3185 30.2249 82.7662 30.2249L82.7662 32.2249ZM77.75 30.2249C77.1977 30.2249 76.75 30.6726 76.75 31.2249C76.75 31.7772 77.1977 32.2249 77.75 32.2249L77.75 30.2249ZM72.7339 32.2249C73.2862 32.2249 73.7339 31.7772 73.7339 31.2249C73.7339 30.6726 73.2862 30.2249 72.7339 30.2249L72.7339 32.2249ZM67.7178 30.2249C67.1655 30.2249 66.7178 30.6726 66.7178 31.2249C66.7178 31.7772 67.1655 32.2249 67.7178 32.2249L67.7178 30.2249ZM62.7017 32.2249C63.2539 32.2249 63.7017 31.7772 63.7017 31.2249C63.7017 30.6726 63.2539 30.2249 62.7017 30.2249L62.7017 32.2249ZM57.6855 30.2249C57.1332 30.2249 56.6855 30.6726 56.6855 31.2249C56.6855 31.7772 57.1332 32.2249 57.6855 32.2249L57.6855 30.2249ZM52.6694 32.2249C53.2216 32.2249 53.6694 31.7772 53.6694 31.2249C53.6694 30.6726 53.2216 30.2249 52.6694 30.2249L52.6694 32.2249ZM47.6533 30.2249C47.101 30.2249 46.6533 30.6726 46.6533 31.2249C46.6533 31.7772 47.101 32.2249 47.6533 32.2249L47.6533 30.2249ZM42.6371 32.2249C43.1894 32.2249 43.6371 31.7772 43.6371 31.2249C43.6371 30.6726 43.1894 30.2249 42.6371 30.2249L42.6371 32.2249ZM37.621 30.2249C37.0688 30.2249 36.621 30.6726 36.621 31.2249C36.621 31.7772 37.0688 32.2249 37.621 32.2249L37.621 30.2249ZM32.6049 32.2249C33.1572 32.2249 33.6049 31.7772 33.6049 31.2249C33.6049 30.6726 33.1572 30.2249 32.6049 30.2249L32.6049 32.2249ZM27.5888 30.2249C27.0365 30.2249 26.5888 30.6726 26.5888 31.2249C26.5888 31.7772 27.0365 32.2249 27.5888 32.2249L27.5888 30.2249ZM22.5727 32.2249C23.125 32.2249 23.5727 31.7772 23.5727 31.2249C23.5727 30.6726 23.125 30.2249 22.5727 30.2249L22.5727 32.2249ZM17.5566 30.2249C17.0043 30.2249 16.5566 30.6726 16.5566 31.2249C16.5566 31.7772 17.0043 32.2249 17.5566 32.2249L17.5566 30.2249ZM12.5405 32.2249C13.0928 32.2249 13.5405 31.7772 13.5405 31.2249C13.5405 30.6726 13.0928 30.2249 12.5405 30.2249L12.5405 32.2249ZM7.52435 30.2249C6.97208 30.2249 6.52435 30.6726 6.52435 31.2249C6.52435 31.7772 6.97208 32.2249 7.52435 32.2249L7.52435 30.2249ZM2.50824 32.2249C3.06055 32.2249 3.50824 31.7772 3.50824 31.2249C3.50824 30.6726 3.06055 30.2249 2.50824 30.2249L2.50824 32.2249ZM308.492 278.775C307.94 278.775 307.492 279.223 307.492 279.775C307.492 280.327 307.94 280.775 308.492 280.775L308.492 278.775ZM303.476 280.775C304.028 280.775 304.476 280.327 304.476 279.775C304.476 279.223 304.028 278.775 303.476 278.775L303.476 280.775ZM298.46 278.775C297.907 278.775 297.46 279.223 297.46 279.775C297.46 280.327 297.907 280.775 298.46 280.775L298.46 278.775ZM293.444 280.775C293.996 280.775 294.444 280.327 294.444 279.775C294.444 279.223 293.996 278.775 293.444 278.775L293.444 280.775ZM288.427 278.775C287.875 278.775 287.427 279.223 287.427 279.775C287.427 280.327 287.875 280.775 288.427 280.775L288.427 278.775ZM283.411 280.775C283.964 280.775 284.411 280.327 284.411 279.775C284.411 279.223 283.964 278.775 283.411 278.775L283.411 280.775ZM278.395 278.775C277.843 278.775 277.395 279.223 277.395 279.775C277.395 280.327 277.843 280.775 278.395 280.775L278.395 278.775ZM273.379 280.775C273.931 280.775 274.379 280.327 274.379 279.775C274.379 279.223 273.931 278.775 273.379 278.775L273.379 280.775ZM268.363 278.775C267.811 278.775 267.363 279.223 267.363 279.775C267.363 280.327 267.811 280.775 268.363 280.775L268.363 278.775ZM263.347 280.775C263.899 280.775 264.347 280.327 264.347 279.775C264.347 279.223 263.899 278.775 263.347 278.775L263.347 280.775ZM258.331 278.775C257.778 278.775 257.331 279.223 257.331 279.775C257.331 280.327 257.778 280.775 258.331 280.775L258.331 278.775ZM253.315 280.775C253.867 280.775 254.315 280.327 254.315 279.775C254.315 279.223 253.867 278.775 253.315 278.775L253.315 280.775ZM248.298 278.775C247.746 278.775 247.298 279.223 247.298 279.775C247.298 280.327 247.746 280.775 248.298 280.775L248.298 278.775ZM243.282 280.775C243.835 280.775 244.282 280.327 244.282 279.775C244.282 279.223 243.835 278.775 243.282 278.775L243.282 280.775ZM238.266 278.775C237.714 278.775 237.266 279.223 237.266 279.775C237.266 280.327 237.714 280.775 238.266 280.775L238.266 278.775ZM233.25 280.775C233.802 280.775 234.25 280.327 234.25 279.775C234.25 279.223 233.802 278.775 233.25 278.775L233.25 280.775ZM228.234 278.775C227.682 278.775 227.234 279.223 227.234 279.775C227.234 280.327 227.682 280.775 228.234 280.775L228.234 278.775ZM223.218 280.775C223.77 280.775 224.218 280.327 224.218 279.775C224.218 279.223 223.77 278.775 223.218 278.775L223.218 280.775ZM218.202 278.775C217.649 278.775 217.202 279.223 217.202 279.775C217.202 280.327 217.649 280.775 218.202 280.775L218.202 278.775ZM213.185 280.775C213.738 280.775 214.185 280.327 214.185 279.775C214.185 279.223 213.738 278.775 213.185 278.775L213.185 280.775ZM208.169 278.775C207.617 278.775 207.169 279.223 207.169 279.775C207.169 280.327 207.617 280.775 208.169 280.775L208.169 278.775ZM203.153 280.775C203.706 280.775 204.153 280.327 204.153 279.775C204.153 279.223 203.706 278.775 203.153 278.775L203.153 280.775ZM198.137 278.775C197.585 278.775 197.137 279.223 197.137 279.775C197.137 280.327 197.585 280.775 198.137 280.775L198.137 278.775ZM193.121 280.775C193.673 280.775 194.121 280.327 194.121 279.775C194.121 279.223 193.673 278.775 193.121 278.775L193.121 280.775ZM188.105 278.775C187.553 278.775 187.105 279.223 187.105 279.775C187.105 280.327 187.553 280.775 188.105 280.775L188.105 278.775ZM183.089 280.775C183.641 280.775 184.089 280.327 184.089 279.775C184.089 279.223 183.641 278.775 183.089 278.775L183.089 280.775ZM178.073 278.775C177.52 278.775 177.073 279.223 177.073 279.775C177.073 280.327 177.52 280.775 178.073 280.775L178.073 278.775ZM173.056 280.775C173.609 280.775 174.056 280.327 174.056 279.775C174.056 279.223 173.609 278.775 173.056 278.775L173.056 280.775ZM168.04 278.775C167.488 278.775 167.04 279.223 167.04 279.775C167.04 280.327 167.488 280.775 168.04 280.775L168.04 278.775ZM163.024 280.775C163.576 280.775 164.024 280.327 164.024 279.775C164.024 279.223 163.576 278.775 163.024 278.775L163.024 280.775ZM158.008 278.775C157.456 278.775 157.008 279.223 157.008 279.775C157.008 280.327 157.456 280.775 158.008 280.775L158.008 278.775ZM152.992 280.775C153.544 280.775 153.992 280.327 153.992 279.775C153.992 279.223 153.544 278.775 152.992 278.775L152.992 280.775ZM147.976 278.775C147.424 278.775 146.976 279.223 146.976 279.775C146.976 280.327 147.424 280.775 147.976 280.775L147.976 278.775ZM142.96 280.775C143.512 280.775 143.96 280.327 143.96 279.775C143.96 279.223 143.512 278.775 142.96 278.775L142.96 280.775ZM137.944 278.775C137.391 278.775 136.944 279.223 136.944 279.775C136.944 280.327 137.391 280.775 137.944 280.775L137.944 278.775ZM132.927 280.775C133.48 280.775 133.927 280.327 133.927 279.775C133.927 279.223 133.48 278.775 132.927 278.775L132.927 280.775ZM127.911 278.775C127.359 278.775 126.911 279.223 126.911 279.775C126.911 280.327 127.359 280.775 127.911 280.775L127.911 278.775ZM122.895 280.775C123.447 280.775 123.895 280.327 123.895 279.775C123.895 279.223 123.447 278.775 122.895 278.775L122.895 280.775ZM117.879 278.775C117.327 278.775 116.879 279.223 116.879 279.775C116.879 280.327 117.327 280.775 117.879 280.775L117.879 278.775ZM112.863 280.775C113.415 280.775 113.863 280.327 113.863 279.775C113.863 279.223 113.415 278.775 112.863 278.775L112.863 280.775ZM107.847 278.775C107.295 278.775 106.847 279.223 106.847 279.775C106.847 280.327 107.295 280.775 107.847 280.775L107.847 278.775ZM102.831 280.775C103.383 280.775 103.831 280.327 103.831 279.775C103.831 279.223 103.383 278.775 102.831 278.775L102.831 280.775ZM97.8145 278.775C97.2622 278.775 96.8145 279.223 96.8145 279.775C96.8145 280.327 97.2622 280.775 97.8145 280.775L97.8145 278.775ZM92.7984 280.775C93.3507 280.775 93.7984 280.327 93.7984 279.775C93.7984 279.223 93.3507 278.775 92.7984 278.775L92.7984 280.775ZM87.7823 278.775C87.23 278.775 86.7823 279.223 86.7823 279.775C86.7823 280.327 87.23 280.775 87.7823 280.775L87.7823 278.775ZM82.7662 280.775C83.3184 280.775 83.7662 280.327 83.7662 279.775C83.7662 279.223 83.3184 278.775 82.7662 278.775L82.7662 280.775ZM77.75 278.775C77.1977 278.775 76.75 279.223 76.75 279.775C76.75 280.327 77.1977 280.775 77.75 280.775L77.75 278.775ZM72.7339 280.775C73.2862 280.775 73.7339 280.327 73.7339 279.775C73.7339 279.223 73.2862 278.775 72.7339 278.775L72.7339 280.775ZM67.7178 278.775C67.1655 278.775 66.7178 279.223 66.7178 279.775C66.7178 280.327 67.1655 280.775 67.7178 280.775L67.7178 278.775ZM62.7016 280.775C63.2539 280.775 63.7016 280.327 63.7016 279.775C63.7016 279.223 63.2539 278.775 62.7016 278.775L62.7016 280.775ZM57.6855 278.775C57.1332 278.775 56.6855 279.223 56.6855 279.775C56.6855 280.327 57.1332 280.775 57.6855 280.775L57.6855 278.775ZM52.6694 280.775C53.2216 280.775 53.6694 280.327 53.6694 279.775C53.6694 279.223 53.2216 278.775 52.6694 278.775L52.6694 280.775ZM47.6532 278.775C47.101 278.775 46.6532 279.223 46.6532 279.775C46.6532 280.327 47.101 280.775 47.6532 280.775L47.6532 278.775ZM42.6371 280.775C43.1894 280.775 43.6371 280.327 43.6371 279.775C43.6371 279.223 43.1894 278.775 42.6371 278.775L42.6371 280.775ZM37.621 278.775C37.0687 278.775 36.621 279.223 36.621 279.775C36.621 280.327 37.0687 280.775 37.621 280.775L37.621 278.775ZM32.6049 280.775C33.1572 280.775 33.6049 280.327 33.6049 279.775C33.6049 279.223 33.1572 278.775 32.6049 278.775L32.6049 280.775ZM27.5888 278.775C27.0365 278.775 26.5888 279.223 26.5888 279.775C26.5888 280.327 27.0365 280.775 27.5888 280.775L27.5888 278.775ZM22.5727 280.775C23.125 280.775 23.5727 280.327 23.5727 279.775C23.5727 279.223 23.125 278.775 22.5727 278.775L22.5727 280.775ZM17.5566 278.775C17.0043 278.775 16.5566 279.223 16.5566 279.775C16.5566 280.327 17.0043 280.775 17.5566 280.775L17.5566 278.775ZM12.5405 280.775C13.0928 280.775 13.5405 280.327 13.5405 279.775C13.5405 279.223 13.0928 278.775 12.5405 278.775L12.5405 280.775ZM7.52434 278.775C6.97207 278.775 6.52434 279.223 6.52434 279.775C6.52434 280.327 6.97207 280.775 7.52434 280.775L7.52434 278.775ZM2.50823 280.775C3.06054 280.775 3.50823 280.327 3.50823 279.775C3.50823 279.223 3.06054 278.775 2.50823 278.775L2.50823 280.775ZM311 30.2249L308.492 30.2249L308.492 32.2249L311 32.2249L311 30.2249ZM303.476 30.2249L298.46 30.2249L298.46 32.2249L303.476 32.2249L303.476 30.2249ZM293.444 30.2249L288.427 30.2249L288.427 32.2249L293.444 32.2249L293.444 30.2249ZM283.411 30.2249L278.395 30.2249L278.395 32.2249L283.411 32.2249L283.411 30.2249ZM273.379 30.2249L268.363 30.2249L268.363 32.2249L273.379 32.2249L273.379 30.2249ZM263.347 30.2249L258.331 30.2249L258.331 32.2249L263.347 32.2249L263.347 30.2249ZM253.315 30.2249L248.298 30.2249L248.298 32.2249L253.315 32.2249L253.315 30.2249ZM243.282 30.2249L238.266 30.2249L238.266 32.2249L243.282 32.2249L243.282 30.2249ZM233.25 30.2249L228.234 30.2249L228.234 32.2249L233.25 32.2249L233.25 30.2249ZM223.218 30.2249L218.202 30.2249L218.202 32.2249L223.218 32.2249L223.218 30.2249ZM213.185 30.2249L208.169 30.2249L208.169 32.2249L213.185 32.2249L213.185 30.2249ZM203.153 30.2249L198.137 30.2249L198.137 32.2249L203.153 32.2249L203.153 30.2249ZM193.121 30.2249L188.105 30.2249L188.105 32.2249L193.121 32.2249L193.121 30.2249ZM183.089 30.2249L178.073 30.2249L178.073 32.2249L183.089 32.2249L183.089 30.2249ZM173.056 30.2249L168.04 30.2249L168.04 32.2249L173.056 32.2249L173.056 30.2249ZM163.024 30.2249L158.008 30.2249L158.008 32.2249L163.024 32.2249L163.024 30.2249ZM152.992 30.2249L147.976 30.2249L147.976 32.2249L152.992 32.2249L152.992 30.2249ZM142.96 30.2249L137.944 30.2249L137.944 32.2249L142.96 32.2249L142.96 30.2249ZM132.927 30.2249L127.911 30.2249L127.911 32.2249L132.927 32.2249L132.927 30.2249ZM122.895 30.2249L117.879 30.2249L117.879 32.2249L122.895 32.2249L122.895 30.2249ZM112.863 30.2249L107.847 30.2249L107.847 32.2249L112.863 32.2249L112.863 30.2249ZM102.831 30.2249L97.8145 30.2249L97.8145 32.2249L102.831 32.2249L102.831 30.2249ZM92.7984 30.2249L87.7823 30.2249L87.7823 32.2249L92.7984 32.2249L92.7984 30.2249ZM82.7662 30.2249L77.75 30.2249L77.75 32.2249L82.7662 32.2249L82.7662 30.2249ZM72.7339 30.2249L67.7178 30.2249L67.7178 32.2249L72.7339 32.2249L72.7339 30.2249ZM62.7017 30.2249L57.6855 30.2249L57.6855 32.2249L62.7017 32.2249L62.7017 30.2249ZM52.6694 30.2249L47.6533 30.2249L47.6533 32.2249L52.6694 32.2249L52.6694 30.2249ZM42.6371 30.2249L37.621 30.2249L37.621 32.2249L42.6371 32.2249L42.6371 30.2249ZM32.6049 30.2249L27.5888 30.2249L27.5888 32.2249L32.6049 32.2249L32.6049 30.2249ZM22.5727 30.2249L17.5566 30.2249L17.5566 32.2249L22.5727 32.2249L22.5727 30.2249ZM12.5405 30.2249L7.52435 30.2249L7.52435 32.2249L12.5405 32.2249L12.5405 30.2249ZM2.50824 30.2249L3.05613e-05 30.2249L3.04739e-05 32.2249L2.50824 32.2249L2.50824 30.2249ZM311 278.775L308.492 278.775L308.492 280.775L311 280.775L311 278.775ZM303.476 278.775L298.46 278.775L298.46 280.775L303.476 280.775L303.476 278.775ZM293.444 278.775L288.427 278.775L288.427 280.775L293.444 280.775L293.444 278.775ZM283.411 278.775L278.395 278.775L278.395 280.775L283.411 280.775L283.411 278.775ZM273.379 278.775L268.363 278.775L268.363 280.775L273.379 280.775L273.379 278.775ZM263.347 278.775L258.331 278.775L258.331 280.775L263.347 280.775L263.347 278.775ZM253.315 278.775L248.298 278.775L248.298 280.775L253.315 280.775L253.315 278.775ZM243.282 278.775L238.266 278.775L238.266 280.775L243.282 280.775L243.282 278.775ZM233.25 278.775L228.234 278.775L228.234 280.775L233.25 280.775L233.25 278.775ZM223.218 278.775L218.202 278.775L218.202 280.775L223.218 280.775L223.218 278.775ZM213.185 278.775L208.169 278.775L208.169 280.775L213.185 280.775L213.185 278.775ZM203.153 278.775L198.137 278.775L198.137 280.775L203.153 280.775L203.153 278.775ZM193.121 278.775L188.105 278.775L188.105 280.775L193.121 280.775L193.121 278.775ZM183.089 278.775L178.073 278.775L178.073 280.775L183.089 280.775L183.089 278.775ZM173.056 278.775L168.04 278.775L168.04 280.775L173.056 280.775L173.056 278.775ZM163.024 278.775L158.008 278.775L158.008 280.775L163.024 280.775L163.024 278.775ZM152.992 278.775L147.976 278.775L147.976 280.775L152.992 280.775L152.992 278.775ZM142.96 278.775L137.944 278.775L137.944 280.775L142.96 280.775L142.96 278.775ZM132.927 278.775L127.911 278.775L127.911 280.775L132.927 280.775L132.927 278.775ZM122.895 278.775L117.879 278.775L117.879 280.775L122.895 280.775L122.895 278.775ZM112.863 278.775L107.847 278.775L107.847 280.775L112.863 280.775L112.863 278.775ZM102.831 278.775L97.8145 278.775L97.8145 280.775L102.831 280.775L102.831 278.775ZM92.7984 278.775L87.7823 278.775L87.7823 280.775L92.7984 280.775L92.7984 278.775ZM82.7662 278.775L77.75 278.775L77.75 280.775L82.7662 280.775L82.7662 278.775ZM72.7339 278.775L67.7178 278.775L67.7178 280.775L72.7339 280.775L72.7339 278.775ZM62.7016 278.775L57.6855 278.775L57.6855 280.775L62.7016 280.775L62.7016 278.775ZM52.6694 278.775L47.6532 278.775L47.6532 280.775L52.6694 280.775L52.6694 278.775ZM42.6371 278.775L37.621 278.775L37.621 280.775L42.6371 280.775L42.6371 278.775ZM32.6049 278.775L27.5888 278.775L27.5888 280.775L32.6049 280.775L32.6049 278.775ZM22.5727 278.775L17.5566 278.775L17.5566 280.775L22.5727 280.775L22.5727 278.775ZM12.5405 278.775L7.52434 278.775L7.52434 280.775L12.5405 280.775L12.5405 278.775ZM2.50823 278.775L1.96968e-05 278.775L1.96094e-05 280.775L2.50823 280.775L2.50823 278.775Z" fill="url(#paint1_linear_127_8120)"/>
</g>
<mask id="mask0_127_8120" style="mask-type:alpha" maskUnits="userSpaceOnUse" x="39" y="39" width="233" height="233">
<rect x="39.9678" y="39.9679" width="231.064" height="231.064" fill="#C4C4C4"/>
</mask>
<g mask="url(#mask0_127_8120)">
<path d="M193.492 74.3829C192.801 75.19 192.888 77.1042 192.7 79.3605C192.524 81.5469 192.171 83.7154 191.643 85.8446C191.197 87.4711 190.725 88.161 189.494 87.2491C188.262 86.3372 186.255 83.7842 184.17 81.7596C182.432 79.967 180.316 78.5843 177.975 77.7123C177.162 77.4274 176.272 77.4512 175.476 77.779C174.68 78.1069 174.032 78.7158 173.657 79.4898C172.42 81.6389 171.429 83.9203 170.703 86.2907C169.972 88.4112 169.567 89.7356 168.541 89.6593C167.515 89.583 166.152 88.1272 163.215 86.2491C158.997 83.4168 153.953 82.0685 148.882 82.4171C141.86 82.7916 132.27 85.8177 127.416 92.9924C122.561 100.167 122.443 111.49 123.316 118.48C123.866 122.87 125.284 127.106 127.489 130.943C128.595 133.156 129.228 135.575 129.348 138.045C129.26 139.221 128.222 138.533 126.947 136.664C125.384 134.32 124.208 131.74 123.466 129.022C122.793 126.263 122.977 123.797 123.804 122.962C124.63 122.127 126.153 122.984 127.979 127.698C129.806 132.413 131.995 140.989 134.375 146.221C135.689 149.84 138.359 152.808 141.822 154.501C144.172 155.766 146.849 156.297 149.505 156.027C152.298 155.528 155.018 154.686 157.604 153.519C159.736 152.734 161.82 151.825 163.846 150.797C165.68 149.587 167.681 148.65 169.786 148.015C171.722 147.682 173.405 148.436 171.202 150.562C167.617 153.335 163.828 155.834 159.866 158.037C156.861 159.893 156.959 160.11 159.02 160.664C162.139 161.271 165.093 162.531 167.688 164.361C168.86 165.449 169.759 166.797 170.311 168.297C170.863 169.796 171.053 171.405 170.866 172.991C170.535 175.886 168.8 178.141 165.307 180.896C161.815 183.65 156.694 186.971 152.722 187.19C148.75 187.41 146.022 184.785 143.103 181.897C140.185 179.009 137.105 175.975 136.896 170.828C136.688 165.681 139.449 158.388 140.139 152.984C140.829 147.579 139.715 144.062 140.377 142.871C141.039 141.68 143.556 142.783 144.628 145.839C145.699 148.895 145.331 153.827 145.081 156.671C144.83 159.514 144.644 160.225 142.173 160.041C139.702 159.857 134.872 158.773 129.368 158.516C123.454 158.398 117.541 158.762 111.687 159.606C105.688 160.342 99.8863 161.265 92.9117 170.991C85.937 180.718 77.7895 199.247 73.8867 212.368C69.9839 225.489 70.4192 233.229 72.9353 237.67C75.4513 242.112 80.3303 243.314 85.7358 242.838C91.1412 242.363 97.1316 240.194 107.598 231.567C118.064 222.94 133.37 207.843 141.292 200.019C149.214 192.195 149.983 191.623 148.046 188.388C145.414 184.021 142.148 180.069 138.353 176.66C134.995 174.025 132.774 174.604 128.938 177.352C125.102 180.1 119.634 184.997 111.843 190.294C104.052 195.59 94.2628 201.292 90.538 205.88C86.8132 210.467 89.2298 213.68 92.3626 212.673C95.4953 211.666 99.3148 206.322 101.776 201.259C103.602 196.921 105.208 192.494 106.587 187.995C107.947 184.624 109.547 182.645 112.117 182.264C114.687 181.882 118.265 183.102 122.599 187.011C127.365 191.338 131.241 196.551 134.009 202.358C135.943 207.176 134.665 210.21 127.709 216.866C120.754 223.522 108.118 233.819 101.608 239.363C95.0982 244.908 94.7333 245.701 94.5383 249.082C94.3434 252.464 94.3051 258.356 94.2801 264.325M212.505 266C211.105 242.24 209.688 218.459 208.212 204.442C206.735 190.424 205.181 186.15 200.118 182.034C195.055 177.919 186.656 173.956 181.099 171.081C177.541 169.244 174.165 167.077 171.014 164.608C170.012 164.033 169.173 163.212 168.578 162.223C167.983 161.234 167.651 160.11 167.614 158.956C167.27 154.848 167.579 150.712 168.528 146.7C169.439 143.449 170.953 142.626 171.881 139.414C172.796 135.016 173.233 130.533 173.184 126.042C173.277 121.47 173.121 117.929 174.064 117.065C175.008 116.2 177.07 118.013 177.557 121.483C177.79 125.064 177.189 128.65 175.8 131.96C174.823 133.795 174.074 132.557 174.091 127.464C174.108 122.372 174.867 113.481 174.058 107.163C173.249 100.845 170.986 97.1097 168.991 92.5926C166.997 88.0756 165.651 82.8055 166.374 80.2838C167.098 77.7621 170.005 77.9783 172.533 78.4143C175.062 78.8503 177.187 79.5616 180.786 83.8354C184.385 88.1093 189.459 95.6598 191.623 94.3136C193.788 92.9674 192.935 76.7262 192.671 71.3076M192.816 71.9289C192.816 71.9289 186.629 43.959 223.355 45.03C260.081 46.101 248.16 76.788 235.915 81.6008C223.669 86.4135 200.187 86.8615 192.743 75.987M209.572 64.5326C207.75 63.3478 203.837 64.564 204.967 67.09C206.097 69.616 207.868 69.4424 209.756 67.4461C211.644 65.4498 209.572 64.5326 209.572 64.5326ZM221.54 62.9424C219.717 61.7576 215.806 62.9548 216.934 65.4998C218.063 68.0447 219.837 67.8332 221.724 65.8559C223.61 63.8785 221.54 62.9424 221.54 62.9424ZM233.507 61.3522C231.685 60.1674 227.773 61.3646 228.902 63.9095C230.031 66.4545 231.805 66.243 233.691 64.2656C235.578 62.2883 233.507 61.3522 233.507 61.3522ZM151.348 94.4476C151.348 94.4476 130.888 111.012 120.29 112.685C121.844 107.976 122.668 103.058 122.735 98.1006C123.041 92.2093 127.17 84.7708 140.877 81.116C154.584 77.4612 167.937 80.3427 172.182 91.3227C176.427 102.303 173.972 106.527 173.972 106.527C173.972 106.527 162.372 95.5153 151.348 94.4476Z" stroke="#111113" stroke-miterlimit="22.93"/>
</g>
<defs>
<linearGradient id="paint0_linear_127_8120" x1="155.5" y1="0" x2="155.5" y2="311" gradientUnits="userSpaceOnUse">
<stop stop-color="#C4C4C4" stop-opacity="0"/>
<stop offset="0.0884102" stop-color="#C4C4C4"/>
<stop offset="0.914586" stop-color="#C4C4C4"/>
<stop offset="1" stop-color="#C4C4C4" stop-opacity="0"/>
</linearGradient>
<linearGradient id="paint1_linear_127_8120" x1="311" y1="155.5" x2="2.50853e-05" y2="155.5" gradientUnits="userSpaceOnUse">
<stop stop-color="#C4C4C4" stop-opacity="0"/>
<stop offset="0.0967224" stop-color="#C4C4C4"/>
<stop offset="0.901883" stop-color="#C4C4C4"/>
<stop offset="1" stop-color="#C4C4C4" stop-opacity="0"/>
</linearGradient>
</defs>
</svg>
