<svg width="311" height="311" viewBox="0 0 311 311" fill="none" xmlns="http://www.w3.org/2000/svg">
<g opacity="0.5">
<path d="M30.2246 2.50806C30.2246 3.06035 30.6723 3.50806 31.2246 3.50806C31.7769 3.50806 32.2246 3.06035 32.2246 2.50806H30.2246ZM32.2246 7.52419C32.2246 6.97191 31.7769 6.52419 31.2246 6.52419C30.6723 6.52419 30.2246 6.97191 30.2246 7.52419H32.2246ZM30.2246 12.5403C30.2246 13.0926 30.6723 13.5403 31.2246 13.5403C31.7769 13.5403 32.2246 13.0926 32.2246 12.5403H30.2246ZM32.2246 17.5565C32.2246 17.0042 31.7769 16.5565 31.2246 16.5565C30.6723 16.5565 30.2246 17.0042 30.2246 17.5565H32.2246ZM30.2246 22.5726C30.2246 23.1249 30.6723 23.5726 31.2246 23.5726C31.7769 23.5726 32.2246 23.1249 32.2246 22.5726H30.2246ZM32.2246 27.5887C32.2246 27.0364 31.7769 26.5887 31.2246 26.5887C30.6723 26.5887 30.2246 27.0364 30.2246 27.5887H32.2246ZM30.2246 32.6048C30.2246 33.1571 30.6723 33.6048 31.2246 33.6048C31.7769 33.6048 32.2246 33.1571 32.2246 32.6048H30.2246ZM32.2246 37.621C32.2246 37.0687 31.7769 36.621 31.2246 36.621C30.6723 36.621 30.2246 37.0687 30.2246 37.621H32.2246ZM30.2246 42.6371C30.2246 43.1894 30.6723 43.6371 31.2246 43.6371C31.7769 43.6371 32.2246 43.1894 32.2246 42.6371H30.2246ZM32.2246 47.6532C32.2246 47.1009 31.7769 46.6532 31.2246 46.6532C30.6723 46.6532 30.2246 47.1009 30.2246 47.6532H32.2246ZM30.2246 52.6694C30.2246 53.2216 30.6723 53.6694 31.2246 53.6694C31.7769 53.6694 32.2246 53.2216 32.2246 52.6694H30.2246ZM32.2246 57.6855C32.2246 57.1332 31.7769 56.6855 31.2246 56.6855C30.6723 56.6855 30.2246 57.1332 30.2246 57.6855H32.2246ZM30.2246 62.7016C30.2246 63.2539 30.6723 63.7016 31.2246 63.7016C31.7769 63.7016 32.2246 63.2539 32.2246 62.7016H30.2246ZM32.2246 67.7177C32.2246 67.1655 31.7769 66.7177 31.2246 66.7177C30.6723 66.7177 30.2246 67.1655 30.2246 67.7177H32.2246ZM30.2246 72.7339C30.2246 73.2862 30.6723 73.7339 31.2246 73.7339C31.7769 73.7339 32.2246 73.2862 32.2246 72.7339H30.2246ZM32.2246 77.75C32.2246 77.1977 31.7769 76.75 31.2246 76.75C30.6723 76.75 30.2246 77.1977 30.2246 77.75H32.2246ZM30.2246 82.7661C30.2246 83.3184 30.6723 83.7661 31.2246 83.7661C31.7769 83.7661 32.2246 83.3184 32.2246 82.7661H30.2246ZM32.2246 87.7823C32.2246 87.23 31.7769 86.7823 31.2246 86.7823C30.6723 86.7823 30.2246 87.23 30.2246 87.7823H32.2246ZM30.2246 92.7984C30.2246 93.3507 30.6723 93.7984 31.2246 93.7984C31.7769 93.7984 32.2246 93.3507 32.2246 92.7984H30.2246ZM32.2246 97.8145C32.2246 97.2622 31.7769 96.8145 31.2246 96.8145C30.6723 96.8145 30.2246 97.2622 30.2246 97.8145H32.2246ZM30.2246 102.831C30.2246 103.383 30.6723 103.831 31.2246 103.831C31.7769 103.831 32.2246 103.383 32.2246 102.831H30.2246ZM32.2246 107.847C32.2246 107.294 31.7769 106.847 31.2246 106.847C30.6723 106.847 30.2246 107.294 30.2246 107.847H32.2246ZM30.2246 112.863C30.2246 113.415 30.6723 113.863 31.2246 113.863C31.7769 113.863 32.2246 113.415 32.2246 112.863H30.2246ZM32.2246 117.879C32.2246 117.327 31.7769 116.879 31.2246 116.879C30.6723 116.879 30.2246 117.327 30.2246 117.879H32.2246ZM30.2246 122.895C30.2246 123.447 30.6723 123.895 31.2246 123.895C31.7769 123.895 32.2246 123.447 32.2246 122.895H30.2246ZM32.2246 127.911C32.2246 127.359 31.7769 126.911 31.2246 126.911C30.6723 126.911 30.2246 127.359 30.2246 127.911H32.2246ZM30.2246 132.927C30.2246 133.48 30.6723 133.927 31.2246 133.927C31.7769 133.927 32.2246 133.48 32.2246 132.927H30.2246ZM32.2246 137.944C32.2246 137.391 31.7769 136.944 31.2246 136.944C30.6723 136.944 30.2246 137.391 30.2246 137.944H32.2246ZM30.2246 142.96C30.2246 143.512 30.6723 143.96 31.2246 143.96C31.7769 143.96 32.2246 143.512 32.2246 142.96H30.2246ZM32.2246 147.976C32.2246 147.424 31.7769 146.976 31.2246 146.976C30.6723 146.976 30.2246 147.424 30.2246 147.976H32.2246ZM30.2246 152.992C30.2246 153.544 30.6723 153.992 31.2246 153.992C31.7769 153.992 32.2246 153.544 32.2246 152.992H30.2246ZM32.2246 158.008C32.2246 157.456 31.7769 157.008 31.2246 157.008C30.6723 157.008 30.2246 157.456 30.2246 158.008H32.2246ZM30.2246 163.024C30.2246 163.576 30.6723 164.024 31.2246 164.024C31.7769 164.024 32.2246 163.576 32.2246 163.024H30.2246ZM32.2246 168.04C32.2246 167.488 31.7769 167.04 31.2246 167.04C30.6723 167.04 30.2246 167.488 30.2246 168.04H32.2246ZM30.2246 173.056C30.2246 173.609 30.6723 174.056 31.2246 174.056C31.7769 174.056 32.2246 173.609 32.2246 173.056H30.2246ZM32.2246 178.073C32.2246 177.52 31.7769 177.073 31.2246 177.073C30.6723 177.073 30.2246 177.52 30.2246 178.073H32.2246ZM30.2246 183.089C30.2246 183.641 30.6723 184.089 31.2246 184.089C31.7769 184.089 32.2246 183.641 32.2246 183.089H30.2246ZM32.2246 188.105C32.2246 187.553 31.7769 187.105 31.2246 187.105C30.6723 187.105 30.2246 187.553 30.2246 188.105H32.2246ZM30.2246 193.121C30.2246 193.673 30.6723 194.121 31.2246 194.121C31.7769 194.121 32.2246 193.673 32.2246 193.121H30.2246ZM32.2246 198.137C32.2246 197.585 31.7769 197.137 31.2246 197.137C30.6723 197.137 30.2246 197.585 30.2246 198.137H32.2246ZM30.2246 203.153C30.2246 203.706 30.6723 204.153 31.2246 204.153C31.7769 204.153 32.2246 203.706 32.2246 203.153H30.2246ZM32.2246 208.169C32.2246 207.617 31.7769 207.169 31.2246 207.169C30.6723 207.169 30.2246 207.617 30.2246 208.169H32.2246ZM30.2246 213.185C30.2246 213.738 30.6723 214.185 31.2246 214.185C31.7769 214.185 32.2246 213.738 32.2246 213.185H30.2246ZM32.2246 218.202C32.2246 217.649 31.7769 217.202 31.2246 217.202C30.6723 217.202 30.2246 217.649 30.2246 218.202H32.2246ZM30.2246 223.218C30.2246 223.77 30.6723 224.218 31.2246 224.218C31.7769 224.218 32.2246 223.77 32.2246 223.218H30.2246ZM32.2246 228.234C32.2246 227.682 31.7769 227.234 31.2246 227.234C30.6723 227.234 30.2246 227.682 30.2246 228.234H32.2246ZM30.2246 233.25C30.2246 233.802 30.6723 234.25 31.2246 234.25C31.7769 234.25 32.2246 233.802 32.2246 233.25H30.2246ZM32.2246 238.266C32.2246 237.714 31.7769 237.266 31.2246 237.266C30.6723 237.266 30.2246 237.714 30.2246 238.266H32.2246ZM30.2246 243.282C30.2246 243.835 30.6723 244.282 31.2246 244.282C31.7769 244.282 32.2246 243.835 32.2246 243.282H30.2246ZM32.2246 248.298C32.2246 247.746 31.7769 247.298 31.2246 247.298C30.6723 247.298 30.2246 247.746 30.2246 248.298H32.2246ZM30.2246 253.314C30.2246 253.867 30.6723 254.314 31.2246 254.314C31.7769 254.314 32.2246 253.867 32.2246 253.314H30.2246ZM32.2246 258.331C32.2246 257.778 31.7769 257.331 31.2246 257.331C30.6723 257.331 30.2246 257.778 30.2246 258.331H32.2246ZM30.2246 263.347C30.2246 263.899 30.6723 264.347 31.2246 264.347C31.7769 264.347 32.2246 263.899 32.2246 263.347H30.2246ZM32.2246 268.363C32.2246 267.811 31.7769 267.363 31.2246 267.363C30.6723 267.363 30.2246 267.811 30.2246 268.363H32.2246ZM30.2246 273.379C30.2246 273.931 30.6723 274.379 31.2246 274.379C31.7769 274.379 32.2246 273.931 32.2246 273.379H30.2246ZM32.2246 278.395C32.2246 277.843 31.7769 277.395 31.2246 277.395C30.6723 277.395 30.2246 277.843 30.2246 278.395H32.2246ZM30.2246 283.411C30.2246 283.964 30.6723 284.411 31.2246 284.411C31.7769 284.411 32.2246 283.964 32.2246 283.411H30.2246ZM32.2246 288.427C32.2246 287.875 31.7769 287.427 31.2246 287.427C30.6723 287.427 30.2246 287.875 30.2246 288.427H32.2246ZM30.2246 293.444C30.2246 293.996 30.6723 294.444 31.2246 294.444C31.7769 294.444 32.2246 293.996 32.2246 293.444H30.2246ZM32.2246 298.46C32.2246 297.908 31.7769 297.46 31.2246 297.46C30.6723 297.46 30.2246 297.908 30.2246 298.46H32.2246ZM30.2246 303.476C30.2246 304.028 30.6723 304.476 31.2246 304.476C31.7769 304.476 32.2246 304.028 32.2246 303.476H30.2246ZM32.2246 308.492C32.2246 307.94 31.7769 307.492 31.2246 307.492C30.6723 307.492 30.2246 307.94 30.2246 308.492H32.2246ZM278.775 2.50806C278.775 3.06035 279.223 3.50806 279.775 3.50806C280.327 3.50806 280.775 3.06035 280.775 2.50806H278.775ZM280.775 7.52419C280.775 6.97191 280.327 6.52419 279.775 6.52419C279.223 6.52419 278.775 6.97191 278.775 7.52419H280.775ZM278.775 12.5403C278.775 13.0926 279.223 13.5403 279.775 13.5403C280.327 13.5403 280.775 13.0926 280.775 12.5403H278.775ZM280.775 17.5565C280.775 17.0042 280.327 16.5565 279.775 16.5565C279.223 16.5565 278.775 17.0042 278.775 17.5565H280.775ZM278.775 22.5726C278.775 23.1249 279.223 23.5726 279.775 23.5726C280.327 23.5726 280.775 23.1249 280.775 22.5726H278.775ZM280.775 27.5887C280.775 27.0364 280.327 26.5887 279.775 26.5887C279.223 26.5887 278.775 27.0364 278.775 27.5887H280.775ZM278.775 32.6048C278.775 33.1571 279.223 33.6048 279.775 33.6048C280.327 33.6048 280.775 33.1571 280.775 32.6048H278.775ZM280.775 37.621C280.775 37.0687 280.327 36.621 279.775 36.621C279.223 36.621 278.775 37.0687 278.775 37.621H280.775ZM278.775 42.6371C278.775 43.1894 279.223 43.6371 279.775 43.6371C280.327 43.6371 280.775 43.1894 280.775 42.6371H278.775ZM280.775 47.6532C280.775 47.1009 280.327 46.6532 279.775 46.6532C279.223 46.6532 278.775 47.1009 278.775 47.6532H280.775ZM278.775 52.6694C278.775 53.2216 279.223 53.6694 279.775 53.6694C280.327 53.6694 280.775 53.2216 280.775 52.6694H278.775ZM280.775 57.6855C280.775 57.1332 280.327 56.6855 279.775 56.6855C279.223 56.6855 278.775 57.1332 278.775 57.6855H280.775ZM278.775 62.7016C278.775 63.2539 279.223 63.7016 279.775 63.7016C280.327 63.7016 280.775 63.2539 280.775 62.7016H278.775ZM280.775 67.7177C280.775 67.1655 280.327 66.7177 279.775 66.7177C279.223 66.7177 278.775 67.1655 278.775 67.7177H280.775ZM278.775 72.7339C278.775 73.2862 279.223 73.7339 279.775 73.7339C280.327 73.7339 280.775 73.2862 280.775 72.7339H278.775ZM280.775 77.75C280.775 77.1977 280.327 76.75 279.775 76.75C279.223 76.75 278.775 77.1977 278.775 77.75H280.775ZM278.775 82.7661C278.775 83.3184 279.223 83.7661 279.775 83.7661C280.327 83.7661 280.775 83.3184 280.775 82.7661H278.775ZM280.775 87.7823C280.775 87.23 280.327 86.7823 279.775 86.7823C279.223 86.7823 278.775 87.23 278.775 87.7823H280.775ZM278.775 92.7984C278.775 93.3507 279.223 93.7984 279.775 93.7984C280.327 93.7984 280.775 93.3507 280.775 92.7984H278.775ZM280.775 97.8145C280.775 97.2622 280.327 96.8145 279.775 96.8145C279.223 96.8145 278.775 97.2622 278.775 97.8145H280.775ZM278.775 102.831C278.775 103.383 279.223 103.831 279.775 103.831C280.327 103.831 280.775 103.383 280.775 102.831H278.775ZM280.775 107.847C280.775 107.294 280.327 106.847 279.775 106.847C279.223 106.847 278.775 107.294 278.775 107.847H280.775ZM278.775 112.863C278.775 113.415 279.223 113.863 279.775 113.863C280.327 113.863 280.775 113.415 280.775 112.863H278.775ZM280.775 117.879C280.775 117.327 280.327 116.879 279.775 116.879C279.223 116.879 278.775 117.327 278.775 117.879H280.775ZM278.775 122.895C278.775 123.447 279.223 123.895 279.775 123.895C280.327 123.895 280.775 123.447 280.775 122.895H278.775ZM280.775 127.911C280.775 127.359 280.327 126.911 279.775 126.911C279.223 126.911 278.775 127.359 278.775 127.911H280.775ZM278.775 132.927C278.775 133.48 279.223 133.927 279.775 133.927C280.327 133.927 280.775 133.48 280.775 132.927H278.775ZM280.775 137.944C280.775 137.391 280.327 136.944 279.775 136.944C279.223 136.944 278.775 137.391 278.775 137.944H280.775ZM278.775 142.96C278.775 143.512 279.223 143.96 279.775 143.96C280.327 143.96 280.775 143.512 280.775 142.96H278.775ZM280.775 147.976C280.775 147.424 280.327 146.976 279.775 146.976C279.223 146.976 278.775 147.424 278.775 147.976H280.775ZM278.775 152.992C278.775 153.544 279.223 153.992 279.775 153.992C280.327 153.992 280.775 153.544 280.775 152.992H278.775ZM280.775 158.008C280.775 157.456 280.327 157.008 279.775 157.008C279.223 157.008 278.775 157.456 278.775 158.008H280.775ZM278.775 163.024C278.775 163.576 279.223 164.024 279.775 164.024C280.327 164.024 280.775 163.576 280.775 163.024H278.775ZM280.775 168.04C280.775 167.488 280.327 167.04 279.775 167.04C279.223 167.04 278.775 167.488 278.775 168.04H280.775ZM278.775 173.056C278.775 173.609 279.223 174.056 279.775 174.056C280.327 174.056 280.775 173.609 280.775 173.056H278.775ZM280.775 178.073C280.775 177.52 280.327 177.073 279.775 177.073C279.223 177.073 278.775 177.52 278.775 178.073H280.775ZM278.775 183.089C278.775 183.641 279.223 184.089 279.775 184.089C280.327 184.089 280.775 183.641 280.775 183.089H278.775ZM280.775 188.105C280.775 187.553 280.327 187.105 279.775 187.105C279.223 187.105 278.775 187.553 278.775 188.105H280.775ZM278.775 193.121C278.775 193.673 279.223 194.121 279.775 194.121C280.327 194.121 280.775 193.673 280.775 193.121H278.775ZM280.775 198.137C280.775 197.585 280.327 197.137 279.775 197.137C279.223 197.137 278.775 197.585 278.775 198.137H280.775ZM278.775 203.153C278.775 203.706 279.223 204.153 279.775 204.153C280.327 204.153 280.775 203.706 280.775 203.153H278.775ZM280.775 208.169C280.775 207.617 280.327 207.169 279.775 207.169C279.223 207.169 278.775 207.617 278.775 208.169H280.775ZM278.775 213.185C278.775 213.738 279.223 214.185 279.775 214.185C280.327 214.185 280.775 213.738 280.775 213.185H278.775ZM280.775 218.202C280.775 217.649 280.327 217.202 279.775 217.202C279.223 217.202 278.775 217.649 278.775 218.202H280.775ZM278.775 223.218C278.775 223.77 279.223 224.218 279.775 224.218C280.327 224.218 280.775 223.77 280.775 223.218H278.775ZM280.775 228.234C280.775 227.682 280.327 227.234 279.775 227.234C279.223 227.234 278.775 227.682 278.775 228.234H280.775ZM278.775 233.25C278.775 233.802 279.223 234.25 279.775 234.25C280.327 234.25 280.775 233.802 280.775 233.25H278.775ZM280.775 238.266C280.775 237.714 280.327 237.266 279.775 237.266C279.223 237.266 278.775 237.714 278.775 238.266H280.775ZM278.775 243.282C278.775 243.835 279.223 244.282 279.775 244.282C280.327 244.282 280.775 243.835 280.775 243.282H278.775ZM280.775 248.298C280.775 247.746 280.327 247.298 279.775 247.298C279.223 247.298 278.775 247.746 278.775 248.298H280.775ZM278.775 253.314C278.775 253.867 279.223 254.314 279.775 254.314C280.327 254.314 280.775 253.867 280.775 253.314H278.775ZM280.775 258.331C280.775 257.778 280.327 257.331 279.775 257.331C279.223 257.331 278.775 257.778 278.775 258.331H280.775ZM278.775 263.347C278.775 263.899 279.223 264.347 279.775 264.347C280.327 264.347 280.775 263.899 280.775 263.347H278.775ZM280.775 268.363C280.775 267.811 280.327 267.363 279.775 267.363C279.223 267.363 278.775 267.811 278.775 268.363H280.775ZM278.775 273.379C278.775 273.931 279.223 274.379 279.775 274.379C280.327 274.379 280.775 273.931 280.775 273.379H278.775ZM280.775 278.395C280.775 277.843 280.327 277.395 279.775 277.395C279.223 277.395 278.775 277.843 278.775 278.395H280.775ZM278.775 283.411C278.775 283.964 279.223 284.411 279.775 284.411C280.327 284.411 280.775 283.964 280.775 283.411H278.775ZM280.775 288.427C280.775 287.875 280.327 287.427 279.775 287.427C279.223 287.427 278.775 287.875 278.775 288.427H280.775ZM278.775 293.444C278.775 293.996 279.223 294.444 279.775 294.444C280.327 294.444 280.775 293.996 280.775 293.444H278.775ZM280.775 298.46C280.775 297.908 280.327 297.46 279.775 297.46C279.223 297.46 278.775 297.908 278.775 298.46H280.775ZM278.775 303.476C278.775 304.028 279.223 304.476 279.775 304.476C280.327 304.476 280.775 304.028 280.775 303.476H278.775ZM280.775 308.492C280.775 307.94 280.327 307.492 279.775 307.492C279.223 307.492 278.775 307.94 278.775 308.492H280.775ZM30.2246 0V2.50806H32.2246V0H30.2246ZM30.2246 7.52419V12.5403H32.2246V7.52419H30.2246ZM30.2246 17.5565V22.5726H32.2246V17.5565H30.2246ZM30.2246 27.5887V32.6048H32.2246V27.5887H30.2246ZM30.2246 37.621V42.6371H32.2246V37.621H30.2246ZM30.2246 47.6532V52.6694H32.2246V47.6532H30.2246ZM30.2246 57.6855V62.7016H32.2246V57.6855H30.2246ZM30.2246 67.7177V72.7339H32.2246V67.7177H30.2246ZM30.2246 77.75V82.7661H32.2246V77.75H30.2246ZM30.2246 87.7823V92.7984H32.2246V87.7823H30.2246ZM30.2246 97.8145V102.831H32.2246V97.8145H30.2246ZM30.2246 107.847V112.863H32.2246V107.847H30.2246ZM30.2246 117.879V122.895H32.2246V117.879H30.2246ZM30.2246 127.911V132.927H32.2246V127.911H30.2246ZM30.2246 137.944V142.96H32.2246V137.944H30.2246ZM30.2246 147.976V152.992H32.2246V147.976H30.2246ZM30.2246 158.008V163.024H32.2246V158.008H30.2246ZM30.2246 168.04V173.056H32.2246V168.04H30.2246ZM30.2246 178.073V183.089H32.2246V178.073H30.2246ZM30.2246 188.105V193.121H32.2246V188.105H30.2246ZM30.2246 198.137V203.153H32.2246V198.137H30.2246ZM30.2246 208.169V213.185H32.2246V208.169H30.2246ZM30.2246 218.202V223.218H32.2246V218.202H30.2246ZM30.2246 228.234V233.25H32.2246V228.234H30.2246ZM30.2246 238.266V243.282H32.2246V238.266H30.2246ZM30.2246 248.298V253.314H32.2246V248.298H30.2246ZM30.2246 258.331V263.347H32.2246V258.331H30.2246ZM30.2246 268.363V273.379H32.2246V268.363H30.2246ZM30.2246 278.395V283.411H32.2246V278.395H30.2246ZM30.2246 288.427V293.444H32.2246V288.427H30.2246ZM30.2246 298.46V303.476H32.2246V298.46H30.2246ZM30.2246 308.492V311H32.2246V308.492H30.2246ZM278.775 0V2.50806H280.775V0H278.775ZM278.775 7.52419V12.5403H280.775V7.52419H278.775ZM278.775 17.5565V22.5726H280.775V17.5565H278.775ZM278.775 27.5887V32.6048H280.775V27.5887H278.775ZM278.775 37.621V42.6371H280.775V37.621H278.775ZM278.775 47.6532V52.6694H280.775V47.6532H278.775ZM278.775 57.6855V62.7016H280.775V57.6855H278.775ZM278.775 67.7177V72.7339H280.775V67.7177H278.775ZM278.775 77.75V82.7661H280.775V77.75H278.775ZM278.775 87.7823V92.7984H280.775V87.7823H278.775ZM278.775 97.8145V102.831H280.775V97.8145H278.775ZM278.775 107.847V112.863H280.775V107.847H278.775ZM278.775 117.879V122.895H280.775V117.879H278.775ZM278.775 127.911V132.927H280.775V127.911H278.775ZM278.775 137.944V142.96H280.775V137.944H278.775ZM278.775 147.976V152.992H280.775V147.976H278.775ZM278.775 158.008V163.024H280.775V158.008H278.775ZM278.775 168.04V173.056H280.775V168.04H278.775ZM278.775 178.073V183.089H280.775V178.073H278.775ZM278.775 188.105V193.121H280.775V188.105H278.775ZM278.775 198.137V203.153H280.775V198.137H278.775ZM278.775 208.169V213.185H280.775V208.169H278.775ZM278.775 218.202V223.218H280.775V218.202H278.775ZM278.775 228.234V233.25H280.775V228.234H278.775ZM278.775 238.266V243.282H280.775V238.266H278.775ZM278.775 248.298V253.314H280.775V248.298H278.775ZM278.775 258.331V263.347H280.775V258.331H278.775ZM278.775 268.363V273.379H280.775V268.363H278.775ZM278.775 278.395V283.411H280.775V278.395H278.775ZM278.775 288.427V293.444H280.775V288.427H278.775ZM278.775 298.46V303.476H280.775V298.46H278.775ZM278.775 308.492V311H280.775V308.492H278.775Z" fill="url(#paint0_linear_127_8163)"/>
<path d="M308.492 30.2249C307.94 30.2249 307.492 30.6726 307.492 31.2249C307.492 31.7772 307.94 32.2249 308.492 32.2249L308.492 30.2249ZM303.476 32.2249C304.028 32.2249 304.476 31.7772 304.476 31.2249C304.476 30.6726 304.028 30.2249 303.476 30.2249L303.476 32.2249ZM298.46 30.2249C297.907 30.2249 297.46 30.6726 297.46 31.2249C297.46 31.7772 297.907 32.2249 298.46 32.2249L298.46 30.2249ZM293.444 32.2249C293.996 32.2249 294.444 31.7772 294.444 31.2249C294.444 30.6726 293.996 30.2249 293.444 30.2249L293.444 32.2249ZM288.427 30.2249C287.875 30.2249 287.427 30.6726 287.427 31.2249C287.427 31.7772 287.875 32.2249 288.427 32.2249L288.427 30.2249ZM283.411 32.2249C283.964 32.2249 284.411 31.7772 284.411 31.2249C284.411 30.6726 283.964 30.2249 283.411 30.2249L283.411 32.2249ZM278.395 30.2249C277.843 30.2249 277.395 30.6726 277.395 31.2249C277.395 31.7772 277.843 32.2249 278.395 32.2249L278.395 30.2249ZM273.379 32.2249C273.931 32.2249 274.379 31.7772 274.379 31.2249C274.379 30.6726 273.931 30.2249 273.379 30.2249L273.379 32.2249ZM268.363 30.2249C267.811 30.2249 267.363 30.6726 267.363 31.2249C267.363 31.7772 267.811 32.2249 268.363 32.2249L268.363 30.2249ZM263.347 32.2249C263.899 32.2249 264.347 31.7772 264.347 31.2249C264.347 30.6726 263.899 30.2249 263.347 30.2249L263.347 32.2249ZM258.331 30.2249C257.778 30.2249 257.331 30.6726 257.331 31.2249C257.331 31.7772 257.778 32.2249 258.331 32.2249L258.331 30.2249ZM253.315 32.2249C253.867 32.2249 254.315 31.7772 254.315 31.2249C254.315 30.6726 253.867 30.2249 253.315 30.2249L253.315 32.2249ZM248.298 30.2249C247.746 30.2249 247.298 30.6726 247.298 31.2249C247.298 31.7772 247.746 32.2249 248.298 32.2249L248.298 30.2249ZM243.282 32.2249C243.835 32.2249 244.282 31.7772 244.282 31.2249C244.282 30.6726 243.835 30.2249 243.282 30.2249L243.282 32.2249ZM238.266 30.2249C237.714 30.2249 237.266 30.6726 237.266 31.2249C237.266 31.7772 237.714 32.2249 238.266 32.2249L238.266 30.2249ZM233.25 32.2249C233.802 32.2249 234.25 31.7772 234.25 31.2249C234.25 30.6726 233.802 30.2249 233.25 30.2249L233.25 32.2249ZM228.234 30.2249C227.682 30.2249 227.234 30.6726 227.234 31.2249C227.234 31.7772 227.682 32.2249 228.234 32.2249L228.234 30.2249ZM223.218 32.2249C223.77 32.2249 224.218 31.7772 224.218 31.2249C224.218 30.6726 223.77 30.2249 223.218 30.2249L223.218 32.2249ZM218.202 30.2249C217.649 30.2249 217.202 30.6726 217.202 31.2249C217.202 31.7772 217.649 32.2249 218.202 32.2249L218.202 30.2249ZM213.185 32.2249C213.738 32.2249 214.185 31.7772 214.185 31.2249C214.185 30.6726 213.738 30.2249 213.185 30.2249L213.185 32.2249ZM208.169 30.2249C207.617 30.2249 207.169 30.6726 207.169 31.2249C207.169 31.7772 207.617 32.2249 208.169 32.2249L208.169 30.2249ZM203.153 32.2249C203.706 32.2249 204.153 31.7772 204.153 31.2249C204.153 30.6726 203.706 30.2249 203.153 30.2249L203.153 32.2249ZM198.137 30.2249C197.585 30.2249 197.137 30.6726 197.137 31.2249C197.137 31.7772 197.585 32.2249 198.137 32.2249L198.137 30.2249ZM193.121 32.2249C193.673 32.2249 194.121 31.7772 194.121 31.2249C194.121 30.6726 193.673 30.2249 193.121 30.2249L193.121 32.2249ZM188.105 30.2249C187.553 30.2249 187.105 30.6726 187.105 31.2249C187.105 31.7772 187.553 32.2249 188.105 32.2249L188.105 30.2249ZM183.089 32.2249C183.641 32.2249 184.089 31.7772 184.089 31.2249C184.089 30.6726 183.641 30.2249 183.089 30.2249L183.089 32.2249ZM178.073 30.2249C177.52 30.2249 177.073 30.6726 177.073 31.2249C177.073 31.7772 177.52 32.2249 178.073 32.2249L178.073 30.2249ZM173.056 32.2249C173.609 32.2249 174.056 31.7772 174.056 31.2249C174.056 30.6726 173.609 30.2249 173.056 30.2249L173.056 32.2249ZM168.04 30.2249C167.488 30.2249 167.04 30.6726 167.04 31.2249C167.04 31.7772 167.488 32.2249 168.04 32.2249L168.04 30.2249ZM163.024 32.2249C163.577 32.2249 164.024 31.7772 164.024 31.2249C164.024 30.6726 163.577 30.2249 163.024 30.2249L163.024 32.2249ZM158.008 30.2249C157.456 30.2249 157.008 30.6726 157.008 31.2249C157.008 31.7772 157.456 32.2249 158.008 32.2249L158.008 30.2249ZM152.992 32.2249C153.544 32.2249 153.992 31.7772 153.992 31.2249C153.992 30.6726 153.544 30.2249 152.992 30.2249L152.992 32.2249ZM147.976 30.2249C147.424 30.2249 146.976 30.6726 146.976 31.2249C146.976 31.7772 147.424 32.2249 147.976 32.2249L147.976 30.2249ZM142.96 32.2249C143.512 32.2249 143.96 31.7772 143.96 31.2249C143.96 30.6726 143.512 30.2249 142.96 30.2249L142.96 32.2249ZM137.944 30.2249C137.391 30.2249 136.944 30.6726 136.944 31.2249C136.944 31.7772 137.391 32.2249 137.944 32.2249L137.944 30.2249ZM132.927 32.2249C133.48 32.2249 133.927 31.7772 133.927 31.2249C133.927 30.6726 133.48 30.2249 132.927 30.2249L132.927 32.2249ZM127.911 30.2249C127.359 30.2249 126.911 30.6726 126.911 31.2249C126.911 31.7772 127.359 32.2249 127.911 32.2249L127.911 30.2249ZM122.895 32.2249C123.447 32.2249 123.895 31.7772 123.895 31.2249C123.895 30.6726 123.447 30.2249 122.895 30.2249L122.895 32.2249ZM117.879 30.2249C117.327 30.2249 116.879 30.6726 116.879 31.2249C116.879 31.7772 117.327 32.2249 117.879 32.2249L117.879 30.2249ZM112.863 32.2249C113.415 32.2249 113.863 31.7772 113.863 31.2249C113.863 30.6726 113.415 30.2249 112.863 30.2249L112.863 32.2249ZM107.847 30.2249C107.295 30.2249 106.847 30.6726 106.847 31.2249C106.847 31.7772 107.295 32.2249 107.847 32.2249L107.847 30.2249ZM102.831 32.2249C103.383 32.2249 103.831 31.7772 103.831 31.2249C103.831 30.6726 103.383 30.2249 102.831 30.2249L102.831 32.2249ZM97.8145 30.2249C97.2623 30.2249 96.8145 30.6726 96.8145 31.2249C96.8145 31.7772 97.2623 32.2249 97.8145 32.2249L97.8145 30.2249ZM92.7984 32.2249C93.3507 32.2249 93.7984 31.7772 93.7984 31.2249C93.7984 30.6726 93.3507 30.2249 92.7984 30.2249L92.7984 32.2249ZM87.7823 30.2249C87.23 30.2249 86.7823 30.6726 86.7823 31.2249C86.7823 31.7772 87.23 32.2249 87.7823 32.2249L87.7823 30.2249ZM82.7662 32.2249C83.3185 32.2249 83.7662 31.7772 83.7662 31.2249C83.7662 30.6726 83.3185 30.2249 82.7662 30.2249L82.7662 32.2249ZM77.75 30.2249C77.1977 30.2249 76.75 30.6726 76.75 31.2249C76.75 31.7772 77.1977 32.2249 77.75 32.2249L77.75 30.2249ZM72.7339 32.2249C73.2862 32.2249 73.7339 31.7772 73.7339 31.2249C73.7339 30.6726 73.2862 30.2249 72.7339 30.2249L72.7339 32.2249ZM67.7178 30.2249C67.1655 30.2249 66.7178 30.6726 66.7178 31.2249C66.7178 31.7772 67.1655 32.2249 67.7178 32.2249L67.7178 30.2249ZM62.7017 32.2249C63.2539 32.2249 63.7017 31.7772 63.7017 31.2249C63.7017 30.6726 63.2539 30.2249 62.7017 30.2249L62.7017 32.2249ZM57.6855 30.2249C57.1332 30.2249 56.6855 30.6726 56.6855 31.2249C56.6855 31.7772 57.1332 32.2249 57.6855 32.2249L57.6855 30.2249ZM52.6694 32.2249C53.2216 32.2249 53.6694 31.7772 53.6694 31.2249C53.6694 30.6726 53.2216 30.2249 52.6694 30.2249L52.6694 32.2249ZM47.6533 30.2249C47.101 30.2249 46.6533 30.6726 46.6533 31.2249C46.6533 31.7772 47.101 32.2249 47.6533 32.2249L47.6533 30.2249ZM42.6371 32.2249C43.1894 32.2249 43.6371 31.7772 43.6371 31.2249C43.6371 30.6726 43.1894 30.2249 42.6371 30.2249L42.6371 32.2249ZM37.621 30.2249C37.0688 30.2249 36.621 30.6726 36.621 31.2249C36.621 31.7772 37.0688 32.2249 37.621 32.2249L37.621 30.2249ZM32.6049 32.2249C33.1572 32.2249 33.6049 31.7772 33.6049 31.2249C33.6049 30.6726 33.1572 30.2249 32.6049 30.2249L32.6049 32.2249ZM27.5888 30.2249C27.0365 30.2249 26.5888 30.6726 26.5888 31.2249C26.5888 31.7772 27.0365 32.2249 27.5888 32.2249L27.5888 30.2249ZM22.5727 32.2249C23.125 32.2249 23.5727 31.7772 23.5727 31.2249C23.5727 30.6726 23.125 30.2249 22.5727 30.2249L22.5727 32.2249ZM17.5566 30.2249C17.0043 30.2249 16.5566 30.6726 16.5566 31.2249C16.5566 31.7772 17.0043 32.2249 17.5566 32.2249L17.5566 30.2249ZM12.5405 32.2249C13.0928 32.2249 13.5405 31.7772 13.5405 31.2249C13.5405 30.6726 13.0928 30.2249 12.5405 30.2249L12.5405 32.2249ZM7.52435 30.2249C6.97208 30.2249 6.52435 30.6726 6.52435 31.2249C6.52435 31.7772 6.97208 32.2249 7.52435 32.2249L7.52435 30.2249ZM2.50824 32.2249C3.06055 32.2249 3.50824 31.7772 3.50824 31.2249C3.50824 30.6726 3.06055 30.2249 2.50824 30.2249L2.50824 32.2249ZM308.492 278.775C307.94 278.775 307.492 279.223 307.492 279.775C307.492 280.327 307.94 280.775 308.492 280.775L308.492 278.775ZM303.476 280.775C304.028 280.775 304.476 280.327 304.476 279.775C304.476 279.223 304.028 278.775 303.476 278.775L303.476 280.775ZM298.46 278.775C297.907 278.775 297.46 279.223 297.46 279.775C297.46 280.327 297.907 280.775 298.46 280.775L298.46 278.775ZM293.444 280.775C293.996 280.775 294.444 280.327 294.444 279.775C294.444 279.223 293.996 278.775 293.444 278.775L293.444 280.775ZM288.427 278.775C287.875 278.775 287.427 279.223 287.427 279.775C287.427 280.327 287.875 280.775 288.427 280.775L288.427 278.775ZM283.411 280.775C283.964 280.775 284.411 280.327 284.411 279.775C284.411 279.223 283.964 278.775 283.411 278.775L283.411 280.775ZM278.395 278.775C277.843 278.775 277.395 279.223 277.395 279.775C277.395 280.327 277.843 280.775 278.395 280.775L278.395 278.775ZM273.379 280.775C273.931 280.775 274.379 280.327 274.379 279.775C274.379 279.223 273.931 278.775 273.379 278.775L273.379 280.775ZM268.363 278.775C267.811 278.775 267.363 279.223 267.363 279.775C267.363 280.327 267.811 280.775 268.363 280.775L268.363 278.775ZM263.347 280.775C263.899 280.775 264.347 280.327 264.347 279.775C264.347 279.223 263.899 278.775 263.347 278.775L263.347 280.775ZM258.331 278.775C257.778 278.775 257.331 279.223 257.331 279.775C257.331 280.327 257.778 280.775 258.331 280.775L258.331 278.775ZM253.315 280.775C253.867 280.775 254.315 280.327 254.315 279.775C254.315 279.223 253.867 278.775 253.315 278.775L253.315 280.775ZM248.298 278.775C247.746 278.775 247.298 279.223 247.298 279.775C247.298 280.327 247.746 280.775 248.298 280.775L248.298 278.775ZM243.282 280.775C243.835 280.775 244.282 280.327 244.282 279.775C244.282 279.223 243.835 278.775 243.282 278.775L243.282 280.775ZM238.266 278.775C237.714 278.775 237.266 279.223 237.266 279.775C237.266 280.327 237.714 280.775 238.266 280.775L238.266 278.775ZM233.25 280.775C233.802 280.775 234.25 280.327 234.25 279.775C234.25 279.223 233.802 278.775 233.25 278.775L233.25 280.775ZM228.234 278.775C227.682 278.775 227.234 279.223 227.234 279.775C227.234 280.327 227.682 280.775 228.234 280.775L228.234 278.775ZM223.218 280.775C223.77 280.775 224.218 280.327 224.218 279.775C224.218 279.223 223.77 278.775 223.218 278.775L223.218 280.775ZM218.202 278.775C217.649 278.775 217.202 279.223 217.202 279.775C217.202 280.327 217.649 280.775 218.202 280.775L218.202 278.775ZM213.185 280.775C213.738 280.775 214.185 280.327 214.185 279.775C214.185 279.223 213.738 278.775 213.185 278.775L213.185 280.775ZM208.169 278.775C207.617 278.775 207.169 279.223 207.169 279.775C207.169 280.327 207.617 280.775 208.169 280.775L208.169 278.775ZM203.153 280.775C203.706 280.775 204.153 280.327 204.153 279.775C204.153 279.223 203.706 278.775 203.153 278.775L203.153 280.775ZM198.137 278.775C197.585 278.775 197.137 279.223 197.137 279.775C197.137 280.327 197.585 280.775 198.137 280.775L198.137 278.775ZM193.121 280.775C193.673 280.775 194.121 280.327 194.121 279.775C194.121 279.223 193.673 278.775 193.121 278.775L193.121 280.775ZM188.105 278.775C187.553 278.775 187.105 279.223 187.105 279.775C187.105 280.327 187.553 280.775 188.105 280.775L188.105 278.775ZM183.089 280.775C183.641 280.775 184.089 280.327 184.089 279.775C184.089 279.223 183.641 278.775 183.089 278.775L183.089 280.775ZM178.073 278.775C177.52 278.775 177.073 279.223 177.073 279.775C177.073 280.327 177.52 280.775 178.073 280.775L178.073 278.775ZM173.056 280.775C173.609 280.775 174.056 280.327 174.056 279.775C174.056 279.223 173.609 278.775 173.056 278.775L173.056 280.775ZM168.04 278.775C167.488 278.775 167.04 279.223 167.04 279.775C167.04 280.327 167.488 280.775 168.04 280.775L168.04 278.775ZM163.024 280.775C163.576 280.775 164.024 280.327 164.024 279.775C164.024 279.223 163.576 278.775 163.024 278.775L163.024 280.775ZM158.008 278.775C157.456 278.775 157.008 279.223 157.008 279.775C157.008 280.327 157.456 280.775 158.008 280.775L158.008 278.775ZM152.992 280.775C153.544 280.775 153.992 280.327 153.992 279.775C153.992 279.223 153.544 278.775 152.992 278.775L152.992 280.775ZM147.976 278.775C147.424 278.775 146.976 279.223 146.976 279.775C146.976 280.327 147.424 280.775 147.976 280.775L147.976 278.775ZM142.96 280.775C143.512 280.775 143.96 280.327 143.96 279.775C143.96 279.223 143.512 278.775 142.96 278.775L142.96 280.775ZM137.944 278.775C137.391 278.775 136.944 279.223 136.944 279.775C136.944 280.327 137.391 280.775 137.944 280.775L137.944 278.775ZM132.927 280.775C133.48 280.775 133.927 280.327 133.927 279.775C133.927 279.223 133.48 278.775 132.927 278.775L132.927 280.775ZM127.911 278.775C127.359 278.775 126.911 279.223 126.911 279.775C126.911 280.327 127.359 280.775 127.911 280.775L127.911 278.775ZM122.895 280.775C123.447 280.775 123.895 280.327 123.895 279.775C123.895 279.223 123.447 278.775 122.895 278.775L122.895 280.775ZM117.879 278.775C117.327 278.775 116.879 279.223 116.879 279.775C116.879 280.327 117.327 280.775 117.879 280.775L117.879 278.775ZM112.863 280.775C113.415 280.775 113.863 280.327 113.863 279.775C113.863 279.223 113.415 278.775 112.863 278.775L112.863 280.775ZM107.847 278.775C107.295 278.775 106.847 279.223 106.847 279.775C106.847 280.327 107.295 280.775 107.847 280.775L107.847 278.775ZM102.831 280.775C103.383 280.775 103.831 280.327 103.831 279.775C103.831 279.223 103.383 278.775 102.831 278.775L102.831 280.775ZM97.8145 278.775C97.2622 278.775 96.8145 279.223 96.8145 279.775C96.8145 280.327 97.2622 280.775 97.8145 280.775L97.8145 278.775ZM92.7984 280.775C93.3507 280.775 93.7984 280.327 93.7984 279.775C93.7984 279.223 93.3507 278.775 92.7984 278.775L92.7984 280.775ZM87.7823 278.775C87.23 278.775 86.7823 279.223 86.7823 279.775C86.7823 280.327 87.23 280.775 87.7823 280.775L87.7823 278.775ZM82.7662 280.775C83.3184 280.775 83.7662 280.327 83.7662 279.775C83.7662 279.223 83.3184 278.775 82.7662 278.775L82.7662 280.775ZM77.75 278.775C77.1977 278.775 76.75 279.223 76.75 279.775C76.75 280.327 77.1977 280.775 77.75 280.775L77.75 278.775ZM72.7339 280.775C73.2862 280.775 73.7339 280.327 73.7339 279.775C73.7339 279.223 73.2862 278.775 72.7339 278.775L72.7339 280.775ZM67.7178 278.775C67.1655 278.775 66.7178 279.223 66.7178 279.775C66.7178 280.327 67.1655 280.775 67.7178 280.775L67.7178 278.775ZM62.7016 280.775C63.2539 280.775 63.7016 280.327 63.7016 279.775C63.7016 279.223 63.2539 278.775 62.7016 278.775L62.7016 280.775ZM57.6855 278.775C57.1332 278.775 56.6855 279.223 56.6855 279.775C56.6855 280.327 57.1332 280.775 57.6855 280.775L57.6855 278.775ZM52.6694 280.775C53.2216 280.775 53.6694 280.327 53.6694 279.775C53.6694 279.223 53.2216 278.775 52.6694 278.775L52.6694 280.775ZM47.6532 278.775C47.101 278.775 46.6532 279.223 46.6532 279.775C46.6532 280.327 47.101 280.775 47.6532 280.775L47.6532 278.775ZM42.6371 280.775C43.1894 280.775 43.6371 280.327 43.6371 279.775C43.6371 279.223 43.1894 278.775 42.6371 278.775L42.6371 280.775ZM37.621 278.775C37.0687 278.775 36.621 279.223 36.621 279.775C36.621 280.327 37.0687 280.775 37.621 280.775L37.621 278.775ZM32.6049 280.775C33.1572 280.775 33.6049 280.327 33.6049 279.775C33.6049 279.223 33.1572 278.775 32.6049 278.775L32.6049 280.775ZM27.5888 278.775C27.0365 278.775 26.5888 279.223 26.5888 279.775C26.5888 280.327 27.0365 280.775 27.5888 280.775L27.5888 278.775ZM22.5727 280.775C23.125 280.775 23.5727 280.327 23.5727 279.775C23.5727 279.223 23.125 278.775 22.5727 278.775L22.5727 280.775ZM17.5566 278.775C17.0043 278.775 16.5566 279.223 16.5566 279.775C16.5566 280.327 17.0043 280.775 17.5566 280.775L17.5566 278.775ZM12.5405 280.775C13.0928 280.775 13.5405 280.327 13.5405 279.775C13.5405 279.223 13.0928 278.775 12.5405 278.775L12.5405 280.775ZM7.52434 278.775C6.97207 278.775 6.52434 279.223 6.52434 279.775C6.52434 280.327 6.97207 280.775 7.52434 280.775L7.52434 278.775ZM2.50823 280.775C3.06054 280.775 3.50823 280.327 3.50823 279.775C3.50823 279.223 3.06054 278.775 2.50823 278.775L2.50823 280.775ZM311 30.2249L308.492 30.2249L308.492 32.2249L311 32.2249L311 30.2249ZM303.476 30.2249L298.46 30.2249L298.46 32.2249L303.476 32.2249L303.476 30.2249ZM293.444 30.2249L288.427 30.2249L288.427 32.2249L293.444 32.2249L293.444 30.2249ZM283.411 30.2249L278.395 30.2249L278.395 32.2249L283.411 32.2249L283.411 30.2249ZM273.379 30.2249L268.363 30.2249L268.363 32.2249L273.379 32.2249L273.379 30.2249ZM263.347 30.2249L258.331 30.2249L258.331 32.2249L263.347 32.2249L263.347 30.2249ZM253.315 30.2249L248.298 30.2249L248.298 32.2249L253.315 32.2249L253.315 30.2249ZM243.282 30.2249L238.266 30.2249L238.266 32.2249L243.282 32.2249L243.282 30.2249ZM233.25 30.2249L228.234 30.2249L228.234 32.2249L233.25 32.2249L233.25 30.2249ZM223.218 30.2249L218.202 30.2249L218.202 32.2249L223.218 32.2249L223.218 30.2249ZM213.185 30.2249L208.169 30.2249L208.169 32.2249L213.185 32.2249L213.185 30.2249ZM203.153 30.2249L198.137 30.2249L198.137 32.2249L203.153 32.2249L203.153 30.2249ZM193.121 30.2249L188.105 30.2249L188.105 32.2249L193.121 32.2249L193.121 30.2249ZM183.089 30.2249L178.073 30.2249L178.073 32.2249L183.089 32.2249L183.089 30.2249ZM173.056 30.2249L168.04 30.2249L168.04 32.2249L173.056 32.2249L173.056 30.2249ZM163.024 30.2249L158.008 30.2249L158.008 32.2249L163.024 32.2249L163.024 30.2249ZM152.992 30.2249L147.976 30.2249L147.976 32.2249L152.992 32.2249L152.992 30.2249ZM142.96 30.2249L137.944 30.2249L137.944 32.2249L142.96 32.2249L142.96 30.2249ZM132.927 30.2249L127.911 30.2249L127.911 32.2249L132.927 32.2249L132.927 30.2249ZM122.895 30.2249L117.879 30.2249L117.879 32.2249L122.895 32.2249L122.895 30.2249ZM112.863 30.2249L107.847 30.2249L107.847 32.2249L112.863 32.2249L112.863 30.2249ZM102.831 30.2249L97.8145 30.2249L97.8145 32.2249L102.831 32.2249L102.831 30.2249ZM92.7984 30.2249L87.7823 30.2249L87.7823 32.2249L92.7984 32.2249L92.7984 30.2249ZM82.7662 30.2249L77.75 30.2249L77.75 32.2249L82.7662 32.2249L82.7662 30.2249ZM72.7339 30.2249L67.7178 30.2249L67.7178 32.2249L72.7339 32.2249L72.7339 30.2249ZM62.7017 30.2249L57.6855 30.2249L57.6855 32.2249L62.7017 32.2249L62.7017 30.2249ZM52.6694 30.2249L47.6533 30.2249L47.6533 32.2249L52.6694 32.2249L52.6694 30.2249ZM42.6371 30.2249L37.621 30.2249L37.621 32.2249L42.6371 32.2249L42.6371 30.2249ZM32.6049 30.2249L27.5888 30.2249L27.5888 32.2249L32.6049 32.2249L32.6049 30.2249ZM22.5727 30.2249L17.5566 30.2249L17.5566 32.2249L22.5727 32.2249L22.5727 30.2249ZM12.5405 30.2249L7.52435 30.2249L7.52435 32.2249L12.5405 32.2249L12.5405 30.2249ZM2.50824 30.2249L3.05613e-05 30.2249L3.04739e-05 32.2249L2.50824 32.2249L2.50824 30.2249ZM311 278.775L308.492 278.775L308.492 280.775L311 280.775L311 278.775ZM303.476 278.775L298.46 278.775L298.46 280.775L303.476 280.775L303.476 278.775ZM293.444 278.775L288.427 278.775L288.427 280.775L293.444 280.775L293.444 278.775ZM283.411 278.775L278.395 278.775L278.395 280.775L283.411 280.775L283.411 278.775ZM273.379 278.775L268.363 278.775L268.363 280.775L273.379 280.775L273.379 278.775ZM263.347 278.775L258.331 278.775L258.331 280.775L263.347 280.775L263.347 278.775ZM253.315 278.775L248.298 278.775L248.298 280.775L253.315 280.775L253.315 278.775ZM243.282 278.775L238.266 278.775L238.266 280.775L243.282 280.775L243.282 278.775ZM233.25 278.775L228.234 278.775L228.234 280.775L233.25 280.775L233.25 278.775ZM223.218 278.775L218.202 278.775L218.202 280.775L223.218 280.775L223.218 278.775ZM213.185 278.775L208.169 278.775L208.169 280.775L213.185 280.775L213.185 278.775ZM203.153 278.775L198.137 278.775L198.137 280.775L203.153 280.775L203.153 278.775ZM193.121 278.775L188.105 278.775L188.105 280.775L193.121 280.775L193.121 278.775ZM183.089 278.775L178.073 278.775L178.073 280.775L183.089 280.775L183.089 278.775ZM173.056 278.775L168.04 278.775L168.04 280.775L173.056 280.775L173.056 278.775ZM163.024 278.775L158.008 278.775L158.008 280.775L163.024 280.775L163.024 278.775ZM152.992 278.775L147.976 278.775L147.976 280.775L152.992 280.775L152.992 278.775ZM142.96 278.775L137.944 278.775L137.944 280.775L142.96 280.775L142.96 278.775ZM132.927 278.775L127.911 278.775L127.911 280.775L132.927 280.775L132.927 278.775ZM122.895 278.775L117.879 278.775L117.879 280.775L122.895 280.775L122.895 278.775ZM112.863 278.775L107.847 278.775L107.847 280.775L112.863 280.775L112.863 278.775ZM102.831 278.775L97.8145 278.775L97.8145 280.775L102.831 280.775L102.831 278.775ZM92.7984 278.775L87.7823 278.775L87.7823 280.775L92.7984 280.775L92.7984 278.775ZM82.7662 278.775L77.75 278.775L77.75 280.775L82.7662 280.775L82.7662 278.775ZM72.7339 278.775L67.7178 278.775L67.7178 280.775L72.7339 280.775L72.7339 278.775ZM62.7016 278.775L57.6855 278.775L57.6855 280.775L62.7016 280.775L62.7016 278.775ZM52.6694 278.775L47.6532 278.775L47.6532 280.775L52.6694 280.775L52.6694 278.775ZM42.6371 278.775L37.621 278.775L37.621 280.775L42.6371 280.775L42.6371 278.775ZM32.6049 278.775L27.5888 278.775L27.5888 280.775L32.6049 280.775L32.6049 278.775ZM22.5727 278.775L17.5566 278.775L17.5566 280.775L22.5727 280.775L22.5727 278.775ZM12.5405 278.775L7.52434 278.775L7.52434 280.775L12.5405 280.775L12.5405 278.775ZM2.50823 278.775L1.96968e-05 278.775L1.96094e-05 280.775L2.50823 280.775L2.50823 278.775Z" fill="url(#paint1_linear_127_8163)"/>
</g>
<mask id="mask0_127_8163" style="mask-type:alpha" maskUnits="userSpaceOnUse" x="39" y="39" width="233" height="233">
<rect x="39.9678" y="39.9679" width="231.064" height="231.064" fill="#C4C4C4"/>
</mask>
<g mask="url(#mask0_127_8163)">
<path d="M311.088 262.367C272.606 262.563 234.125 262.759 214.498 262.675C194.872 262.592 194.101 262.23 193.27 261.839C192.439 261.447 191.546 261.026 192.958 258.664C194.37 256.302 198.089 252 200.144 248.621C202.198 245.242 202.589 242.799 201.42 240.255C200.25 237.712 197.506 235.069 195.89 231.938C194.274 228.807 193.787 225.188 195.107 224.698C196.427 224.209 199.559 226.851 201.516 229.094C203.473 231.337 204.255 233.206 204.451 234.279C204.647 235.352 204.255 235.649 202.251 233.35C200.246 231.052 196.624 226.159 195.059 222.978C193.494 219.798 193.983 218.331 194.031 213.732C194.079 209.134 193.689 201.397 193.494 194.849C193.298 188.301 193.298 182.912 193.396 178.068C193.494 173.225 193.689 168.92 193.787 165.055C193.885 161.19 193.885 157.765 193.738 155.369C193.59 152.973 193.298 151.602 193.444 148.641C193.59 145.681 194.179 141.126 195.133 138.149C196.087 135.171 197.401 133.746 197.725 135.116C198.048 136.486 197.357 140.646 195.425 146.417C193.492 152.187 190.32 159.577 191.171 165.252C192.022 170.926 196.919 174.894 199.928 177.434C202.937 179.975 204.061 181.102 202.252 182.204C200.443 183.306 195.696 184.381 193.445 185.628C191.195 186.876 191.439 188.294 193.03 190.081C194.621 191.867 197.555 194.018 197.709 195.437C197.864 196.857 195.214 197.54 193.159 198.616C191.105 199.692 189.637 201.168 190.298 204.903C190.959 208.638 193.746 214.664 197.104 218.969C200.461 223.273 204.368 225.867 206.32 225.775C208.272 225.682 208.278 222.888 208.447 211.537C208.616 200.187 208.961 180.277 208.496 166.505C208.031 152.733 206.759 145.102 204.851 137.348C202.943 129.593 200.389 121.717 198.848 117.582C197.306 113.448 196.768 113.056 194.909 112.194C193.05 111.332 189.87 110.025 185.222 108.508C180.574 106.991 174.46 105.279 171.326 104.497C168.193 103.714 168.048 103.86 167.853 113.621C167.657 123.381 167.412 142.754 170.225 160.218C173.038 177.682 178.909 193.241 182.064 201.141C185.219 209.042 185.66 209.287 186.075 209.998C186.491 210.708 186.883 211.881 187.151 211.857C187.419 211.832 187.568 210.609 186.173 204.713C184.778 198.818 181.844 188.251 180.303 176.781C178.762 165.31 178.616 152.93 179.129 143.367C179.642 133.803 180.816 127.051 181.012 123.871C181.208 120.69 180.425 121.083 178.688 121.177C176.951 121.27 174.261 121.079 174.138 120.394C174.015 119.709 176.462 118.534 178.346 117.629C180.231 116.724 181.551 116.088 181.551 115.403C181.551 114.718 180.229 113.985 178.101 112.346C175.973 110.707 173.038 108.163 170.812 107.576C168.586 106.989 167.073 108.366 165.159 109.951C163.244 111.536 160.952 113.354 157.723 114.158C154.495 114.962 150.336 114.771 147.523 113.473C144.71 112.176 143.242 109.787 143.071 106.014C142.899 102.241 144.025 97.1094 144.905 93.1464C145.786 89.1834 146.421 86.3958 147.523 87.2522C148.625 88.1086 150.188 92.609 152.627 95.6901C155.066 98.7712 158.401 100.436 162.045 99.7268C165.689 99.0179 169.652 95.9354 172.537 92.5353C175.423 89.1352 177.233 85.4175 178.776 83.2892C180.319 81.1609 181.589 80.6221 181.834 81.6005C182.08 82.5788 181.296 85.0743 180.439 87.031C179.583 88.9877 178.654 90.407 177.774 90.529C176.893 90.6509 176.061 89.4769 176.11 87.2522C176.16 85.0275 177.089 81.7479 179.241 78.372C181.393 74.996 184.771 71.5235 185.454 67.8044C186.138 64.0853 184.133 60.1237 181.615 56.6513C179.096 53.1789 176.061 50.1928 171.708 48.8529C167.355 47.513 161.678 47.8022 158.034 49.3676C154.39 50.9329 152.775 53.7701 151.453 56.9745C150.132 60.179 149.105 63.7507 148.836 65.0948C148.566 66.439 149.057 65.5599 150.329 63.7507C151.601 61.9414 153.655 59.2006 157.447 57.977C161.238 56.7534 166.779 57.0384 170.688 58.2166C174.597 59.3949 176.902 61.4452 178.858 62.7907C180.815 64.1363 182.43 64.7758 182.699 65.9214C182.969 67.0671 181.891 68.7345 181.378 70.0801C180.865 71.4257 180.913 72.4523 181.917 72.2566C182.92 72.0609 184.876 70.643 186.099 68.2695C187.323 65.8959 187.811 62.571 187.15 59.9039C186.489 57.2369 184.68 55.232 182.504 53.7403C180.327 52.2487 177.782 51.269 173.673 51.2448C169.564 51.2207 163.89 52.1495 160.538 53.6907C157.186 55.232 156.158 57.3843 157.529 59.3169C158.9 61.2495 162.666 62.9623 164.647 65.3585C166.627 67.7548 166.823 70.8387 166.945 73.3087C167.067 75.7786 167.117 77.6389 167.044 79.0568C166.972 80.4747 166.775 81.4544 165.797 81.4785C164.818 81.5027 163.056 80.5739 161.81 80.9894C160.563 81.4048 159.824 83.1658 158.974 85.6982C158.123 88.2305 157.14 91.5328 155.996 92.5835C154.852 93.6341 153.525 92.4417 151.911 90.2851C150.298 88.1285 148.388 85.0261 147.667 81.894C146.947 78.7619 147.409 75.6085 147.581 73.2349C147.753 70.8614 147.631 69.2733 146.603 68.3914C145.575 67.5095 143.643 67.3408 142.444 68.3801C141.244 69.4194 140.781 71.6696 140.989 73.7241C141.198 75.7786 142.078 77.6389 143.313 78.5194C144.548 79.3999 146.138 79.3021 147.374 78.3351C148.61 77.3681 149.489 75.5347 149.416 74.348C149.342 73.1612 148.315 72.6238 147.226 73.7978C146.138 74.9718 144.988 77.8587 144.249 81.1482C143.51 84.4377 143.161 88.1327 142.586 91.3854C142.01 94.638 141.203 97.4511 140.742 100.155C140.282 102.859 140.155 105.451 140.362 112.177C140.569 118.904 141.108 129.759 140.423 139.133C139.739 148.507 137.832 156.379 135.164 166.924C132.497 177.468 129.075 190.676 126.457 198.331C123.84 205.986 122.029 208.092 121.1 207.945C120.172 207.797 120.122 205.401 121.466 199.114C122.81 192.827 125.551 182.652 127.827 174.384C130.103 166.117 131.912 159.758 132.648 154.375C133.384 148.993 133.039 144.592 131.963 140.286C130.887 135.979 129.077 131.778 128.001 128.74C126.925 125.701 126.583 123.848 128.025 122.501C129.467 121.154 132.704 120.325 133.627 119.272C134.551 118.22 133.187 116.949 131.572 115.701C129.957 114.453 128.099 113.231 128.417 111.933C128.734 110.636 131.23 109.268 133.308 107.972C135.387 106.676 137.052 105.452 137.639 104.376C138.226 103.3 137.737 102.37 136.221 102.59C134.705 102.809 132.16 104.18 128.198 105.648C124.237 107.115 118.835 108.679 115.019 110.067C111.204 111.456 108.953 112.685 107.632 113.859C106.31 115.033 105.92 116.159 105.363 120.439C104.806 124.72 104.066 132.157 102.55 138.664C101.034 145.17 98.7346 150.747 97.3153 157.693C95.896 164.639 95.3586 172.957 96.215 184.332C97.0714 195.708 99.3216 210.138 100.666 219.506C102.01 228.874 102.452 233.18 103.553 233.425C104.653 233.671 106.415 229.854 108.909 227.089C111.403 224.324 114.633 222.613 116.101 222.956C117.568 223.299 117.275 225.695 114.927 225.769C112.579 225.843 108.176 223.591 107.662 221.047C107.147 218.504 110.524 215.659 110.587 213.928C110.649 212.197 107.399 211.552 105.369 210.11C103.339 208.668 102.533 206.423 103.958 204.878C105.383 203.332 109.063 202.506 110.764 201.429C112.465 200.353 112.232 199.033 110.862 198.323C109.492 197.612 106.998 197.516 104.6 196.366C102.203 195.216 99.9044 193.016 101.197 187.585C102.491 182.155 107.387 173.495 110.395 164.493C113.404 155.491 114.529 146.149 116.192 142.091C117.855 138.033 120.057 139.255 120.596 142.8C121.134 146.344 120.009 152.217 118.761 159.726C117.513 167.235 116.145 176.388 115.9 185.854C115.654 195.32 116.536 205.105 117.588 211.391C118.64 217.678 119.857 220.466 122.089 221.592C124.32 222.718 127.543 222.179 129.721 223.792C131.899 225.406 133.022 229.18 135.983 231.499C138.943 233.817 143.737 234.703 152.127 234.116C160.516 233.529 172.503 231.473 179.597 230.325C186.691 229.176 188.891 228.929 187.35 230.466C185.809 232.003 180.526 235.334 173.188 237.145C165.85 238.955 156.457 239.247 147.699 237.878C138.94 236.508 130.826 233.482 125.438 231.666C120.05 229.85 117.415 229.268 114.687 229.264C111.959 229.26 109.152 229.844 107.734 231.85C106.316 233.857 106.292 237.288 106.916 239.493C107.54 241.697 108.812 242.677 110.67 241.797C112.529 240.916 114.977 238.175 116.151 236.073C117.325 233.97 117.227 232.501 116.444 232.06C115.661 231.619 114.194 232.202 113.264 233.92C112.334 235.639 111.944 238.469 111.894 243.606C111.844 248.743 112.129 256.18 112.129 259.655C112.129 263.13 111.836 262.633 89.9323 262.396C68.0288 262.159 24.5151 262.151 -19 262.151" stroke="#111113" stroke-miterlimit="22.93" stroke-linecap="round"/>
</g>
<defs>
<linearGradient id="paint0_linear_127_8163" x1="155.5" y1="0" x2="155.5" y2="311" gradientUnits="userSpaceOnUse">
<stop stop-color="#C4C4C4" stop-opacity="0"/>
<stop offset="0.0884102" stop-color="#C4C4C4"/>
<stop offset="0.914586" stop-color="#C4C4C4"/>
<stop offset="1" stop-color="#C4C4C4" stop-opacity="0"/>
</linearGradient>
<linearGradient id="paint1_linear_127_8163" x1="311" y1="155.5" x2="2.50853e-05" y2="155.5" gradientUnits="userSpaceOnUse">
<stop stop-color="#C4C4C4" stop-opacity="0"/>
<stop offset="0.0967224" stop-color="#C4C4C4"/>
<stop offset="0.901883" stop-color="#C4C4C4"/>
<stop offset="1" stop-color="#C4C4C4" stop-opacity="0"/>
</linearGradient>
</defs>
</svg>
