<svg width="24" height="24" viewBox="0 0 24 24" fill="none" xmlns="http://www.w3.org/2000/svg">
<path d="M12.5 5C11.0166 5 9.56659 5.43987 8.33323 6.26398C7.09986 7.08809 6.13856 8.25943 5.57091 9.62987C5.00325 11.0003 4.85472 12.5083 5.14411 13.9632C5.4335 15.418 6.14781 16.7544 7.1967 17.8033C8.2456 18.8522 9.58197 19.5665 11.0368 19.8559C12.4917 20.1453 13.9997 19.9968 15.3701 19.4291C16.7406 18.8614 17.9119 17.9001 18.736 16.6668C19.5601 15.4334 20 13.9834 20 12.5C19.9973 10.5117 19.2063 8.60561 17.8003 7.19967C16.3944 5.79373 14.4883 5.00269 12.5 5ZM12.3119 16.6746C12.161 16.6746 12.0136 16.6298 11.8881 16.546C11.7627 16.4622 11.6649 16.3431 11.6072 16.2037C11.5495 16.0644 11.5344 15.911 11.5638 15.7631C11.5932 15.6151 11.6659 15.4792 11.7725 15.3725C11.8792 15.2659 12.0151 15.1932 12.1631 15.1638C12.311 15.1344 12.4644 15.1495 12.6037 15.2072C12.7431 15.2649 12.8622 15.3627 12.946 15.4881C13.0298 15.6135 13.0746 15.761 13.0746 15.9119C13.0746 16.1141 12.9942 16.3081 12.8512 16.4512C12.7081 16.5942 12.5142 16.6746 12.3119 16.6746ZM13.6186 13.0161C13.4235 13.0766 13.2529 13.1982 13.132 13.363C13.0112 13.5278 12.9465 13.727 12.9475 13.9314C12.9475 14.0999 12.8805 14.2616 12.7613 14.3808C12.6421 14.5 12.4804 14.5669 12.3119 14.5669C12.1433 14.5669 11.9816 14.5 11.8624 14.3808C11.7432 14.2616 11.6763 14.0999 11.6763 13.9314C11.6743 13.4552 11.8254 12.9911 12.1074 12.6074C12.3894 12.2238 12.7873 11.941 13.2424 11.8008C13.4378 11.7405 13.6087 11.619 13.73 11.4542C13.8513 11.2895 13.9165 11.0902 13.9161 10.8856C13.9006 10.5207 13.7448 10.176 13.4812 9.92326C13.2175 9.67056 12.8665 9.52948 12.5013 9.52948C12.1361 9.52948 11.785 9.67056 11.5214 9.92326C11.2577 10.176 11.1019 10.5207 11.0864 10.8856C11.0864 11.0542 11.0195 11.2158 10.9003 11.335C10.7811 11.4542 10.6194 11.5212 10.4509 11.5212C10.2823 11.5212 10.1206 11.4542 10.0014 11.335C9.88222 11.2158 9.81526 11.0542 9.81526 10.8856C9.83674 10.1875 10.1291 9.52523 10.6305 9.03904C11.1319 8.55285 11.8029 8.28095 12.5013 8.28095C13.1997 8.28095 13.8706 8.55285 14.372 9.03904C14.8734 9.52523 15.1658 10.1875 15.1873 10.8856C15.1887 11.3619 15.037 11.8262 14.7546 12.2098C14.4722 12.5933 14.0739 12.876 13.6186 13.0161Z" fill="#E44240"/>
</svg>
