<svg width="311" height="24" viewBox="0 0 311 24" fill="none" xmlns="http://www.w3.org/2000/svg">
<path d="M0 2.30645V0L4.97921 2.38419e-07V1.67742C4.97921 9.49836 8.73558 9.98065 15.5205 9.98065H144.589C150.696 9.98065 153.876 11 154.512 17.1645H155.53C156.166 11 159.347 9.98065 165.453 9.98065L295.48 9.98065C302.264 9.98065 306 9.98128 306 1.67806V0.000635624L311 3.33786e-06V2.30645C311 12.371 306.293 14.8581 296.412 14.8581H168.082C161.297 14.8581 159.05 17.1645 159.05 24H150.993C150.993 17.1645 148.745 14.8581 141.96 14.8581H14.5876C4.70703 14.8581 -4.37453e-07 12.2032 0 2.30645Z" fill="#E44240"/>
</svg>
