<svg width="37" height="38" viewBox="0 0 37 38" fill="none" xmlns="http://www.w3.org/2000/svg">
<circle opacity="0.07" cx="18.5" cy="18.7437" r="18.5" fill="white"/>
<path fill-rule="evenodd" clip-rule="evenodd" d="M23.1453 14.1447C23.4082 14.2035 23.6872 14.2675 23.7653 14.2867C23.8955 14.3189 23.9145 14.4033 23.9909 15.2895C24.0368 15.8217 24.0803 16.3174 24.0877 16.3909C24.1033 16.5474 23.738 16.6942 23.6898 16.5508C23.3233 15.4581 23.1091 15.1545 22.4663 14.8169C22.0074 14.5758 21.9821 14.571 21.1687 14.571C20.3469 14.571 20.3343 14.5734 19.8182 14.836C18.6788 15.4156 18.0578 16.7078 18.0603 18.494C18.0629 20.3452 18.7825 21.8591 19.9205 22.4071C20.9531 22.9045 22.2955 22.8442 22.4997 22.2914C22.5356 22.1941 22.5651 21.6308 22.5651 21.0396C22.5651 20.0694 22.5517 19.9471 22.4279 19.7852C22.2847 19.5978 21.8238 19.4539 21.367 19.4539C21.1508 19.4539 21.1314 19.4366 21.1314 19.2431V19.0323H22.9747H24.8179V19.2286C24.8179 19.4014 24.7817 19.4347 24.5136 19.5085C24.2354 19.585 24.2025 19.6179 24.1299 19.8919C24.0767 20.0926 24.0614 20.6144 24.0835 21.4715L24.1167 22.7515L23.735 22.8657C22.6767 23.1824 22.1194 23.2718 21.1997 23.2727C20.4729 23.2734 20.1581 23.2414 19.7107 23.1215C17.405 22.5035 16.0679 20.5179 16.3545 18.1374C16.5721 16.3297 17.5778 15.006 19.2257 14.3579C19.9963 14.0549 20.5682 13.9731 21.6776 14.0072C22.222 14.024 22.8825 14.0859 23.1453 14.1447ZM11.9936 14.2801C13.0285 14.5309 13.6226 15.3039 13.536 16.2871C13.4637 17.107 12.9033 17.7584 12.0177 18.0519L11.7446 18.1424L12.2652 18.3058C12.8842 18.5001 13.3648 18.8157 13.6682 19.2273C13.9443 19.6019 14.0308 19.9152 14.0312 20.5429C14.0319 21.6878 13.2746 22.5319 11.8811 22.9394C11.5448 23.0378 11.0718 23.0646 9.23577 23.0897L7 23.1203V22.9128C7 22.7147 7.01632 22.7033 7.35841 22.6626C7.63803 22.6292 7.75654 22.5746 7.89752 22.4139C8.05945 22.2293 8.08321 22.1322 8.12601 21.4808C8.15222 21.0808 8.16274 19.5048 8.14929 17.9785C8.12758 15.51 8.11181 15.1786 8.00668 14.9794C7.85901 14.6998 7.81846 14.6746 7.42326 14.6169C7.13763 14.5751 7.10001 14.5488 7.08083 14.3773L7.05919 14.1846L9.33367 14.1857C10.9834 14.1865 11.714 14.2124 11.9936 14.2801ZM16.9671 14.3589C16.9671 14.4927 16.9235 14.5422 16.7794 14.5722C16.3831 14.6547 16.2596 14.718 16.1207 14.9097C15.9808 15.1029 15.9761 15.1962 15.9345 18.5982C15.8897 22.263 15.8685 22.5222 15.5633 23.1443C15.1864 23.9124 14.2722 24.6583 13.3656 24.9373C13.0373 25.0383 13.0354 25.0376 12.9732 24.7823C12.9358 24.6291 12.9552 24.5869 13.0819 24.5456C13.3129 24.4701 13.8885 23.8872 14.0497 23.5657C14.3811 22.9044 14.3946 22.7338 14.421 18.8918C14.4441 15.5287 14.4372 15.2562 14.324 15.0277C14.1812 14.7393 13.9723 14.6214 13.5517 14.5916C13.2759 14.5721 13.2445 14.5515 13.2249 14.3773L13.2033 14.1846H15.0852H16.9671V14.3589ZM29.0603 14.2859C29.9043 14.47 30.5484 14.9511 30.8315 15.6089C31.0362 16.0843 31.0583 17.0586 30.8764 17.5921C30.6261 18.3263 30.0298 18.9177 29.2033 19.2512C28.6915 19.4577 27.7822 19.5098 27.2939 19.3606C27.1026 19.3021 26.9281 19.2729 26.906 19.2955C26.8455 19.3579 26.8637 21.1726 26.931 21.7705C27.0065 22.4425 27.1415 22.5819 27.7847 22.6528C28.2209 22.701 28.2313 22.7068 28.2313 22.9058V23.1094L26.2686 23.0907L24.3059 23.0721V22.8985C24.3059 22.7473 24.3458 22.7178 24.6131 22.6716C24.7821 22.6423 24.986 22.5826 25.0664 22.5389C25.3873 22.3644 25.3965 22.2743 25.4203 19.0675C25.4326 17.4059 25.4223 15.8157 25.3973 15.5336C25.3391 14.8785 25.1984 14.6898 24.7155 14.6196C24.4082 14.5749 24.372 14.5507 24.3526 14.3773L24.3309 14.1846L26.4689 14.1858C28.0431 14.1867 28.7264 14.2131 29.0603 14.2859ZM9.90138 14.7215C9.6135 14.7995 9.59418 14.9122 9.59418 16.5165V18.0487L10.0891 18.0483C11.0034 18.0476 11.5173 17.7895 11.8106 17.1839C12.0003 16.792 12.0389 16.2543 11.9112 15.781C11.8166 15.4303 11.4712 15.0352 11.1195 14.8751C10.8276 14.7421 10.1434 14.6559 9.90138 14.7215ZM27.139 14.7207C26.8803 14.827 26.8659 14.9388 26.8659 16.8344V18.6846L27.0537 18.7607C27.312 18.8655 28.0388 18.8475 28.3127 18.7294C28.9456 18.4565 29.3191 17.8096 29.3749 16.8895C29.4218 16.115 29.281 15.6223 28.8946 15.2095C28.7174 15.0201 28.5018 14.8713 28.3337 14.8224C27.9982 14.7248 27.2781 14.6635 27.139 14.7207ZM9.61739 18.6498C9.59582 18.7077 9.59117 19.4735 9.60701 20.3515C9.63077 21.6647 9.65603 21.9871 9.74949 22.1688C9.94275 22.5442 10.5257 22.6493 11.2265 22.4352C12.0061 22.1969 12.4525 21.4155 12.3723 20.4298C12.2907 19.4283 11.6588 18.7799 10.6088 18.6202C9.9491 18.5199 9.66265 18.5284 9.61739 18.6498Z" fill="white"/>
</svg>
