<svg width="37" height="38" viewBox="0 0 37 38" fill="none" xmlns="http://www.w3.org/2000/svg">
<circle opacity="0.07" cx="18.5" cy="18.7437" r="18.5" fill="white"/>
<g opacity="0.75">
<path d="M18.4978 32C17.3083 31.9989 16.1675 31.5509 15.3247 30.7539C14.4819 29.9568 14.0057 28.8755 14 27.7461V10.2684C14.0004 9.42363 14.2647 8.59792 14.7595 7.89576C15.2543 7.1936 15.9573 6.64657 16.7797 6.32385C17.602 6.00113 18.5067 5.91725 19.3793 6.0828C20.2519 6.24836 21.0531 6.65592 21.6816 7.25392C22.101 7.64829 22.4335 8.11791 22.6598 8.63545C22.8861 9.15298 23.0018 9.70807 23 10.2684V27.7461C22.9932 28.8759 22.5159 29.9572 21.6725 30.7541C20.829 31.5511 19.6878 31.9989 18.4978 32ZM18.4978 6.7999C18.019 6.80043 17.545 6.89064 17.103 7.06534C16.661 7.24004 16.2596 7.49581 15.9218 7.81801C15.5841 8.1402 15.3166 8.52247 15.1346 8.94296C14.9527 9.36344 14.86 9.81386 14.8617 10.2684V27.7461C14.8941 28.6417 15.2917 29.4902 15.9704 30.1129C16.6492 30.7355 17.5562 31.0835 18.5 31.0835C19.4438 31.0835 20.3508 30.7355 21.0295 30.1129C21.7083 29.4902 22.1059 28.6417 22.1383 27.7461V10.2684C22.1372 9.35248 21.7531 8.47442 21.0705 7.82713C20.3879 7.17984 19.4626 6.81625 18.4978 6.81625V6.7999Z" fill="white"/>
<path d="M15.6416 18.1914V10.9598C15.6418 10.2681 15.8373 9.58899 16.2079 8.99335C16.5784 8.39771 17.1103 7.90726 17.7483 7.57308V18.2078L15.6416 18.1914Z" fill="white"/>
<path d="M22.569 19.0051V27.746C22.5346 28.7489 22.0908 29.6997 21.3315 30.3976C20.5721 31.0954 19.5567 31.4856 18.4998 31.4856C17.443 31.4856 16.4275 31.0954 15.6682 30.3976C14.9088 29.6997 14.465 28.7489 14.4306 27.746V19.0051H22.569Z" fill="white"/>
</g>
</svg>
