<svg width="15" height="15" viewBox="0 0 15 15" fill="none" xmlns="http://www.w3.org/2000/svg">
<path d="M7.5 0C6.01664 0 4.56659 0.439867 3.33323 1.26398C2.09986 2.08809 1.13856 3.25943 0.570907 4.62987C0.00324962 6.00032 -0.145275 7.50832 0.144114 8.96318C0.433503 10.418 1.14781 11.7544 2.1967 12.8033C3.2456 13.8522 4.58197 14.5665 6.03682 14.8559C7.49168 15.1453 8.99968 14.9968 10.3701 14.4291C11.7406 13.8614 12.9119 12.9001 13.736 11.6668C14.5601 10.4334 15 8.98336 15 7.5C14.9973 5.5117 14.2063 3.60561 12.8003 2.19967C11.3944 0.793731 9.4883 0.00269053 7.5 0ZM7.31187 11.6746C7.16102 11.6746 7.01355 11.6298 6.88813 11.546C6.7627 11.4622 6.66494 11.3431 6.60721 11.2037C6.54948 11.0644 6.53438 10.911 6.56381 10.7631C6.59324 10.6151 6.66588 10.4792 6.77255 10.3725C6.87921 10.2659 7.01512 10.1932 7.16307 10.1638C7.31102 10.1344 7.46438 10.1495 7.60374 10.2072C7.74311 10.2649 7.86223 10.3627 7.94604 10.4881C8.02985 10.6135 8.07458 10.761 8.07458 10.9119C8.07458 11.1141 7.99422 11.3081 7.85118 11.4512C7.70815 11.5942 7.51415 11.6746 7.31187 11.6746ZM8.61865 8.0161C8.42346 8.07658 8.25286 8.19818 8.13202 8.36297C8.01118 8.52776 7.94648 8.72701 7.94746 8.93135C7.94746 9.09992 7.8805 9.26159 7.7613 9.38079C7.6421 9.49998 7.48044 9.56695 7.31187 9.56695C7.1433 9.56695 6.98163 9.49998 6.86243 9.38079C6.74324 9.26159 6.67627 9.09992 6.67627 8.93135C6.67426 8.45522 6.82542 7.99107 7.10743 7.60743C7.38944 7.22379 7.78734 6.94101 8.24237 6.80085C8.43782 6.74046 8.60875 6.61896 8.73002 6.45421C8.85129 6.28946 8.91651 6.09016 8.9161 5.88559C8.90063 5.52073 8.74481 5.17595 8.48117 4.92326C8.21753 4.67056 7.86646 4.52948 7.50127 4.52948C7.13609 4.52948 6.78502 4.67056 6.52138 4.92326C6.25774 5.17595 6.10191 5.52073 6.08644 5.88559C6.08644 6.05416 6.01948 6.21583 5.90028 6.33502C5.78109 6.45422 5.61942 6.52118 5.45085 6.52118C5.28228 6.52118 5.12061 6.45422 5.00142 6.33502C4.88222 6.21583 4.81526 6.05416 4.81526 5.88559C4.83674 5.18752 5.12914 4.52523 5.63052 4.03904C6.1319 3.55285 6.80287 3.28095 7.50127 3.28095C8.19967 3.28095 8.87064 3.55285 9.37202 4.03904C9.8734 4.52523 10.1658 5.18752 10.1873 5.88559C10.1887 6.36195 10.037 6.82615 9.75461 7.20975C9.47218 7.59335 9.07394 7.87603 8.61865 8.0161Z" fill="#E44240"/>
</svg>
