<svg width="34" height="34" viewBox="0 0 34 34" fill="none" xmlns="http://www.w3.org/2000/svg">
<path d="M4.6002 29.5231L6.33217 24.3276L6.51303 23.785L6.22076 23.2935C5.08246 21.3789 4.42732 19.1458 4.42732 16.7549C4.42732 9.67395 10.1677 3.93359 17.2486 3.93359C24.3296 3.93359 30.07 9.67395 30.07 16.7549C30.07 23.8359 24.3296 29.5762 17.2486 29.5762C15.0932 29.5762 13.0657 29.0424 11.2842 28.1042L10.854 27.8777L10.3837 28.0014L4.6002 29.5231Z" stroke="white" stroke-width="2.5"/>
<path d="M15.408 13.4321C15.2427 13.8499 14.5815 14.5114 14.2716 14.7899C14.0648 15.1033 14.065 15.2076 14.8915 16.5654C15.7181 17.9232 17.8877 19.4899 18.5076 19.8033C19.0036 20.0539 19.3342 19.8381 19.4375 19.6988C19.713 19.4203 20.326 18.7797 20.574 18.4455C20.8219 18.1112 21.1594 18.2366 21.2972 18.341C22.0204 18.724 23.5908 19.5526 24.0867 19.8033C24.7066 20.1166 24.5 20.6388 24.2934 21.2655C24.0867 21.8922 23.0536 23.25 21.8138 23.25C20.574 23.25 17.3711 22.9367 14.6849 20.2211C11.9987 17.5054 10.8621 14.6854 10.7588 13.2231C10.6555 11.7609 11.482 10.4032 12.2052 9.7765C12.9284 9.14982 14.2716 9.67205 14.5815 10.5076C14.8915 11.3432 15.6147 12.9099 15.408 13.4321Z" fill="white"/>
</svg>
