<svg width="36" height="36" viewBox="0 0 36 36" fill="none" xmlns="http://www.w3.org/2000/svg">
<rect width="36" height="36" rx="8.18182" fill="url(#paint0_linear_4870_40738)"/>
<path d="M8.08016 28.0165L9.46573 23.8601L9.61042 23.4261L9.37661 23.0328C8.46596 21.5012 7.94186 19.7147 7.94186 17.802C7.94186 12.1372 12.5341 7.54492 18.1989 7.54492C23.8637 7.54492 28.456 12.1372 28.456 17.802C28.456 23.4667 23.8637 28.059 18.1989 28.059C16.4745 28.059 14.8526 27.632 13.4274 26.8814L13.0832 26.7002L12.707 26.7992L8.08016 28.0165Z" stroke="white" stroke-width="2"/>
<path d="M16.7264 15.1457C16.5942 15.4799 16.0652 16.0091 15.8173 16.2319C15.6519 16.4827 15.652 16.5661 16.3132 17.6523C16.9745 18.7386 18.7102 19.9919 19.2061 20.2426C19.6028 20.4432 19.8673 20.2705 19.95 20.1591C20.1704 19.9362 20.6608 19.4238 20.8592 19.1564C21.0575 18.889 21.3275 18.9893 21.4377 19.0728C22.0163 19.3792 23.2726 20.0421 23.6694 20.2426C24.1653 20.4933 24 20.9111 23.8347 21.4124C23.6694 21.9138 22.8429 23 21.851 23C20.8592 23 18.2969 22.7493 16.1479 20.5768C13.9989 18.4044 13.0897 16.1483 13.007 14.9785C12.9244 13.8087 13.5856 12.7225 14.1642 12.2212C14.7428 11.7199 15.8173 12.1376 16.0652 12.8061C16.3132 13.4746 16.8917 14.7279 16.7264 15.1457Z" fill="white"/>
<defs>
<linearGradient id="paint0_linear_4870_40738" x1="18" y1="0" x2="18" y2="36" gradientUnits="userSpaceOnUse">
<stop stop-color="#43EC62"/>
<stop offset="1" stop-color="#1DC940"/>
</linearGradient>
</defs>
</svg>
