<svg width="20" height="20" viewBox="0 0 20 20" fill="none" xmlns="http://www.w3.org/2000/svg">
<path fill-rule="evenodd" clip-rule="evenodd" d="M10 20C15.5228 20 20 15.5228 20 10C20 4.47715 15.5228 0 10 0C4.47715 0 0 4.47715 0 10C0 15.5228 4.47715 20 10 20ZM14.9931 6.64656C14.5549 6.244 14.4713 6.18268 14.2938 6.13344C14.0283 6.05978 13.844 6.07248 13.6188 6.18002C13.5673 6.20463 12.4932 7.18726 11.2319 8.36366L8.93857 10.5025L8.17913 9.79939C7.72339 9.3774 7.35231 9.06345 7.25114 9.01424C7.02385 8.90372 6.65992 8.90033 6.44581 9.00675C6.21126 9.1234 5.3236 9.98536 5.26382 10.1546C5.19119 10.3601 5.2049 10.6294 5.29701 10.8071C5.35192 10.913 5.84186 11.3934 6.90354 12.3824C8.36252 13.7415 8.44017 13.8078 8.6345 13.861C8.88759 13.9303 8.94775 13.9303 9.20144 13.8615C9.39922 13.8078 9.49024 13.7266 12.4491 10.9655C14.6424 8.91884 15.5157 8.08176 15.5734 7.97093C15.6797 7.76676 15.6783 7.46541 15.5701 7.25669C15.5214 7.16279 15.2988 6.9273 14.9931 6.64656Z" fill="#E44240"/>
</svg>
