<svg width="24" height="24" viewBox="0 0 24 24" fill="none" xmlns="http://www.w3.org/2000/svg">
<path fill-rule="evenodd" clip-rule="evenodd" d="M8.55556 10.4444V8.88889C8.55556 7.85749 8.96527 6.86834 9.69459 6.13903C10.4239 5.40972 11.413 5 12.4444 5C13.4759 5 14.465 5.40972 15.1943 6.13903C15.9236 6.86834 16.3333 7.85749 16.3333 8.88889V10.4444C16.7459 10.4444 17.1415 10.6083 17.4333 10.9001C17.725 11.1918 17.8889 11.5875 17.8889 12V17.4444C17.8889 17.857 17.725 18.2526 17.4333 18.5444C17.1415 18.8361 16.7459 19 16.3333 19H8.55556C8.143 19 7.74734 18.8361 7.45561 18.5444C7.16389 18.2526 7 17.857 7 17.4444L7 12C7 11.5875 7.16389 11.1918 7.45561 10.9001C7.74734 10.6083 8.143 10.4444 8.55556 10.4444ZM14.7778 8.88889V10.4444H10.1111V8.88889C10.1111 8.27005 10.3569 7.67656 10.7945 7.23897C11.2321 6.80139 11.8256 6.55556 12.4444 6.55556C13.0632 6.55556 13.6568 6.80139 14.0943 7.23897C14.5319 7.67656 14.7778 8.27005 14.7778 8.88889Z" fill="#E44240"/>
</svg>
