<svg width="24" height="24" viewBox="0 0 24 24" fill="none" xmlns="http://www.w3.org/2000/svg">
<path fill-rule="evenodd" clip-rule="evenodd" d="M18.823 6.40431C18.823 7.73217 17.7466 8.80861 16.4187 8.80861C15.0908 8.80861 14.0144 7.73217 14.0144 6.40431C14.0144 5.07645 15.0908 4 16.4187 4C17.7466 4 18.823 5.07645 18.823 6.40431ZM17.4794 10.2696C17.1416 10.3621 16.7859 10.4115 16.4187 10.4115C14.2056 10.4115 12.4115 8.61741 12.4115 6.40431C12.4115 6.13006 12.4391 5.86226 12.4915 5.6035C12.4649 5.60309 12.4382 5.60287 12.4115 5.60287C9.82361 5.60287 7.646 7.59914 7.34612 10.2464L7.06972 12.6864C7.00104 13.2926 6.75532 13.8632 6.36505 14.3225C5.53684 15.2974 6.20902 16.823 7.46674 16.823H17.3563C18.614 16.823 19.2861 15.2974 18.4579 14.3225C18.0676 13.8632 17.8219 13.2926 17.7532 12.6864L17.4794 10.2696ZM14.7934 17.9544C14.4269 18.8582 13.4986 19.5 12.4115 19.5C11.3243 19.5 10.3961 18.8582 10.0295 17.9544C10.0143 17.9168 10.0072 17.8763 10.0072 17.8357C10.0072 17.6483 10.1591 17.4964 10.3464 17.4964H14.4765C14.6639 17.4964 14.8158 17.6483 14.8158 17.8357C14.8158 17.8763 14.8087 17.9168 14.7934 17.9544Z" fill="#E44240"/>
</svg>
