<svg width="48" height="39" viewBox="0 0 48 39" fill="none" xmlns="http://www.w3.org/2000/svg">
<path fill-rule="evenodd" clip-rule="evenodd" d="M0.757218 3.79333C0 5.27945 0 7.2249 0 11.1158V22.4211C0 23.8882 0 24.6217 0.110386 25.2335C0.625375 28.0879 2.85945 30.322 5.71384 30.837C6.32566 30.9474 7.05922 30.9474 8.52632 30.9474L7.26316 38.8421L16.4211 30.9474H36.8842C40.7751 30.9474 42.7205 30.9474 44.2067 30.1902C45.5139 29.5241 46.5767 28.4613 47.2428 27.154C48 25.6679 48 23.7225 48 19.8316V11.1158C48 7.2249 48 5.27945 47.2428 3.79333C46.5767 2.4861 45.5139 1.42329 44.2067 0.757218C42.7205 0 40.7751 0 36.8842 0H11.1158C7.2249 0 5.27945 0 3.79333 0.757218C2.4861 1.42329 1.42329 2.4861 0.757218 3.79333ZM13.5933 18.9836C15.5217 18.9836 17.085 17.4203 17.085 15.4919C17.085 13.5634 15.5217 12.0001 13.5933 12.0001C11.6649 12.0001 10.1016 13.5634 10.1016 15.4919C10.1016 17.4203 11.6649 18.9836 13.5933 18.9836ZM27.171 15.4919C27.171 17.4203 25.6077 18.9836 23.6792 18.9836C21.7508 18.9836 20.1875 17.4203 20.1875 15.4919C20.1875 13.5634 21.7508 12.0001 23.6792 12.0001C25.6077 12.0001 27.171 13.5634 27.171 15.4919ZM33.7652 18.9836C35.6936 18.9836 37.2569 17.4203 37.2569 15.4919C37.2569 13.5634 35.6936 12.0001 33.7652 12.0001C31.8367 12.0001 30.2734 13.5634 30.2734 15.4919C30.2734 17.4203 31.8367 18.9836 33.7652 18.9836Z" fill="#E44240"/>
</svg>
