<svg width="24" height="24" viewBox="0 0 24 24" fill="none" xmlns="http://www.w3.org/2000/svg">
<path fill-rule="evenodd" clip-rule="evenodd" d="M24 12C24 18.6274 18.6274 24 12 24C5.37258 24 0 18.6274 0 12C0 5.37258 5.37258 0 12 0C18.6274 0 24 5.37258 24 12ZM17.748 8.029C17.9744 8.28973 18.1153 8.66524 18.1153 9.00859C18.1153 9.65039 17.8969 9.91765 14.2087 13.7861C11.5689 16.5549 11.1566 16.8138 9.95957 16.4551C9.46944 16.3082 8.96871 15.8878 7.88038 14.7088C7.09181 13.8546 6.35646 12.9934 6.24593 12.7947C5.68479 11.7849 6.33785 10.5723 7.44887 10.5612C8.23597 10.5532 8.39059 10.6569 9.52234 11.9493L10.5723 13.1483L13.0784 10.4858C14.4569 9.02149 15.7316 7.74165 15.9112 7.6419C16.4208 7.35896 17.3328 7.55112 17.748 8.029Z" fill="#E44240"/>
</svg>
