<svg width="79" height="95" viewBox="0 0 79 95" fill="none" xmlns="http://www.w3.org/2000/svg">
<rect width="79" height="95" fill="none"/>
<path d="M11.1566 51.3234C11.0074 50.0372 10.318 49.2655 9.07553 48.8359C7.39062 48.2546 6.92759 46.9915 7.66329 45.3684C8.39899 43.7452 8.20349 43.0172 6.81698 41.9445C5.92436 41.2551 5.84461 41.1394 5.32499 39.7477C5.3834 39.0713 5.65342 38.4304 6.09671 37.9162C7.09479 36.6531 7.04592 35.6782 5.97581 34.4923C5.83175 34.3354 5.67226 34.1888 5.54365 34.019C5.15543 33.5508 4.96282 32.9509 5.00595 32.3442C5.04908 31.7376 5.32462 31.1709 5.77516 30.7624C5.98867 30.554 6.24591 30.3894 6.46199 30.1836C7.37518 29.3141 7.59641 28.3443 6.97646 27.2871C6.49543 26.4871 6.10185 25.7153 6.3488 24.7533C6.59575 23.7912 7.37775 23.3693 8.21635 22.9526C9.29675 22.4073 9.67489 21.368 9.36878 20.1101C9.24981 19.7463 9.15866 19.3739 9.09611 18.9963C8.99064 17.7538 9.63374 16.8432 10.8119 16.4548C10.8956 16.4276 10.9817 16.4086 11.0691 16.3982C12.6383 16.1847 13.4666 15.0168 13.302 13.373C13.1167 11.5286 14.0737 10.5794 15.9258 10.5434C17.6081 10.5023 18.421 9.76656 18.6371 8.1048C18.8712 6.335 20.0056 5.53242 21.7908 5.87969C23.5169 6.21667 24.3992 5.74592 25.0243 4.15619C25.7008 2.44041 26.9433 1.9105 28.5871 2.63591C28.7826 2.7208 28.9703 2.8237 29.171 2.89315C29.6321 3.07822 30.1416 3.10513 30.6196 2.96967C31.0977 2.83422 31.5173 2.54404 31.8128 2.14459C32.0006 1.9105 32.1292 1.63011 32.3093 1.39602C33.2045 0.230732 34.5035 0.0120795 35.7126 0.817236C35.8566 0.912414 35.9698 1.03589 36.1139 1.13878C37.3229 2.05455 38.3621 2.01339 39.458 1.01274C39.6359 0.830789 39.824 0.659023 40.0213 0.49826C40.4838 0.141397 41.0609 -0.0338997 41.6438 0.00543134C42.2266 0.0447624 42.775 0.296002 43.1853 0.711768C43.2471 0.770933 43.3037 0.835242 43.3628 0.89698C44.9063 2.57932 45.3642 2.65649 47.314 1.59667C47.5986 1.42482 47.9156 1.31333 48.2451 1.26909C48.5746 1.22486 48.9097 1.24884 49.2296 1.33954C49.5494 1.43024 49.8472 1.58573 50.1045 1.79634C50.3617 2.00696 50.5729 2.26822 50.725 2.56388C50.7867 2.6745 50.8202 2.80312 50.8768 2.9163C51.5893 4.29767 52.5385 4.71697 54.0588 4.30024C54.4645 4.17377 54.8846 4.09943 55.309 4.07902C55.8066 4.07124 56.2926 4.22934 56.6904 4.52837C57.0881 4.8274 57.375 5.25034 57.5058 5.73049C57.6061 6.05718 57.6447 6.40445 57.763 6.72343C57.9093 7.1991 58.2113 7.61173 58.6205 7.89495C59.0297 8.17817 59.5223 8.31551 60.019 8.28487C60.3612 8.28487 60.7033 8.23342 61.048 8.23856C61.3593 8.2338 61.6686 8.29046 61.958 8.4053C62.2474 8.52014 62.5114 8.69091 62.7348 8.90784C62.9581 9.12477 63.1366 9.38361 63.2598 9.66955C63.3831 9.9555 63.4488 10.2629 63.4532 10.5743C63.4532 10.6592 63.4532 10.7441 63.4532 10.8315C63.4995 12.6322 64.1811 13.4245 65.9432 13.6251C67.1111 13.7589 67.8442 14.3583 68.1426 15.4618C68.2365 15.8307 68.2365 16.2171 68.1426 16.586C67.7233 18.1654 68.1426 19.4722 70.0076 20.087C71.551 20.6014 72.0475 22.0214 71.3812 23.5211C70.6095 25.2806 70.8025 26.06 72.3227 27.1224C73.843 28.1848 74.054 29.5096 72.9658 30.963C72.9144 31.0325 72.8475 31.0891 72.7961 31.1559C71.9472 32.3032 71.9883 33.363 72.9272 34.4049C73.097 34.5952 73.3054 34.7573 73.4623 34.9579C73.8297 35.4125 74.0186 35.9856 73.9935 36.5696C73.9684 37.1535 73.731 37.7083 73.326 38.1297C73.1819 38.284 73.007 38.4126 72.8475 38.5541C71.5356 39.6988 71.3838 40.5451 72.2198 42.0345C72.3022 42.1837 72.4051 42.3227 72.4771 42.477C72.7686 43.0345 72.827 43.6849 72.6393 44.2853C72.4517 44.8858 72.0335 45.3873 71.4764 45.6796C71.1806 45.8468 70.8436 45.9369 70.5581 46.1324C69.5291 46.7806 69.1458 47.9099 69.6578 49.0134C69.9254 49.6481 69.968 50.3551 69.7786 51.0173C69.6115 51.789 69.0198 52.2392 68.2918 52.4887C68.05 52.5736 67.7773 52.5839 67.5407 52.6559C66.3008 53.0161 65.6911 53.8264 65.7014 55.0997C65.7014 55.3981 65.7529 55.6991 65.7503 55.9975C65.767 56.6256 65.535 57.235 65.1049 57.6931C64.6747 58.1512 64.0811 58.421 63.4532 58.4438C63.3245 58.4438 63.1959 58.4438 63.0673 58.4438C61.3592 58.4798 60.5875 59.1743 60.3637 60.8798C60.1888 62.2149 59.5534 62.9532 58.3264 63.1718C57.9915 63.2124 57.6521 63.195 57.3232 63.1204C55.4016 62.7731 54.6659 63.1667 53.9405 64.9622C53.3205 66.5056 51.9932 67.0458 50.5089 66.3924C50.4317 66.359 50.3597 66.3076 50.2826 66.2716C48.8266 65.6079 47.8594 65.8677 46.959 67.1616C45.75 68.9005 44.5667 69.0909 42.8715 67.8227C41.6522 66.9095 40.6696 66.9558 39.5274 67.9796C39.3154 68.1905 39.0875 68.3849 38.8457 68.561C38.3857 68.8858 37.8241 69.0339 37.2637 68.9782C36.7033 68.9224 36.1819 68.6665 35.7949 68.2574C35.6122 68.0774 35.4708 67.8587 35.3036 67.6658C34.3646 66.588 33.3743 66.4233 32.1009 67.1256C31.9132 67.2285 31.7408 67.3571 31.5504 67.4523C30.9974 67.7526 30.3481 67.8219 29.7442 67.645C29.1402 67.4681 28.6309 67.0594 28.3273 66.5082C28.2835 66.4336 28.2424 66.359 28.2038 66.2818C27.2854 64.5455 26.6243 64.2651 24.6796 64.7899C23.0101 65.2426 21.8037 64.5661 21.4255 62.8503C21.0834 61.2786 19.9207 60.4631 18.4442 60.7229C18.1277 60.7884 17.8011 60.7882 17.4847 60.7223C17.1683 60.6564 16.8689 60.5261 16.6049 60.3396C15.8023 59.7686 15.5194 58.9866 15.5322 58.0065C15.5554 56.391 14.7836 55.573 13.1785 55.3646C11.4859 55.1434 10.7733 54.2791 10.9199 52.5865C10.9662 52.1543 11.0794 51.7376 11.1566 51.3234ZM67.0211 34.5566C67.0211 19.3641 54.7559 7.01668 39.6535 6.96523C32.3497 6.94058 25.3343 9.8131 20.1452 14.953C14.9561 20.0929 12.0169 27.0807 11.972 34.3843C11.8254 50.153 24.9369 62.0065 39.4091 62.0143C54.4344 62.022 66.967 49.9961 67.0211 34.5566Z" fill="#E44240"/>
<path d="M17.0779 62.9048C17.3763 62.8431 17.6776 62.7968 17.9808 62.7659C18.948 62.7376 19.4908 63.1826 19.6631 64.1524C19.7171 64.4457 19.6966 64.7518 19.7429 65.0476C19.8017 65.4845 19.9599 65.9021 20.2055 66.2682C20.4511 66.6343 20.7774 66.9392 21.1593 67.1593C21.5413 67.3795 21.9686 67.5091 22.4085 67.5381C22.8484 67.5671 23.2891 67.4948 23.6966 67.3268C23.9333 67.2367 24.1674 67.1338 24.3886 67.0335C24.6195 66.9269 24.8702 66.8701 25.1245 66.8665C25.3788 66.863 25.631 66.913 25.8648 67.0131C26.0986 67.1133 26.3087 67.2614 26.4816 67.4479C26.6544 67.6344 26.7862 67.8552 26.8684 68.0959V68.119C26.9384 68.3653 27.0243 68.6068 27.1256 68.8419C27.2912 69.2267 27.5402 69.5699 27.8545 69.8468C28.1689 70.1237 28.5408 70.3274 28.9435 70.443C29.3461 70.5587 29.7694 70.5835 30.1828 70.5157C30.5962 70.4479 30.9894 70.2892 31.334 70.0509C31.6221 69.8683 31.8922 69.6522 32.1623 69.4438C32.4502 69.1892 32.8212 69.0487 33.2054 69.0487C33.5897 69.0487 33.9607 69.1892 34.2485 69.4438C34.1662 69.7422 34.0916 70.0406 33.9913 70.3519C31.8699 77.8838 29.7409 85.4123 27.6041 92.9374C27.5465 93.1883 27.4602 93.4317 27.3468 93.6628C27.2759 93.8081 27.1695 93.9331 27.0374 94.0262C26.9053 94.1193 26.7518 94.1776 26.5912 94.1955C26.4305 94.2135 26.268 94.1906 26.1186 94.129C25.9692 94.0673 25.8377 93.9689 25.7365 93.8429C25.5157 93.5805 25.3162 93.3009 25.1397 93.0069L20.1802 85.5109C19.9461 85.156 19.6991 84.8087 19.375 84.3405L8.81537 87.875C8.63667 87.9356 8.44495 87.9471 8.2603 87.9081C8.07564 87.8692 7.90486 87.7813 7.76584 87.6537C7.60882 87.507 7.50013 87.316 7.45418 87.106C7.40824 86.896 7.42722 86.6771 7.5086 86.4782C10.7009 78.5809 13.8778 70.7712 17.0779 62.9048Z" fill="#E44240"/>
<path d="M53.5014 93.4977C53.3568 93.7214 53.1471 93.8954 52.9005 93.9961C52.6539 94.0969 52.3824 94.1195 52.1226 94.0611C51.7393 93.9685 51.657 93.7627 51.482 93.1788C50.9135 91.2958 50.3811 89.4025 49.846 87.5195C48.4158 82.4571 46.9889 77.398 45.5655 72.3425C45.509 72.1418 45.4601 71.936 45.3906 71.6685C45.6813 71.5373 45.9411 71.4112 46.2086 71.3032C46.8521 71.0437 47.3752 70.5527 47.6749 69.927C47.8134 69.6147 47.9697 69.3107 48.1431 69.0164C48.6807 68.1906 49.3624 68.0208 50.237 68.4839C50.4942 68.6254 50.7515 68.7977 51.0087 68.9546C52.8454 70.0865 54.9496 69.0832 55.4126 67.0742C55.4596 66.8226 55.5197 66.5736 55.5927 66.3282C55.9297 65.3173 56.5599 64.9751 57.5657 65.2555C57.823 65.3224 58.0493 65.4253 58.2937 65.5128C59.8371 65.9809 60.9407 65.5951 61.8539 64.2729C61.9465 64.1391 62.0442 64.0156 62.25 63.7275L71.5312 86.5317C71.6068 86.7198 71.6259 86.9258 71.5861 87.1246C71.5464 87.3233 71.4495 87.5062 71.3074 87.6507C71.1719 87.79 70.9997 87.8881 70.8108 87.9336C70.6219 87.9792 70.4239 87.9703 70.2399 87.9079L59.6133 84.3375C57.5657 87.4089 55.5284 90.4623 53.5014 93.4977Z" fill="#E44240"/>
<path d="M64.766 34.4615C64.8587 48.3061 53.4476 59.7712 39.5232 59.7455C25.2208 59.7198 14.3627 48.2212 14.247 34.4821C14.1287 20.5141 25.7456 9.19558 39.4924 9.19043C53.2392 9.18529 64.8509 20.5372 64.766 34.4615Z" fill="#E44240"/>
<path d="M53.3441 23.7829C51.8339 22.3614 49.3864 22.3614 47.8762 23.7829L34.206 36.6487L30.788 33.4318C29.2778 32.0103 26.8303 32.0103 25.3201 33.4318C23.81 34.8533 23.81 37.1572 25.3201 38.5778L31.4716 44.3676C32.9818 45.7891 35.4293 45.7891 36.9395 44.3676L53.344 28.9297C54.8543 27.5083 54.8543 25.2044 53.3441 23.7829Z" fill="black"/>
</svg>
