<svg width="30" height="30" viewBox="0 0 30 30" fill="none" xmlns="http://www.w3.org/2000/svg">
<path fill-rule="evenodd" clip-rule="evenodd" d="M13.0596 0.0979249C9.28262 0.592328 5.88239 2.48134 3.36579 5.48325C2.32967 6.71919 1.28594 8.62841 0.745834 10.2759C0.215238 11.8943 0 13.2549 0 14.991C0 16.7271 0.215238 18.0877 0.745834 19.7061C1.48167 21.9505 2.67227 23.8718 4.39488 25.5949C5.67849 26.8789 6.8391 27.713 8.41265 28.4823C12.5509 30.5054 17.4741 30.5059 21.579 28.4838C24.6739 26.9591 27.129 24.4651 28.5946 21.3572C30.507 17.3018 30.4655 12.4626 28.4834 8.406C26.2295 3.7932 21.7333 0.618315 16.6708 0.064683C15.7679 -0.0340566 13.9392 -0.0172244 13.0596 0.0979249ZM17.4879 2.52184C20.0423 3.07674 22.208 4.24077 23.9755 6.00878C25.7486 7.78229 26.9037 9.93914 27.4705 12.5345C27.6122 13.1833 27.6302 13.4596 27.6302 14.991C27.6302 16.8897 27.5588 17.4043 27.0947 18.8536C25.8385 22.7764 22.7793 25.8365 18.8582 27.0929C17.4233 27.5527 16.8897 27.6276 15.031 27.6303C13.5319 27.6325 13.2539 27.6145 12.5667 27.4705C7.92775 26.4984 4.31271 23.2745 2.89399 18.8443C2.43303 17.405 2.36149 16.8872 2.36149 14.991C2.36149 13.0948 2.43303 12.577 2.89399 11.1377C4.30962 6.71715 8.02759 3.39718 12.5315 2.53177C13.6249 2.32168 13.5715 2.32527 15.2423 2.3488C16.5051 2.36654 16.9199 2.39852 17.4879 2.52184ZM14.5734 8.5165C14.4766 8.55721 14.3231 8.65996 14.2322 8.74476C13.8641 9.08866 13.8693 9.03239 13.8693 12.6703C13.8693 16.4177 13.8647 16.3769 14.318 16.7003C14.4915 16.824 14.6352 16.8573 14.9958 16.8573C15.3565 16.8573 15.5002 16.824 15.6736 16.7003C16.1271 16.3767 16.1224 16.4199 16.1224 12.6491V9.23677L15.9639 9.00393C15.8768 8.8759 15.7207 8.70828 15.6171 8.63151C15.3988 8.46981 14.8328 8.40741 14.5734 8.5165ZM14.4347 18.9392C13.646 19.2707 13.252 20.1995 13.5827 20.9473C13.8689 21.5944 14.3118 21.8898 14.9958 21.8898C15.6798 21.8898 16.1228 21.5944 16.409 20.9473C16.6885 20.3151 16.4529 19.536 15.8553 19.1163C15.6033 18.9393 15.4745 18.9009 15.0808 18.885C14.8211 18.8746 14.5303 18.899 14.4347 18.9392Z" fill="#E44240"/>
</svg>
