<svg width="24" height="24" viewBox="0 0 24 24" fill="none" xmlns="http://www.w3.org/2000/svg">
<path d="M18.1972 6.95937C18.1721 6.77887 18.0422 6.63039 17.8666 6.58158L12.2397 5.01675C12.1595 4.99442 12.0748 4.99442 11.9945 5.01675L6.36763 6.58158C6.19206 6.63039 6.06219 6.7788 6.03705 6.95937C6.00442 7.19405 5.25988 12.7389 7.16957 15.4974C9.07699 18.2525 11.8909 18.9585 12.0097 18.9873C12.045 18.9958 12.081 19 12.1171 19C12.1532 19 12.1892 18.9957 12.2245 18.9873C12.3434 18.9585 15.1573 18.2525 17.0647 15.4974C18.9744 12.739 18.2298 7.19411 18.1972 6.95937ZM15.7457 10.1965L11.9076 14.0346C11.8183 14.1239 11.7012 14.1687 11.5841 14.1687C11.4671 14.1687 11.35 14.124 11.2606 14.0346L8.88758 11.6616C8.80175 11.5758 8.75356 11.4594 8.75356 11.3381C8.75356 11.2167 8.80181 11.1003 8.88758 11.0146L9.35877 10.5434C9.53744 10.3648 9.82714 10.3647 10.0058 10.5434L11.5841 12.1218L14.6276 9.0783C14.7133 8.99247 14.8297 8.94427 14.9511 8.94427C15.0724 8.94427 15.1888 8.99247 15.2746 9.0783L15.7457 9.54948C15.9244 9.72816 15.9244 10.0179 15.7457 10.1965Z" fill="#E44240"/>
</svg>
