<svg width="14" height="13" viewBox="0 0 14 13" fill="none" xmlns="http://www.w3.org/2000/svg">
<path d="M6.68143 0.700154C6.80582 0.426757 7.19418 0.426757 7.31857 0.700154L8.87638 4.12386C8.92732 4.23583 9.03331 4.31283 9.15554 4.32669L12.8931 4.75026C13.1915 4.78408 13.3115 5.15343 13.09 5.35622L10.3152 7.89576C10.2245 7.97882 10.184 8.10341 10.2086 8.22394L10.9607 11.9094C11.0207 12.2037 10.7066 12.432 10.4452 12.2839L7.17253 10.4297C7.0655 10.3691 6.9345 10.3691 6.82747 10.4297L3.55477 12.2839C3.29344 12.432 2.97925 12.2037 3.03931 11.9094L3.79143 8.22394C3.81603 8.10341 3.77554 7.97882 3.6848 7.89576L0.910046 5.35622C0.688471 5.15343 0.808478 4.78408 1.10693 4.75026L4.84446 4.32669C4.96669 4.31283 5.07268 4.23583 5.12362 4.12386L6.68143 0.700154Z" fill="#FE9B1A"/>
</svg>
