<svg width="311" height="18" viewBox="0 0 311 18" fill="none" xmlns="http://www.w3.org/2000/svg">
<rect x="9" y="6" width="293" height="6" fill="#F1F3F9"/>
<path d="M0 6H281C282.657 6 284 7.34315 284 9C284 10.6569 282.657 12 281 12H0V6Z" fill="#111113"/>
<circle cx="302" cy="9" r="9" fill="#F1F3F9"/>
<circle cx="156" cy="9" r="9" fill="#F1F3F9"/>
<path fill-rule="evenodd" clip-rule="evenodd" d="M156 18C160.971 18 165 13.9706 165 9C165 4.02944 160.971 0 156 0C151.029 0 147 4.02944 147 9C147 13.9706 151.029 18 156 18ZM160.494 5.9819C160.099 5.6196 160.024 5.56442 159.864 5.5201C159.625 5.4538 159.46 5.46523 159.257 5.56202C159.211 5.58416 158.244 6.46853 157.109 7.52729L155.045 9.45228L154.361 8.81945C153.951 8.43966 153.617 8.1571 153.526 8.11282C153.321 8.01335 152.994 8.0103 152.801 8.10608C152.59 8.21106 151.791 8.98682 151.737 9.13911C151.672 9.32406 151.684 9.56649 151.767 9.72637C151.817 9.82171 152.258 10.2541 153.213 11.1442C154.526 12.3673 154.596 12.427 154.771 12.4749C154.999 12.5373 155.053 12.5373 155.281 12.4753C155.459 12.427 155.541 12.3539 158.204 9.86895C160.178 8.02696 160.964 7.27359 161.016 7.17384C161.112 6.99009 161.11 6.71887 161.013 6.53102C160.969 6.44651 160.769 6.23457 160.494 5.9819Z" fill="#111113"/>
<circle cx="302" cy="9" r="9" fill="#F1F3F9"/>
</svg>
