<svg width="44" height="44" viewBox="0 0 44 44" fill="none" xmlns="http://www.w3.org/2000/svg">
<path d="M9 0C4.02944 0 0 4.02944 0 9V35C0 39.9706 4.02944 44 9 44H35C39.9706 44 44 39.9706 44 35V9C44 4.02944 39.9706 0 35 0H9Z" fill="#F1F3F9"/>
<path d="M13 20C12.4477 20 12 20.4477 12 21V29C12 29.5523 12.4477 30 13 30H18V21C18 20.4477 17.5523 20 17 20H13Z" fill="#111113"/>
<path d="M20 16C19.4477 16 19 16.4477 19 17V30H25V17C25 16.4477 24.5523 16 24 16H20Z" fill="#111113"/>
<path d="M27 12C26.4477 12 26 12.4477 26 13V30H31C31.5523 30 32 29.5523 32 29V13C32 12.4477 31.5523 12 31 12H27Z" fill="#111113"/>
</svg>
