<svg width="24" height="24" viewBox="0 0 24 24" fill="none" xmlns="http://www.w3.org/2000/svg">
<path fill-rule="evenodd" clip-rule="evenodd" d="M20.2386 6.2869C19.5106 5.60105 19.3718 5.49659 19.0769 5.4127C18.6359 5.28719 18.3298 5.30883 17.9557 5.49206C17.8701 5.53397 16.0859 7.20808 13.9907 9.21233L10.1813 12.8563L8.91978 11.6584C8.16275 10.9394 7.54633 10.4046 7.37828 10.3207C7.00073 10.1324 6.3962 10.1267 6.04054 10.308C5.65092 10.5067 4.17643 11.9752 4.07713 12.2635C3.95648 12.6136 3.97925 13.0725 4.13225 13.3752C4.22347 13.5557 5.03731 14.3741 6.80087 16.0591C9.22441 18.3746 9.35339 18.4875 9.67619 18.5782C10.0966 18.6962 10.1965 18.6963 10.618 18.5789C10.9465 18.4875 11.0977 18.3492 16.0128 13.6451C19.656 10.1582 21.1067 8.73206 21.2025 8.54323C21.379 8.19539 21.3767 7.68197 21.197 7.32637C21.1162 7.1664 20.7463 6.7652 20.2386 6.2869Z" fill="#E44240"/>
</svg>
