<svg width="44" height="44" viewBox="0 0 44 44" fill="none" xmlns="http://www.w3.org/2000/svg">
<path d="M9 0C4.02944 0 0 4.02944 0 9V35C0 39.9706 4.02944 44 9 44H35C39.9706 44 44 39.9706 44 35V9C44 4.02944 39.9706 0 35 0H9Z" fill="#F1F3F9"/>
<path fill-rule="evenodd" clip-rule="evenodd" d="M22 30C17.5817 30 14 26.4183 14 22C14 17.5817 17.5817 14 22 14C26.4183 14 30 17.5817 30 22C30 26.4183 26.4183 30 22 30ZM26 21.0012H23V17.9922C23 17.4399 22.5523 16.9922 22 16.9922C21.4477 16.9922 21 17.4399 21 17.9922V22.0102C21.0049 22.559 21.4512 23.0012 22 23.0012H26C26.5523 23.0012 27 22.5535 27 22.0012C27 21.4489 26.5523 21.0012 26 21.0012Z" fill="#111113"/>
</svg>
