<svg width="44" height="44" viewBox="0 0 44 44" fill="none" xmlns="http://www.w3.org/2000/svg">
<path d="M9 0C4.02944 0 0 4.02944 0 9V35C0 39.9706 4.02944 44 9 44H35C39.9706 44 44 39.9706 44 35V9C44 4.02944 39.9706 0 35 0H9Z" fill="#F1F3F9"/>
<path fill-rule="evenodd" clip-rule="evenodd" d="M20 15C20 14.4477 19.5523 14 19 14C18.4477 14 18 14.4477 18 15V16H16.0068C14.8988 16 14 16.8954 14 18.0025V27.9975C14 29.0988 14.9008 30 16.0068 30H27.9932C29.1012 30 30 29.1046 30 27.9975V18.0025C30 16.9012 29.0992 16 27.9932 16H26V15C26 14.4477 25.5523 14 25 14C24.4477 14 24 14.4477 24 15V16H20V15ZM19 23C19.5523 23 20 22.5523 20 22C20 21.4477 19.5523 21 19 21C18.4477 21 18 21.4477 18 22C18 22.5523 18.4477 23 19 23ZM23 22C23 22.5523 22.5523 23 22 23C21.4477 23 21 22.5523 21 22C21 21.4477 21.4477 21 22 21C22.5523 21 23 21.4477 23 22ZM25 23C25.5523 23 26 22.5523 26 22C26 21.4477 25.5523 21 25 21C24.4477 21 24 21.4477 24 22C24 22.5523 24.4477 23 25 23ZM20 25C20 25.5523 19.5523 26 19 26C18.4477 26 18 25.5523 18 25C18 24.4477 18.4477 24 19 24C19.5523 24 20 24.4477 20 25ZM22 26C22.5523 26 23 25.5523 23 25C23 24.4477 22.5523 24 22 24C21.4477 24 21 24.4477 21 25C21 25.5523 21.4477 26 22 26ZM26 25C26 25.5523 25.5523 26 25 26C24.4477 26 24 25.5523 24 25C24 24.4477 24.4477 24 25 24C25.5523 24 26 24.4477 26 25Z" fill="#111113"/>
</svg>
