<svg width="40" height="18" viewBox="0 0 40 18" fill="none" xmlns="http://www.w3.org/2000/svg">
<rect width="40" height="18" rx="3" fill="#5773D6"/>
<path d="M9.49609 13H8.03711V4.54492H9.34961L13.498 10.293H13.5977V4.54492H15.0508V13H13.7441L9.5957 7.24609H9.49609V13ZM19.6797 7.61523C19.3906 7.61523 19.1328 7.67969 18.9062 7.80859C18.6836 7.9375 18.5059 8.11914 18.373 8.35352C18.2402 8.58789 18.1621 8.86133 18.1387 9.17383H21.1562C21.1445 8.85742 21.0762 8.58203 20.9512 8.34766C20.8301 8.11328 20.6602 7.93359 20.4414 7.80859C20.2266 7.67969 19.9727 7.61523 19.6797 7.61523ZM21.168 11.2363H22.5449C22.459 11.623 22.2871 11.959 22.0293 12.2441C21.7715 12.5254 21.4434 12.7441 21.0449 12.9004C20.6504 13.0527 20.2012 13.1289 19.6973 13.1289C19.0684 13.1289 18.5273 12.9961 18.0742 12.7305C17.625 12.4648 17.2793 12.0859 17.0371 11.5938C16.7949 11.0977 16.6738 10.5059 16.6738 9.81836C16.6738 9.13086 16.7949 8.53711 17.0371 8.03711C17.2832 7.5332 17.6309 7.14453 18.0801 6.87109C18.5332 6.59766 19.0684 6.46094 19.6855 6.46094C20.2949 6.46094 20.8164 6.58984 21.25 6.84766C21.6875 7.10547 22.0234 7.47656 22.2578 7.96094C22.4922 8.44531 22.6094 9.02344 22.6094 9.69531V10.1641H18.1328V10.2402C18.1445 10.5957 18.2168 10.9043 18.3496 11.166C18.4863 11.4238 18.6719 11.623 18.9062 11.7637C19.1445 11.9043 19.4219 11.9746 19.7383 11.9746C20.0977 11.9746 20.3984 11.9121 20.6406 11.7871C20.8867 11.6582 21.0625 11.4746 21.168 11.2363ZM32.5703 6.58984L30.8359 13H29.3066L28.0586 8.38281H27.959L26.7168 13H25.2051L23.4707 6.58984H24.9355L26.002 11.377H26.1016L27.332 6.58984H28.7207L29.9629 11.377H30.0625L31.123 6.58984H32.5703Z" fill="white"/>
</svg>
