<svg width="44" height="44" viewBox="0 0 44 44" fill="none" xmlns="http://www.w3.org/2000/svg">
<path d="M9 0C4.02944 0 0 4.02944 0 9V35C0 39.9706 4.02944 44 9 44H35C39.9706 44 44 39.9706 44 35V9C44 4.02944 39.9706 0 35 0H9Z" fill="#F1F3F9"/>
<path fill-rule="evenodd" clip-rule="evenodd" d="M16.9208 28C17.4543 28 17.8901 27.8315 18.228 27.4946C18.566 27.1577 18.7349 26.7264 18.7349 26.2008V17.8076C18.7349 17.2769 18.566 16.843 18.228 16.5058C17.8901 16.1686 17.4543 16 16.9208 16C16.3867 16 15.952 16.1686 15.6165 16.5058C15.281 16.843 15.1133 17.2769 15.1133 17.8076V26.2008C15.1133 26.7264 15.281 27.1577 15.6165 27.4946C15.952 27.8315 16.3867 28 16.9208 28ZM13.1472 26.1968C13.4696 26.1968 13.7411 26.0844 13.9618 25.8595C14.1824 25.6346 14.2928 25.3589 14.2928 25.0322V18.9699C14.2928 18.6376 14.1824 18.3591 13.9618 18.1342C13.7411 17.9093 13.4696 17.7969 13.1472 17.7969C12.8242 17.7969 12.5523 17.9093 12.3314 18.1342C12.1105 18.3591 12 18.6376 12 18.9699V25.0322C12 25.3589 12.1105 25.6346 12.3314 25.8595C12.5523 26.0844 12.8242 26.1968 13.1472 26.1968ZM24.4497 23.5915H19.6211V20.3984H24.4497V23.5915ZM27.154 28C27.688 28 28.1228 27.8315 28.4583 27.4946C28.7938 27.1577 28.9615 26.7264 28.9615 26.2008V17.8076C28.9615 17.2769 28.7938 16.843 28.4583 16.5058C28.1228 16.1686 27.688 16 27.154 16C26.6204 16 26.1847 16.1686 25.8468 16.5058C25.5088 16.843 25.3398 17.2769 25.3398 17.8076V26.2008C25.3398 26.7264 25.5088 27.1577 25.8468 27.4946C26.1847 27.8315 26.6204 28 27.154 28ZM31.6689 25.8595C31.448 26.0844 31.1761 26.1968 30.8531 26.1968C30.5307 26.1968 30.2603 26.0844 30.0421 25.8595C29.8239 25.6346 29.7148 25.3589 29.7148 25.0322V18.9699C29.7148 18.6376 29.8239 18.3591 30.0421 18.1342C30.2603 17.9093 30.5307 17.7969 30.8531 17.7969C31.1761 17.7969 31.448 17.9093 31.6689 18.1342C31.8898 18.3591 32.0002 18.6376 32.0002 18.9699V25.0322C32.0002 25.3589 31.8898 25.6346 31.6689 25.8595Z" fill="#111113"/>
</svg>
