<svg width="62" height="62" viewBox="0 0 62 62" fill="none" xmlns="http://www.w3.org/2000/svg">
<path fill-rule="evenodd" clip-rule="evenodd" d="M62 31C62 48.1208 48.1208 62 31 62C13.8792 62 0 48.1208 0 31C0 13.8792 13.8792 0 31 0C48.1208 0 62 13.8792 62 31ZM47.101 20.8575C47.686 21.5311 48.05 22.5011 48.05 23.3881C48.05 25.0461 47.4857 25.7365 37.9579 35.7299C31.1383 42.8827 30.0734 43.5516 26.981 42.625C25.7148 42.2454 24.4213 41.1593 21.6097 38.1138C19.5726 35.9071 17.673 33.6822 17.3874 33.1689C15.9378 30.5603 17.6249 27.4278 20.495 27.3991C22.5284 27.3785 22.9278 27.6463 25.8515 30.985L28.5639 34.0825L35.038 27.2043C38.599 23.4214 41.8922 20.1152 42.3561 19.8575C43.6725 19.1266 46.0285 19.623 47.101 20.8575Z" fill="#FA2724"/>
</svg>
