<svg width="72" height="72" viewBox="0 0 72 72" fill="none" xmlns="http://www.w3.org/2000/svg">
<rect width="72" height="72" rx="13.5" fill="#F9F9F9"/>
<path d="M49.8823 32.9429C49.8034 32.8011 49.6889 32.6832 49.5505 32.6012C49.4121 32.5192 49.2549 32.476 49.0947 32.476H37.236L39.2242 17.0228C39.2455 16.816 39.1978 16.6079 39.0887 16.432C38.9797 16.2562 38.8156 16.1227 38.6229 16.0532C38.4302 15.9838 38.2202 15.9822 38.0266 16.049C37.833 16.1157 37.6671 16.2467 37.5556 16.421L23.1341 42.1234C23.0498 42.2629 23.0035 42.4228 23.0002 42.5866C22.9969 42.7504 23.0365 42.9121 23.1151 43.055C23.1936 43.198 23.3083 43.3171 23.4471 43.4C23.586 43.4829 23.7441 43.5266 23.9051 43.5266H35.5867L34.0111 59.003C33.9956 59.2091 34.0483 59.4146 34.1608 59.5867C34.2734 59.7588 34.4393 59.8876 34.6321 59.9528C34.8249 60.0179 35.0337 60.0156 35.225 59.9462C35.4164 59.8767 35.5795 59.7442 35.6883 59.5696L49.8714 33.87C49.9537 33.7302 49.998 33.5708 49.9999 33.4079C50.0018 33.245 49.9613 33.0846 49.8823 32.9429Z" fill="#E44240"/>
</svg>
