<svg width="72" height="72" viewBox="0 0 72 72" fill="none" xmlns="http://www.w3.org/2000/svg">
<rect width="72" height="72" rx="13.5" fill="#F9F9F9"/>
<path d="M28.5832 23.8724C28.5832 23.2849 29.0644 22.8086 29.6581 22.8086L42.3421 22.8086C42.9358 22.8086 43.417 23.2849 43.417 23.8724L43.417 51.3901C43.417 51.9777 42.9358 52.454 42.3421 52.454L29.6581 52.454C29.0644 52.454 28.5832 51.9777 28.5832 51.3901L28.5832 23.8724Z" fill="#E44240"/>
<path fill-rule="evenodd" clip-rule="evenodd" d="M25 51.9574C25 54.1901 26.8288 56 29.0847 56L42.9153 56C45.1712 56 47 54.1901 47 51.9574L47 23.305C47 21.0723 45.1712 19.2624 42.9153 19.2624L29.0847 19.2624C26.8288 19.2624 25 21.0723 25 23.305L25 51.9574ZM29.0847 54.0142C27.9369 54.0142 27.0065 53.0934 27.0065 51.9574L27.0065 23.305C27.0065 22.1691 27.9369 21.2482 29.0847 21.2482L42.9153 21.2482C44.0631 21.2482 44.9935 22.1691 44.9935 23.305L44.9935 51.9574C44.9935 53.0933 44.0631 54.0142 42.9153 54.0142L29.0847 54.0142Z" fill="#E44240"/>
<path d="M33.3844 16C32.7908 16 32.3095 16.4763 32.3095 17.0638L32.3095 18.4113L39.6906 18.4113L39.6906 17.0638C39.6906 16.4763 39.2094 16 38.6157 16L33.3844 16Z" fill="#E44240"/>
</svg>
