<svg width="18" height="18" viewBox="0 0 18 18" fill="none" xmlns="http://www.w3.org/2000/svg">
<path fill-rule="evenodd" clip-rule="evenodd" d="M13.4935 5.98216C13.099 5.61985 13.0239 5.56467 12.8641 5.52035C12.6251 5.45405 12.4593 5.46549 12.2566 5.56228C12.2102 5.58442 11.2435 6.46879 10.1083 7.52755L8.04438 9.45254L7.36088 8.8197C6.95071 8.43992 6.61674 8.15736 6.52568 8.11307C6.32112 8.01361 5.99359 8.01055 5.80089 8.10633C5.58979 8.21131 4.7909 8.98708 4.7371 9.13937C4.67173 9.32431 4.68407 9.56674 4.76697 9.72662C4.81639 9.82196 5.25733 10.2543 6.21284 11.1444C7.52593 12.3676 7.59581 12.4273 7.77071 12.4752C7.99849 12.5375 8.05263 12.5376 8.28096 12.4756C8.45896 12.4272 8.54087 12.3542 11.2039 9.86921C13.1778 8.02721 13.9638 7.27384 14.0157 7.17409C14.1114 6.99034 14.1101 6.71912 14.0127 6.53127C13.969 6.44677 13.7685 6.23483 13.4935 5.98216Z" fill="#5773D6"/>
</svg>
