<svg width="20" height="20" viewBox="0 0 20 20" fill="none" xmlns="http://www.w3.org/2000/svg">
<path fill-rule="evenodd" clip-rule="evenodd" d="M15.179 5.71505C14.6329 5.20066 14.5289 5.12232 14.3077 5.0594C13.9769 4.96527 13.7474 4.9815 13.4668 5.11892C13.4026 5.15036 12.0644 6.40594 10.493 7.90912L7.63597 10.6421L6.68984 9.74366C6.12206 9.20446 5.65975 8.8033 5.53371 8.74042C5.25054 8.5992 4.79715 8.59487 4.53041 8.73085C4.23819 8.8799 3.13232 9.98129 3.05785 10.1975C2.96736 10.4601 2.98444 10.8043 3.09919 11.0313C3.1676 11.1666 3.77798 11.7805 5.10066 13.0442C6.91831 14.7808 7.01505 14.8655 7.25714 14.9335C7.57246 15.022 7.6474 15.0221 7.96347 14.9341C8.20986 14.8655 8.32326 14.7617 12.0096 11.2337C14.742 8.61852 15.83 7.54892 15.9019 7.4073C16.0342 7.14642 16.0325 6.76135 15.8977 6.49466C15.8371 6.37468 15.5597 6.07378 15.179 5.71505Z" fill="#E44240"/>
</svg>
