<svg width="44" height="44" viewBox="0 0 44 44" fill="none" xmlns="http://www.w3.org/2000/svg">
<path d="M9 0C4.02944 0 0 4.02944 0 9V35C0 39.9706 4.02944 44 9 44H35C39.9706 44 44 39.9706 44 35V9C44 4.02944 39.9706 0 35 0H9Z" fill="#F1F3F9"/>
<path fill-rule="evenodd" clip-rule="evenodd" d="M26.8 14.8H29.2C29.68 14.8 30 15.12 30 15.6V17.52C30 19.36 28.64 20.88 26.8 21.12V21.2C26.8 23.52 25.2 25.44 23.04 25.92L23.6 27.6H25.44C25.6041 27.6041 25.7626 27.6608 25.8921 27.7615C26.0217 27.8623 26.1156 28.002 26.16 28.16L26.8 30H17.2L17.84 28.16C17.92 27.84 18.24 27.6 18.56 27.6H20.4L20.96 25.92C18.8 25.44 17.2 23.52 17.2 21.2V21.12C15.36 20.88 14 19.36 14 17.52V15.6C14 15.12 14.32 14.8 14.8 14.8H17.2V14H26.8V14.8ZM15.6 17.52C15.6 18.48 16.32 19.28 17.2 19.52V16.4H15.6V17.52ZM22 17.3C22.124 17.3 22.237 17.376 22.284 17.492L22.766 18.723L24.111 18.792C24.1722 18.7949 24.2311 18.8162 24.28 18.8531C24.3289 18.89 24.3655 18.9409 24.385 18.999C24.4041 19.0568 24.4049 19.1191 24.3873 19.1774C24.3698 19.2357 24.3348 19.2873 24.287 19.325L23.242 20.153L23.592 21.428C23.6076 21.4868 23.6049 21.549 23.5842 21.6062C23.5634 21.6634 23.5257 21.7129 23.476 21.748C23.4259 21.7835 23.3663 21.8033 23.3049 21.8049C23.2434 21.8066 23.1829 21.7899 23.131 21.757L22.001 21.037L20.871 21.757C20.8193 21.7904 20.7588 21.8075 20.6973 21.8061C20.6358 21.8046 20.5761 21.7848 20.526 21.749C20.4765 21.7138 20.4389 21.6642 20.4184 21.607C20.3978 21.5498 20.3952 21.4877 20.411 21.429L20.76 20.154L19.714 19.324C19.6661 19.2866 19.6308 19.2353 19.6129 19.1772C19.595 19.1191 19.5954 19.0569 19.614 18.999C19.6335 18.9407 19.6703 18.8898 19.7194 18.8528C19.7685 18.8159 19.8276 18.7947 19.889 18.792L21.234 18.723L21.714 17.492C21.737 17.4351 21.7765 17.3863 21.8275 17.3521C21.8785 17.3179 21.9386 17.2997 22 17.3ZM28.4 17.52V16.4H26.8V19.52C27.68 19.36 28.4 18.48 28.4 17.52Z" fill="#111113"/>
</svg>
