<svg width="44" height="44" viewBox="0 0 44 44" fill="none" xmlns="http://www.w3.org/2000/svg">
<path d="M9 0C4.02944 0 0 4.02944 0 9V35C0 39.9706 4.02944 44 9 44H35C39.9706 44 44 39.9706 44 35V9C44 4.02944 39.9706 0 35 0H9Z" fill="#F1F3F9"/>
<path d="M17.1652 30.8219C17.6812 30.2922 17.9679 29.5805 17.9631 28.841C17.9583 28.1015 17.6624 27.3937 17.1395 26.8707C16.6167 26.3477 15.9088 26.0518 15.1693 26.0469C14.4298 26.0421 13.7181 26.3287 13.1884 26.8447C12.4059 27.6272 12.0979 28.8401 12.0001 29.9357C11.9446 30.5568 11.9481 31.1819 12.0107 31.8024C12.0275 31.9589 12.177 31.9929 12.2028 31.998H12.2102C12.2732 32.0003 13.172 32.0179 13.449 31.1427C13.4984 30.9792 13.5714 30.8238 13.6657 30.6814C13.8469 30.4142 14.2644 30.575 14.2182 30.8946C14.1732 31.2278 14.2422 31.5665 14.4138 31.8556C14.4328 31.8876 14.461 31.9132 14.4946 31.9291C14.5283 31.945 14.566 31.9505 14.6028 31.9448C15.5422 31.8031 16.5059 31.4811 17.1652 30.8219Z" fill="#111113"/>
<path d="M26.2764 27.6288V25.2049C26.5669 24.9553 26.8511 24.6921 27.1289 24.4154L27.8989 23.6465C30.7802 20.7637 32.1868 17.0695 31.9892 13.7508C31.9309 12.7746 31.2332 12.0766 30.2567 12.0183C26.9399 11.8207 23.2429 13.2273 20.3609 16.1097L19.5921 16.8785C19.3151 17.1555 19.0519 17.4398 18.8025 17.7315H16.3787C15.8641 17.751 15.4091 18.048 15.1517 18.4835L13.7267 21.3342C13.6892 21.4365 13.6629 21.5427 13.6484 21.6507C13.6507 21.8338 13.7244 22.0088 13.8539 22.1382C13.9833 22.2677 14.1583 22.3414 14.3414 22.3436H16.1412C15.9064 23.1301 16.0629 23.9032 16.5629 24.4025L19.6042 27.4441C20.1035 27.9438 20.8766 28.0995 21.663 27.8659V29.6657C21.6653 29.8488 21.739 30.0237 21.8684 30.1532C21.9979 30.2827 22.1729 30.3564 22.3559 30.3586C22.464 30.3441 22.5701 30.3179 22.6725 30.2804L25.5224 28.8554C25.9595 28.5987 26.2556 28.1421 26.2764 27.6288Z" fill="#111113"/>
<circle cx="26" cy="18" r="2" fill="#181A1F"/>
</svg>
