<svg width="44" height="44" viewBox="0 0 44 44" fill="none" xmlns="http://www.w3.org/2000/svg">
<path d="M9 0C4.02944 0 0 4.02944 0 9V35C0 39.9706 4.02944 44 9 44H35C39.9706 44 44 39.9706 44 35V9C44 4.02944 39.9706 0 35 0H9Z" fill="#F1F3F9"/>
<path d="M31.7031 22.7893H24.8927C24.595 22.7893 24.3524 23.0319 24.3524 23.3294C24.3524 23.481 24.4168 23.6176 24.5173 23.7161L29.3128 28.5116C29.4113 28.6178 29.5536 28.6842 29.7091 28.6842C29.8967 28.6842 30.0616 28.5894 30.1582 28.4453C31.3373 27.0768 32.0955 25.3386 32.232 23.4261C32.2396 23.3939 32.2433 23.3617 32.2433 23.3294C32.2434 23.0319 32.0026 22.7893 31.7031 22.7893Z" fill="#111113"/>
<path d="M22.8341 13C22.5365 13.0018 22.2958 13.2426 22.2958 13.5402V21.1089C22.2958 21.4084 22.5365 21.651 22.8341 21.651H30.4047C30.7024 21.651 30.9449 21.4084 30.9449 21.1089C30.6776 16.7531 27.1918 13.2673 22.8341 13Z" fill="#111113"/>
<path d="M26.9937 28.071L21.4096 22.4869C21.3148 22.3902 21.258 22.2556 21.258 22.1097L21.256 14.2225C21.256 13.925 21.0153 13.6842 20.7177 13.6842C16.1818 13.961 12.5898 17.7292 12.5898 22.3334C12.5898 27.1195 16.47 31.0014 21.256 31.0014C23.4396 31.0014 25.4337 30.194 26.9576 28.8614C27.0752 28.7628 27.1491 28.615 27.1491 28.4501C27.1491 28.3041 27.0903 28.1695 26.9937 28.071Z" fill="#111113"/>
</svg>
