<svg width="44" height="44" viewBox="0 0 44 44" fill="none" xmlns="http://www.w3.org/2000/svg">
<path d="M9 0C4.02944 0 0 4.02944 0 9V35C0 39.9706 4.02944 44 9 44H35C39.9706 44 44 39.9706 44 35V9C44 4.02944 39.9706 0 35 0H9Z" fill="#F1F3F9"/>
<path fill-rule="evenodd" clip-rule="evenodd" d="M28.1324 16.2041L28.9995 26.3705C29.0132 26.5314 28.9436 26.6881 28.8153 26.7851C27.7576 27.5855 25.3669 28.6986 22.5741 28.9061C21.3618 28.9962 20.1333 28.9193 18.9141 28.6787V21.3051C19.4747 21.5523 19.9895 21.8991 20.4318 22.3299C20.1518 22.6308 19.9282 22.9892 19.7828 23.3911C19.6948 23.6343 19.8195 23.9033 20.0612 23.9918C20.303 24.0803 20.5703 23.9549 20.6583 23.7116C20.9696 22.8509 21.7912 22.2726 22.7027 22.2726C23.6214 22.2726 24.4453 22.8571 24.7529 23.7271C24.8207 23.9191 25.0002 24.0389 25.1918 24.0389C25.5134 24.0389 25.7383 23.7176 25.6306 23.4131C25.4496 22.901 25.1432 22.4584 24.754 22.1147L25.4357 17.8509H22.7105C22.3918 17.8509 22.1671 17.5354 22.2693 17.2318L23.2506 14.3184C23.3387 14.0569 23.631 13.9289 23.8808 14.0404L27.8573 15.8158C28.0125 15.8851 28.1179 16.0339 28.1324 16.2041ZM15.1356 21.2132C15.3384 21.0083 16.6655 20.6951 17.9812 20.9948V28.8392L15.6666 29.9518C15.3578 30.1002 15 29.8733 15 29.529V21.5448C14.9997 21.4212 15.0485 21.3015 15.1356 21.2132Z" fill="#111113"/>
</svg>
