<svg width="44" height="44" viewBox="0 0 44 44" fill="none" xmlns="http://www.w3.org/2000/svg">
<path d="M9 0C4.02944 0 0 4.02944 0 9V35C0 39.9706 4.02944 44 9 44H35C39.9706 44 44 39.9706 44 35V9C44 4.02944 39.9706 0 35 0H9Z" fill="#F1F3F9"/>
<path fill-rule="evenodd" clip-rule="evenodd" d="M25.7926 14.0066C24.4151 13.9428 23.0632 14.394 22 15.2722V15.2711C20.9367 14.393 19.5847 13.942 18.2072 14.006C16.8296 14.0699 15.5252 14.6442 14.5478 15.617C14.0322 16.1289 13.6233 16.7381 13.3448 17.4093C13.0664 18.0805 12.924 18.8002 12.9258 19.5268C12.9238 20.2537 13.0662 20.9736 13.3446 21.645C13.6231 22.3163 14.032 22.9257 14.5478 23.4378L22 30.8786L29.4522 23.4367C29.9678 22.9247 30.3767 22.3155 30.6552 21.6444C30.9336 20.9732 31.076 20.2535 31.0742 19.5268C31.076 18.8002 30.9336 18.0805 30.6552 17.4093C30.3767 16.7381 29.9678 16.1289 29.4522 15.617C28.4746 14.6444 27.1701 14.0703 25.7926 14.0066ZM20.8657 20.8063V18.5378H23.1343V20.8063H25.4028V23.0748H23.1343V25.3434H20.8657V23.0748H18.5972V20.8063H20.8657Z" fill="#111113"/>
</svg>
