<svg width="44" height="44" viewBox="0 0 44 44" fill="none" xmlns="http://www.w3.org/2000/svg">
<path d="M9 0C4.02944 0 0 4.02944 0 9V35C0 39.9706 4.02944 44 9 44H35C39.9706 44 44 39.9706 44 35V9C44 4.02944 39.9706 0 35 0H9Z" fill="#F1F3F9"/>
<path fill-rule="evenodd" clip-rule="evenodd" d="M26.6428 19.62C26.8074 19.5929 26.9756 19.6458 27.0955 19.7623C28.4894 21.1176 29.257 22.9316 29.257 24.8699C29.257 28.8007 26.0593 31.9986 22.1287 31.9986C18.8773 31.9986 16.041 29.7973 15.2312 26.6456C15.0778 26.0476 15 25.4503 15 24.8699C15 23.7308 15.2661 22.6357 15.791 21.6152C16.3075 20.612 17.067 19.7335 17.9874 19.0745C17.9928 19.0706 17.9982 19.0669 18.0037 19.0633C18.0376 19.0409 18.0739 19.0144 18.1122 18.9863L18.1162 18.9834C18.12 18.9806 18.1239 18.9777 18.1278 18.9749C18.1432 18.9637 18.1585 18.9524 18.174 18.9413C19.6375 17.894 20.5567 16.2705 20.6973 14.4859C20.7111 14.3098 20.8123 14.1523 20.9667 14.0665C21.1211 13.9806 21.3081 13.9778 21.4651 14.0589C23.268 14.9907 24.5915 16.6514 25.0962 18.6151C25.2497 19.2129 25.3275 19.8103 25.3275 20.3908C25.3275 20.6933 25.3078 20.9951 25.2686 21.295C25.6618 20.8798 25.9959 20.4101 26.259 19.899C26.3355 19.7504 26.4779 19.6469 26.6428 19.62ZM22 29C23.1046 29 24 27.9668 24 26.6923C24 25.4178 22 23 22 23C22 23 20 25.4178 20 26.6923C20 27.9668 20.8954 29 22 29Z" fill="#111113"/>
<path d="M26.7314 13.1538C26.7314 13.8973 26.1287 14.5 25.3852 14.5C24.6418 14.5 24.0391 13.8973 24.0391 13.1538C24.0391 12.4104 25.3852 11 25.3852 11C25.3852 11 26.7314 12.4104 26.7314 13.1538Z" fill="#111113"/>
</svg>
