<svg width="44" height="44" viewBox="0 0 44 44" fill="none" xmlns="http://www.w3.org/2000/svg">
<path d="M9 0C4.02944 0 0 4.02944 0 9V35C0 39.9706 4.02944 44 9 44H35C39.9706 44 44 39.9706 44 35V9C44 4.02944 39.9706 0 35 0H9Z" fill="#F1F3F9"/>
<g clip-path="url(#clip0_5929_36748)">
<path fill-rule="evenodd" clip-rule="evenodd" d="M16.9648 14.3828H27.1897C28.0368 14.3838 28.8489 14.7208 29.4479 15.3198C30.0469 15.9188 30.3839 16.731 30.3849 17.5781V25.0914L28.8077 23.5143C28.2087 22.9166 27.3971 22.581 26.5509 22.581C25.7048 22.581 24.8931 22.9166 24.2941 23.5143L23.3553 24.4524L21.1391 22.2361C20.5401 21.6385 19.7285 21.3028 18.8823 21.3028C18.0361 21.3028 17.2245 21.6385 16.6255 22.2361L13.7695 25.0914V17.5781C13.7705 16.731 14.1075 15.9188 14.7065 15.3198C15.3055 14.7208 16.1177 14.3838 16.9648 14.3828ZM23.8879 20.4503C24.2031 20.6609 24.5738 20.7734 24.953 20.7734C25.4614 20.7734 25.9491 20.5714 26.3086 20.2118C26.6681 19.8523 26.8701 19.3647 26.8701 18.8562C26.8701 18.477 26.7577 18.1063 26.547 17.7911C26.3364 17.4758 26.037 17.2301 25.6866 17.085C25.3363 16.9399 24.9508 16.9019 24.579 16.9759C24.2071 17.0498 23.8655 17.2324 23.5973 17.5006C23.3292 17.7687 23.1466 18.1103 23.0726 18.4822C22.9987 18.8541 23.0366 19.2395 23.1817 19.5899C23.3269 19.9402 23.5726 20.2396 23.8879 20.4503Z" fill="#111113"/>
<path d="M27.9035 24.415C27.5442 24.0571 27.0577 23.8562 26.5506 23.8562C26.0435 23.8562 25.557 24.0571 25.1977 24.415L23.8046 25.8081C23.685 25.9264 23.5235 25.9927 23.3553 25.9927C23.1871 25.9927 23.0257 25.9264 22.9061 25.8081L20.2348 23.1369C19.8755 22.779 19.3891 22.5781 18.882 22.5781C18.3749 22.5781 17.8884 22.779 17.5291 23.1369L13.7695 26.8984V27.802C13.7705 28.6491 14.1075 29.4613 14.7065 30.0603C15.3055 30.6593 16.1177 30.9962 16.9648 30.9973H27.1897C28.0368 30.9962 28.8489 30.6593 29.4479 30.0603C30.0469 29.4613 30.3839 28.6491 30.3849 27.802V26.8984L27.9035 24.415Z" fill="#111113"/>
</g>
<path d="M17.4615 7L19.2067 11.7163L23.9231 13.4615L19.2067 15.2067L17.4615 19.9231L15.7163 15.2067L11 13.4615L15.7163 11.7163L17.4615 7Z" fill="#F1F3F9"/>
<path d="M17.4618 9.76953L18.4591 12.4646L21.1542 13.4618L18.4591 14.4591L17.4618 17.1542L16.4646 14.4591L13.7695 13.4618L16.4646 12.4646L17.4618 9.76953Z" fill="#111113"/>
<defs>
<clipPath id="clip0_5929_36748">
<rect width="16.6154" height="16.6164" fill="white" transform="translate(13.7695 14.3828)"/>
</clipPath>
</defs>
</svg>
