<svg width="44" height="44" viewBox="0 0 44 44" fill="none" xmlns="http://www.w3.org/2000/svg">
<path d="M9 0C4.02944 0 0 4.02944 0 9V35C0 39.9706 4.02944 44 9 44H35C39.9706 44 44 39.9706 44 35V9C44 4.02944 39.9706 0 35 0H9Z" fill="#F1F3F9"/>
<g clip-path="url(#clip0_5929_36648)">
<g clip-path="url(#clip1_5929_36648)">
<path fill-rule="evenodd" clip-rule="evenodd" d="M28.9131 16.9653V19.182L30.4536 20.6755C30.8035 21.0275 30.9998 21.5036 30.9998 21.9999C30.9998 22.4962 30.8035 22.9724 30.4536 23.3243L28.9131 24.8648V27.0345C28.9131 27.5328 28.7152 28.0106 28.3629 28.3629C28.0106 28.7152 27.5328 28.9131 27.0345 28.9131H24.8648L23.3243 30.4536C22.9724 30.8035 22.4962 30.9998 21.9999 30.9998C21.5036 30.9998 21.0275 30.8035 20.6755 30.4536L19.182 28.9131H16.9653C16.4671 28.9131 15.9893 28.7152 15.6369 28.3629C15.2846 28.0106 15.0867 27.5328 15.0867 27.0345V24.8648L13.5463 23.3243C13.1964 22.9724 13 22.4962 13 21.9999C13 21.5036 13.1964 21.0275 13.5463 20.6755L15.0867 19.182V16.9653C15.0867 16.4671 15.2846 15.9893 15.6369 15.6369C15.9893 15.2846 16.4671 15.0867 16.9653 15.0867H19.182L20.6755 13.5463C21.0275 13.1964 21.5036 13 21.9999 13C22.4962 13 22.9724 13.1964 23.3243 13.5463L24.8648 15.0867H27.0345C27.5328 15.0867 28.0106 15.2846 28.3629 15.6369C28.7152 15.9893 28.9131 16.4671 28.9131 16.9653ZM20.9353 24.2786C21.0497 24.3254 21.1723 24.3491 21.2959 24.3483C21.4258 24.3542 21.5555 24.333 21.6767 24.2861C21.798 24.2392 21.9082 24.1676 22.0004 24.0759L24.8183 21.2581C24.9951 21.0712 25.0905 20.8218 25.0835 20.5646C25.0764 20.3074 24.9675 20.0636 24.7807 19.8867C24.5938 19.7098 24.3444 19.6144 24.0872 19.6215C23.83 19.6285 23.5862 19.7374 23.4093 19.9243L21.2583 22.0846L20.5163 21.3332C20.3394 21.1563 20.0995 21.057 19.8494 21.057C19.5993 21.057 19.3594 21.1563 19.1825 21.3332C19.0056 21.5101 18.9062 21.75 18.9062 22.0001C18.9062 22.2502 19.0056 22.4901 19.1825 22.667L20.629 24.0759C20.7168 24.163 20.8209 24.2319 20.9353 24.2786Z" fill="#111113"/>
</g>
</g>
<defs>
<clipPath id="clip0_5929_36648">
<rect width="17.9998" height="17.9998" fill="white" transform="translate(13 13)"/>
</clipPath>
<clipPath id="clip1_5929_36648">
<rect width="17.9998" height="17.9998" fill="white" transform="translate(13 13)"/>
</clipPath>
</defs>
</svg>
