<svg width="44" height="44" viewBox="0 0 44 44" fill="none" xmlns="http://www.w3.org/2000/svg">
<path d="M9 0C4.02944 0 0 4.02944 0 9V35C0 39.9706 4.02944 44 9 44H35C39.9706 44 44 39.9706 44 35V9C44 4.02944 39.9706 0 35 0H9Z" fill="#F1F3F9"/>
<path fill-rule="evenodd" clip-rule="evenodd" d="M19.7071 14.2929C19.8946 14.4804 20 14.7348 20 15V16H18V15C18 14.7348 18.1054 14.4804 18.2929 14.2929C18.4804 14.1054 18.7348 14 19 14C19.2652 14 19.5196 14.1054 19.7071 14.2929ZM26 16H27.993C28.5242 16.0008 29.0335 16.2118 29.4095 16.5869C29.7856 16.9621 29.9979 17.4708 30 18.002V27.998C29.9997 28.2613 29.9476 28.5219 29.8466 28.765C29.7456 29.0081 29.5977 29.2289 29.4113 29.4148C29.2249 29.6007 29.0037 29.7481 28.7604 29.8485C28.517 29.9489 28.2563 30.0004 27.993 30H16.007C14.9 30 14 29.098 14 27.998V18.002C14.0003 17.7387 14.0524 17.4781 14.1534 17.235C14.2544 16.9919 14.4023 16.7711 14.5887 16.5852C14.7751 16.3993 14.9963 16.2519 15.2396 16.1515C15.483 16.0511 15.7437 15.9996 16.007 16H18V19C18 19.2652 18.1054 19.5196 18.2929 19.7071C18.4804 19.8946 18.7348 20 19 20C19.2652 20 19.5196 19.8946 19.7071 19.7071C19.8946 19.5196 20 19.2652 20 19V16H24V19C24 19.2652 24.1054 19.5196 24.2929 19.7071C24.4804 19.8946 24.7348 20 25 20C25.2652 20 25.5196 19.8946 25.7071 19.7071C25.8946 19.5196 26 19.2652 26 19V16ZM26 16H24V15C24 14.7348 24.1054 14.4804 24.2929 14.2929C24.4804 14.1054 24.7348 14 25 14C25.2652 14 25.5196 14.1054 25.7071 14.2929C25.8946 14.4804 26 14.7348 26 15V16ZM19 21C19.2652 21 19.5196 21.1054 19.7071 21.2929C19.8946 21.4804 20 21.7348 20 22C20 22.2652 19.8946 22.5196 19.7071 22.7071C19.5196 22.8946 19.2652 23 19 23C18.7348 23 18.4804 22.8946 18.2929 22.7071C18.1054 22.5196 18 22.2652 18 22C18 21.7348 18.1054 21.4804 18.2929 21.2929C18.4804 21.1054 18.7348 21 19 21ZM19 24C19.2652 24 19.5196 24.1054 19.7071 24.2929C19.8946 24.4804 20 24.7348 20 25C20 25.2652 19.8946 25.5196 19.7071 25.7071C19.5196 25.8946 19.2652 26 19 26C18.7348 26 18.4804 25.8946 18.2929 25.7071C18.1054 25.5196 18 25.2652 18 25C18 24.7348 18.1054 24.4804 18.2929 24.2929C18.4804 24.1054 18.7348 24 19 24ZM22 24C22.2652 24 22.5196 24.1054 22.7071 24.2929C22.8946 24.4804 23 24.7348 23 25C23 25.2652 22.8946 25.5196 22.7071 25.7071C22.5196 25.8946 22.2652 26 22 26C21.7348 26 21.4804 25.8946 21.2929 25.7071C21.1054 25.5196 21 25.2652 21 25C21 24.7348 21.1054 24.4804 21.2929 24.2929C21.4804 24.1054 21.7348 24 22 24ZM25.7071 24.2929C25.5196 24.1054 25.2652 24 25 24C24.7348 24 24.4804 24.1054 24.2929 24.2929C24.1054 24.4804 24 24.7348 24 25C24 25.2652 24.1054 25.5196 24.2929 25.7071C24.4804 25.8946 24.7348 26 25 26C25.2652 26 25.5196 25.8946 25.7071 25.7071C25.8946 25.5196 26 25.2652 26 25C26 24.7348 25.8946 24.4804 25.7071 24.2929ZM22.7071 21.2929C22.5196 21.1054 22.2652 21 22 21C21.7348 21 21.4804 21.1054 21.2929 21.2929C21.1054 21.4804 21 21.7348 21 22C21 22.2652 21.1054 22.5196 21.2929 22.7071C21.4804 22.8946 21.7348 23 22 23C22.2652 23 22.5196 22.8946 22.7071 22.7071C22.8946 22.5196 23 22.2652 23 22C23 21.7348 22.8946 21.4804 22.7071 21.2929ZM25 21C25.2652 21 25.5196 21.1054 25.7071 21.2929C25.8946 21.4804 26 21.7348 26 22C26 22.2652 25.8946 22.5196 25.7071 22.7071C25.5196 22.8946 25.2652 23 25 23C24.7348 23 24.4804 22.8946 24.2929 22.7071C24.1054 22.5196 24 22.2652 24 22C24 21.7348 24.1054 21.4804 24.2929 21.2929C24.4804 21.1054 24.7348 21 25 21Z" fill="#111113"/>
</svg>
