<svg width="44" height="44" viewBox="0 0 44 44" fill="none" xmlns="http://www.w3.org/2000/svg">
<path d="M9 0C4.02944 0 0 4.02944 0 9V35C0 39.9706 4.02944 44 9 44H35C39.9706 44 44 39.9706 44 35V9C44 4.02944 39.9706 0 35 0H9Z" fill="#F1F3F9"/>
<path d="M21.0782 18.738V15.6675C21.044 13.7617 18.4154 13.3527 17.8079 15.1583L17.6982 15.5023L17.3375 15.4843C16.191 15.4143 15.2377 16.4536 15.4019 17.5891C15.4351 17.5878 15.4685 17.5871 15.502 17.5871H15.9359V18.5254H15.502C13.4986 18.6086 13.5001 21.4627 15.502 21.5451H15.6226V22.4834H15.502C13.4986 22.5665 13.5001 25.4206 15.502 25.503H15.9359V26.4413H15.502C15.4673 26.4413 15.4327 26.4406 15.3983 26.4392C15.2539 27.5668 16.2017 28.5837 17.3375 28.5153L17.6982 28.4973L17.8079 28.8413C18.4161 30.6479 21.0444 30.2366 21.0782 28.3321V25.9034V18.738Z" fill="#111113"/>
<path d="M22.7851 18.738V15.6675C22.8193 13.7617 25.4479 13.3527 26.0554 15.1583L26.1651 15.5023L26.5258 15.4843C27.6723 15.4143 28.6256 16.4536 28.4614 17.5891C28.4282 17.5878 28.3948 17.5871 28.3613 17.5871H27.9274V18.5254H28.3612C30.3647 18.6086 30.3632 21.4627 28.3612 21.5451H28.2407V22.4834H28.3612C30.3647 22.5665 30.3632 25.4206 28.3612 25.503H27.9274V26.4413H28.3612C28.396 26.4413 28.4306 26.4406 28.465 26.4392C28.6094 27.5668 27.6616 28.5837 26.5258 28.5153L26.1651 28.4973L26.0554 28.8413C25.4472 30.6479 22.8188 30.2366 22.7851 28.3321V25.9034V18.738Z" fill="#111113"/>
<path d="M22.1662 31.3334C22.5344 31.3334 22.8329 31.6318 22.8329 32V33.3334C22.8329 33.7016 22.5344 34 22.1662 34C21.798 34 21.4995 33.7016 21.4995 33.3334V32C21.4995 31.6318 21.798 31.3334 22.1662 31.3334Z" fill="#111113"/>
<path d="M14.0082 26.5373C14.1923 26.8561 14.0831 27.2638 13.7642 27.4479L12.6095 28.1146C12.2906 28.2987 11.8829 28.1895 11.6988 27.8706C11.5147 27.5517 11.624 27.144 11.9428 26.9599L13.0975 26.2932C13.4164 26.1091 13.8241 26.2184 14.0082 26.5373Z" fill="#111113"/>
<path d="M30.3225 26.5383C30.5066 26.2194 30.9143 26.1102 31.2331 26.2943L32.3878 26.961C32.7067 27.1451 32.816 27.5528 32.6319 27.8716C32.4478 28.1905 32.04 28.2998 31.7212 28.1157L30.5665 27.449C30.2476 27.2649 30.1384 26.8572 30.3225 26.5383Z" fill="#111113"/>
<path d="M22.1662 10C22.5344 10 22.8329 10.2985 22.8329 10.6667V12C22.8329 12.3682 22.5344 12.6667 22.1662 12.6667C21.798 12.6667 21.4995 12.3682 21.4995 12V10.6667C21.4995 10.2985 21.798 10 22.1662 10Z" fill="#111113"/>
<path d="M32.6315 16.1293C32.8156 16.4481 32.7063 16.8558 32.3875 17.0399L31.2328 17.7066C30.9139 17.8907 30.5062 17.7815 30.3221 17.4626C30.138 17.1437 30.2472 16.736 30.5661 16.5519L31.7208 15.8852C32.0397 15.7011 32.4474 15.8104 32.6315 16.1293Z" fill="#111113"/>
<path d="M11.7009 16.1286C11.885 15.8097 12.2927 15.7005 12.6116 15.8846L13.7663 16.5512C14.0852 16.7353 14.1944 17.143 14.0103 17.4619C13.8262 17.7808 13.4185 17.89 13.0996 17.7059L11.9449 17.0393C11.6261 16.8552 11.5168 16.4474 11.7009 16.1286Z" fill="#111113"/>
</svg>
