<svg width="44" height="44" viewBox="0 0 44 44" fill="none" xmlns="http://www.w3.org/2000/svg">
<path d="M9 0C4.02944 0 0 4.02944 0 9V35C0 39.9706 4.02944 44 9 44H35C39.9706 44 44 39.9706 44 35V9C44 4.02944 39.9706 0 35 0H9Z" fill="#F1F3F9"/>
<path fill-rule="evenodd" clip-rule="evenodd" d="M14 21C17.3137 21 20 18.3137 20 15C20 11.6863 17.3137 9 14 9C10.6863 9 8 11.6863 8 15C8 18.3137 10.6863 21 14 21ZM13.9048 12.3946C13.9168 12.3966 13.9288 12.3986 13.9408 12.3986C14.2368 12.4386 14.4688 12.6866 14.4688 12.9906V17.3906C14.4688 17.7186 14.1968 17.9906 13.8688 17.9906C13.5328 17.9906 13.2768 17.7186 13.2768 17.3906V13.4466H12.8208C12.5328 13.4466 12.3008 13.2066 12.3008 12.9186C12.3008 12.6306 12.5328 12.3906 12.8208 12.3906H13.8688C13.8808 12.3906 13.8928 12.3926 13.9048 12.3946ZM30 21C33.3137 21 36 18.3137 36 15C36 11.6863 33.3137 9 30 9C26.6863 9 24 11.6863 24 15C24 18.3137 26.6863 21 30 21ZM31.1173 15.0169L29.8533 16.5529H31.0853C31.3813 16.5529 31.6213 16.7929 31.6213 17.0809C31.6213 17.3689 31.3813 17.6089 31.0853 17.6089H28.7333H28.7253C28.6053 17.6089 28.4933 17.5609 28.3893 17.4889C28.1653 17.2969 28.1333 16.9609 28.3253 16.7369L30.3413 14.3129L30.3573 14.2969C30.6373 14.0089 30.6373 13.5449 30.3493 13.2649C30.0533 12.9769 29.5893 12.9849 29.3093 13.2729L29.1333 13.4489C28.9253 13.6569 28.5973 13.6569 28.3813 13.4569C28.1813 13.2489 28.1733 12.9209 28.3813 12.7129L28.5573 12.5289C28.7253 12.3609 28.9253 12.2249 29.1413 12.1369C29.3573 12.0409 29.5813 12.0009 29.8213 12.0009C30.0453 11.9929 30.2773 12.0409 30.4853 12.1209C30.7093 12.2089 30.9093 12.3449 31.0853 12.5129C31.2533 12.6729 31.3893 12.8809 31.4853 13.0969C31.5733 13.3129 31.6213 13.5369 31.6213 13.7689C31.6213 14.0009 31.5813 14.2249 31.4933 14.4409C31.4053 14.6569 31.2773 14.8489 31.1173 15.0169ZM28 29C28 32.3137 25.3137 35 22 35C18.6863 35 16 32.3137 16 29C16 25.6863 18.6863 23 22 23C25.3137 23 28 25.6863 28 29ZM23.5481 29.4624C23.4601 29.2464 23.3321 29.0544 23.1641 28.8864C23.1641 28.883 23.1641 28.8811 23.1635 28.8793C23.1629 28.8779 23.162 28.8766 23.1602 28.8746L23.1561 28.8704C23.3321 28.6064 23.4361 28.2864 23.4361 27.9584C23.4361 27.5504 23.2841 27.1584 22.9881 26.8624C22.6921 26.5664 22.2921 26.3984 21.8761 26.3984C21.4041 26.3984 20.9721 26.6064 20.6681 26.9584C20.4601 27.2144 20.4921 27.5824 20.7481 27.7904C20.9961 27.9984 21.3641 27.9664 21.5801 27.7184C21.6521 27.6304 21.7561 27.5824 21.8761 27.5824C22.0841 27.5824 22.2601 27.7504 22.2601 27.9584C22.2601 28.1744 22.0841 28.3424 21.8761 28.3424C21.5401 28.3424 21.2761 28.6064 21.2761 28.9344V28.9424C21.2761 29.2704 21.5401 29.5264 21.8761 29.5264C22.2281 29.5264 22.5241 29.8144 22.5241 30.1664C22.5241 30.5184 22.2281 30.8064 21.8761 30.8064C21.6441 30.8064 21.4361 30.6864 21.3161 30.5024C21.1481 30.2144 20.7881 30.1264 20.5001 30.2944C20.2281 30.4624 20.1401 30.8144 20.3081 31.1024C20.4601 31.3664 20.6841 31.5904 20.9561 31.7504C21.2281 31.9104 21.5481 31.9984 21.8761 31.9984C22.1241 31.9984 22.3561 31.9504 22.5881 31.8544C22.8041 31.7584 22.9961 31.6224 23.1641 31.4544C23.3321 31.2864 23.4601 31.0944 23.5481 30.8784C23.6521 30.6464 23.7001 30.4224 23.7001 30.1664C23.7001 29.9264 23.6521 29.6864 23.5481 29.4624ZM22.6122 14.5C22.8883 14.5 23.1122 14.7239 23.1122 15C23.1122 15.2455 22.9353 15.4496 22.702 15.4919L22.6122 15.5H21.3984C21.1223 15.5 20.8984 15.2761 20.8984 15C20.8984 14.7545 21.0753 14.5504 21.3086 14.5081L21.3984 14.5H22.6122ZM26.6716 21.1034C26.4396 20.9537 26.1301 21.0203 25.9804 21.2523L25.4628 22.0541L25.4208 22.134C25.3299 22.353 25.4055 22.6123 25.6117 22.7454C25.8437 22.8952 26.1532 22.8285 26.303 22.5965L26.8205 21.7947L26.8625 21.7148C26.9535 21.4959 26.8779 21.2365 26.6716 21.1034Z" fill="#111113"/>
</svg>
