<svg width="55" height="55" viewBox="0 0 55 55" fill="none" xmlns="http://www.w3.org/2000/svg">
<circle cx="27.5" cy="27.5" r="27.5" fill="white"/>
<g opacity="0.75">
<path fill-rule="evenodd" clip-rule="evenodd" d="M24.0308 25.0613C23.7951 24.9336 23.6247 24.6719 23.5992 24.3983C23.5481 23.8505 23.5541 23.863 23.2971 23.7664C23.1622 23.7157 22.8952 23.5895 22.7036 23.4859L22.3553 23.2975L22.0841 23.4806C21.7689 23.6933 21.4614 23.7722 21.2118 23.7041C21.0296 23.6545 20.4132 23.0363 20.2053 22.6948C20.1298 22.5707 20.0984 22.4206 20.1123 22.2506C20.1354 21.9664 20.2098 21.821 20.4896 21.5124L20.6777 21.3048L20.5631 21.0341C20.5 20.8851 20.4118 20.6244 20.3672 20.4548L20.2859 20.1462L19.8852 20.0445C19.1683 19.8626 19.0296 19.6649 19.0485 18.8519C19.0707 17.8991 19.2838 17.6114 20.0234 17.5355L20.4596 17.4907L20.6153 17.141C20.701 16.9486 20.8109 16.72 20.8595 16.6329C20.9352 16.4972 20.9349 16.4539 20.8574 16.3303C20.4284 15.6462 20.384 15.4577 20.5674 15.0972C20.6973 14.8418 21.499 14.1552 21.7195 14.1104C21.9793 14.0577 22.2536 14.1593 22.6003 14.4369L22.9064 14.6819L23.3242 14.52C23.554 14.4309 23.7667 14.3592 23.7969 14.3608C23.9444 14.3681 24.0233 14.2384 24.0928 13.8738C24.1788 13.4229 24.2969 13.232 24.5832 13.0807C24.748 12.9936 24.8921 12.9834 25.4411 13.0198L26.1009 13.0635L26.3006 13.2734C26.5103 13.494 26.611 13.7757 26.5916 14.0881C26.5853 14.1909 26.598 14.3039 26.6198 14.3393C26.6416 14.3746 26.8682 14.5016 27.1233 14.6213C27.3784 14.7411 27.6264 14.8595 27.6743 14.8845C27.7283 14.9127 27.8858 14.8479 28.0889 14.7139C28.694 14.3145 28.9731 14.3646 29.5311 14.9728C29.7452 15.2063 29.9538 15.4748 29.9944 15.5694C30.1481 15.9268 30.0107 16.3616 29.6277 16.7304L29.4962 16.857L29.6779 17.3386C29.7779 17.6035 29.8731 17.8823 29.8895 17.9583C29.9133 18.0679 29.9646 18.1004 30.1384 18.1156C30.5244 18.1495 30.8008 18.2924 30.9809 18.5508C31.1482 18.7912 31.1499 18.8038 31.1055 19.4711C31.0624 20.1179 31.0525 20.1568 30.8805 20.3559C30.7036 20.5606 30.6106 20.5958 30.0158 20.6838C29.796 20.7163 29.7717 20.7413 29.6102 21.1001C29.2594 21.8797 29.2677 21.8331 29.4379 22.0674C29.8325 22.6105 29.7931 22.9948 29.2932 23.4797C28.5693 24.1818 28.2071 24.2639 27.6829 23.8448C27.524 23.7178 27.3659 23.612 27.3314 23.6097C27.2969 23.6074 27.1103 23.6729 26.9166 23.7553C26.723 23.8376 26.4619 23.9312 26.3364 23.9632C26.1244 24.0174 26.1072 24.0381 26.0926 24.2565C26.0704 24.5907 25.8848 24.9443 25.6571 25.0862C25.4898 25.1906 25.3719 25.2045 24.8353 25.1829C24.3957 25.1652 24.1557 25.129 24.0308 25.0613ZM25.6963 21.2301C26.2512 21.0872 26.9069 20.4998 27.0964 19.9759C27.3345 19.3176 27.2848 18.6371 26.9566 18.0605C26.7255 17.6546 26.4493 17.3996 26.0062 17.1831C25.2245 16.8012 24.1623 17.0056 23.5673 17.6523C22.7663 18.523 22.7676 19.8111 23.5703 20.6493C24.1299 21.2335 24.8836 21.4394 25.6963 21.2301Z" fill="#111113"/>
<path fill-rule="evenodd" clip-rule="evenodd" d="M35.0023 34.7742C34.0106 34.614 33.8198 34.4146 33.817 33.5353L33.8154 33.0211L33.5201 32.8714C33.3577 32.789 33.0485 32.5987 32.8332 32.4483C32.4794 32.2014 32.4288 32.1822 32.3084 32.2491C31.6645 32.6065 31.485 32.677 31.2573 32.6619C30.9326 32.6402 30.7461 32.4765 30.2508 31.7782C29.7566 31.0815 29.7215 31.0047 29.7439 30.6678C29.7634 30.3766 29.8496 30.2491 30.3246 29.8096L30.6067 29.5486L30.4882 29.1249C30.423 28.892 30.3462 28.5579 30.3175 28.3826C30.2612 28.0386 30.2738 28.0487 29.7191 27.8992C29.2623 27.7759 29.0704 27.6555 28.9374 27.4083C28.8381 27.224 28.8364 27.1434 28.9165 26.4266C29.0199 25.5016 29.093 25.263 29.3398 25.0445C29.5549 24.8541 29.7462 24.8189 30.3471 24.8589L30.7856 24.8881L30.9796 24.523C31.0862 24.3221 31.2548 24.0452 31.3541 23.9075L31.5347 23.6572L31.265 23.174C30.929 22.572 30.8994 22.3856 31.0871 22.0524C31.237 21.7861 32.3236 20.9366 32.6396 20.8387C33.0285 20.7181 33.3212 20.8666 33.8369 21.446L34.0969 21.738L34.4836 21.6123C34.6963 21.5432 35.0121 21.4628 35.1854 21.4337C35.3837 21.4003 35.5131 21.3443 35.5342 21.2825C35.5527 21.2285 35.6261 20.9772 35.6975 20.7239C35.9355 19.8787 36.1809 19.7627 37.3446 19.9455C38.5279 20.1315 38.7039 20.2997 38.6761 21.2176L38.6589 21.79L39.1286 22.0558C39.3869 22.2021 39.6908 22.3871 39.8037 22.4671L40.0092 22.6125L40.4513 22.356C40.9604 22.0608 41.3088 22.0077 41.594 22.182C41.7892 22.3013 42.5965 23.3595 42.7289 23.6697C42.8991 24.0687 42.8027 24.3272 42.3052 24.8064C42.1105 24.9938 41.9489 25.1847 41.9458 25.2306C41.9428 25.2766 41.9778 25.422 42.0237 25.5539C42.0695 25.6858 42.15 25.9988 42.2025 26.2495L42.2979 26.7054L42.7544 26.8361C43.2538 26.979 43.4643 27.1246 43.6158 27.4318C43.7085 27.6196 43.7068 27.6854 43.5901 28.452C43.3972 29.7181 43.2498 29.8888 42.3507 29.8875L41.8051 29.8866L41.6111 30.2732C41.5044 30.4859 41.3399 30.7669 41.2456 30.8979C41.1512 31.0289 41.0727 31.1549 41.0712 31.1781C41.0696 31.2013 41.1705 31.4047 41.2952 31.63C41.495 31.9908 41.5193 32.0807 41.4991 32.3839C41.472 32.7898 41.4481 32.8178 40.5662 33.4694C39.7181 34.0961 39.4497 34.0984 38.8755 33.484L38.5364 33.1212L38.1617 33.2361C37.9557 33.2994 37.6236 33.3819 37.4238 33.4194C36.9961 33.4998 36.9327 33.5564 36.8531 33.9296C36.7516 34.4047 36.5716 34.6868 36.2922 34.8081C36.0246 34.9244 35.9144 34.9215 35.0023 34.7742ZM37.0852 29.9749C37.27 29.9159 37.5614 29.774 37.7326 29.6596C39.4499 28.5129 39.2535 25.8818 37.3859 25.0129C36.8902 24.7823 36.0006 24.7259 35.4898 24.8926C34.7752 25.1259 34.1222 25.7398 33.8491 26.435C33.716 26.7737 33.6889 26.9329 33.6801 27.4262C33.6709 27.937 33.6914 28.066 33.8373 28.4128C34.1393 29.1312 34.7881 29.76 35.448 29.9738C35.8257 30.0961 36.7039 30.0967 37.0852 29.9749Z" fill="#111113"/>
<path fill-rule="evenodd" clip-rule="evenodd" d="M18.7774 42.1232C18.7937 42.5751 18.9323 42.9481 19.1402 43.0984C19.2768 43.1973 19.471 43.2249 20.5433 43.2978C21.7854 43.3821 21.7881 43.382 21.9962 43.2425C22.2759 43.055 22.3252 42.9616 22.4323 42.4159C22.5415 41.859 22.5655 41.6719 22.6715 41.5844C22.7394 41.5284 22.8408 41.5131 23.0197 41.4678C23.2444 41.4109 23.6569 41.2699 23.9364 41.1546L24.4445 40.9449L24.7554 41.2295C25.5366 41.9444 25.7623 42.0235 26.2461 41.7517C26.6372 41.5319 27.8674 40.403 27.9928 40.1485C28.2007 39.7271 28.1694 39.6042 27.6612 38.8424L27.3222 38.3345L27.5438 37.9576C27.6657 37.7503 27.8415 37.3852 27.9344 37.1463C28.1286 36.6473 28.1364 36.6428 28.8268 36.6249C29.4073 36.61 29.6247 36.5416 29.8527 36.3019L30.0265 36.1192L30.1108 34.8534C30.2067 33.4146 30.189 33.32 29.781 33.092C29.6535 33.0207 29.2847 32.9142 28.9613 32.8552C28.6381 32.7962 28.3707 32.7419 28.3673 32.7345C28.3638 32.727 28.3352 32.5967 28.3036 32.4449C28.2721 32.2931 28.145 31.9067 28.0212 31.5863C27.8974 31.2659 27.7974 30.9838 27.7991 30.9593C27.8007 30.9349 27.9724 30.7254 28.1808 30.4938C29.0445 29.5335 29.0288 29.405 27.8913 28.1177C27.0522 27.168 26.9286 27.0868 26.5009 27.2047C26.3729 27.2399 26.026 27.4352 25.7299 27.6386L25.1916 28.0085L24.8579 27.8093C24.6743 27.6999 24.3148 27.5206 24.059 27.411C23.8032 27.3014 23.5654 27.1867 23.5306 27.156C23.4957 27.1253 23.4633 26.8759 23.4587 26.6017C23.4432 25.6931 23.3424 25.4169 22.9554 25.2221C22.6732 25.08 20.6922 24.9429 20.4028 25.0454C20.0361 25.1753 19.918 25.3503 19.7856 25.9594C19.7191 26.2656 19.6589 26.6009 19.6517 26.7046C19.6359 26.9337 19.589 26.9674 19.0861 27.1104C18.8682 27.1723 18.5315 27.2906 18.3378 27.3732C18.1442 27.4558 17.956 27.5214 17.9198 27.519C17.8835 27.5166 17.6722 27.345 17.4501 27.1378C16.8786 26.6043 16.7539 26.5233 16.4668 26.4999C16.1118 26.4707 15.9144 26.5937 15.0198 27.4015C13.9443 28.3727 13.9037 28.5306 14.497 29.437C14.6956 29.7405 14.8816 30.0272 14.9102 30.0741C14.9461 30.1329 14.9123 30.256 14.8021 30.469C14.7139 30.6393 14.5658 30.9368 14.473 31.1302C14.3802 31.3237 14.2753 31.5413 14.24 31.6137C14.1918 31.7123 14.1264 31.7424 13.9807 31.733C13.8736 31.7261 13.5332 31.7418 13.2244 31.7678C12.7952 31.8041 12.6249 31.8461 12.5022 31.9461C12.2063 32.1873 12.1582 32.3693 12.0801 33.5415C11.9705 35.1866 12.0341 35.2934 13.2561 35.5153L13.8687 35.6265L14.0033 36.139C14.0774 36.4209 14.2054 36.8269 14.2877 37.0412L14.4375 37.431L13.9952 37.9272C13.5295 38.4495 13.3911 38.7218 13.4308 39.037C13.4594 39.2652 14.8334 40.9199 15.1361 41.0908C15.5176 41.3062 15.7551 41.2428 16.4882 40.7297L16.9416 40.4124L17.3593 40.6689C17.589 40.8099 17.9913 41.0142 18.2533 41.123C18.4856 41.2195 18.6091 41.2592 18.6771 41.3437C18.7655 41.4535 18.76 41.639 18.7774 42.1232ZM24.1559 35.4439C23.7617 36.4671 22.7506 37.2938 21.6698 37.4766C19.4531 37.8517 17.5195 35.8083 17.9895 33.5872C18.2615 32.3018 19.3755 31.2386 20.6713 31.0275C21.1188 30.9546 21.9897 31.0687 22.4184 31.2564C23.3163 31.6494 24.0538 32.5361 24.2877 33.5037C24.4218 34.0583 24.3644 34.9028 24.1559 35.4439Z" fill="#111113"/>
</g>
</svg>
